<svg xmlns="http://www.w3.org/2000/svg" width="328" height="100" viewBox="0 0 328 100" fill="none"><path d="M322.891 16.5494H324.615L323.235 16.9663C320.914 17.6675 319.326 19.8063 319.326 22.2314V95C319.326 97.4853 317.311 99.5 314.826 99.5H5C2.51472 99.5 0.5 97.4853 0.5 95V5C0.5 2.51472 2.51472 0.5 5 0.5H314.826C317.311 0.5 319.326 2.51472 319.326 5V9.50628C319.326 11.7944 320.742 13.8435 322.883 14.6517L325.26 15.5494H322.891V16.5494Z" stroke="#CDAF50"></path><path d="M29.6344 54H28.8418C28.8333 53.7017 28.7736 53.4261 28.6628 53.1733C28.552 52.9176 28.3972 52.6946 28.1983 52.5043C27.9995 52.3139 27.7623 52.1662 27.4867 52.0611C27.214 51.956 26.9086 51.9034 26.5705 51.9034C26.0137 51.9034 25.481 52.0497 24.9725 52.3423C24.464 52.6321 24.0265 53.0582 23.66 53.6207C23.2935 54.1832 23.0435 54.8707 22.91 55.6832C22.7765 56.4844 22.7978 57.1591 22.9739 57.7074C23.15 58.2528 23.4384 58.6662 23.839 58.9474C24.2424 59.2287 24.7154 59.3693 25.258 59.3693C25.6046 59.3693 25.937 59.3168 26.2551 59.2116C26.5733 59.1065 26.8659 58.9602 27.133 58.7727C27.4 58.5824 27.6344 58.3594 27.8361 58.1037C28.0378 57.848 28.1941 57.571 28.3049 57.2727H29.106C28.9668 57.6733 28.7722 58.0469 28.5222 58.3935C28.2722 58.7372 27.9767 59.0384 27.6358 59.2969C27.2978 59.5554 26.9242 59.7571 26.5151 59.902C26.1088 60.0469 25.677 60.1193 25.2196 60.1193C24.4753 60.1193 23.8461 59.9332 23.3319 59.5611C22.8205 59.1889 22.4569 58.6648 22.2409 57.9886C22.0279 57.3097 21.998 56.5099 22.1515 55.5895C22.302 54.6861 22.5904 53.902 23.0165 53.2372C23.4455 52.5724 23.9711 52.0597 24.5932 51.6989C25.2154 51.3352 25.8915 51.1534 26.6216 51.1534C27.0875 51.1534 27.5051 51.2259 27.8745 51.3707C28.2438 51.5128 28.5577 51.7145 28.8162 51.9759C29.0776 52.2344 29.2779 52.5355 29.4171 52.8793C29.5563 53.223 29.6287 53.5966 29.6344 54ZM34.9366 57.4986L35.6142 53.4545H36.3727L35.2818 60H34.5233L34.7022 58.9134H34.6468C34.4423 59.2486 34.1525 59.5284 33.7775 59.7528C33.4054 59.9744 32.9792 60.0852 32.4991 60.0852C32.0815 60.0852 31.725 59.9943 31.4295 59.8125C31.1369 59.6278 30.9281 59.358 30.8031 59.0028C30.6781 58.6477 30.6582 58.2116 30.7434 57.6946L31.4551 53.4545H32.2136L31.5147 57.6477C31.4324 58.1591 31.5147 58.571 31.7619 58.8835C32.0119 59.1932 32.3727 59.348 32.8443 59.348C33.1397 59.348 33.4352 59.277 33.7306 59.1349C34.0289 58.9929 34.2875 58.7855 34.5062 58.5128C34.7278 58.2372 34.8713 57.8991 34.9366 57.4986ZM37.29 60L38.3809 53.4545H39.1181L38.9476 54.4602H39.003C39.1848 54.1307 39.4561 53.8651 39.8169 53.6634C40.1806 53.4588 40.5684 53.3565 40.9803 53.3565C41.0428 53.3565 41.1124 53.358 41.1891 53.3608C41.2658 53.3608 41.3297 53.3636 41.3809 53.3693L41.2488 54.1406C41.2147 54.1349 41.155 54.1264 41.0698 54.1151C40.9874 54.1037 40.8951 54.098 40.7928 54.098C40.4519 54.098 40.1365 54.1705 39.8468 54.3153C39.5598 54.4574 39.3184 54.6548 39.1223 54.9077C38.9292 55.1605 38.8042 55.4489 38.7473 55.7727L38.0485 60H37.29ZM46.829 54.8906L46.1003 55.0781C46.0634 54.8821 45.9952 54.706 45.8958 54.5497C45.7992 54.3906 45.6586 54.2656 45.4739 54.1747C45.2921 54.081 45.0534 54.0341 44.758 54.0341C44.3148 54.0341 43.9327 54.142 43.6117 54.358C43.2907 54.571 43.1032 54.8437 43.0492 55.1761C43.0037 55.4545 43.062 55.6804 43.2239 55.8537C43.3887 56.027 43.6642 56.1634 44.0506 56.2628L45.0051 56.5057C45.5336 56.642 45.91 56.8551 46.1344 57.1449C46.3617 57.4347 46.4398 57.8011 46.3688 58.2443C46.3063 58.6136 46.1486 58.9403 45.8958 59.2244C45.6458 59.5085 45.3248 59.7315 44.9327 59.8935C44.5435 60.0554 44.1088 60.1364 43.6287 60.1364C42.9838 60.1364 42.4767 59.9915 42.1074 59.7017C41.7409 59.4119 41.5449 58.9943 41.5194 58.4489L42.2821 58.2784C42.3049 58.6648 42.437 58.9574 42.6784 59.1562C42.9228 59.3551 43.2665 59.4545 43.7097 59.4545C44.2154 59.4545 44.6401 59.3395 44.9838 59.1094C45.3276 58.8793 45.525 58.5952 45.5762 58.2571C45.6245 57.9901 45.5748 57.7685 45.427 57.5923C45.2821 57.4162 45.035 57.2855 44.6855 57.2003L43.6671 56.9446C43.1188 56.8054 42.731 56.5881 42.5037 56.2926C42.2793 55.9943 42.204 55.6264 42.2779 55.1889C42.3375 54.8281 42.4881 54.5114 42.7296 54.2386C42.9711 53.9659 43.2765 53.7528 43.6458 53.5994C44.0151 53.4432 44.4185 53.3651 44.856 53.3651C45.4583 53.3651 45.9171 53.5014 46.2324 53.7741C46.5478 54.044 46.7466 54.4162 46.829 54.8906ZM50.3052 60.1364C49.7314 60.1364 49.2484 59.9915 48.8564 59.7017C48.4643 59.4091 48.1873 59.0043 48.0254 58.4872C47.8635 57.9702 47.8365 57.3736 47.9444 56.6974C48.0524 56.0384 48.2669 55.4588 48.5879 54.9588C48.9118 54.456 49.3095 54.0653 49.7811 53.7869C50.2527 53.5057 50.7654 53.3651 51.3194 53.3651C51.8961 53.3651 52.3791 53.5114 52.7683 53.804C53.1603 54.0966 53.4373 54.5014 53.5993 55.0185C53.764 55.5355 53.7924 56.1335 53.6845 56.8125C53.5765 57.4688 53.3606 58.0469 53.0368 58.5469C52.7129 59.044 52.3152 59.4332 51.8436 59.7145C51.3748 59.9957 50.862 60.1364 50.3052 60.1364ZM50.3137 59.4418C50.7797 59.4418 51.1944 59.3182 51.5581 59.071C51.9245 58.821 52.2271 58.4886 52.4657 58.0739C52.7044 57.6562 52.8649 57.1974 52.9473 56.6974C53.024 56.2202 53.0154 55.7812 52.9217 55.3807C52.8279 54.9801 52.6475 54.6591 52.3805 54.4176C52.1135 54.1761 51.7583 54.0554 51.3152 54.0554C50.8521 54.0554 50.4373 54.1818 50.0708 54.4347C49.7044 54.6847 49.4018 55.0199 49.1632 55.4403C48.9245 55.858 48.7654 56.3153 48.6859 56.8125C48.6064 57.2926 48.612 57.7315 48.7029 58.1293C48.7967 58.527 48.9771 58.8452 49.2441 59.0838C49.514 59.3224 49.8706 59.4418 50.3137 59.4418ZM60.54 60.1364C60.003 60.1364 59.5556 59.9943 59.1976 59.7102C58.8397 59.4261 58.5897 59.0298 58.4476 58.5213C58.3056 58.0128 58.29 57.4205 58.4007 56.7443C58.5144 56.071 58.726 55.4815 59.0357 54.9759C59.3482 54.4673 59.7303 54.0724 60.182 53.7912C60.6365 53.5071 61.1323 53.3651 61.6692 53.3651C62.0698 53.3651 62.3894 53.4361 62.628 53.5781C62.8695 53.7173 63.0527 53.8906 63.1777 54.098C63.3027 54.3054 63.3922 54.5071 63.4462 54.7031H63.5144L64.0854 51.2727H64.8482L63.3993 60H62.6621L62.8667 58.7855H62.7729C62.6507 58.9844 62.4902 59.1889 62.2914 59.3991C62.0953 59.6065 61.8539 59.7812 61.5669 59.9233C61.28 60.0653 60.9377 60.1364 60.54 60.1364ZM60.7061 59.4418C61.1294 59.4418 61.5115 59.3267 61.8525 59.0966C62.1962 58.8636 62.4831 58.544 62.7132 58.1378C62.9462 57.7287 63.1053 57.2599 63.1905 56.7315C63.2786 56.2088 63.2772 55.7472 63.1863 55.3466C63.0953 54.9432 62.9192 54.6278 62.6578 54.4006C62.3965 54.1705 62.0513 54.0554 61.6223 54.0554C61.1877 54.0554 60.8013 54.1747 60.4632 54.4134C60.1252 54.6491 59.8453 54.9687 59.6238 55.3722C59.405 55.7756 59.253 56.2287 59.1678 56.7315C59.0854 57.2401 59.0854 57.6989 59.1678 58.108C59.2502 58.517 59.4178 58.8423 59.6706 59.0838C59.9263 59.3224 60.2715 59.4418 60.7061 59.4418ZM68.1848 60.1364C67.574 60.1364 67.0698 59.9943 66.6721 59.7102C66.2743 59.4233 65.9959 59.027 65.8368 58.5213C65.6777 58.0128 65.6536 57.4276 65.7644 56.7656C65.8752 56.1065 66.0939 55.5213 66.4206 55.0099C66.7473 54.4957 67.1507 54.0937 67.6309 53.804C68.111 53.5114 68.6323 53.3651 69.1948 53.3651C69.5499 53.3651 69.8823 53.4304 70.1919 53.5611C70.5016 53.6889 70.7644 53.8864 70.9803 54.1534C71.199 54.4176 71.351 54.7514 71.4363 55.1548C71.5215 55.5554 71.5186 56.0298 71.4277 56.5781L71.3681 56.9531H66.2544L66.361 56.2841H70.7033C70.7743 55.8636 70.7544 55.4858 70.6436 55.1506C70.5328 54.8153 70.3439 54.5497 70.0769 54.3537C69.8127 54.1548 69.4846 54.0554 69.0925 54.0554C68.6919 54.0554 68.3127 54.1676 67.9547 54.392C67.5996 54.6165 67.2985 54.9091 67.0513 55.2699C66.807 55.6278 66.6493 56.0099 66.5783 56.4162L66.4931 56.919C66.4022 57.473 66.4135 57.9375 66.5272 58.3125C66.6408 58.6847 66.8468 58.9659 67.1451 59.1562C67.4434 59.3466 67.8255 59.4418 68.2914 59.4418C68.6039 59.4418 68.8865 59.3935 69.1394 59.2969C69.3922 59.2003 69.6124 59.071 69.7999 58.9091C69.9874 58.7443 70.138 58.5639 70.2516 58.3679L70.9292 58.6023C70.7843 58.8778 70.5797 59.1321 70.3155 59.3651C70.0542 59.598 69.7431 59.7855 69.3823 59.9276C69.0243 60.0668 68.6252 60.1364 68.1848 60.1364ZM83.3265 51.2727H84.1234L83.1689 57.0511C83.0694 57.6449 82.8422 58.1761 82.487 58.6449C82.1319 59.1108 81.6831 59.4787 81.1404 59.7486C80.6007 60.0156 80.0027 60.1491 79.3464 60.1491C78.693 60.1491 78.1404 60.0142 77.6887 59.7443C77.237 59.4744 76.9103 59.1065 76.7086 58.6406C76.5069 58.1747 76.4558 57.6449 76.5552 57.0511L77.5098 51.2727H78.3066L77.3564 56.9957C77.2825 57.4588 77.318 57.8722 77.4629 58.2358C77.6078 58.5966 77.8493 58.8807 78.1873 59.0881C78.5282 59.2955 78.9515 59.3991 79.4572 59.3991C79.9657 59.3991 80.426 59.2955 80.8379 59.0881C81.2527 58.8807 81.5936 58.5966 81.8606 58.2358C82.1305 57.8722 82.3038 57.4588 82.3805 56.9957L83.3265 51.2727ZM87.2363 51.2727L85.7875 60H84.9906L86.4395 51.2727H87.2363ZM92.301 50.8636L87.7626 61.3125H87.051L91.585 50.8636H92.301ZM99.5218 51.2727H100.319L99.3642 57.0511C99.2647 57.6449 99.0375 58.1761 98.6824 58.6449C98.3272 59.1108 97.8784 59.4787 97.3358 59.7486C96.796 60.0156 96.198 60.1491 95.5417 60.1491C94.8883 60.1491 94.3358 60.0142 93.8841 59.7443C93.4324 59.4744 93.1056 59.1065 92.9039 58.6406C92.7022 58.1747 92.6511 57.6449 92.7505 57.0511L93.7051 51.2727H94.502L93.5517 56.9957C93.4778 57.4588 93.5133 57.8722 93.6582 58.2358C93.8031 58.5966 94.0446 58.8807 94.3826 59.0881C94.7235 59.2955 95.1468 59.3991 95.6525 59.3991C96.161 59.3991 96.6213 59.2955 97.0332 59.0881C97.448 58.8807 97.7889 58.5966 98.0559 58.2358C98.3258 57.8722 98.4991 57.4588 98.5758 56.9957L99.5218 51.2727ZM102.767 51.2727L104.557 55.0611H104.612L107.65 51.2727H108.601L105.077 55.6364L107.152 60H106.219L104.429 56.2543H104.373L101.335 60H100.381L103.964 55.6364L101.829 51.2727H102.767ZM114.616 60H112.037L113.486 51.2727H116.175C117.005 51.2727 117.689 51.4489 118.229 51.8011C118.769 52.1534 119.144 52.6577 119.354 53.3139C119.564 53.9673 119.593 54.7486 119.439 55.6577C119.289 56.5668 119.001 57.3452 118.574 57.9929C118.148 58.6406 117.6 59.1378 116.93 59.4844C116.262 59.8281 115.491 60 114.616 60ZM112.954 59.2841H114.658C115.403 59.2841 116.053 59.1335 116.61 58.8324C117.167 58.5312 117.62 58.1037 117.969 57.5497C118.319 56.9929 118.556 56.3324 118.681 55.5682C118.806 54.8182 118.792 54.1761 118.638 53.642C118.488 53.108 118.197 52.6989 117.765 52.4148C117.336 52.1307 116.766 51.9886 116.056 51.9886H114.16L112.954 59.2841ZM123.122 60.1364C122.512 60.1364 122.007 59.9943 121.61 59.7102C121.212 59.4233 120.933 59.027 120.774 58.5213C120.615 58.0128 120.591 57.4276 120.702 56.7656C120.813 56.1065 121.031 55.5213 121.358 55.0099C121.685 54.4957 122.088 54.0937 122.568 53.804C123.048 53.5114 123.57 53.3651 124.132 53.3651C124.487 53.3651 124.82 53.4304 125.129 53.5611C125.439 53.6889 125.702 53.8864 125.918 54.1534C126.137 54.4176 126.289 54.7514 126.374 55.1548C126.459 55.5554 126.456 56.0298 126.365 56.5781L126.306 56.9531H121.192L121.298 56.2841H125.641C125.712 55.8636 125.692 55.4858 125.581 55.1506C125.47 54.8153 125.281 54.5497 125.014 54.3537C124.75 54.1548 124.422 54.0554 124.03 54.0554C123.629 54.0554 123.25 54.1676 122.892 54.392C122.537 54.6165 122.236 54.9091 121.989 55.2699C121.744 55.6278 121.587 56.0099 121.516 56.4162L121.431 56.919C121.34 57.473 121.351 57.9375 121.465 58.3125C121.578 58.6847 121.784 58.9659 122.083 59.1562C122.381 59.3466 122.763 59.4418 123.229 59.4418C123.541 59.4418 123.824 59.3935 124.077 59.2969C124.33 59.2003 124.55 59.071 124.737 58.9091C124.925 58.7443 125.075 58.5639 125.189 58.3679L125.867 58.6023C125.722 58.8778 125.517 59.1321 125.253 59.3651C124.992 59.598 124.681 59.7855 124.32 59.9276C123.962 60.0668 123.563 60.1364 123.122 60.1364ZM132.716 54.8906L131.987 55.0781C131.95 54.8821 131.882 54.706 131.782 54.5497C131.686 54.3906 131.545 54.2656 131.361 54.1747C131.179 54.081 130.94 54.0341 130.645 54.0341C130.202 54.0341 129.819 54.142 129.498 54.358C129.177 54.571 128.99 54.8437 128.936 55.1761C128.89 55.4545 128.949 55.6804 129.111 55.8537C129.275 56.027 129.551 56.1634 129.937 56.2628L130.892 56.5057C131.42 56.642 131.797 56.8551 132.021 57.1449C132.248 57.4347 132.327 57.8011 132.256 58.2443C132.193 58.6136 132.035 58.9403 131.782 59.2244C131.532 59.5085 131.211 59.7315 130.819 59.8935C130.43 60.0554 129.996 60.1364 129.515 60.1364C128.871 60.1364 128.363 59.9915 127.994 59.7017C127.628 59.4119 127.432 58.9943 127.406 58.4489L128.169 58.2784C128.192 58.6648 128.324 58.9574 128.565 59.1562C128.809 59.3551 129.153 59.4545 129.596 59.4545C130.102 59.4545 130.527 59.3395 130.871 59.1094C131.214 58.8793 131.412 58.5952 131.463 58.2571C131.511 57.9901 131.461 57.7685 131.314 57.5923C131.169 57.4162 130.922 57.2855 130.572 57.2003L129.554 56.9446C129.006 56.8054 128.618 56.5881 128.39 56.2926C128.166 55.9943 128.091 55.6264 128.165 55.1889C128.224 54.8281 128.375 54.5114 128.616 54.2386C128.858 53.9659 129.163 53.7528 129.532 53.5994C129.902 53.4432 130.305 53.3651 130.743 53.3651C131.345 53.3651 131.804 53.5014 132.119 53.7741C132.434 54.044 132.633 54.4162 132.716 54.8906ZM133.627 60L134.718 53.4545H135.48L134.389 60H133.627ZM135.374 52.3168C135.215 52.3168 135.08 52.2628 134.969 52.1548C134.861 52.0469 134.808 51.9162 134.811 51.7628C134.817 51.6179 134.875 51.4929 134.986 51.3878C135.1 51.2798 135.233 51.2259 135.387 51.2259C135.546 51.2259 135.681 51.2812 135.791 51.392C135.902 51.5 135.955 51.6307 135.949 51.7841C135.946 51.929 135.888 52.054 135.774 52.1591C135.661 52.2642 135.527 52.3168 135.374 52.3168ZM138.483 62.5909C138.037 62.5909 137.655 62.5327 137.337 62.4162C137.019 62.3026 136.76 62.1463 136.562 61.9474C136.366 61.7486 136.222 61.5256 136.131 61.2784L136.822 60.8736C136.884 61.0384 136.979 61.2003 137.107 61.3594C137.235 61.5185 137.415 61.6491 137.648 61.7514C137.881 61.8565 138.187 61.9091 138.564 61.9091C139.141 61.9091 139.637 61.7628 140.052 61.4702C140.466 61.1804 140.725 60.7315 140.827 60.1236L141.057 58.6491H140.989C140.873 58.848 140.716 59.0469 140.52 59.2457C140.324 59.4418 140.081 59.6051 139.792 59.7358C139.505 59.8665 139.165 59.9318 138.773 59.9318C138.251 59.9318 137.807 59.8026 137.444 59.544C137.08 59.2855 136.823 58.9162 136.672 58.4361C136.522 57.9531 136.503 57.3778 136.617 56.7102C136.725 56.0483 136.932 55.4659 137.239 54.9631C137.549 54.4602 137.93 54.0682 138.381 53.7869C138.836 53.5057 139.333 53.3651 139.873 53.3651C140.273 53.3651 140.594 53.4361 140.836 53.5781C141.077 53.7173 141.26 53.8906 141.385 54.098C141.513 54.3054 141.606 54.5071 141.662 54.7031H141.739L141.944 53.4545H142.685L141.577 60.1705C141.483 60.7244 141.29 61.1804 140.998 61.5384C140.705 61.8963 140.341 62.1605 139.907 62.331C139.475 62.5043 139.001 62.5909 138.483 62.5909ZM138.944 59.2372C139.364 59.2372 139.742 59.1364 140.077 58.9347C140.415 58.7301 140.698 58.4389 140.925 58.0611C141.155 57.6804 141.313 57.2259 141.398 56.6974C141.483 56.1861 141.479 55.733 141.385 55.3381C141.295 54.9403 141.117 54.6278 140.853 54.4006C140.591 54.1705 140.248 54.0554 139.822 54.0554C139.381 54.0554 138.992 54.1733 138.654 54.4091C138.319 54.6449 138.042 54.9631 137.823 55.3636C137.607 55.7614 137.458 56.206 137.376 56.6974C137.296 57.1974 137.299 57.6392 137.384 58.0227C137.472 58.4034 137.645 58.7017 137.904 58.9176C138.162 59.1307 138.509 59.2372 138.944 59.2372ZM145.039 55.9091L144.361 60H143.602L144.693 53.4545H145.431L145.26 54.4815H145.328C145.533 54.1463 145.816 53.8778 146.176 53.6761C146.54 53.4716 146.962 53.3693 147.442 53.3693C147.879 53.3693 148.249 53.4616 148.55 53.6463C148.854 53.8281 149.07 54.0966 149.198 54.4517C149.328 54.8068 149.351 55.2429 149.266 55.7599L148.554 60H147.796L148.494 55.8068C148.583 55.2727 148.504 54.8494 148.26 54.5369C148.019 54.2216 147.645 54.0639 147.139 54.0639C146.796 54.0639 146.476 54.1378 146.181 54.2855C145.888 54.4332 145.641 54.6463 145.439 54.9247C145.237 55.2003 145.104 55.5284 145.039 55.9091ZM158.499 57.4986L159.177 53.4545H159.935L158.844 60H158.086L158.265 58.9134H158.209C158.005 59.2486 157.715 59.5284 157.34 59.7528C156.968 59.9744 156.542 60.0852 156.062 60.0852C155.644 60.0852 155.287 59.9943 154.992 59.8125C154.699 59.6278 154.491 59.358 154.366 59.0028C154.241 58.6477 154.221 58.2116 154.306 57.6946L155.018 53.4545H155.776L155.077 57.6477C154.995 58.1591 155.077 58.571 155.324 58.8835C155.574 59.1932 155.935 59.348 156.407 59.348C156.702 59.348 156.998 59.277 157.293 59.1349C157.591 58.9929 157.85 58.7855 158.069 58.5128C158.29 58.2372 158.434 57.8991 158.499 57.4986ZM166.102 54.8906L165.374 55.0781C165.337 54.8821 165.269 54.706 165.169 54.5497C165.073 54.3906 164.932 54.2656 164.747 54.1747C164.566 54.081 164.327 54.0341 164.031 54.0341C163.588 54.0341 163.206 54.142 162.885 54.358C162.564 54.571 162.377 54.8437 162.323 55.1761C162.277 55.4545 162.335 55.6804 162.497 55.8537C162.662 56.027 162.938 56.1634 163.324 56.2628L164.279 56.5057C164.807 56.642 165.183 56.8551 165.408 57.1449C165.635 57.4347 165.713 57.8011 165.642 58.2443C165.58 58.6136 165.422 58.9403 165.169 59.2244C164.919 59.5085 164.598 59.7315 164.206 59.8935C163.817 60.0554 163.382 60.1364 162.902 60.1364C162.257 60.1364 161.75 59.9915 161.381 59.7017C161.014 59.4119 160.818 58.9943 160.793 58.4489L161.556 58.2784C161.578 58.6648 161.71 58.9574 161.952 59.1562C162.196 59.3551 162.54 59.4545 162.983 59.4545C163.489 59.4545 163.914 59.3395 164.257 59.1094C164.601 58.8793 164.798 58.5952 164.85 58.2571C164.898 57.9901 164.848 57.7685 164.7 57.5923C164.556 57.4162 164.308 57.2855 163.959 57.2003L162.941 56.9446C162.392 56.8054 162.004 56.5881 161.777 56.2926C161.553 55.9943 161.477 55.6264 161.551 55.1889C161.611 54.8281 161.762 54.5114 162.003 54.2386C162.244 53.9659 162.55 53.7528 162.919 53.5994C163.289 53.4432 163.692 53.3651 164.129 53.3651C164.732 53.3651 165.191 53.5014 165.506 53.7741C165.821 54.044 166.02 54.4162 166.102 54.8906ZM168.816 60.1491C168.421 60.1491 168.073 60.0724 167.772 59.919C167.471 59.7628 167.246 59.5384 167.099 59.2457C166.954 58.9503 166.914 58.5923 166.979 58.1719C167.036 57.848 167.144 57.5753 167.303 57.3537C167.465 57.1321 167.67 56.9503 167.917 56.8082C168.164 56.6634 168.448 56.5497 168.769 56.4673C169.09 56.3849 169.439 56.3224 169.817 56.2798C170.187 56.2344 170.502 56.1946 170.763 56.1605C171.025 56.1264 171.228 56.0724 171.373 55.9986C171.518 55.9247 171.604 55.8054 171.633 55.6406L171.658 55.4872C171.732 55.0412 171.664 54.6903 171.454 54.4347C171.243 54.1761 170.891 54.0469 170.397 54.0469C169.925 54.0469 169.516 54.152 169.17 54.3622C168.826 54.5696 168.57 54.8125 168.403 55.0909L167.729 54.831C167.934 54.473 168.185 54.1875 168.483 53.9744C168.782 53.7585 169.101 53.6037 169.442 53.5099C169.783 53.4134 170.12 53.3651 170.452 53.3651C170.702 53.3651 170.956 53.3977 171.215 53.4631C171.474 53.5284 171.705 53.642 171.91 53.804C172.117 53.9631 172.269 54.1861 172.366 54.473C172.465 54.7571 172.479 55.1179 172.408 55.5554L171.667 60H170.908L171.083 58.9645H171.036C170.917 59.1577 170.752 59.3452 170.542 59.527C170.334 59.7088 170.086 59.858 169.796 59.9744C169.506 60.0909 169.18 60.1491 168.816 60.1491ZM169.008 59.4545C169.411 59.4545 169.776 59.3651 170.103 59.1861C170.432 59.0071 170.702 58.7699 170.912 58.4744C171.126 58.1761 171.262 57.848 171.322 57.4901L171.479 56.544C171.417 56.598 171.314 56.6463 171.172 56.6889C171.033 56.7315 170.876 56.7699 170.699 56.804C170.526 56.8352 170.351 56.8622 170.175 56.8849C170.002 56.9077 169.849 56.9276 169.715 56.9446C169.337 56.9901 169.008 57.0611 168.726 57.1577C168.448 57.2543 168.225 57.3878 168.057 57.5582C167.89 57.7259 167.785 57.9418 167.742 58.206C167.677 58.6037 167.763 58.9119 168.002 59.1307C168.243 59.3466 168.579 59.4545 169.008 59.4545ZM175.121 55.9091L174.443 60H173.684L174.775 53.4545H175.513L175.342 54.4815H175.41C175.615 54.1463 175.898 53.8778 176.258 53.6761C176.622 53.4716 177.044 53.3693 177.524 53.3693C177.961 53.3693 178.331 53.4616 178.632 53.6463C178.936 53.8281 179.152 54.0966 179.28 54.4517C179.41 54.8068 179.433 55.2429 179.348 55.7599L178.636 60H177.878L178.577 55.8068C178.665 55.2727 178.586 54.8494 178.342 54.5369C178.101 54.2216 177.727 54.0639 177.221 54.0639C176.878 54.0639 176.558 54.1378 176.263 54.2855C175.97 54.4332 175.723 54.6463 175.521 54.9247C175.319 55.2003 175.186 55.5284 175.121 55.9091ZM182.977 60.1364C182.441 60.1364 181.993 59.9943 181.635 59.7102C181.277 59.4261 181.027 59.0298 180.885 58.5213C180.743 58.0128 180.727 57.4205 180.838 56.7443C180.952 56.071 181.164 55.4815 181.473 54.9759C181.786 54.4673 182.168 54.0724 182.619 53.7912C183.074 53.5071 183.57 53.3651 184.107 53.3651C184.507 53.3651 184.827 53.4361 185.066 53.5781C185.307 53.7173 185.49 53.8906 185.615 54.098C185.74 54.3054 185.83 54.5071 185.884 54.7031H185.952L186.523 51.2727H187.286L185.837 60H185.1L185.304 58.7855H185.21C185.088 58.9844 184.928 59.1889 184.729 59.3991C184.533 59.6065 184.291 59.7812 184.004 59.9233C183.718 60.0653 183.375 60.1364 182.977 60.1364ZM183.144 59.4418C183.567 59.4418 183.949 59.3267 184.29 59.0966C184.634 58.8636 184.921 58.544 185.151 58.1378C185.384 57.7287 185.543 57.2599 185.628 56.7315C185.716 56.2088 185.715 55.7472 185.624 55.3466C185.533 54.9432 185.357 54.6278 185.095 54.4006C184.834 54.1705 184.489 54.0554 184.06 54.0554C183.625 54.0554 183.239 54.1747 182.901 54.4134C182.563 54.6491 182.283 54.9687 182.061 55.3722C181.843 55.7756 181.691 56.2287 181.605 56.7315C181.523 57.2401 181.523 57.6989 181.605 58.108C181.688 58.517 181.855 58.8423 182.108 59.0838C182.364 59.3224 182.709 59.4418 183.144 59.4418ZM190.567 60.1364C189.993 60.1364 189.51 59.9915 189.118 59.7017C188.726 59.4091 188.449 59.0043 188.287 58.4872C188.125 57.9702 188.098 57.3736 188.206 56.6974C188.314 56.0384 188.529 55.4588 188.85 54.9588C189.173 54.456 189.571 54.0653 190.043 53.7869C190.514 53.5057 191.027 53.3651 191.581 53.3651C192.158 53.3651 192.641 53.5114 193.03 53.804C193.422 54.0966 193.699 54.5014 193.861 55.0185C194.026 55.5355 194.054 56.1335 193.946 56.8125C193.838 57.4688 193.622 58.0469 193.298 58.5469C192.975 59.044 192.577 59.4332 192.105 59.7145C191.637 59.9957 191.124 60.1364 190.567 60.1364ZM190.575 59.4418C191.041 59.4418 191.456 59.3182 191.82 59.071C192.186 58.821 192.489 58.4886 192.727 58.0739C192.966 57.6562 193.127 57.1974 193.209 56.6974C193.286 56.2202 193.277 55.7812 193.183 55.3807C193.09 54.9801 192.909 54.6591 192.642 54.4176C192.375 54.1761 192.02 54.0554 191.577 54.0554C191.114 54.0554 190.699 54.1818 190.333 54.4347C189.966 54.6847 189.664 55.0199 189.425 55.4403C189.186 55.858 189.027 56.3153 188.948 56.8125C188.868 57.2926 188.874 57.7315 188.965 58.1293C189.058 58.527 189.239 58.8452 189.506 59.0838C189.776 59.3224 190.132 59.4418 190.575 59.4418ZM200.269 60.1491C199.874 60.1491 199.526 60.0724 199.225 59.919C198.924 59.7628 198.699 59.5384 198.552 59.2457C198.407 58.9503 198.367 58.5923 198.432 58.1719C198.489 57.848 198.597 57.5753 198.756 57.3537C198.918 57.1321 199.123 56.9503 199.37 56.8082C199.617 56.6634 199.901 56.5497 200.222 56.4673C200.543 56.3849 200.893 56.3224 201.27 56.2798C201.64 56.2344 201.955 56.1946 202.216 56.1605C202.478 56.1264 202.681 56.0724 202.826 55.9986C202.971 55.9247 203.057 55.8054 203.086 55.6406L203.111 55.4872C203.185 55.0412 203.117 54.6903 202.907 54.4347C202.697 54.1761 202.344 54.0469 201.85 54.0469C201.378 54.0469 200.969 54.152 200.623 54.3622C200.279 54.5696 200.023 54.8125 199.856 55.0909L199.182 54.831C199.387 54.473 199.638 54.1875 199.937 53.9744C200.235 53.7585 200.555 53.6037 200.895 53.5099C201.236 53.4134 201.573 53.3651 201.905 53.3651C202.155 53.3651 202.41 53.3977 202.668 53.4631C202.927 53.5284 203.158 53.642 203.363 53.804C203.57 53.9631 203.722 54.1861 203.819 54.473C203.918 54.7571 203.932 55.1179 203.861 55.5554L203.12 60H202.361L202.536 58.9645H202.489C202.37 59.1577 202.205 59.3452 201.995 59.527C201.787 59.7088 201.539 59.858 201.249 59.9744C200.959 60.0909 200.633 60.1491 200.269 60.1491ZM200.461 59.4545C200.864 59.4545 201.229 59.3651 201.556 59.1861C201.885 59.0071 202.155 58.7699 202.366 58.4744C202.579 58.1761 202.715 57.848 202.775 57.4901L202.932 56.544C202.87 56.598 202.768 56.6463 202.626 56.6889C202.486 56.7315 202.329 56.7699 202.153 56.804C201.979 56.8352 201.805 56.8622 201.628 56.8849C201.455 56.9077 201.302 56.9276 201.168 56.9446C200.79 56.9901 200.461 57.0611 200.18 57.1577C199.901 57.2543 199.678 57.3878 199.51 57.5582C199.343 57.7259 199.238 57.9418 199.195 58.206C199.13 58.6037 199.216 58.9119 199.455 59.1307C199.697 59.3466 200.032 59.4545 200.461 59.4545ZM212.297 53.4545L212.186 54.1151H208.973L209.079 53.4545H212.297ZM208.994 60L210.243 52.4957C210.3 52.1435 210.429 51.8466 210.631 51.6051C210.835 51.3636 211.079 51.1804 211.363 51.0554C211.648 50.9304 211.939 50.8679 212.237 50.8679C212.436 50.8679 212.598 50.8849 212.723 50.919C212.848 50.9503 212.946 50.9815 213.017 51.0128L212.693 51.6776C212.636 51.6605 212.568 51.6406 212.488 51.6179C212.412 51.5952 212.311 51.5838 212.186 51.5838C211.856 51.5838 211.586 51.6761 211.376 51.8608C211.166 52.0455 211.031 52.3097 210.971 52.6534L209.753 60H208.994ZM215.079 60.1364C214.469 60.1364 213.964 59.9943 213.567 59.7102C213.169 59.4233 212.89 59.027 212.731 58.5213C212.572 58.0128 212.548 57.4276 212.659 56.7656C212.77 56.1065 212.988 55.5213 213.315 55.0099C213.642 54.4957 214.045 54.0937 214.525 53.804C215.006 53.5114 215.527 53.3651 216.089 53.3651C216.444 53.3651 216.777 53.4304 217.086 53.5611C217.396 53.6889 217.659 53.8864 217.875 54.1534C218.094 54.4176 218.246 54.7514 218.331 55.1548C218.416 55.5554 218.413 56.0298 218.322 56.5781L218.263 56.9531H213.149L213.256 56.2841H217.598C217.669 55.8636 217.649 55.4858 217.538 55.1506C217.427 54.8153 217.238 54.5497 216.971 54.3537C216.707 54.1548 216.379 54.0554 215.987 54.0554C215.586 54.0554 215.207 54.1676 214.849 54.392C214.494 54.6165 214.193 54.9091 213.946 55.2699C213.702 55.6278 213.544 56.0099 213.473 56.4162L213.388 56.919C213.297 57.473 213.308 57.9375 213.422 58.3125C213.535 58.6847 213.741 58.9659 214.04 59.1562C214.338 59.3466 214.72 59.4418 215.186 59.4418C215.498 59.4418 215.781 59.3935 216.034 59.2969C216.287 59.2003 216.507 59.071 216.694 58.9091C216.882 58.7443 217.032 58.5639 217.146 58.3679L217.824 58.6023C217.679 58.8778 217.474 59.1321 217.21 59.3651C216.949 59.598 216.638 59.7855 216.277 59.9276C215.919 60.0668 215.52 60.1364 215.079 60.1364ZM219.423 60L220.514 53.4545H221.251L221.08 54.4602H221.136C221.318 54.1307 221.589 53.8651 221.95 53.6634C222.313 53.4588 222.701 53.3565 223.113 53.3565C223.176 53.3565 223.245 53.358 223.322 53.3608C223.399 53.3608 223.463 53.3636 223.514 53.3693L223.382 54.1406C223.347 54.1349 223.288 54.1264 223.203 54.1151C223.12 54.1037 223.028 54.098 222.926 54.098C222.585 54.098 222.269 54.1705 221.98 54.3153C221.693 54.4574 221.451 54.6548 221.255 54.9077C221.062 55.1605 220.937 55.4489 220.88 55.7727L220.181 60H219.423ZM223.712 60L224.803 53.4545H225.54L225.369 54.4602H225.425C225.607 54.1307 225.878 53.8651 226.239 53.6634C226.602 53.4588 226.99 53.3565 227.402 53.3565C227.465 53.3565 227.534 53.358 227.611 53.3608C227.688 53.3608 227.752 53.3636 227.803 53.3693L227.671 54.1406C227.637 54.1349 227.577 54.1264 227.492 54.1151C227.409 54.1037 227.317 54.098 227.215 54.098C226.874 54.098 226.558 54.1705 226.269 54.3153C225.982 54.4574 225.74 54.6548 225.544 54.9077C225.351 55.1605 225.226 55.4489 225.169 55.7727L224.47 60H223.712ZM229.812 60.1491C229.417 60.1491 229.069 60.0724 228.768 59.919C228.467 59.7628 228.242 59.5384 228.095 59.2457C227.95 58.9503 227.91 58.5923 227.975 58.1719C228.032 57.848 228.14 57.5753 228.299 57.3537C228.461 57.1321 228.666 56.9503 228.913 56.8082C229.16 56.6634 229.444 56.5497 229.765 56.4673C230.086 56.3849 230.436 56.3224 230.813 56.2798C231.183 56.2344 231.498 56.1946 231.759 56.1605C232.021 56.1264 232.224 56.0724 232.369 55.9986C232.514 55.9247 232.6 55.8054 232.629 55.6406L232.654 55.4872C232.728 55.0412 232.66 54.6903 232.45 54.4347C232.24 54.1761 231.887 54.0469 231.393 54.0469C230.921 54.0469 230.512 54.152 230.166 54.3622C229.822 54.5696 229.566 54.8125 229.399 55.0909L228.725 54.831C228.93 54.473 229.181 54.1875 229.48 53.9744C229.778 53.7585 230.097 53.6037 230.438 53.5099C230.779 53.4134 231.116 53.3651 231.448 53.3651C231.698 53.3651 231.953 53.3977 232.211 53.4631C232.47 53.5284 232.701 53.642 232.906 53.804C233.113 53.9631 233.265 54.1861 233.362 54.473C233.461 54.7571 233.475 55.1179 233.404 55.5554L232.663 60H231.904L232.079 58.9645H232.032C231.913 59.1577 231.748 59.3452 231.538 59.527C231.33 59.7088 231.082 59.858 230.792 59.9744C230.502 60.0909 230.176 60.1491 229.812 60.1491ZM230.004 59.4545C230.407 59.4545 230.772 59.3651 231.099 59.1861C231.428 59.0071 231.698 58.7699 231.909 58.4744C232.122 58.1761 232.258 57.848 232.318 57.4901L232.475 56.544C232.413 56.598 232.311 56.6463 232.169 56.6889C232.029 56.7315 231.872 56.7699 231.695 56.804C231.522 56.8352 231.347 56.8622 231.171 56.8849C230.998 56.9077 230.845 56.9276 230.711 56.9446C230.333 56.9901 230.004 57.0611 229.722 57.1577C229.444 57.2543 229.221 57.3878 229.053 57.5582C228.886 57.7259 228.781 57.9418 228.738 58.206C228.673 58.6037 228.759 58.9119 228.998 59.1307C229.24 59.3466 229.575 59.4545 230.004 59.4545ZM234.681 60L235.771 53.4545H236.509L236.338 54.4602H236.406C236.597 54.1222 236.861 53.8565 237.199 53.6634C237.537 53.4673 237.921 53.3693 238.35 53.3693C238.798 53.3693 239.151 53.4759 239.406 53.6889C239.662 53.8991 239.833 54.1889 239.918 54.5582H239.973C240.178 54.1946 240.466 53.9062 240.838 53.6932C241.21 53.4773 241.635 53.3693 242.112 53.3693C242.718 53.3693 243.165 53.5611 243.455 53.9446C243.744 54.3281 243.828 54.8849 243.706 55.6151L242.973 60H242.215L242.948 55.6151C243.03 55.098 242.963 54.7102 242.747 54.4517C242.531 54.1932 242.208 54.0639 241.776 54.0639C241.276 54.0639 240.862 54.2173 240.536 54.5241C240.212 54.8281 240.012 55.2173 239.935 55.6918L239.215 60H238.439L239.185 55.5469C239.256 55.1037 239.192 54.7457 238.993 54.473C238.797 54.2003 238.475 54.0639 238.026 54.0639C237.722 54.0639 237.436 54.1392 237.169 54.2898C236.905 54.4375 236.681 54.6435 236.496 54.9077C236.314 55.169 236.195 55.4687 236.138 55.8068L235.439 60H234.681ZM247.611 60.1364C247 60.1364 246.496 59.9943 246.098 59.7102C245.7 59.4233 245.422 59.027 245.263 58.5213C245.104 58.0128 245.079 57.4276 245.19 56.7656C245.301 56.1065 245.52 55.5213 245.846 55.0099C246.173 54.4957 246.577 54.0937 247.057 53.804C247.537 53.5114 248.058 53.3651 248.621 53.3651C248.976 53.3651 249.308 53.4304 249.618 53.5611C249.927 53.6889 250.19 53.8864 250.406 54.1534C250.625 54.4176 250.777 54.7514 250.862 55.1548C250.947 55.5554 250.944 56.0298 250.854 56.5781L250.794 56.9531H245.68L245.787 56.2841H250.129C250.2 55.8636 250.18 55.4858 250.069 55.1506C249.959 54.8153 249.77 54.5497 249.503 54.3537C249.238 54.1548 248.91 54.0554 248.518 54.0554C248.118 54.0554 247.738 54.1676 247.381 54.392C247.025 54.6165 246.724 54.9091 246.477 55.2699C246.233 55.6278 246.075 56.0099 246.004 56.4162L245.919 56.919C245.828 57.473 245.839 57.9375 245.953 58.3125C246.067 58.6847 246.273 58.9659 246.571 59.1562C246.869 59.3466 247.251 59.4418 247.717 59.4418C248.03 59.4418 248.312 59.3935 248.565 59.2969C248.818 59.2003 249.038 59.071 249.226 58.9091C249.413 58.7443 249.564 58.5639 249.677 58.3679L250.355 58.6023C250.21 58.8778 250.006 59.1321 249.741 59.3651C249.48 59.598 249.169 59.7855 248.808 59.9276C248.45 60.0668 248.051 60.1364 247.611 60.1364ZM253.39 55.9091L252.713 60H251.954L253.045 53.4545H253.782L253.612 54.4815H253.68C253.884 54.1463 254.167 53.8778 254.528 53.6761C254.892 53.4716 255.313 53.3693 255.794 53.3693C256.231 53.3693 256.6 53.4616 256.901 53.6463C257.205 53.8281 257.421 54.0966 257.549 54.4517C257.68 54.8068 257.703 55.2429 257.617 55.7599L256.906 60H256.147L256.846 55.8068C256.934 55.2727 256.856 54.8494 256.612 54.5369C256.37 54.2216 255.997 54.0639 255.491 54.0639C255.147 54.0639 254.828 54.1378 254.532 54.2855C254.24 54.4332 253.992 54.6463 253.791 54.9247C253.589 55.2003 253.455 55.5284 253.39 55.9091ZM262.572 53.4545L262.466 54.1151H259.338L259.449 53.4545H262.572ZM260.68 51.8864H261.443L260.378 58.2912C260.332 58.5639 260.344 58.7784 260.412 58.9347C260.48 59.0881 260.585 59.1974 260.727 59.2628C260.869 59.3253 261.025 59.3565 261.196 59.3565C261.295 59.3565 261.381 59.3509 261.452 59.3395C261.525 59.3253 261.591 59.3111 261.648 59.2969L261.703 59.983C261.621 60.0114 261.523 60.0369 261.409 60.0597C261.295 60.0852 261.159 60.098 261 60.098C260.721 60.098 260.464 60.0369 260.229 59.9148C259.993 59.7926 259.814 59.6108 259.692 59.3693C259.569 59.1278 259.537 58.8281 259.594 58.4702L260.68 51.8864ZM265.015 60.1491C264.62 60.1491 264.272 60.0724 263.971 59.919C263.67 59.7628 263.445 59.5384 263.298 59.2457C263.153 58.9503 263.113 58.5923 263.178 58.1719C263.235 57.848 263.343 57.5753 263.502 57.3537C263.664 57.1321 263.869 56.9503 264.116 56.8082C264.363 56.6634 264.647 56.5497 264.968 56.4673C265.289 56.3849 265.639 56.3224 266.017 56.2798C266.386 56.2344 266.701 56.1946 266.963 56.1605C267.224 56.1264 267.427 56.0724 267.572 55.9986C267.717 55.9247 267.803 55.8054 267.832 55.6406L267.857 55.4872C267.931 55.0412 267.863 54.6903 267.653 54.4347C267.443 54.1761 267.09 54.0469 266.596 54.0469C266.124 54.0469 265.715 54.152 265.369 54.3622C265.025 54.5696 264.769 54.8125 264.602 55.0909L263.928 54.831C264.133 54.473 264.384 54.1875 264.683 53.9744C264.981 53.7585 265.301 53.6037 265.642 53.5099C265.982 53.4134 266.319 53.3651 266.651 53.3651C266.901 53.3651 267.156 53.3977 267.414 53.4631C267.673 53.5284 267.904 53.642 268.109 53.804C268.316 53.9631 268.468 54.1861 268.565 54.473C268.664 54.7571 268.678 55.1179 268.607 55.5554L267.866 60H267.107L267.282 58.9645H267.235C267.116 59.1577 266.951 59.3452 266.741 59.527C266.534 59.7088 266.285 59.858 265.995 59.9744C265.705 60.0909 265.379 60.1491 265.015 60.1491ZM265.207 59.4545C265.61 59.4545 265.975 59.3651 266.302 59.1861C266.632 59.0071 266.901 58.7699 267.112 58.4744C267.325 58.1761 267.461 57.848 267.521 57.4901L267.678 56.544C267.616 56.598 267.514 56.6463 267.372 56.6889C267.232 56.7315 267.075 56.7699 266.899 56.804C266.725 56.8352 266.551 56.8622 266.374 56.8849C266.201 56.9077 266.048 56.9276 265.914 56.9446C265.536 56.9901 265.207 57.0611 264.926 57.1577C264.647 57.2543 264.424 57.3878 264.257 57.5582C264.089 57.7259 263.984 57.9418 263.941 58.206C263.876 58.6037 263.963 58.9119 264.201 59.1307C264.443 59.3466 264.778 59.4545 265.207 59.4545ZM273.416 60L274.865 51.2727H279.915L279.796 51.9886H275.543L274.997 55.2741H278.854L278.735 55.9901H274.878L274.213 60H273.416ZM280.298 60L281.389 53.4545H282.152L281.061 60H280.298ZM282.046 52.3168C281.887 52.3168 281.752 52.2628 281.641 52.1548C281.533 52.0469 281.48 51.9162 281.483 51.7628C281.489 51.6179 281.547 51.4929 281.658 51.3878C281.771 51.2798 281.905 51.2259 282.058 51.2259C282.218 51.2259 282.352 51.2812 282.463 51.392C282.574 51.5 282.627 51.6307 282.621 51.7841C282.618 51.929 282.56 52.054 282.446 52.1591C282.333 52.2642 282.199 52.3168 282.046 52.3168ZM285.155 62.5909C284.709 62.5909 284.327 62.5327 284.009 62.4162C283.691 62.3026 283.432 62.1463 283.233 61.9474C283.037 61.7486 282.894 61.5256 282.803 61.2784L283.493 60.8736C283.556 61.0384 283.651 61.2003 283.779 61.3594C283.907 61.5185 284.087 61.6491 284.32 61.7514C284.553 61.8565 284.858 61.9091 285.236 61.9091C285.813 61.9091 286.309 61.7628 286.724 61.4702C287.138 61.1804 287.397 60.7315 287.499 60.1236L287.729 58.6491H287.661C287.545 58.848 287.388 59.0469 287.192 59.2457C286.996 59.4418 286.753 59.6051 286.464 59.7358C286.177 59.8665 285.837 59.9318 285.445 59.9318C284.922 59.9318 284.479 59.8026 284.116 59.544C283.752 59.2855 283.495 58.9162 283.344 58.4361C283.194 57.9531 283.175 57.3778 283.289 56.7102C283.397 56.0483 283.604 55.4659 283.911 54.9631C284.221 54.4602 284.601 54.0682 285.053 53.7869C285.508 53.5057 286.005 53.3651 286.545 53.3651C286.945 53.3651 287.266 53.4361 287.508 53.5781C287.749 53.7173 287.932 53.8906 288.057 54.098C288.185 54.3054 288.278 54.5071 288.334 54.7031H288.411L288.616 53.4545H289.357L288.249 60.1705C288.155 60.7244 287.962 61.1804 287.67 61.5384C287.377 61.8963 287.013 62.1605 286.579 62.331C286.147 62.5043 285.672 62.5909 285.155 62.5909ZM285.616 59.2372C286.036 59.2372 286.414 59.1364 286.749 58.9347C287.087 58.7301 287.37 58.4389 287.597 58.0611C287.827 57.6804 287.985 57.2259 288.07 56.6974C288.155 56.1861 288.151 55.733 288.057 55.3381C287.966 54.9403 287.789 54.6278 287.525 54.4006C287.263 54.1705 286.92 54.0554 286.493 54.0554C286.053 54.0554 285.664 54.1733 285.326 54.4091C284.991 54.6449 284.714 54.9631 284.495 55.3636C284.279 55.7614 284.13 56.206 284.047 56.6974C283.968 57.1974 283.971 57.6392 284.056 58.0227C284.144 58.4034 284.317 58.7017 284.576 58.9176C284.834 59.1307 285.181 59.2372 285.616 59.2372ZM290.274 60L291.365 53.4545H292.102L291.932 54.4602H292C292.191 54.1222 292.455 53.8565 292.793 53.6634C293.131 53.4673 293.514 53.3693 293.943 53.3693C294.392 53.3693 294.744 53.4759 295 53.6889C295.256 53.8991 295.426 54.1889 295.512 54.5582H295.567C295.771 54.1946 296.06 53.9062 296.432 53.6932C296.804 53.4773 297.229 53.3693 297.706 53.3693C298.311 53.3693 298.759 53.5611 299.048 53.9446C299.338 54.3281 299.422 54.8849 299.3 55.6151L298.567 60H297.808L298.541 55.6151C298.624 55.098 298.557 54.7102 298.341 54.4517C298.125 54.1932 297.801 54.0639 297.369 54.0639C296.869 54.0639 296.456 54.2173 296.129 54.5241C295.806 54.8281 295.605 55.2173 295.529 55.6918L294.808 60H294.033L294.779 55.5469C294.85 55.1037 294.786 54.7457 294.587 54.473C294.391 54.2003 294.068 54.0639 293.619 54.0639C293.316 54.0639 293.03 54.1392 292.763 54.2898C292.499 54.4375 292.274 54.6435 292.09 54.9077C291.908 55.169 291.789 55.4687 291.732 55.8068L291.033 60H290.274ZM302.386 60.1491C301.991 60.1491 301.643 60.0724 301.342 59.919C301.041 59.7628 300.817 59.5384 300.669 59.2457C300.524 58.9503 300.484 58.5923 300.55 58.1719C300.606 57.848 300.714 57.5753 300.873 57.3537C301.035 57.1321 301.24 56.9503 301.487 56.8082C301.734 56.6634 302.018 56.5497 302.339 56.4673C302.66 56.3849 303.01 56.3224 303.388 56.2798C303.757 56.2344 304.072 56.1946 304.334 56.1605C304.595 56.1264 304.798 56.0724 304.943 55.9986C305.088 55.9247 305.175 55.8054 305.203 55.6406L305.229 55.4872C305.302 55.0412 305.234 54.6903 305.024 54.4347C304.814 54.1761 304.461 54.0469 303.967 54.0469C303.496 54.0469 303.086 54.152 302.74 54.3622C302.396 54.5696 302.14 54.8125 301.973 55.0909L301.3 54.831C301.504 54.473 301.756 54.1875 302.054 53.9744C302.352 53.7585 302.672 53.6037 303.013 53.5099C303.354 53.4134 303.69 53.3651 304.023 53.3651C304.273 53.3651 304.527 53.3977 304.785 53.4631C305.044 53.5284 305.275 53.642 305.48 53.804C305.687 53.9631 305.839 54.1861 305.936 54.473C306.035 54.7571 306.05 55.1179 305.979 55.5554L305.237 60H304.479L304.653 58.9645H304.606C304.487 59.1577 304.322 59.3452 304.112 59.527C303.905 59.7088 303.656 59.858 303.366 59.9744C303.077 60.0909 302.75 60.1491 302.386 60.1491ZM302.578 59.4545C302.981 59.4545 303.346 59.3651 303.673 59.1861C304.003 59.0071 304.273 58.7699 304.483 58.4744C304.696 58.1761 304.832 57.848 304.892 57.4901L305.05 56.544C304.987 56.598 304.885 56.6463 304.743 56.6889C304.604 56.7315 304.446 56.7699 304.27 56.804C304.096 56.8352 303.922 56.8622 303.746 56.8849C303.572 56.9077 303.419 56.9276 303.285 56.9446C302.907 56.9901 302.578 57.0611 302.297 57.1577C302.018 57.2543 301.795 57.3878 301.628 57.5582C301.46 57.7259 301.355 57.9418 301.312 58.206C301.247 58.6037 301.334 58.9119 301.572 59.1307C301.814 59.3466 302.149 59.4545 302.578 59.4545ZM56.8848 77.4545L58.3933 68.4545H59.1305L58.926 69.7031H59.0154C59.1348 69.5071 59.2896 69.3054 59.4799 69.098C59.6731 68.8906 59.9132 68.7173 60.2001 68.5781C60.4899 68.4361 60.8365 68.3651 61.2399 68.3651C61.7797 68.3651 62.2271 68.5057 62.5822 68.7869C62.9402 69.0682 63.1902 69.4631 63.3322 69.9716C63.4771 70.4801 63.4927 71.071 63.3791 71.7443C63.2683 72.4205 63.0566 73.0128 62.7441 73.5213C62.4316 74.0298 62.0495 74.4261 61.5978 74.7102C61.149 74.9943 60.6575 75.1364 60.1234 75.1364C59.7285 75.1364 59.4089 75.0653 59.1646 74.9233C58.9231 74.7812 58.7385 74.6065 58.6106 74.3991C58.4828 74.1889 58.3904 73.9844 58.3336 73.7855H58.2654L57.6518 77.4545H56.8848ZM58.5978 71.7315C58.5126 72.2599 58.5126 72.7287 58.5978 73.1378C58.6831 73.544 58.8549 73.8636 59.1135 74.0966C59.372 74.3267 59.7129 74.4418 60.1362 74.4418C60.5708 74.4418 60.9586 74.3224 61.2995 74.0838C61.6404 73.8423 61.9245 73.517 62.1518 73.108C62.3791 72.6989 62.5353 72.2401 62.6206 71.7315C62.7001 71.2287 62.6973 70.7756 62.612 70.3722C62.5268 69.9687 62.3564 69.6491 62.1007 69.4134C61.845 69.1747 61.497 69.0554 61.0566 69.0554C60.6305 69.0554 60.247 69.1705 59.9061 69.4006C59.568 69.6278 59.2868 69.9432 59.0623 70.3466C58.8379 70.7472 58.6831 71.2088 58.5978 71.7315ZM66.312 75.1491C65.9171 75.1491 65.5691 75.0724 65.2679 74.919C64.9668 74.7628 64.7424 74.5384 64.5946 74.2457C64.4498 73.9503 64.41 73.5923 64.4753 73.1719C64.5321 72.848 64.6401 72.5753 64.7992 72.3537C64.9611 72.1321 65.1657 71.9503 65.4128 71.8082C65.66 71.6634 65.9441 71.5497 66.2651 71.4673C66.5861 71.3849 66.9355 71.3224 67.3134 71.2798C67.6827 71.2344 67.998 71.1946 68.2594 71.1605C68.5208 71.1264 68.7239 71.0724 68.8688 70.9986C69.0137 70.9247 69.1003 70.8054 69.1287 70.6406L69.1543 70.4872C69.2282 70.0412 69.16 69.6903 68.9498 69.4347C68.7395 69.1761 68.3873 69.0469 67.8929 69.0469C67.4213 69.0469 67.0123 69.152 66.6657 69.3622C66.3219 69.5696 66.0662 69.8125 65.8986 70.0909L65.2253 69.831C65.4299 69.473 65.6813 69.1875 65.9796 68.9744C66.2779 68.7585 66.5975 68.6037 66.9384 68.5099C67.2793 68.4134 67.6159 68.3651 67.9483 68.3651C68.1983 68.3651 68.4526 68.3977 68.7111 68.4631C68.9696 68.5284 69.2012 68.642 69.4057 68.804C69.6131 68.9631 69.7651 69.1861 69.8617 69.473C69.9611 69.7571 69.9753 70.1179 69.9043 70.5554L69.1628 75H68.4043L68.579 73.9645H68.5321C68.4128 74.1577 68.248 74.3452 68.0378 74.527C67.8304 74.7088 67.5819 74.858 67.2921 74.9744C67.0023 75.0909 66.6756 75.1491 66.312 75.1491ZM66.5037 74.4545C66.9071 74.4545 67.2722 74.3651 67.5989 74.1861C67.9284 74.0071 68.1983 73.7699 68.4086 73.4744C68.6216 73.1761 68.758 72.848 68.8176 72.4901L68.9753 71.544C68.9128 71.598 68.8105 71.6463 68.6685 71.6889C68.5293 71.7315 68.3716 71.7699 68.1955 71.804C68.0222 71.8352 67.8475 71.8622 67.6713 71.8849C67.498 71.9077 67.3446 71.9276 67.2111 71.9446C66.8333 71.9901 66.5037 72.0611 66.2225 72.1577C65.9441 72.2543 65.7211 72.3878 65.5534 72.5582C65.3858 72.7259 65.2807 72.9418 65.2381 73.206C65.1728 73.6037 65.2594 73.9119 65.498 74.1307C65.7395 74.3466 66.0748 74.4545 66.5037 74.4545ZM71.1806 75L72.2715 68.4545H73.0087L72.8382 69.4602H72.8936C73.0755 69.1307 73.3468 68.8651 73.7076 68.6634C74.0712 68.4588 74.459 68.3565 74.8709 68.3565C74.9334 68.3565 75.003 68.358 75.0797 68.3608C75.1564 68.3608 75.2203 68.3636 75.2715 68.3693L75.1394 69.1406C75.1053 69.1349 75.0456 69.1264 74.9604 69.1151C74.878 69.1037 74.7857 69.098 74.6834 69.098C74.3425 69.098 74.0272 69.1705 73.7374 69.3153C73.4505 69.4574 73.209 69.6548 73.013 69.9077C72.8198 70.1605 72.6948 70.4489 72.638 70.7727L71.9391 75H71.1806ZM77.2807 75.1491C76.8858 75.1491 76.5378 75.0724 76.2367 74.919C75.9355 74.7628 75.7111 74.5384 75.5634 74.2457C75.4185 73.9503 75.3787 73.5923 75.4441 73.1719C75.5009 72.848 75.6088 72.5753 75.7679 72.3537C75.9299 72.1321 76.1344 71.9503 76.3816 71.8082C76.6287 71.6634 76.9128 71.5497 77.2338 71.4673C77.5549 71.3849 77.9043 71.3224 78.2821 71.2798C78.6515 71.2344 78.9668 71.1946 79.2282 71.1605C79.4895 71.1264 79.6926 71.0724 79.8375 70.9986C79.9824 70.9247 80.0691 70.8054 80.0975 70.6406L80.123 70.4872C80.1969 70.0412 80.1287 69.6903 79.9185 69.4347C79.7083 69.1761 79.356 69.0469 78.8617 69.0469C78.3901 69.0469 77.981 69.152 77.6344 69.3622C77.2907 69.5696 77.035 69.8125 76.8674 70.0909L76.1941 69.831C76.3986 69.473 76.65 69.1875 76.9483 68.9744C77.2466 68.7585 77.5662 68.6037 77.9071 68.5099C78.248 68.4134 78.5847 68.3651 78.9171 68.3651C79.1671 68.3651 79.4213 68.3977 79.6799 68.4631C79.9384 68.5284 80.1699 68.642 80.3745 68.804C80.5819 68.9631 80.7338 69.1861 80.8304 69.473C80.9299 69.7571 80.9441 70.1179 80.873 70.5554L80.1316 75H79.373L79.5478 73.9645H79.5009C79.3816 74.1577 79.2168 74.3452 79.0066 74.527C78.7992 74.7088 78.5506 74.858 78.2608 74.9744C77.9711 75.0909 77.6444 75.1491 77.2807 75.1491ZM77.4725 74.4545C77.8759 74.4545 78.2409 74.3651 78.5676 74.1861C78.8972 74.0071 79.1671 73.7699 79.3773 73.4744C79.5904 73.1761 79.7267 72.848 79.7864 72.4901L79.9441 71.544C79.8816 71.598 79.7793 71.6463 79.6373 71.6889C79.498 71.7315 79.3404 71.7699 79.1642 71.804C78.9909 71.8352 78.8162 71.8622 78.6401 71.8849C78.4668 71.9077 78.3134 71.9276 78.1799 71.9446C77.802 71.9901 77.4725 72.0611 77.1912 72.1577C76.9128 72.2543 76.6898 72.3878 76.5222 72.5582C76.3546 72.7259 76.2495 72.9418 76.2069 73.206C76.1415 73.6037 76.2282 73.9119 76.4668 74.1307C76.7083 74.3466 77.0435 74.4545 77.4725 74.4545ZM88.0641 75.1364C87.4732 75.1364 86.986 74.9901 86.6025 74.6974C86.2189 74.4048 85.9505 74.0043 85.7971 73.4957C85.6465 72.9844 85.6252 72.4048 85.7331 71.7571C85.8411 71.098 86.0584 70.5142 86.3851 70.0057C86.7118 69.4943 87.1152 69.0937 87.5953 68.804C88.0783 68.5114 88.6053 68.3651 89.1763 68.3651C89.6167 68.3651 90.0002 68.4503 90.3269 68.6207C90.6536 68.7884 90.9064 69.0256 91.0854 69.3324C91.2644 69.6364 91.3496 69.9915 91.3411 70.3977H90.574C90.5542 70.0199 90.4164 69.7017 90.1607 69.4432C89.9078 69.1847 89.5499 69.0554 89.0868 69.0554C88.6635 69.0554 88.2715 69.169 87.9107 69.3963C87.5499 69.6207 87.2445 69.9347 86.9945 70.3381C86.7473 70.7386 86.5811 71.2031 86.4959 71.7315C86.405 72.2628 86.4135 72.733 86.5215 73.142C86.6294 73.5483 86.8226 73.8665 87.101 74.0966C87.3823 74.3267 87.7374 74.4418 88.1664 74.4418C88.459 74.4418 88.7346 74.3878 88.9931 74.2798C89.2516 74.169 89.4803 74.0128 89.6792 73.8111C89.878 73.6065 90.03 73.3665 90.1351 73.0909H90.9022C90.7743 73.4886 90.5726 73.8409 90.2971 74.1477C90.0243 74.4545 89.6976 74.696 89.3169 74.8722C88.9363 75.0483 88.5186 75.1364 88.0641 75.1364ZM92.204 75L93.2949 68.4545H94.0321L93.8617 69.4602H93.9171C94.0989 69.1307 94.3702 68.8651 94.731 68.6634C95.0946 68.4588 95.4824 68.3565 95.8944 68.3565C95.9569 68.3565 96.0265 68.358 96.1032 68.3608C96.1799 68.3608 96.2438 68.3636 96.2949 68.3693L96.1628 69.1406C96.1287 69.1349 96.0691 69.1264 95.9838 69.1151C95.9015 69.1037 95.8091 69.098 95.7069 69.098C95.3659 69.098 95.0506 69.1705 94.7608 69.3153C94.4739 69.4574 94.2324 69.6548 94.0364 69.9077C93.8432 70.1605 93.7182 70.4489 93.6614 70.7727L92.9625 75H92.204ZM96.5016 75L97.5925 68.4545H98.3553L97.2644 75H96.5016ZM98.2488 67.3168C98.0897 67.3168 97.9547 67.2628 97.8439 67.1548C97.736 67.0469 97.6834 66.9162 97.6863 66.7628C97.6919 66.6179 97.7502 66.4929 97.861 66.3878C97.9746 66.2798 98.1081 66.2259 98.2615 66.2259C98.4206 66.2259 98.5556 66.2812 98.6664 66.392C98.7772 66.5 98.8297 66.6307 98.824 66.7841C98.8212 66.929 98.763 67.054 98.6493 67.1591C98.5357 67.2642 98.4022 67.3168 98.2488 67.3168ZM101.081 75.1491C100.687 75.1491 100.339 75.0724 100.037 74.919C99.7363 74.7628 99.5119 74.5384 99.3642 74.2457C99.2193 73.9503 99.1795 73.5923 99.2449 73.1719C99.3017 72.848 99.4096 72.5753 99.5687 72.3537C99.7306 72.1321 99.9352 71.9503 100.182 71.8082C100.43 71.6634 100.714 71.5497 101.035 71.4673C101.356 71.3849 101.705 71.3224 102.083 71.2798C102.452 71.2344 102.768 71.1946 103.029 71.1605C103.29 71.1264 103.493 71.0724 103.638 70.9986C103.783 70.9247 103.87 70.8054 103.898 70.6406L103.924 70.4872C103.998 70.0412 103.93 69.6903 103.719 69.4347C103.509 69.1761 103.157 69.0469 102.662 69.0469C102.191 69.0469 101.782 69.152 101.435 69.3622C101.091 69.5696 100.836 69.8125 100.668 70.0909L99.9949 69.831C100.199 69.473 100.451 69.1875 100.749 68.9744C101.047 68.7585 101.367 68.6037 101.708 68.5099C102.049 68.4134 102.385 68.3651 102.718 68.3651C102.968 68.3651 103.222 68.3977 103.481 68.4631C103.739 68.5284 103.971 68.642 104.175 68.804C104.383 68.9631 104.535 69.1861 104.631 69.473C104.731 69.7571 104.745 70.1179 104.674 70.5554L103.932 75H103.174L103.349 73.9645H103.302C103.182 74.1577 103.018 74.3452 102.807 74.527C102.6 74.7088 102.351 74.858 102.062 74.9744C101.772 75.0909 101.445 75.1491 101.081 75.1491ZM101.273 74.4545C101.677 74.4545 102.042 74.3651 102.368 74.1861C102.698 74.0071 102.968 73.7699 103.178 73.4744C103.391 73.1761 103.528 72.848 103.587 72.4901L103.745 71.544C103.682 71.598 103.58 71.6463 103.438 71.6889C103.299 71.7315 103.141 71.7699 102.965 71.804C102.792 71.8352 102.617 71.8622 102.441 71.8849C102.268 71.9077 102.114 71.9276 101.981 71.9446C101.603 71.9901 101.273 72.0611 100.992 72.1577C100.714 72.2543 100.491 72.3878 100.323 72.5582C100.155 72.7259 100.05 72.9418 100.008 73.206C99.9423 73.6037 100.029 73.9119 100.268 74.1307C100.509 74.3466 100.844 74.4545 101.273 74.4545ZM108.49 75.1364C107.899 75.1364 107.412 74.9901 107.028 74.6974C106.645 74.4048 106.376 74.0043 106.223 73.4957C106.072 72.9844 106.051 72.4048 106.159 71.7571C106.267 71.098 106.484 70.5142 106.811 70.0057C107.138 69.4943 107.541 69.0937 108.021 68.804C108.504 68.5114 109.031 68.3651 109.602 68.3651C110.042 68.3651 110.426 68.4503 110.753 68.6207C111.079 68.7884 111.332 69.0256 111.511 69.3324C111.69 69.6364 111.775 69.9915 111.767 70.3977H111C110.98 70.0199 110.842 69.7017 110.586 69.4432C110.334 69.1847 109.976 69.0554 109.513 69.0554C109.089 69.0554 108.697 69.169 108.336 69.3963C107.976 69.6207 107.67 69.9347 107.42 70.3381C107.173 70.7386 107.007 71.2031 106.922 71.7315C106.831 72.2628 106.839 72.733 106.947 73.142C107.055 73.5483 107.248 73.8665 107.527 74.0966C107.808 74.3267 108.163 74.4418 108.592 74.4418C108.885 74.4418 109.16 74.3878 109.419 74.2798C109.677 74.169 109.906 74.0128 110.105 73.8111C110.304 73.6065 110.456 73.3665 110.561 73.0909H111.328C111.2 73.4886 110.998 73.8409 110.723 74.1477C110.45 74.4545 110.123 74.696 109.743 74.8722C109.362 75.0483 108.944 75.1364 108.49 75.1364ZM108.179 74.9659H108.827L108.694 75.3068C108.939 75.3438 109.133 75.4418 109.278 75.6009C109.423 75.7628 109.469 75.9986 109.415 76.3082C109.358 76.652 109.179 76.9247 108.878 77.1264C108.579 77.3281 108.172 77.4318 107.655 77.4375L107.723 76.9048C108.004 76.902 108.233 76.8551 108.409 76.7642C108.585 76.6733 108.689 76.5284 108.72 76.3295C108.757 76.1165 108.707 75.9659 108.571 75.8778C108.437 75.7898 108.21 75.7372 107.889 75.7202L108.179 74.9659ZM114.441 75.1491C114.046 75.1491 113.698 75.0724 113.397 74.919C113.096 74.7628 112.871 74.5384 112.724 74.2457C112.579 73.9503 112.539 73.5923 112.604 73.1719C112.661 72.848 112.769 72.5753 112.928 72.3537C113.09 72.1321 113.295 71.9503 113.542 71.8082C113.789 71.6634 114.073 71.5497 114.394 71.4673C114.715 71.3849 115.064 71.3224 115.442 71.2798C115.812 71.2344 116.127 71.1946 116.388 71.1605C116.65 71.1264 116.853 71.0724 116.998 70.9986C117.143 70.9247 117.229 70.8054 117.258 70.6406L117.283 70.4872C117.357 70.0412 117.289 69.6903 117.079 69.4347C116.868 69.1761 116.516 69.0469 116.022 69.0469C115.55 69.0469 115.141 69.152 114.795 69.3622C114.451 69.5696 114.195 69.8125 114.028 70.0909L113.354 69.831C113.559 69.473 113.81 69.1875 114.108 68.9744C114.407 68.7585 114.726 68.6037 115.067 68.5099C115.408 68.4134 115.745 68.3651 116.077 68.3651C116.327 68.3651 116.581 68.3977 116.84 68.4631C117.099 68.5284 117.33 68.642 117.535 68.804C117.742 68.9631 117.894 69.1861 117.991 69.473C118.09 69.7571 118.104 70.1179 118.033 70.5554L117.292 75H116.533L116.708 73.9645H116.661C116.542 74.1577 116.377 74.3452 116.167 74.527C115.959 74.7088 115.711 74.858 115.421 74.9744C115.131 75.0909 114.805 75.1491 114.441 75.1491ZM114.633 74.4545C115.036 74.4545 115.401 74.3651 115.728 74.1861C116.057 74.0071 116.327 73.7699 116.537 73.4744C116.751 73.1761 116.887 72.848 116.947 72.4901L117.104 71.544C117.042 71.598 116.939 71.6463 116.797 71.6889C116.658 71.7315 116.501 71.7699 116.324 71.804C116.151 71.8352 115.976 71.8622 115.8 71.8849C115.627 71.9077 115.474 71.9276 115.34 71.9446C114.962 71.9901 114.633 72.0611 114.351 72.1577C114.073 72.2543 113.85 72.3878 113.682 72.5582C113.515 72.7259 113.41 72.9418 113.367 73.206C113.302 73.6037 113.388 73.9119 113.627 74.1307C113.868 74.3466 114.204 74.4545 114.633 74.4545ZM114.833 67.5511L114.228 67.517C114.302 67.1392 114.476 66.8295 114.752 66.5881C115.028 66.3466 115.336 66.2259 115.677 66.2259C115.85 66.2259 115.996 66.2571 116.116 66.3196C116.238 66.3793 116.35 66.4489 116.452 66.5284C116.555 66.6051 116.661 66.6733 116.772 66.733C116.885 66.7926 117.019 66.8224 117.172 66.8224C117.346 66.8224 117.508 66.7599 117.658 66.6349C117.812 66.5099 117.91 66.3551 117.952 66.1705L118.536 66.2386C118.456 66.6193 118.278 66.9247 117.999 67.1548C117.724 67.3821 117.421 67.4957 117.091 67.4957C116.901 67.4957 116.746 67.4659 116.627 67.4062C116.51 67.3438 116.405 67.2741 116.312 67.1974C116.221 67.1179 116.123 67.0483 116.018 66.9886C115.912 66.929 115.775 66.8991 115.604 66.8991C115.422 66.8991 115.259 66.9616 115.114 67.0866C114.969 67.2116 114.876 67.3665 114.833 67.5511ZM121.883 75.1364C121.309 75.1364 120.827 74.9915 120.434 74.7017C120.042 74.4091 119.765 74.0043 119.604 73.4872C119.442 72.9702 119.415 72.3736 119.523 71.6974C119.631 71.0384 119.845 70.4588 120.166 69.9588C120.49 69.456 120.888 69.0653 121.359 68.7869C121.831 68.5057 122.344 68.3651 122.898 68.3651C123.474 68.3651 123.957 68.5114 124.346 68.804C124.738 69.0966 125.015 69.5014 125.177 70.0185C125.342 70.5355 125.371 71.1335 125.263 71.8125C125.155 72.4688 124.939 73.0469 124.615 73.5469C124.291 74.044 123.893 74.4332 123.422 74.7145C122.953 74.9957 122.44 75.1364 121.883 75.1364ZM121.892 74.4418C122.358 74.4418 122.773 74.3182 123.136 74.071C123.503 73.821 123.805 73.4886 124.044 73.0739C124.282 72.6562 124.443 72.1974 124.525 71.6974C124.602 71.2202 124.594 70.7812 124.5 70.3807C124.406 69.9801 124.226 69.6591 123.959 69.4176C123.692 69.1761 123.336 69.0554 122.893 69.0554C122.43 69.0554 122.015 69.1818 121.649 69.4347C121.282 69.6847 120.98 70.0199 120.741 70.4403C120.503 70.858 120.344 71.3153 120.264 71.8125C120.184 72.2926 120.19 72.7315 120.281 73.1293C120.375 73.527 120.555 73.8452 120.822 74.0838C121.092 74.3224 121.449 74.4418 121.892 74.4418ZM132.118 75.1364C131.581 75.1364 131.134 74.9943 130.776 74.7102C130.418 74.4261 130.168 74.0298 130.026 73.5213C129.884 73.0128 129.868 72.4205 129.979 71.7443C130.093 71.071 130.304 70.4815 130.614 69.9759C130.926 69.4673 131.308 69.0724 131.76 68.7912C132.215 68.5071 132.71 68.3651 133.247 68.3651C133.648 68.3651 133.968 68.4361 134.206 68.5781C134.448 68.7173 134.631 68.8906 134.756 69.098C134.881 69.3054 134.97 69.5071 135.024 69.7031H135.093L135.664 66.2727H136.426L134.977 75H134.24L134.445 73.7855H134.351C134.229 73.9844 134.068 74.1889 133.869 74.3991C133.673 74.6065 133.432 74.7812 133.145 74.9233C132.858 75.0653 132.516 75.1364 132.118 75.1364ZM132.284 74.4418C132.708 74.4418 133.09 74.3267 133.431 74.0966C133.774 73.8636 134.061 73.544 134.291 73.1378C134.524 72.7287 134.683 72.2599 134.769 71.7315C134.857 71.2088 134.855 70.7472 134.764 70.3466C134.673 69.9432 134.497 69.6278 134.236 69.4006C133.975 69.1705 133.629 69.0554 133.2 69.0554C132.766 69.0554 132.379 69.1747 132.041 69.4134C131.703 69.6491 131.423 69.9687 131.202 70.3722C130.983 70.7756 130.831 71.2287 130.746 71.7315C130.664 72.2401 130.664 72.6989 130.746 73.108C130.828 73.517 130.996 73.8423 131.249 74.0838C131.504 74.3224 131.85 74.4418 132.284 74.4418ZM139.763 75.1364C139.152 75.1364 138.648 74.9943 138.25 74.7102C137.852 74.4233 137.574 74.027 137.415 73.5213C137.256 73.0128 137.232 72.4276 137.343 71.7656C137.453 71.1065 137.672 70.5213 137.999 70.0099C138.325 69.4957 138.729 69.0937 139.209 68.804C139.689 68.5114 140.21 68.3651 140.773 68.3651C141.128 68.3651 141.46 68.4304 141.77 68.5611C142.08 68.6889 142.343 68.8864 142.558 69.1534C142.777 69.4176 142.929 69.7514 143.014 70.1548C143.1 70.5554 143.097 71.0298 143.006 71.5781L142.946 71.9531H137.833L137.939 71.2841H142.281C142.352 70.8636 142.333 70.4858 142.222 70.1506C142.111 69.8153 141.922 69.5497 141.655 69.3537C141.391 69.1548 141.063 69.0554 140.671 69.0554C140.27 69.0554 139.891 69.1676 139.533 69.392C139.178 69.6165 138.877 69.9091 138.629 70.2699C138.385 70.6278 138.227 71.0099 138.156 71.4162L138.071 71.919C137.98 72.473 137.992 72.9375 138.105 73.3125C138.219 73.6847 138.425 73.9659 138.723 74.1562C139.021 74.3466 139.404 74.4418 139.869 74.4418C140.182 74.4418 140.465 74.3935 140.718 74.2969C140.97 74.2003 141.191 74.071 141.378 73.9091C141.566 73.7443 141.716 73.5639 141.83 73.3679L142.507 73.6023C142.362 73.8778 142.158 74.1321 141.894 74.3651C141.632 74.598 141.321 74.7855 140.96 74.9276C140.602 75.0668 140.203 75.1364 139.763 75.1364ZM149.689 66.2727L148.24 75H147.481L148.93 66.2727H149.689ZM152.821 75.1364C152.247 75.1364 151.764 74.9915 151.372 74.7017C150.98 74.4091 150.703 74.0043 150.541 73.4872C150.379 72.9702 150.352 72.3736 150.46 71.6974C150.568 71.0384 150.782 70.4588 151.104 69.9588C151.427 69.456 151.825 69.0653 152.297 68.7869C152.768 68.5057 153.281 68.3651 153.835 68.3651C154.412 68.3651 154.895 68.5114 155.284 68.804C155.676 69.0966 155.953 69.5014 156.115 70.0185C156.28 70.5355 156.308 71.1335 156.2 71.8125C156.092 72.4688 155.876 73.0469 155.552 73.5469C155.229 74.044 154.831 74.4332 154.359 74.7145C153.89 74.9957 153.378 75.1364 152.821 75.1364ZM152.829 74.4418C153.295 74.4418 153.71 74.3182 154.074 74.071C154.44 73.821 154.743 73.4886 154.981 73.0739C155.22 72.6562 155.381 72.1974 155.463 71.6974C155.54 71.2202 155.531 70.7812 155.437 70.3807C155.344 69.9801 155.163 69.6591 154.896 69.4176C154.629 69.1761 154.274 69.0554 153.831 69.0554C153.368 69.0554 152.953 69.1818 152.586 69.4347C152.22 69.6847 151.917 70.0199 151.679 70.4403C151.44 70.858 151.281 71.3153 151.202 71.8125C151.122 72.2926 151.128 72.7315 151.219 73.1293C151.312 73.527 151.493 73.8452 151.76 74.0838C152.03 74.3224 152.386 74.4418 152.829 74.4418ZM159.425 77.5909C158.979 77.5909 158.597 77.5327 158.279 77.4162C157.96 77.3026 157.702 77.1463 157.503 76.9474C157.307 76.7486 157.164 76.5256 157.073 76.2784L157.763 75.8736C157.825 76.0384 157.921 76.2003 158.048 76.3594C158.176 76.5185 158.357 76.6491 158.59 76.7514C158.823 76.8565 159.128 76.9091 159.506 76.9091C160.083 76.9091 160.578 76.7628 160.993 76.4702C161.408 76.1804 161.666 75.7315 161.769 75.1236L161.999 73.6491H161.931C161.814 73.848 161.658 74.0469 161.462 74.2457C161.266 74.4418 161.023 74.6051 160.733 74.7358C160.446 74.8665 160.107 74.9318 159.715 74.9318C159.192 74.9318 158.749 74.8026 158.385 74.544C158.021 74.2855 157.764 73.9162 157.614 73.4361C157.463 72.9531 157.445 72.3778 157.558 71.7102C157.666 71.0483 157.874 70.4659 158.181 69.9631C158.49 69.4602 158.871 69.0682 159.323 68.7869C159.777 68.5057 160.274 68.3651 160.814 68.3651C161.215 68.3651 161.536 68.4361 161.777 68.5781C162.019 68.7173 162.202 68.8906 162.327 69.098C162.455 69.3054 162.547 69.5071 162.604 69.7031H162.681L162.885 68.4545H163.627L162.519 75.1705C162.425 75.7244 162.232 76.1804 161.939 76.5384C161.646 76.8963 161.283 77.1605 160.848 77.331C160.416 77.5043 159.942 77.5909 159.425 77.5909ZM159.885 74.2372C160.306 74.2372 160.683 74.1364 161.019 73.9347C161.357 73.7301 161.639 73.4389 161.867 73.0611C162.097 72.6804 162.254 72.2259 162.34 71.6974C162.425 71.1861 162.421 70.733 162.327 70.3381C162.236 69.9403 162.058 69.6278 161.794 69.4006C161.533 69.1705 161.189 69.0554 160.763 69.0554C160.323 69.0554 159.933 69.1733 159.595 69.4091C159.26 69.6449 158.983 69.9631 158.764 70.3636C158.548 70.7614 158.399 71.206 158.317 71.6974C158.237 72.1974 158.24 72.6392 158.325 73.0227C158.414 73.4034 158.587 73.7017 158.845 73.9176C159.104 74.1307 159.45 74.2372 159.885 74.2372ZM167.118 75.1364C166.544 75.1364 166.061 74.9915 165.669 74.7017C165.277 74.4091 165 74.0043 164.838 73.4872C164.676 72.9702 164.649 72.3736 164.757 71.6974C164.865 71.0384 165.079 70.4588 165.4 69.9588C165.724 69.456 166.122 69.0653 166.594 68.7869C167.065 68.5057 167.578 68.3651 168.132 68.3651C168.709 68.3651 169.192 68.5114 169.581 68.804C169.973 69.0966 170.25 69.5014 170.412 70.0185C170.577 70.5355 170.605 71.1335 170.497 71.8125C170.389 72.4688 170.173 73.0469 169.849 73.5469C169.525 74.044 169.128 74.4332 168.656 74.7145C168.187 74.9957 167.675 75.1364 167.118 75.1364ZM167.126 74.4418C167.592 74.4418 168.007 74.3182 168.371 74.071C168.737 73.821 169.04 73.4886 169.278 73.0739C169.517 72.6562 169.677 72.1974 169.76 71.6974C169.836 71.2202 169.828 70.7812 169.734 70.3807C169.64 69.9801 169.46 69.6591 169.193 69.4176C168.926 69.1761 168.571 69.0554 168.128 69.0554C167.665 69.0554 167.25 69.1818 166.883 69.4347C166.517 69.6847 166.214 70.0199 165.976 70.4403C165.737 70.858 165.578 71.3153 165.498 71.8125C165.419 72.2926 165.425 72.7315 165.515 73.1293C165.609 73.527 165.79 73.8452 166.057 74.0838C166.327 74.3224 166.683 74.4418 167.126 74.4418ZM175.303 68.4545L175.196 69.1151H172.068L172.179 68.4545H175.303ZM173.411 66.8864H174.173L173.108 73.2912C173.063 73.5639 173.074 73.7784 173.142 73.9347C173.21 74.0881 173.316 74.1974 173.458 74.2628C173.6 74.3253 173.756 74.3565 173.926 74.3565C174.026 74.3565 174.111 74.3509 174.182 74.3395C174.256 74.3253 174.321 74.3111 174.378 74.2969L174.433 74.983C174.351 75.0114 174.253 75.0369 174.139 75.0597C174.026 75.0852 173.889 75.098 173.73 75.098C173.452 75.098 173.195 75.0369 172.959 74.9148C172.723 74.7926 172.544 74.6108 172.422 74.3693C172.3 74.1278 172.267 73.8281 172.324 73.4702L173.411 66.8864ZM175.943 75L177.034 68.4545H177.797L176.706 75H175.943ZM177.69 67.3168C177.531 67.3168 177.396 67.2628 177.285 67.1548C177.177 67.0469 177.125 66.9162 177.128 66.7628C177.133 66.6179 177.192 66.4929 177.302 66.3878C177.416 66.2798 177.55 66.2259 177.703 66.2259C177.862 66.2259 177.997 66.2812 178.108 66.392C178.219 66.5 178.271 66.6307 178.265 66.7841C178.263 66.929 178.204 67.054 178.091 67.1591C177.977 67.2642 177.844 67.3168 177.69 67.3168ZM178.303 77.4545L179.811 68.4545H180.548L180.344 69.7031H180.433C180.553 69.5071 180.708 69.3054 180.898 69.098C181.091 68.8906 181.331 68.7173 181.618 68.5781C181.908 68.4361 182.254 68.3651 182.658 68.3651C183.198 68.3651 183.645 68.5057 184 68.7869C184.358 69.0682 184.608 69.4631 184.75 69.9716C184.895 70.4801 184.911 71.071 184.797 71.7443C184.686 72.4205 184.475 73.0128 184.162 73.5213C183.85 74.0298 183.468 74.4261 183.016 74.7102C182.567 74.9943 182.075 75.1364 181.541 75.1364C181.146 75.1364 180.827 75.0653 180.583 74.9233C180.341 74.7812 180.156 74.6065 180.029 74.3991C179.901 74.1889 179.808 73.9844 179.752 73.7855H179.683L179.07 77.4545H178.303ZM180.016 71.7315C179.931 72.2599 179.931 72.7287 180.016 73.1378C180.101 73.544 180.273 73.8636 180.531 74.0966C180.79 74.3267 181.131 74.4418 181.554 74.4418C181.989 74.4418 182.377 74.3224 182.718 74.0838C183.058 73.8423 183.343 73.517 183.57 73.108C183.797 72.6989 183.953 72.2401 184.039 71.7315C184.118 71.2287 184.115 70.7756 184.03 70.3722C183.945 69.9687 183.774 69.6491 183.519 69.4134C183.263 69.1747 182.915 69.0554 182.475 69.0554C182.048 69.0554 181.665 69.1705 181.324 69.4006C180.986 69.6278 180.705 69.9432 180.48 70.3466C180.256 70.7472 180.101 71.2088 180.016 71.7315ZM188.493 75.1364C187.919 75.1364 187.436 74.9915 187.044 74.7017C186.652 74.4091 186.375 74.0043 186.213 73.4872C186.051 72.9702 186.024 72.3736 186.132 71.6974C186.24 71.0384 186.454 70.4588 186.775 69.9588C187.099 69.456 187.497 69.0653 187.969 68.7869C188.44 68.5057 188.953 68.3651 189.507 68.3651C190.084 68.3651 190.567 68.5114 190.956 68.804C191.348 69.0966 191.625 69.5014 191.787 70.0185C191.952 70.5355 191.98 71.1335 191.872 71.8125C191.764 72.4688 191.548 73.0469 191.224 73.5469C190.9 74.044 190.503 74.4332 190.031 74.7145C189.562 74.9957 189.05 75.1364 188.493 75.1364ZM188.501 74.4418C188.967 74.4418 189.382 74.3182 189.746 74.071C190.112 73.821 190.415 73.4886 190.653 73.0739C190.892 72.6562 191.052 72.1974 191.135 71.6974C191.211 71.2202 191.203 70.7812 191.109 70.3807C191.015 69.9801 190.835 69.6591 190.568 69.4176C190.301 69.1761 189.946 69.0554 189.503 69.0554C189.04 69.0554 188.625 69.1818 188.258 69.4347C187.892 69.6847 187.589 70.0199 187.351 70.4403C187.112 70.858 186.953 71.3153 186.873 71.8125C186.794 72.2926 186.8 72.7315 186.89 73.1293C186.984 73.527 187.165 73.8452 187.432 74.0838C187.702 74.3224 188.058 74.4418 188.501 74.4418ZM198.259 69.8906L197.53 70.0781C197.493 69.8821 197.425 69.706 197.325 69.5497C197.229 69.3906 197.088 69.2656 196.904 69.1747C196.722 69.081 196.483 69.0341 196.188 69.0341C195.744 69.0341 195.362 69.142 195.041 69.358C194.72 69.571 194.533 69.8437 194.479 70.1761C194.433 70.4545 194.492 70.6804 194.654 70.8537C194.818 71.027 195.094 71.1634 195.48 71.2628L196.435 71.5057C196.963 71.642 197.34 71.8551 197.564 72.1449C197.791 72.4347 197.869 72.8011 197.798 73.2443C197.736 73.6136 197.578 73.9403 197.325 74.2244C197.075 74.5085 196.754 74.7315 196.362 74.8935C195.973 75.0554 195.539 75.1364 195.058 75.1364C194.414 75.1364 193.906 74.9915 193.537 74.7017C193.171 74.4119 192.975 73.9943 192.949 73.4489L193.712 73.2784C193.735 73.6648 193.867 73.9574 194.108 74.1562C194.352 74.3551 194.696 74.4545 195.139 74.4545C195.645 74.4545 196.07 74.3395 196.414 74.1094C196.757 73.8793 196.955 73.5952 197.006 73.2571C197.054 72.9901 197.004 72.7685 196.857 72.5923C196.712 72.4162 196.465 72.2855 196.115 72.2003L195.097 71.9446C194.548 71.8054 194.161 71.5881 193.933 71.2926C193.709 70.9943 193.634 70.6264 193.708 70.1889C193.767 69.8281 193.918 69.5114 194.159 69.2386C194.401 68.9659 194.706 68.7528 195.075 68.5994C195.445 68.4432 195.848 68.3651 196.286 68.3651C196.888 68.3651 197.347 68.5014 197.662 68.7741C197.977 69.044 198.176 69.4162 198.259 69.8906ZM205.165 75.1364C204.555 75.1364 204.05 74.9943 203.653 74.7102C203.255 74.4233 202.976 74.027 202.817 73.5213C202.658 73.0128 202.634 72.4276 202.745 71.7656C202.856 71.1065 203.074 70.5213 203.401 70.0099C203.728 69.4957 204.131 69.0937 204.611 68.804C205.091 68.5114 205.613 68.3651 206.175 68.3651C206.53 68.3651 206.863 68.4304 207.172 68.5611C207.482 68.6889 207.745 68.8864 207.961 69.1534C208.18 69.4176 208.331 69.7514 208.417 70.1548C208.502 70.5554 208.499 71.0298 208.408 71.5781L208.349 71.9531H203.235L203.341 71.2841H207.684C207.755 70.8636 207.735 70.4858 207.624 70.1506C207.513 69.8153 207.324 69.5497 207.057 69.3537C206.793 69.1548 206.465 69.0554 206.073 69.0554C205.672 69.0554 205.293 69.1676 204.935 69.392C204.58 69.6165 204.279 69.9091 204.032 70.2699C203.787 70.6278 203.63 71.0099 203.559 71.4162L203.474 71.919C203.383 72.473 203.394 72.9375 203.508 73.3125C203.621 73.6847 203.827 73.9659 204.126 74.1562C204.424 74.3466 204.806 74.4418 205.272 74.4418C205.584 74.4418 205.867 74.3935 206.12 74.2969C206.373 74.2003 206.593 74.071 206.78 73.9091C206.968 73.7443 207.118 73.5639 207.232 73.3679L207.91 73.6023C207.765 73.8778 207.56 74.1321 207.296 74.3651C207.035 74.598 206.724 74.7855 206.363 74.9276C206.005 75.0668 205.606 75.1364 205.165 75.1364ZM216.553 68.4545L216.446 69.1151H213.318L213.429 68.4545H216.553ZM214.661 66.8864H215.423L214.358 73.2912C214.313 73.5639 214.324 73.7784 214.392 73.9347C214.46 74.0881 214.566 74.1974 214.708 74.2628C214.85 74.3253 215.006 74.3565 215.176 74.3565C215.276 74.3565 215.361 74.3509 215.432 74.3395C215.506 74.3253 215.571 74.3111 215.628 74.2969L215.683 74.983C215.601 75.0114 215.503 75.0369 215.389 75.0597C215.276 75.0852 215.139 75.098 214.98 75.098C214.702 75.098 214.445 75.0369 214.209 74.9148C213.973 74.7926 213.794 74.6108 213.672 74.3693C213.55 74.1278 213.517 73.8281 213.574 73.4702L214.661 66.8864ZM219.743 75.1364C219.133 75.1364 218.628 74.9943 218.231 74.7102C217.833 74.4233 217.555 74.027 217.395 73.5213C217.236 73.0128 217.212 72.4276 217.323 71.7656C217.434 71.1065 217.653 70.5213 217.979 70.0099C218.306 69.4957 218.709 69.0937 219.189 68.804C219.67 68.5114 220.191 68.3651 220.753 68.3651C221.108 68.3651 221.441 68.4304 221.751 68.5611C222.06 68.6889 222.323 68.8864 222.539 69.1534C222.758 69.4176 222.91 69.7514 222.995 70.1548C223.08 70.5554 223.077 71.0298 222.986 71.5781L222.927 71.9531H217.813L217.92 71.2841H222.262C222.333 70.8636 222.313 70.4858 222.202 70.1506C222.091 69.8153 221.903 69.5497 221.635 69.3537C221.371 69.1548 221.043 69.0554 220.651 69.0554C220.251 69.0554 219.871 69.1676 219.513 69.392C219.158 69.6165 218.857 69.9091 218.61 70.2699C218.366 70.6278 218.208 71.0099 218.137 71.4162L218.052 71.919C217.961 72.473 217.972 72.9375 218.086 73.3125C218.199 73.6847 218.405 73.9659 218.704 74.1562C219.002 74.3466 219.384 74.4418 219.85 74.4418C220.162 74.4418 220.445 74.3935 220.698 74.2969C220.951 74.2003 221.171 74.071 221.358 73.9091C221.546 73.7443 221.697 73.5639 221.81 73.3679L222.488 73.6023C222.343 73.8778 222.138 74.1321 221.874 74.3651C221.613 74.598 221.302 74.7855 220.941 74.9276C220.583 75.0668 220.184 75.1364 219.743 75.1364ZM224.087 75L225.178 68.4545H225.915L225.744 69.4602H225.813C226.003 69.1222 226.267 68.8565 226.605 68.6634C226.943 68.4673 227.327 68.3693 227.756 68.3693C228.205 68.3693 228.557 68.4759 228.813 68.6889C229.068 68.8991 229.239 69.1889 229.324 69.5582H229.379C229.584 69.1946 229.872 68.9062 230.244 68.6932C230.617 68.4773 231.041 68.3693 231.519 68.3693C232.124 68.3693 232.571 68.5611 232.861 68.9446C233.151 69.3281 233.235 69.8849 233.112 70.6151L232.379 75H231.621L232.354 70.6151C232.436 70.098 232.369 69.7102 232.154 69.4517C231.938 69.1932 231.614 69.0639 231.182 69.0639C230.682 69.0639 230.269 69.2173 229.942 69.5241C229.618 69.8281 229.418 70.2173 229.341 70.6918L228.621 75H227.845L228.591 70.5469C228.662 70.1037 228.598 69.7457 228.399 69.473C228.203 69.2003 227.881 69.0639 227.432 69.0639C227.128 69.0639 226.843 69.1392 226.575 69.2898C226.311 69.4375 226.087 69.6435 225.902 69.9077C225.72 70.169 225.601 70.4687 225.544 70.8068L224.845 75H224.087ZM233.979 77.4545L235.487 68.4545H236.224L236.02 69.7031H236.109C236.229 69.5071 236.383 69.3054 236.574 69.098C236.767 68.8906 237.007 68.7173 237.294 68.5781C237.584 68.4361 237.93 68.3651 238.334 68.3651C238.873 68.3651 239.321 68.5057 239.676 68.7869C240.034 69.0682 240.284 69.4631 240.426 69.9716C240.571 70.4801 240.586 71.071 240.473 71.7443C240.362 72.4205 240.15 73.0128 239.838 73.5213C239.525 74.0298 239.143 74.4261 238.692 74.7102C238.243 74.9943 237.751 75.1364 237.217 75.1364C236.822 75.1364 236.503 75.0653 236.258 74.9233C236.017 74.7812 235.832 74.6065 235.704 74.3991C235.577 74.1889 235.484 73.9844 235.427 73.7855H235.359L234.746 77.4545H233.979ZM235.692 71.7315C235.606 72.2599 235.606 72.7287 235.692 73.1378C235.777 73.544 235.949 73.8636 236.207 74.0966C236.466 74.3267 236.807 74.4418 237.23 74.4418C237.665 74.4418 238.052 74.3224 238.393 74.0838C238.734 73.8423 239.018 73.517 239.246 73.108C239.473 72.6989 239.629 72.2401 239.714 71.7315C239.794 71.2287 239.791 70.7756 239.706 70.3722C239.621 69.9687 239.45 69.6491 239.194 69.4134C238.939 69.1747 238.591 69.0554 238.15 69.0554C237.724 69.0554 237.341 69.1705 237 69.4006C236.662 69.6278 236.381 69.9432 236.156 70.3466C235.932 70.7472 235.777 71.2088 235.692 71.7315ZM243.802 66.2727L242.353 75H241.595L243.044 66.2727H243.802ZM246.171 75.1491C245.776 75.1491 245.428 75.0724 245.127 74.919C244.826 74.7628 244.602 74.5384 244.454 74.2457C244.309 73.9503 244.269 73.5923 244.335 73.1719C244.392 72.848 244.499 72.5753 244.659 72.3537C244.82 72.1321 245.025 71.9503 245.272 71.8082C245.519 71.6634 245.803 71.5497 246.124 71.4673C246.445 71.3849 246.795 71.3224 247.173 71.2798C247.542 71.2344 247.857 71.1946 248.119 71.1605C248.38 71.1264 248.583 71.0724 248.728 70.9986C248.873 70.9247 248.96 70.8054 248.988 70.6406L249.014 70.4872C249.088 70.0412 249.019 69.6903 248.809 69.4347C248.599 69.1761 248.247 69.0469 247.752 69.0469C247.281 69.0469 246.872 69.152 246.525 69.3622C246.181 69.5696 245.926 69.8125 245.758 70.0909L245.085 69.831C245.289 69.473 245.541 69.1875 245.839 68.9744C246.137 68.7585 246.457 68.6037 246.798 68.5099C247.139 68.4134 247.475 68.3651 247.808 68.3651C248.058 68.3651 248.312 68.3977 248.57 68.4631C248.829 68.5284 249.061 68.642 249.265 68.804C249.472 68.9631 249.624 69.1861 249.721 69.473C249.82 69.7571 249.835 70.1179 249.764 70.5554L249.022 75H248.264L248.438 73.9645H248.392C248.272 74.1577 248.107 74.3452 247.897 74.527C247.69 74.7088 247.441 74.858 247.151 74.9744C246.862 75.0909 246.535 75.1491 246.171 75.1491ZM246.363 74.4545C246.767 74.4545 247.132 74.3651 247.458 74.1861C247.788 74.0071 248.058 73.7699 248.268 73.4744C248.481 73.1761 248.617 72.848 248.677 72.4901L248.835 71.544C248.772 71.598 248.67 71.6463 248.528 71.6889C248.389 71.7315 248.231 71.7699 248.055 71.804C247.882 71.8352 247.707 71.8622 247.531 71.8849C247.357 71.9077 247.204 71.9276 247.07 71.9446C246.693 71.9901 246.363 72.0611 246.082 72.1577C245.803 72.2543 245.58 72.3878 245.413 72.5582C245.245 72.7259 245.14 72.9418 245.097 73.206C245.032 73.6037 245.119 73.9119 245.357 74.1307C245.599 74.3466 245.934 74.4545 246.363 74.4545ZM254.709 68.4545L254.602 69.1151H251.475L251.585 68.4545H254.709ZM252.817 66.8864H253.58L252.514 73.2912C252.469 73.5639 252.48 73.7784 252.548 73.9347C252.617 74.0881 252.722 74.1974 252.864 74.2628C253.006 74.3253 253.162 74.3565 253.333 74.3565C253.432 74.3565 253.517 74.3509 253.588 74.3395C253.662 74.3253 253.727 74.3111 253.784 74.2969L253.84 74.983C253.757 75.0114 253.659 75.0369 253.546 75.0597C253.432 75.0852 253.296 75.098 253.137 75.098C252.858 75.098 252.601 75.0369 252.365 74.9148C252.129 74.7926 251.95 74.6108 251.828 74.3693C251.706 74.1278 251.673 73.8281 251.73 73.4702L252.817 66.8864ZM257.9 75.1364C257.289 75.1364 256.785 74.9943 256.387 74.7102C255.989 74.4233 255.711 74.027 255.552 73.5213C255.393 73.0128 255.368 72.4276 255.479 71.7656C255.59 71.1065 255.809 70.5213 256.135 70.0099C256.462 69.4957 256.866 69.0937 257.346 68.804C257.826 68.5114 258.347 68.3651 258.91 68.3651C259.265 68.3651 259.597 68.4304 259.907 68.5611C260.216 68.6889 260.479 68.8864 260.695 69.1534C260.914 69.4176 261.066 69.7514 261.151 70.1548C261.236 70.5554 261.233 71.0298 261.143 71.5781L261.083 71.9531H255.969L256.076 71.2841H260.418C260.489 70.8636 260.469 70.4858 260.358 70.1506C260.248 69.8153 260.059 69.5497 259.792 69.3537C259.528 69.1548 259.199 69.0554 258.807 69.0554C258.407 69.0554 258.028 69.1676 257.67 69.392C257.314 69.6165 257.013 69.9091 256.766 70.2699C256.522 70.6278 256.364 71.0099 256.293 71.4162L256.208 71.919C256.117 72.473 256.128 72.9375 256.242 73.3125C256.356 73.6847 256.562 73.9659 256.86 74.1562C257.158 74.3466 257.54 74.4418 258.006 74.4418C258.319 74.4418 258.601 74.3935 258.854 74.2969C259.107 74.2003 259.327 74.071 259.515 73.9091C259.702 73.7443 259.853 73.5639 259.966 73.3679L260.644 73.6023C260.499 73.8778 260.295 74.1321 260.03 74.3651C259.769 74.598 259.458 74.7855 259.097 74.9276C258.739 75.0668 258.34 75.1364 257.9 75.1364ZM267.493 69.8906L266.764 70.0781C266.727 69.8821 266.659 69.706 266.56 69.5497C266.463 69.3906 266.323 69.2656 266.138 69.1747C265.956 69.081 265.718 69.0341 265.422 69.0341C264.979 69.0341 264.597 69.142 264.276 69.358C263.955 69.571 263.767 69.8437 263.713 70.1761C263.668 70.4545 263.726 70.6804 263.888 70.8537C264.053 71.027 264.328 71.1634 264.715 71.2628L265.669 71.5057C266.198 71.642 266.574 71.8551 266.798 72.1449C267.026 72.4347 267.104 72.8011 267.033 73.2443C266.97 73.6136 266.813 73.9403 266.56 74.2244C266.31 74.5085 265.989 74.7315 265.597 74.8935C265.208 75.0554 264.773 75.1364 264.293 75.1364C263.648 75.1364 263.141 74.9915 262.771 74.7017C262.405 74.4119 262.209 73.9943 262.183 73.4489L262.946 73.2784C262.969 73.6648 263.101 73.9574 263.343 74.1562C263.587 74.3551 263.931 74.4545 264.374 74.4545C264.879 74.4545 265.304 74.3395 265.648 74.1094C265.992 73.8793 266.189 73.5952 266.24 73.2571C266.289 72.9901 266.239 72.7685 266.091 72.5923C265.946 72.4162 265.699 72.2855 265.35 72.2003L264.331 71.9446C263.783 71.8054 263.395 71.5881 263.168 71.2926C262.943 70.9943 262.868 70.6264 262.942 70.1889C263.002 69.8281 263.152 69.5114 263.394 69.2386C263.635 68.9659 263.941 68.7528 264.31 68.5994C264.679 68.4432 265.083 68.3651 265.52 68.3651C266.122 68.3651 266.581 68.5014 266.896 68.7741C267.212 69.044 267.411 69.4162 267.493 69.8906ZM269.086 75.0639C268.915 75.0639 268.772 75.0043 268.655 74.8849C268.542 74.7656 268.485 74.6207 268.485 74.4503C268.485 74.2798 268.547 74.1364 268.672 74.0199C268.797 73.9034 268.944 73.8452 269.111 73.8452C269.279 73.8452 269.422 73.9048 269.542 74.0241C269.661 74.1435 269.718 74.2855 269.712 74.4503C269.709 74.5639 269.678 74.6676 269.618 74.7614C269.562 74.8523 269.486 74.9261 269.393 74.983C269.302 75.0369 269.199 75.0639 269.086 75.0639Z" fill="#F5F5F5"></path><path d="M74.4031 22.7354H72.6766C72.6273 22.4523 72.5365 22.2015 72.4042 21.983C72.2719 21.7614 72.1072 21.5736 71.9102 21.4197C71.7133 21.2659 71.4886 21.1504 71.2362 21.0735C70.9869 20.9935 70.7177 20.9535 70.4284 20.9535C69.9144 20.9535 69.4589 21.0827 69.0619 21.3413C68.6649 21.5967 68.354 21.9722 68.1294 22.4677C67.9047 22.9601 67.7923 23.5618 67.7923 24.2727C67.7923 24.996 67.9047 25.6054 68.1294 26.1009C68.3571 26.5933 68.6679 26.9657 69.0619 27.218C69.4589 27.4673 69.9128 27.592 70.4237 27.592C70.7069 27.592 70.9716 27.555 71.2178 27.4812C71.4671 27.4042 71.6902 27.2919 71.8872 27.1442C72.0872 26.9964 72.2549 26.8149 72.3904 26.5994C72.5289 26.384 72.6243 26.1378 72.6766 25.8608L74.4031 25.87C74.3385 26.3194 74.1985 26.741 73.983 27.1349C73.7707 27.5289 73.4922 27.8767 73.1475 28.1783C72.8028 28.4768 72.3996 28.7107 71.9379 28.88C71.4763 29.0462 70.9639 29.1293 70.4007 29.1293C69.5697 29.1293 68.828 28.9369 68.1755 28.5522C67.5231 28.1675 67.0091 27.612 66.6336 26.8857C66.2581 26.1593 66.0704 25.2884 66.0704 24.2727C66.0704 23.254 66.2597 22.383 66.6382 21.6598C67.0168 20.9335 67.5323 20.378 68.1847 19.9933C68.8372 19.6085 69.5758 19.4162 70.4007 19.4162C70.9269 19.4162 71.4163 19.4901 71.8687 19.6378C72.3211 19.7855 72.7243 20.0025 73.0782 20.2887C73.4321 20.5719 73.723 20.9196 73.9507 21.332C74.1816 21.7414 74.3324 22.2092 74.4031 22.7354ZM80.4173 26.0178V21.9091H82.0884V29H80.468V27.7397H80.3942C80.2341 28.1367 79.971 28.4614 79.6048 28.7138C79.2416 28.9661 78.7938 29.0923 78.2614 29.0923C77.7966 29.0923 77.3858 28.9892 77.0288 28.783C76.6748 28.5737 76.3978 28.2706 76.1978 27.8736C75.9978 27.4735 75.8977 26.9903 75.8977 26.424V21.9091H77.5689V26.1655C77.5689 26.6148 77.692 26.9718 77.9382 27.2365C78.1844 27.5012 78.5076 27.6335 78.9077 27.6335C79.1539 27.6335 79.3924 27.5735 79.6232 27.4535C79.854 27.3335 80.0433 27.1549 80.1911 26.918C80.3419 26.6779 80.4173 26.3778 80.4173 26.0178ZM83.8069 29V21.9091H85.4273V23.0909H85.5012C85.6304 22.6816 85.852 22.3661 86.1659 22.1445C86.4829 21.9199 86.8445 21.8075 87.2508 21.8075C87.3431 21.8075 87.4462 21.8121 87.5601 21.8214C87.6771 21.8275 87.774 21.8383 87.8509 21.8537V23.391C87.7802 23.3664 87.6678 23.3448 87.5139 23.3263C87.3631 23.3048 87.2169 23.294 87.0754 23.294C86.7707 23.294 86.4968 23.3602 86.2536 23.4925C86.0136 23.6218 85.8243 23.8018 85.6858 24.0327C85.5473 24.2635 85.4781 24.5297 85.4781 24.8313V29H83.8069ZM94.5656 23.7834L93.0422 23.9496C92.9991 23.7957 92.9237 23.651 92.816 23.5156C92.7113 23.3802 92.5698 23.271 92.3912 23.1879C92.2127 23.1048 91.9942 23.0632 91.7357 23.0632C91.3879 23.0632 91.0956 23.1386 90.8586 23.2894C90.6247 23.4402 90.5093 23.6357 90.5123 23.8757C90.5093 24.0819 90.5847 24.2496 90.7385 24.3789C90.8955 24.5082 91.154 24.6143 91.5141 24.6974L92.7236 24.956C93.3946 25.1006 93.8931 25.3299 94.2194 25.6438C94.5487 25.9577 94.7149 26.3686 94.718 26.8764C94.7149 27.3227 94.5841 27.7166 94.3256 28.0582C94.0701 28.3968 93.7146 28.6615 93.2591 28.8523C92.8037 29.0431 92.2805 29.1385 91.6895 29.1385C90.8216 29.1385 90.123 28.9569 89.5937 28.5938C89.0643 28.2275 88.7488 27.7182 88.6473 27.0657L90.2769 26.9087C90.3508 27.2288 90.5077 27.4704 90.7478 27.6335C90.9878 27.7966 91.3002 27.8782 91.6849 27.8782C92.0819 27.8782 92.4005 27.7966 92.6405 27.6335C92.8837 27.4704 93.0052 27.2688 93.0052 27.0288C93.0052 26.8256 92.9268 26.6579 92.7698 26.5256C92.6159 26.3932 92.3759 26.2917 92.0496 26.2209L90.8401 25.967C90.1599 25.8254 89.6568 25.5869 89.3305 25.2514C89.0043 24.9129 88.8427 24.4851 88.8458 23.968C88.8427 23.531 88.9612 23.1525 89.2013 22.8324C89.4444 22.5092 89.7814 22.2599 90.2123 22.0845C90.6462 21.906 91.1463 21.8168 91.7126 21.8168C92.5436 21.8168 93.1976 21.9937 93.6746 22.3477C94.1547 22.7016 94.4517 23.1802 94.5656 23.7834ZM99.189 29.1385C98.4965 29.1385 97.8964 28.9862 97.3886 28.6815C96.8808 28.3768 96.4868 27.9505 96.2068 27.4027C95.9298 26.8549 95.7913 26.2147 95.7913 25.4822C95.7913 24.7498 95.9298 24.1081 96.2068 23.5572C96.4868 23.0063 96.8808 22.5785 97.3886 22.2738C97.8964 21.9691 98.4965 21.8168 99.189 21.8168C99.8815 21.8168 100.482 21.9691 100.989 22.2738C101.497 22.5785 101.89 23.0063 102.167 23.5572C102.447 24.1081 102.587 24.7498 102.587 25.4822C102.587 26.2147 102.447 26.8549 102.167 27.4027C101.89 27.9505 101.497 28.3768 100.989 28.6815C100.482 28.9862 99.8815 29.1385 99.189 29.1385ZM99.1982 27.7997C99.5737 27.7997 99.8876 27.6966 100.14 27.4904C100.392 27.2811 100.58 27.0011 100.703 26.6502C100.829 26.2994 100.892 25.9085 100.892 25.4776C100.892 25.0437 100.829 24.6513 100.703 24.3004C100.58 23.9465 100.392 23.6649 100.14 23.4556C99.8876 23.2463 99.5737 23.1417 99.1982 23.1417C98.8135 23.1417 98.4935 23.2463 98.238 23.4556C97.9856 23.6649 97.7964 23.9465 97.6702 24.3004C97.5471 24.6513 97.4855 25.0437 97.4855 25.4776C97.4855 25.9085 97.5471 26.2994 97.6702 26.6502C97.7964 27.0011 97.9856 27.2811 98.238 27.4904C98.4935 27.6966 98.8135 27.7997 99.1982 27.7997ZM113.263 19.5455H114.976V25.7223C114.976 26.3994 114.816 26.9949 114.496 27.5089C114.179 28.0228 113.733 28.4245 113.157 28.7138C112.582 29 111.909 29.1431 111.14 29.1431C110.367 29.1431 109.693 29 109.118 28.7138C108.542 28.4245 108.096 28.0228 107.779 27.5089C107.462 26.9949 107.304 26.3994 107.304 25.7223V19.5455H109.016V25.5792C109.016 25.9731 109.103 26.324 109.275 26.6317C109.45 26.9395 109.696 27.1811 110.013 27.3565C110.33 27.5289 110.706 27.6151 111.14 27.6151C111.574 27.6151 111.949 27.5289 112.266 27.3565C112.586 27.1811 112.833 26.9395 113.005 26.6317C113.177 26.324 113.263 25.9731 113.263 25.5792V19.5455ZM118.551 19.5455V29H116.838V19.5455H118.551ZM124.191 19.1023L121.144 30.4219H119.68L122.727 19.1023H124.191ZM131.291 19.5455H133.004V25.7223C133.004 26.3994 132.844 26.9949 132.523 27.5089C132.206 28.0228 131.76 28.4245 131.185 28.7138C130.609 29 129.937 29.1431 129.167 29.1431C128.395 29.1431 127.721 29 127.145 28.7138C126.57 28.4245 126.123 28.0228 125.806 27.5089C125.489 26.9949 125.331 26.3994 125.331 25.7223V19.5455H127.044V25.5792C127.044 25.9731 127.13 26.324 127.302 26.6317C127.478 26.9395 127.724 27.1811 128.041 27.3565C128.358 27.5289 128.733 27.6151 129.167 27.6151C129.601 27.6151 129.977 27.5289 130.294 27.3565C130.614 27.1811 130.86 26.9395 131.032 26.6317C131.205 26.324 131.291 25.9731 131.291 25.5792V19.5455ZM136.296 19.5455L138.378 23.0078H138.452L140.543 19.5455H142.496L139.583 24.2727L142.542 29H140.557L138.452 25.5607H138.378L136.273 29H134.297L137.284 24.2727L134.334 19.5455H136.296ZM150.269 29H147.065V19.5455H150.334C151.272 19.5455 152.079 19.7347 152.753 20.1133C153.43 20.4888 153.95 21.0289 154.313 21.7337C154.676 22.4384 154.858 23.2817 154.858 24.2635C154.858 25.2483 154.675 26.0947 154.309 26.8026C153.945 27.5104 153.421 28.0536 152.734 28.4322C152.051 28.8107 151.229 29 150.269 29ZM148.778 27.5181H150.186C150.845 27.5181 151.394 27.3981 151.834 27.158C152.274 26.9149 152.605 26.5533 152.827 26.0732C153.048 25.59 153.159 24.9867 153.159 24.2635C153.159 23.5402 153.048 22.9401 152.827 22.4631C152.605 21.983 152.277 21.6244 151.843 21.3874C151.413 21.1474 150.877 21.0273 150.237 21.0273H148.778V27.5181ZM159.551 29.1385C158.84 29.1385 158.226 28.9908 157.709 28.6953C157.195 28.3968 156.799 27.9751 156.522 27.4304C156.245 26.8826 156.107 26.2378 156.107 25.4961C156.107 24.7667 156.245 24.1265 156.522 23.5756C156.802 23.0217 157.193 22.5908 157.695 22.283C158.196 21.9722 158.786 21.8168 159.463 21.8168C159.9 21.8168 160.312 21.8875 160.7 22.0291C161.091 22.1676 161.436 22.383 161.734 22.6754C162.036 22.9678 162.273 23.3402 162.445 23.7926C162.617 24.242 162.704 24.7775 162.704 25.3991V25.9116H156.892V24.7852H161.102C161.099 24.4651 161.029 24.1804 160.894 23.9311C160.759 23.6787 160.569 23.4802 160.326 23.3356C160.086 23.1909 159.806 23.1186 159.486 23.1186C159.144 23.1186 158.844 23.2017 158.586 23.3679C158.327 23.531 158.126 23.7464 157.981 24.0142C157.839 24.2789 157.767 24.5697 157.764 24.8867V25.87C157.764 26.2824 157.839 26.6364 157.99 26.9318C158.141 27.2242 158.352 27.4489 158.623 27.6058C158.894 27.7597 159.211 27.8366 159.574 27.8366C159.817 27.8366 160.037 27.8028 160.234 27.7351C160.431 27.6643 160.602 27.5612 160.746 27.4258C160.891 27.2904 161 27.1226 161.074 26.9226L162.634 27.098C162.536 27.5104 162.348 27.8705 162.071 28.1783C161.797 28.483 161.446 28.7199 161.019 28.8892C160.591 29.0554 160.102 29.1385 159.551 29.1385ZM169.722 23.7834L168.198 23.9496C168.155 23.7957 168.08 23.651 167.972 23.5156C167.868 23.3802 167.726 23.271 167.547 23.1879C167.369 23.1048 167.15 23.0632 166.892 23.0632C166.544 23.0632 166.252 23.1386 166.015 23.2894C165.781 23.4402 165.666 23.6357 165.669 23.8757C165.666 24.0819 165.741 24.2496 165.895 24.3789C166.052 24.5082 166.31 24.6143 166.67 24.6974L167.88 24.956C168.551 25.1006 169.049 25.3299 169.376 25.6438C169.705 25.9577 169.871 26.3686 169.874 26.8764C169.871 27.3227 169.74 27.7166 169.482 28.0582C169.226 28.3968 168.871 28.6615 168.415 28.8523C167.96 29.0431 167.437 29.1385 166.846 29.1385C165.978 29.1385 165.279 28.9569 164.75 28.5938C164.221 28.2275 163.905 27.7182 163.804 27.0657L165.433 26.9087C165.507 27.2288 165.664 27.4704 165.904 27.6335C166.144 27.7966 166.456 27.8782 166.841 27.8782C167.238 27.8782 167.557 27.7966 167.797 27.6335C168.04 27.4704 168.161 27.2688 168.161 27.0288C168.161 26.8256 168.083 26.6579 167.926 26.5256C167.772 26.3932 167.532 26.2917 167.206 26.2209L165.996 25.967C165.316 25.8254 164.813 25.5869 164.487 25.2514C164.161 24.9129 163.999 24.4851 164.002 23.968C163.999 23.531 164.117 23.1525 164.358 22.8324C164.601 22.5092 164.938 22.2599 165.369 22.0845C165.802 21.906 166.303 21.8168 166.869 21.8168C167.7 21.8168 168.354 21.9937 168.831 22.3477C169.311 22.7016 169.608 23.1802 169.722 23.7834ZM171.252 29V21.9091H172.923V29H171.252ZM172.092 20.9027C171.828 20.9027 171.6 20.815 171.409 20.6396C171.218 20.4611 171.123 20.2472 171.123 19.9979C171.123 19.7455 171.218 19.5316 171.409 19.3562C171.6 19.1777 171.828 19.0884 172.092 19.0884C172.36 19.0884 172.588 19.1777 172.776 19.3562C172.966 19.5316 173.062 19.7455 173.062 19.9979C173.062 20.2472 172.966 20.4611 172.776 20.6396C172.588 20.815 172.36 20.9027 172.092 20.9027ZM177.726 31.8068C177.126 31.8068 176.61 31.7253 176.179 31.5621C175.748 31.4021 175.402 31.1867 175.14 30.9158C174.879 30.645 174.697 30.3449 174.596 30.0156L176.101 29.6509C176.168 29.7894 176.267 29.9264 176.396 30.0618C176.525 30.2003 176.699 30.3142 176.918 30.4034C177.139 30.4957 177.418 30.5419 177.753 30.5419C178.227 30.5419 178.62 30.4265 178.931 30.1957C179.241 29.9679 179.397 29.5924 179.397 29.0692V27.7259H179.314C179.228 27.8982 179.101 28.0752 178.935 28.2567C178.772 28.4383 178.555 28.5907 178.284 28.7138C178.017 28.8369 177.68 28.8984 177.273 28.8984C176.729 28.8984 176.235 28.7707 175.791 28.5153C175.351 28.2567 175 27.872 174.739 27.3612C174.48 26.8472 174.351 26.204 174.351 25.4315C174.351 24.6528 174.48 23.9957 174.739 23.4602C175 22.9216 175.353 22.5138 175.796 22.2369C176.239 21.9568 176.733 21.8168 177.278 21.8168C177.693 21.8168 178.035 21.8875 178.303 22.0291C178.574 22.1676 178.789 22.3353 178.949 22.5323C179.109 22.7262 179.231 22.9093 179.314 23.0817H179.406V21.9091H181.054V29.1154C181.054 29.7217 180.91 30.2234 180.62 30.6204C180.331 31.0174 179.935 31.3144 179.434 31.5114C178.932 31.7083 178.363 31.8068 177.726 31.8068ZM177.74 27.5874C178.093 27.5874 178.395 27.5012 178.644 27.3288C178.894 27.1565 179.083 26.9087 179.212 26.5856C179.341 26.2624 179.406 25.8746 179.406 25.4222C179.406 24.976 179.341 24.5851 179.212 24.2496C179.086 23.9142 178.898 23.6541 178.649 23.4695C178.403 23.2817 178.1 23.1879 177.74 23.1879C177.367 23.1879 177.056 23.2848 176.807 23.4787C176.558 23.6726 176.37 23.9388 176.244 24.2773C176.118 24.6128 176.055 24.9944 176.055 25.4222C176.055 25.8562 176.118 26.2363 176.244 26.5625C176.373 26.8857 176.562 27.138 176.812 27.3196C177.064 27.4981 177.373 27.5874 177.74 27.5874ZM184.438 24.8452V29H182.767V21.9091H184.364V23.114H184.447C184.61 22.717 184.87 22.4015 185.227 22.1676C185.588 21.9337 186.032 21.8168 186.562 21.8168C187.051 21.8168 187.477 21.9214 187.84 22.1307C188.207 22.34 188.49 22.6431 188.69 23.0401C188.893 23.4371 188.993 23.9188 188.99 24.4851V29H187.319V24.7436C187.319 24.2696 187.196 23.8988 186.949 23.631C186.706 23.3633 186.369 23.2294 185.938 23.2294C185.646 23.2294 185.386 23.294 185.158 23.4233C184.934 23.5495 184.757 23.7326 184.627 23.9727C184.501 24.2127 184.438 24.5036 184.438 24.8452ZM197.006 29.1385C196.299 29.1385 195.691 28.9831 195.183 28.6722C194.678 28.3614 194.289 27.9321 194.015 27.3842C193.744 26.8333 193.609 26.1993 193.609 25.4822C193.609 24.7621 193.747 24.1265 194.024 23.5756C194.301 23.0217 194.692 22.5908 195.197 22.283C195.705 21.9722 196.305 21.8168 196.997 21.8168C197.573 21.8168 198.082 21.9229 198.525 22.1353C198.971 22.3446 199.327 22.6416 199.592 23.0263C199.856 23.4079 200.007 23.8542 200.044 24.3651H198.447C198.382 24.0234 198.228 23.7388 197.985 23.511C197.745 23.2802 197.423 23.1648 197.02 23.1648C196.679 23.1648 196.379 23.2571 196.12 23.4418C195.862 23.6233 195.66 23.8849 195.515 24.2266C195.374 24.5682 195.303 24.9775 195.303 25.4545C195.303 25.9377 195.374 26.3532 195.515 26.701C195.657 27.0457 195.855 27.3119 196.111 27.4996C196.369 27.6843 196.672 27.7766 197.02 27.7766C197.266 27.7766 197.487 27.7305 197.68 27.6381C197.877 27.5427 198.042 27.4058 198.174 27.2273C198.307 27.0488 198.397 26.8318 198.447 26.5763H200.044C200.004 27.078 199.856 27.5227 199.601 27.9105C199.345 28.2952 198.998 28.5968 198.558 28.8153C198.117 29.0308 197.6 29.1385 197.006 29.1385ZM204.509 29.1385C203.817 29.1385 203.217 28.9862 202.709 28.6815C202.201 28.3768 201.807 27.9505 201.527 27.4027C201.25 26.8549 201.112 26.2147 201.112 25.4822C201.112 24.7498 201.25 24.1081 201.527 23.5572C201.807 23.0063 202.201 22.5785 202.709 22.2738C203.217 21.9691 203.817 21.8168 204.509 21.8168C205.202 21.8168 205.802 21.9691 206.31 22.2738C206.818 22.5785 207.21 23.0063 207.487 23.5572C207.767 24.1081 207.907 24.7498 207.907 25.4822C207.907 26.2147 207.767 26.8549 207.487 27.4027C207.21 27.9505 206.818 28.3768 206.31 28.6815C205.802 28.9862 205.202 29.1385 204.509 29.1385ZM204.519 27.7997C204.894 27.7997 205.208 27.6966 205.46 27.4904C205.713 27.2811 205.9 27.0011 206.024 26.6502C206.15 26.2994 206.213 25.9085 206.213 25.4776C206.213 25.0437 206.15 24.6513 206.024 24.3004C205.9 23.9465 205.713 23.6649 205.46 23.4556C205.208 23.2463 204.894 23.1417 204.519 23.1417C204.134 23.1417 203.814 23.2463 203.558 23.4556C203.306 23.6649 203.117 23.9465 202.991 24.3004C202.867 24.6513 202.806 25.0437 202.806 25.4776C202.806 25.9085 202.867 26.2994 202.991 26.6502C203.117 27.0011 203.306 27.2811 203.558 27.4904C203.814 27.6966 204.134 27.7997 204.519 27.7997ZM209.325 29V21.9091H210.923V23.114H211.006C211.154 22.7077 211.398 22.3907 211.74 22.163C212.081 21.9322 212.489 21.8168 212.963 21.8168C213.443 21.8168 213.848 21.9337 214.177 22.1676C214.51 22.3984 214.744 22.7139 214.879 23.114H214.953C215.11 22.7201 215.375 22.4061 215.747 22.1722C216.122 21.9353 216.567 21.8168 217.081 21.8168C217.734 21.8168 218.266 22.023 218.678 22.4354C219.091 22.8478 219.297 23.4495 219.297 24.2404V29H217.621V24.4989C217.621 24.0588 217.504 23.7372 217.27 23.5341C217.037 23.3279 216.75 23.2248 216.412 23.2248C216.009 23.2248 215.693 23.351 215.465 23.6033C215.241 23.8526 215.128 24.1773 215.128 24.5774V29H213.49V24.4297C213.49 24.0634 213.379 23.7711 213.157 23.5526C212.939 23.334 212.652 23.2248 212.298 23.2248C212.058 23.2248 211.84 23.2863 211.643 23.4094C211.446 23.5295 211.289 23.7003 211.172 23.9219C211.055 24.1404 210.997 24.3958 210.997 24.6882V29H209.325ZM224.291 29V19.5455H230.348V20.9812H226.004V23.5479H229.932V24.9837H226.004V29H224.291ZM231.834 29V21.9091H233.505V29H231.834ZM232.674 20.9027C232.41 20.9027 232.182 20.815 231.991 20.6396C231.8 20.4611 231.705 20.2472 231.705 19.9979C231.705 19.7455 231.8 19.5316 231.991 19.3562C232.182 19.1777 232.41 19.0884 232.674 19.0884C232.942 19.0884 233.17 19.1777 233.358 19.3562C233.549 19.5316 233.644 19.7455 233.644 19.9979C233.644 20.2472 233.549 20.4611 233.358 20.6396C233.17 20.815 232.942 20.9027 232.674 20.9027ZM238.308 31.8068C237.708 31.8068 237.192 31.7253 236.761 31.5621C236.33 31.4021 235.984 31.1867 235.722 30.9158C235.461 30.645 235.279 30.3449 235.178 30.0156L236.683 29.6509C236.75 29.7894 236.849 29.9264 236.978 30.0618C237.107 30.2003 237.281 30.3142 237.5 30.4034C237.721 30.4957 238 30.5419 238.335 30.5419C238.809 30.5419 239.202 30.4265 239.513 30.1957C239.823 29.9679 239.979 29.5924 239.979 29.0692V27.7259H239.896C239.81 27.8982 239.683 28.0752 239.517 28.2567C239.354 28.4383 239.137 28.5907 238.866 28.7138C238.599 28.8369 238.262 28.8984 237.855 28.8984C237.311 28.8984 236.817 28.7707 236.373 28.5153C235.933 28.2567 235.582 27.872 235.321 27.3612C235.062 26.8472 234.933 26.204 234.933 25.4315C234.933 24.6528 235.062 23.9957 235.321 23.4602C235.582 22.9216 235.935 22.5138 236.378 22.2369C236.821 21.9568 237.315 21.8168 237.86 21.8168C238.275 21.8168 238.617 21.8875 238.885 22.0291C239.156 22.1676 239.371 22.3353 239.531 22.5323C239.691 22.7262 239.813 22.9093 239.896 23.0817H239.988V21.9091H241.636V29.1154C241.636 29.7217 241.492 30.2234 241.202 30.6204C240.913 31.0174 240.517 31.3144 240.016 31.5114C239.514 31.7083 238.945 31.8068 238.308 31.8068ZM238.322 27.5874C238.675 27.5874 238.977 27.5012 239.226 27.3288C239.476 27.1565 239.665 26.9087 239.794 26.5856C239.923 26.2624 239.988 25.8746 239.988 25.4222C239.988 24.976 239.923 24.5851 239.794 24.2496C239.668 23.9142 239.48 23.6541 239.231 23.4695C238.985 23.2817 238.682 23.1879 238.322 23.1879C237.949 23.1879 237.638 23.2848 237.389 23.4787C237.14 23.6726 236.952 23.9388 236.826 24.2773C236.7 24.6128 236.637 24.9944 236.637 25.4222C236.637 25.8562 236.7 26.2363 236.826 26.5625C236.955 26.8857 237.144 27.138 237.394 27.3196C237.646 27.4981 237.955 27.5874 238.322 27.5874ZM243.349 29V21.9091H244.946V23.114H245.029C245.177 22.7077 245.422 22.3907 245.763 22.163C246.105 21.9322 246.513 21.8168 246.987 21.8168C247.467 21.8168 247.872 21.9337 248.201 22.1676C248.533 22.3984 248.767 22.7139 248.903 23.114H248.976C249.133 22.7201 249.398 22.4061 249.77 22.1722C250.146 21.9353 250.591 21.8168 251.105 21.8168C251.757 21.8168 252.289 22.023 252.702 22.4354C253.114 22.8478 253.32 23.4495 253.32 24.2404V29H251.645V24.4989C251.645 24.0588 251.528 23.7372 251.294 23.5341C251.06 23.3279 250.774 23.2248 250.435 23.2248C250.032 23.2248 249.717 23.351 249.489 23.6033C249.264 23.8526 249.152 24.1773 249.152 24.5774V29H247.513V24.4297C247.513 24.0634 247.402 23.7711 247.181 23.5526C246.962 23.334 246.676 23.2248 246.322 23.2248C246.082 23.2248 245.863 23.2863 245.666 23.4094C245.469 23.5295 245.312 23.7003 245.195 23.9219C245.079 24.1404 245.02 24.3958 245.02 24.6882V29H243.349ZM257.056 29.1431C256.607 29.1431 256.202 29.0631 255.842 28.9031C255.485 28.7399 255.202 28.4999 254.993 28.1829C254.787 27.8659 254.684 27.475 254.684 27.0103C254.684 26.6102 254.757 26.2794 254.905 26.0178C255.053 25.7562 255.254 25.5469 255.51 25.3899C255.765 25.233 256.053 25.1145 256.373 25.0344C256.696 24.9513 257.03 24.8913 257.375 24.8544C257.79 24.8113 258.127 24.7728 258.386 24.739C258.644 24.7021 258.832 24.6467 258.949 24.5728C259.069 24.4959 259.129 24.3774 259.129 24.2173V24.1896C259.129 23.8419 259.026 23.5726 258.82 23.3817C258.614 23.1909 258.317 23.0955 257.929 23.0955C257.52 23.0955 257.195 23.1848 256.955 23.3633C256.718 23.5418 256.558 23.7526 256.475 23.9957L254.914 23.7741C255.037 23.3433 255.241 22.9832 255.524 22.6939C255.807 22.4015 256.153 22.183 256.562 22.0384C256.972 21.8906 257.424 21.8168 257.92 21.8168C258.261 21.8168 258.601 21.8568 258.94 21.9368C259.278 22.0168 259.588 22.1491 259.868 22.3338C260.148 22.5154 260.373 22.7631 260.542 23.0771C260.714 23.391 260.8 23.7834 260.8 24.2543V29H259.194V28.0259H259.138C259.037 28.2229 258.894 28.4076 258.709 28.5799C258.527 28.7492 258.298 28.8861 258.021 28.9908C257.747 29.0923 257.426 29.1431 257.056 29.1431ZM257.49 27.9151C257.826 27.9151 258.117 27.849 258.363 27.7166C258.609 27.5812 258.798 27.4027 258.931 27.1811C259.066 26.9595 259.134 26.7179 259.134 26.4563V25.6207C259.081 25.6638 258.992 25.7038 258.866 25.7408C258.743 25.7777 258.604 25.81 258.451 25.8377C258.297 25.8654 258.144 25.89 257.994 25.9116C257.843 25.9331 257.712 25.9516 257.601 25.967C257.352 26.0008 257.129 26.0562 256.932 26.1332C256.735 26.2101 256.579 26.3178 256.465 26.4563C256.352 26.5917 256.295 26.7672 256.295 26.9826C256.295 27.2904 256.407 27.5227 256.632 27.6797C256.856 27.8366 257.143 27.9151 257.49 27.9151Z" fill="#F5F5F5"></path></svg>