<svg xmlns="http://www.w3.org/2000/svg" width="328" height="100" viewBox="0 0 328 100" fill="none"><path d="M322.891 16.5494H324.615L323.235 16.9663C320.914 17.6675 319.326 19.8063 319.326 22.2314V95C319.326 97.4853 317.311 99.5 314.826 99.5H5C2.51472 99.5 0.5 97.4853 0.5 95V5C0.5 2.51472 2.51472 0.5 5 0.5H314.826C317.311 0.5 319.326 2.51472 319.326 5V9.50628C319.326 11.7944 320.742 13.8435 322.883 14.6517L325.26 15.5494H322.891V16.5494Z" stroke="#CDAF50"></path><path d="M28.5153 48H27.7227C27.7141 47.7017 27.6545 47.4261 27.5437 47.1733C27.4329 46.9176 27.2781 46.6946 27.0792 46.5043C26.8803 46.3139 26.6431 46.1662 26.3675 46.0611C26.0948 45.956 25.7894 45.9034 25.4513 45.9034C24.8945 45.9034 24.3619 46.0497 23.8533 46.3423C23.3448 46.6321 22.9073 47.0582 22.5408 47.6207C22.1744 48.1832 21.9244 48.8707 21.7908 49.6832C21.6573 50.4844 21.6786 51.1591 21.8548 51.7074C22.0309 52.2528 22.3192 52.6662 22.7198 52.9474C23.1232 53.2287 23.5962 53.3693 24.1388 53.3693C24.4854 53.3693 24.8178 53.3168 25.136 53.2116C25.4542 53.1065 25.7468 52.9602 26.0138 52.7727C26.2809 52.5824 26.5153 52.3594 26.717 52.1037C26.9187 51.848 27.0749 51.571 27.1857 51.2727H27.9869C27.8477 51.6733 27.6531 52.0469 27.4031 52.3935C27.1531 52.7372 26.8576 53.0384 26.5167 53.2969C26.1786 53.5554 25.805 53.7571 25.396 53.902C24.9897 54.0469 24.5579 54.1193 24.1005 54.1193C23.3562 54.1193 22.7269 53.9332 22.2127 53.5611C21.7013 53.1889 21.3377 52.6648 21.1218 51.9886C20.9087 51.3097 20.8789 50.5099 21.0323 49.5895C21.1829 48.6861 21.4712 47.902 21.8974 47.2372C22.3263 46.5724 22.8519 46.0597 23.4741 45.6989C24.0962 45.3352 24.7724 45.1534 25.5025 45.1534C25.9684 45.1534 26.386 45.2259 26.7553 45.3707C27.1246 45.5128 27.4386 45.7145 27.6971 45.9759C27.9585 46.2344 28.1587 46.5355 28.2979 46.8793C28.4371 47.223 28.5096 47.5966 28.5153 48ZM31.8743 54.1364C31.2635 54.1364 30.7592 53.9943 30.3615 53.7102C29.9638 53.4233 29.6854 53.027 29.5263 52.5213C29.3672 52.0128 29.343 51.4276 29.4538 50.7656C29.5646 50.1065 29.7834 49.5213 30.1101 49.0099C30.4368 48.4957 30.8402 48.0937 31.3203 47.804C31.8004 47.5114 32.3217 47.3651 32.8842 47.3651C33.2393 47.3651 33.5717 47.4304 33.8814 47.5611C34.1911 47.6889 34.4538 47.8864 34.6697 48.1534C34.8885 48.4176 35.0405 48.7514 35.1257 49.1548C35.2109 49.5554 35.2081 50.0298 35.1172 50.5781L35.0575 50.9531H29.9439L30.0504 50.2841H34.3928C34.4638 49.8636 34.4439 49.4858 34.3331 49.1506C34.2223 48.8153 34.0334 48.5497 33.7663 48.3537C33.5021 48.1548 33.174 48.0554 32.782 48.0554C32.3814 48.0554 32.0021 48.1676 31.6442 48.392C31.2891 48.6165 30.9879 48.9091 30.7408 49.2699C30.4964 49.6278 30.3388 50.0099 30.2678 50.4162L30.1825 50.919C30.0916 51.473 30.103 51.9375 30.2166 52.3125C30.3303 52.6847 30.5362 52.9659 30.8345 53.1562C31.1328 53.3466 31.5149 53.4418 31.9808 53.4418C32.2933 53.4418 32.576 53.3935 32.8288 53.2969C33.0817 53.2003 33.3018 53.071 33.4893 52.9091C33.6768 52.7443 33.8274 52.5639 33.9411 52.3679L34.6186 52.6023C34.4737 52.8778 34.2692 53.1321 34.005 53.3651C33.7436 53.598 33.4325 53.7855 33.0717 53.9276C32.7138 54.0668 32.3146 54.1364 31.8743 54.1364ZM36.2177 54L37.3086 47.4545H38.0458L37.8754 48.4602H37.9308C38.1126 48.1307 38.3839 47.8651 38.7447 47.6634C39.1083 47.4588 39.4961 47.3565 39.908 47.3565C39.9705 47.3565 40.0401 47.358 40.1168 47.3608C40.1935 47.3608 40.2575 47.3636 40.3086 47.3693L40.1765 48.1406C40.1424 48.1349 40.0827 48.1264 39.9975 48.1151C39.9151 48.1037 39.8228 48.098 39.7205 48.098C39.3796 48.098 39.0643 48.1705 38.7745 48.3153C38.4876 48.4574 38.2461 48.6548 38.0501 48.9077C37.8569 49.1605 37.7319 49.4489 37.6751 49.7727L36.9762 54H36.2177ZM44.5859 47.4545L44.4794 48.1151H41.3516L41.4624 47.4545H44.5859ZM42.6939 45.8864H43.4567L42.3913 52.2912C42.3459 52.5639 42.3572 52.7784 42.4254 52.9347C42.4936 53.0881 42.5987 53.1974 42.7408 53.2628C42.8828 53.3253 43.0391 53.3565 43.2095 53.3565C43.3089 53.3565 43.3942 53.3509 43.4652 53.3395C43.5391 53.3253 43.6044 53.3111 43.6612 53.2969L43.7166 53.983C43.6342 54.0114 43.5362 54.0369 43.4226 54.0597C43.3089 54.0852 43.1726 54.098 43.0135 54.098C42.7351 54.098 42.478 54.0369 42.2422 53.9148C42.0064 53.7926 41.8274 53.6108 41.7053 53.3693C41.5831 53.1278 41.5504 52.8281 41.6072 52.4702L42.6939 45.8864ZM45.2262 54L46.3171 47.4545H47.0799L45.989 54H45.2262ZM46.9734 46.3168C46.8143 46.3168 46.6793 46.2628 46.5685 46.1548C46.4606 46.0469 46.408 45.9162 46.4109 45.7628C46.4165 45.6179 46.4748 45.4929 46.5856 45.3878C46.6992 45.2798 46.8327 45.2259 46.9862 45.2259C47.1452 45.2259 47.2802 45.2812 47.391 45.392C47.5018 45.5 47.5543 45.6307 47.5487 45.7841C47.5458 45.929 47.4876 46.054 47.3739 46.1591C47.2603 46.2642 47.1268 46.3168 46.9734 46.3168ZM51.7791 47.4545L51.6683 48.1151H48.4553L48.5618 47.4545H51.7791ZM48.4766 54L49.7251 46.4957C49.782 46.1435 49.9112 45.8466 50.1129 45.6051C50.3175 45.3636 50.5618 45.1804 50.8459 45.0554C51.13 44.9304 51.4212 44.8679 51.7195 44.8679C51.9183 44.8679 52.0803 44.8849 52.2053 44.919C52.3303 44.9503 52.4283 44.9815 52.4993 45.0128L52.1754 45.6776C52.1186 45.6605 52.0504 45.6406 51.9709 45.6179C51.8942 45.5952 51.7933 45.5838 51.6683 45.5838C51.3388 45.5838 51.0689 45.6761 50.8587 45.8608C50.6484 46.0455 50.5135 46.3097 50.4538 46.6534L49.2351 54H48.4766ZM52.2106 54L53.3015 47.4545H54.0643L52.9734 54H52.2106ZM53.9577 46.3168C53.7987 46.3168 53.6637 46.2628 53.5529 46.1548C53.445 46.0469 53.3924 45.9162 53.3952 45.7628C53.4009 45.6179 53.4592 45.4929 53.57 45.3878C53.6836 45.2798 53.8171 45.2259 53.9705 45.2259C54.1296 45.2259 54.2646 45.2812 54.3754 45.392C54.4862 45.5 54.5387 45.6307 54.533 45.7841C54.5302 45.929 54.4719 46.054 54.3583 46.1591C54.2447 46.2642 54.1112 46.3168 53.9577 46.3168ZM57.5192 54.1364C56.9283 54.1364 56.4411 53.9901 56.0575 53.6974C55.674 53.4048 55.4055 53.0043 55.2521 52.4957C55.1016 51.9844 55.0803 51.4048 55.1882 50.7571C55.2962 50.098 55.5135 49.5142 55.8402 49.0057C56.1669 48.4943 56.5703 48.0937 57.0504 47.804C57.5334 47.5114 58.0604 47.3651 58.6314 47.3651C59.0717 47.3651 59.4553 47.4503 59.782 47.6207C60.1087 47.7884 60.3615 48.0256 60.5405 48.3324C60.7195 48.6364 60.8047 48.9915 60.7962 49.3977H60.0291C60.0092 49.0199 59.8714 48.7017 59.6158 48.4432C59.3629 48.1847 59.005 48.0554 58.5419 48.0554C58.1186 48.0554 57.7266 48.169 57.3658 48.3963C57.005 48.6207 56.6996 48.9347 56.4496 49.3381C56.2024 49.7386 56.0362 50.2031 55.951 50.7315C55.8601 51.2628 55.8686 51.733 55.9766 52.142C56.0845 52.5483 56.2777 52.8665 56.5561 53.0966C56.8374 53.3267 57.1925 53.4418 57.6214 53.4418C57.9141 53.4418 58.1896 53.3878 58.4482 53.2798C58.7067 53.169 58.9354 53.0128 59.1342 52.8111C59.3331 52.6065 59.4851 52.3665 59.5902 52.0909H60.3572C60.2294 52.4886 60.0277 52.8409 59.7521 53.1477C59.4794 53.4545 59.1527 53.696 58.772 53.8722C58.3913 54.0483 57.9737 54.1364 57.5192 54.1364ZM63.4702 54.1491C63.0753 54.1491 62.7273 54.0724 62.4261 53.919C62.125 53.7628 61.9006 53.5384 61.7528 53.2457C61.608 52.9503 61.5682 52.5923 61.6335 52.1719C61.6903 51.848 61.7983 51.5753 61.9574 51.3537C62.1193 51.1321 62.3239 50.9503 62.571 50.8082C62.8182 50.6634 63.1023 50.5497 63.4233 50.4673C63.7443 50.3849 64.0938 50.3224 64.4716 50.2798C64.8409 50.2344 65.1563 50.1946 65.4176 50.1605C65.679 50.1264 65.8821 50.0724 66.027 49.9986C66.1719 49.9247 66.2585 49.8054 66.2869 49.6406L66.3125 49.4872C66.3864 49.0412 66.3182 48.6903 66.108 48.4347C65.8977 48.1761 65.5455 48.0469 65.0511 48.0469C64.5795 48.0469 64.1705 48.152 63.8239 48.3622C63.4801 48.5696 63.2244 48.8125 63.0568 49.0909L62.3835 48.831C62.5881 48.473 62.8395 48.1875 63.1378 47.9744C63.4361 47.7585 63.7557 47.6037 64.0966 47.5099C64.4375 47.4134 64.7741 47.3651 65.1065 47.3651C65.3565 47.3651 65.6108 47.3977 65.8693 47.4631C66.1278 47.5284 66.3594 47.642 66.5639 47.804C66.7713 47.9631 66.9233 48.1861 67.0199 48.473C67.1193 48.7571 67.1335 49.1179 67.0625 49.5554L66.321 54H65.5625L65.7372 52.9645H65.6903C65.571 53.1577 65.4063 53.3452 65.196 53.527C64.9886 53.7088 64.7401 53.858 64.4503 53.9744C64.1605 54.0909 63.8338 54.1491 63.4702 54.1491ZM63.6619 53.4545C64.0653 53.4545 64.4304 53.3651 64.7571 53.1861C65.0866 53.0071 65.3565 52.7699 65.5668 52.4744C65.7798 52.1761 65.9162 51.848 65.9759 51.4901L66.1335 50.544C66.071 50.598 65.9688 50.6463 65.8267 50.6889C65.6875 50.7315 65.5298 50.7699 65.3537 50.804C65.1804 50.8352 65.0057 50.8622 64.8295 50.8849C64.6563 50.9077 64.5028 50.9276 64.3693 50.9446C63.9915 50.9901 63.6619 51.0611 63.3807 51.1577C63.1023 51.2543 62.8793 51.3878 62.7116 51.5582C62.544 51.7259 62.4389 51.9418 62.3963 52.206C62.331 52.6037 62.4176 52.9119 62.6562 53.1307C62.8977 53.3466 63.233 53.4545 63.6619 53.4545ZM70.6825 54.1364C70.1456 54.1364 69.6982 53.9943 69.3402 53.7102C68.9822 53.4261 68.7322 53.0298 68.5902 52.5213C68.4482 52.0128 68.4325 51.4205 68.5433 50.7443C68.657 50.071 68.8686 49.4815 69.1783 48.9759C69.4908 48.4673 69.8729 48.0724 70.3246 47.7912C70.7791 47.5071 71.2749 47.3651 71.8118 47.3651C72.2124 47.3651 72.532 47.4361 72.7706 47.5781C73.0121 47.7173 73.1953 47.8906 73.3203 48.098C73.4453 48.3054 73.5348 48.5071 73.5888 48.7031H73.657L74.228 45.2727H74.9908L73.5419 54H72.8047L73.0092 52.7855H72.9155C72.7933 52.9844 72.6328 53.1889 72.4339 53.3991C72.2379 53.6065 71.9964 53.7812 71.7095 53.9233C71.4226 54.0653 71.0803 54.1364 70.6825 54.1364ZM70.8487 53.4418C71.272 53.4418 71.6541 53.3267 71.995 53.0966C72.3388 52.8636 72.6257 52.544 72.8558 52.1378C73.0888 51.7287 73.2479 51.2599 73.3331 50.7315C73.4212 50.2088 73.4197 49.7472 73.3288 49.3466C73.2379 48.9432 73.0618 48.6278 72.8004 48.4006C72.5391 48.1705 72.1939 48.0554 71.7649 48.0554C71.3303 48.0554 70.9439 48.1747 70.6058 48.4134C70.2678 48.6491 69.9879 48.9687 69.7663 49.3722C69.5476 49.7756 69.3956 50.2287 69.3104 50.7315C69.228 51.2401 69.228 51.6989 69.3104 52.108C69.3928 52.517 69.5604 52.8423 69.8132 53.0838C70.0689 53.3224 70.4141 53.4418 70.8487 53.4418ZM78.272 54.1364C77.6982 54.1364 77.2152 53.9915 76.8232 53.7017C76.4311 53.4091 76.1541 53.0043 75.9922 52.4872C75.8303 51.9702 75.8033 51.3736 75.9112 50.6974C76.0192 50.0384 76.2337 49.4588 76.5547 48.9588C76.8786 48.456 77.2763 48.0653 77.7479 47.7869C78.2195 47.5057 78.7322 47.3651 79.2862 47.3651C79.8629 47.3651 80.3459 47.5114 80.7351 47.804C81.1271 48.0966 81.4041 48.5014 81.5661 49.0185C81.7308 49.5355 81.7592 50.1335 81.6513 50.8125C81.5433 51.4688 81.3274 52.0469 81.0036 52.5469C80.6797 53.044 80.282 53.4332 79.8104 53.7145C79.3416 53.9957 78.8288 54.1364 78.272 54.1364ZM78.2805 53.4418C78.7464 53.4418 79.1612 53.3182 79.5249 53.071C79.8913 52.821 80.1939 52.4886 80.4325 52.0739C80.6712 51.6562 80.8317 51.1974 80.9141 50.6974C80.9908 50.2202 80.9822 49.7812 80.8885 49.3807C80.7947 48.9801 80.6143 48.6591 80.3473 48.4176C80.0803 48.1761 79.7251 48.0554 79.282 48.0554C78.8189 48.0554 78.4041 48.1818 78.0376 48.4347C77.6712 48.6847 77.3686 49.0199 77.13 49.4403C76.8913 49.858 76.7322 50.3153 76.6527 50.8125C76.5732 51.2926 76.5788 51.7315 76.6697 52.1293C76.7635 52.527 76.9439 52.8452 77.2109 53.0838C77.4808 53.3224 77.8374 53.4418 78.2805 53.4418ZM88.5067 54.1364C87.9698 54.1364 87.5224 53.9943 87.1644 53.7102C86.8065 53.4261 86.5565 53.0298 86.4144 52.5213C86.2724 52.0128 86.2567 51.4205 86.3675 50.7443C86.4812 50.071 86.6928 49.4815 87.0025 48.9759C87.315 48.4673 87.6971 48.0724 88.1488 47.7912C88.6033 47.5071 89.0991 47.3651 89.636 47.3651C90.0366 47.3651 90.3562 47.4361 90.5948 47.5781C90.8363 47.7173 91.0195 47.8906 91.1445 48.098C91.2695 48.3054 91.359 48.5071 91.413 48.7031H91.4812L92.0522 45.2727H92.815L91.3661 54H90.6289L90.8335 52.7855H90.7397C90.6175 52.9844 90.457 53.1889 90.2582 53.3991C90.0621 53.6065 89.8207 53.7812 89.5337 53.9233C89.2468 54.0653 88.9045 54.1364 88.5067 54.1364ZM88.6729 53.4418C89.0962 53.4418 89.4783 53.3267 89.8192 53.0966C90.163 52.8636 90.4499 52.544 90.68 52.1378C90.913 51.7287 91.0721 51.2599 91.1573 50.7315C91.2454 50.2088 91.244 49.7472 91.1531 49.3466C91.0621 48.9432 90.886 48.6278 90.6246 48.4006C90.3633 48.1705 90.0181 48.0554 89.5891 48.0554C89.1545 48.0554 88.7681 48.1747 88.43 48.4134C88.092 48.6491 87.8121 48.9687 87.5906 49.3722C87.3718 49.7756 87.2198 50.2287 87.1346 50.7315C87.0522 51.2401 87.0522 51.6989 87.1346 52.108C87.217 52.517 87.3846 52.8423 87.6374 53.0838C87.8931 53.3224 88.2383 53.4418 88.6729 53.4418ZM96.0962 54.1364C95.5224 54.1364 95.0394 53.9915 94.6474 53.7017C94.2553 53.4091 93.9783 53.0043 93.8164 52.4872C93.6545 51.9702 93.6275 51.3736 93.7354 50.6974C93.8434 50.0384 94.0579 49.4588 94.3789 48.9588C94.7028 48.456 95.1005 48.0653 95.5721 47.7869C96.0437 47.5057 96.5565 47.3651 97.1104 47.3651C97.6871 47.3651 98.1701 47.5114 98.5593 47.804C98.9513 48.0966 99.2283 48.5014 99.3903 49.0185C99.555 49.5355 99.5835 50.1335 99.4755 50.8125C99.3675 51.4688 99.1516 52.0469 98.8278 52.5469C98.5039 53.044 98.1062 53.4332 97.6346 53.7145C97.1658 53.9957 96.6531 54.1364 96.0962 54.1364ZM96.1048 53.4418C96.5707 53.4418 96.9854 53.3182 97.3491 53.071C97.7156 52.821 98.0181 52.4886 98.2567 52.0739C98.4954 51.6562 98.6559 51.1974 98.7383 50.6974C98.815 50.2202 98.8065 49.7812 98.7127 49.3807C98.619 48.9801 98.4386 48.6591 98.1715 48.4176C97.9045 48.1761 97.5494 48.0554 97.1062 48.0554C96.6431 48.0554 96.2283 48.1818 95.8619 48.4347C95.4954 48.6847 95.1928 49.0199 94.9542 49.4403C94.7156 49.858 94.5565 50.3153 94.4769 50.8125C94.3974 51.2926 94.4031 51.7315 94.494 52.1293C94.5877 52.527 94.7681 52.8452 95.0352 53.0838C95.305 53.3224 95.6616 53.4418 96.1048 53.4418ZM106.527 54.1364C105.936 54.1364 105.449 53.9901 105.065 53.6974C104.682 53.4048 104.413 53.0043 104.26 52.4957C104.109 51.9844 104.088 51.4048 104.196 50.7571C104.304 50.098 104.521 49.5142 104.848 49.0057C105.175 48.4943 105.578 48.0937 106.058 47.804C106.541 47.5114 107.068 47.3651 107.639 47.3651C108.08 47.3651 108.463 47.4503 108.79 47.6207C109.116 47.7884 109.369 48.0256 109.548 48.3324C109.727 48.6364 109.813 48.9915 109.804 49.3977H109.037C109.017 49.0199 108.879 48.7017 108.624 48.4432C108.371 48.1847 108.013 48.0554 107.55 48.0554C107.126 48.0554 106.734 48.169 106.374 48.3963C106.013 48.6207 105.707 48.9347 105.457 49.3381C105.21 49.7386 105.044 50.2031 104.959 50.7315C104.868 51.2628 104.876 51.733 104.984 52.142C105.092 52.5483 105.286 52.8665 105.564 53.0966C105.845 53.3267 106.2 53.4418 106.629 53.4418C106.922 53.4418 107.197 53.3878 107.456 53.2798C107.714 53.169 107.943 53.0128 108.142 52.8111C108.341 52.6065 108.493 52.3665 108.598 52.0909H109.365C109.237 52.4886 109.036 52.8409 108.76 53.1477C108.487 53.4545 108.161 53.696 107.78 53.8722C107.399 54.0483 106.982 54.1364 106.527 54.1364ZM115.239 51.4986L115.917 47.4545H116.675L115.585 54H114.826L115.005 52.9134H114.95C114.745 53.2486 114.455 53.5284 114.08 53.7528C113.708 53.9744 113.282 54.0852 112.802 54.0852C112.384 54.0852 112.028 53.9943 111.732 53.8125C111.44 53.6278 111.231 53.358 111.106 53.0028C110.981 52.6477 110.961 52.2116 111.046 51.6946L111.758 47.4545H112.516L111.817 51.6477C111.735 52.1591 111.817 52.571 112.065 52.8835C112.315 53.1932 112.675 53.348 113.147 53.348C113.442 53.348 113.738 53.277 114.033 53.1349C114.332 52.9929 114.59 52.7855 114.809 52.5128C115.031 52.2372 115.174 51.8991 115.239 51.4986ZM117.593 54L118.684 47.4545H119.421L119.25 48.4602H119.306C119.488 48.1307 119.759 47.8651 120.12 47.6634C120.483 47.4588 120.871 47.3565 121.283 47.3565C121.346 47.3565 121.415 47.358 121.492 47.3608C121.569 47.3608 121.632 47.3636 121.684 47.3693L121.551 48.1406C121.517 48.1349 121.458 48.1264 121.373 48.1151C121.29 48.1037 121.198 48.098 121.096 48.098C120.755 48.098 120.439 48.1705 120.15 48.3153C119.863 48.4574 119.621 48.6548 119.425 48.9077C119.232 49.1605 119.107 49.4489 119.05 49.7727L118.351 54H117.593ZM127.132 48.8906L126.403 49.0781C126.366 48.8821 126.298 48.706 126.199 48.5497C126.102 48.3906 125.961 48.2656 125.777 48.1747C125.595 48.081 125.356 48.0341 125.061 48.0341C124.618 48.0341 124.235 48.142 123.914 48.358C123.593 48.571 123.406 48.8437 123.352 49.1761C123.306 49.4545 123.365 49.6804 123.527 49.8537C123.691 50.027 123.967 50.1634 124.353 50.2628L125.308 50.5057C125.836 50.642 126.213 50.8551 126.437 51.1449C126.664 51.4347 126.743 51.8011 126.672 52.2443C126.609 52.6136 126.451 52.9403 126.199 53.2244C125.949 53.5085 125.627 53.7315 125.235 53.8935C124.846 54.0554 124.412 54.1364 123.931 54.1364C123.287 54.1364 122.779 53.9915 122.41 53.7017C122.044 53.4119 121.848 52.9943 121.822 52.4489L122.585 52.2784C122.608 52.6648 122.74 52.9574 122.981 53.1562C123.225 53.3551 123.569 53.4545 124.012 53.4545C124.518 53.4545 124.943 53.3395 125.287 53.1094C125.63 52.8793 125.828 52.5952 125.879 52.2571C125.927 51.9901 125.877 51.7685 125.73 51.5923C125.585 51.4162 125.338 51.2855 124.988 51.2003L123.97 50.9446C123.422 50.8054 123.034 50.5881 122.806 50.2926C122.582 49.9943 122.507 49.6264 122.581 49.1889C122.64 48.8281 122.791 48.5114 123.032 48.2386C123.274 47.9659 123.579 47.7528 123.949 47.5994C124.318 47.4432 124.721 47.3651 125.159 47.3651C125.761 47.3651 126.22 47.5014 126.535 47.7741C126.85 48.044 127.049 48.4162 127.132 48.8906ZM130.608 54.1364C130.034 54.1364 129.551 53.9915 129.159 53.7017C128.767 53.4091 128.49 53.0043 128.328 52.4872C128.166 51.9702 128.139 51.3736 128.247 50.6974C128.355 50.0384 128.57 49.4588 128.891 48.9588C129.214 48.456 129.612 48.0653 130.084 47.7869C130.555 47.5057 131.068 47.3651 131.622 47.3651C132.199 47.3651 132.682 47.5114 133.071 47.804C133.463 48.0966 133.74 48.5014 133.902 49.0185C134.067 49.5355 134.095 50.1335 133.987 50.8125C133.879 51.4688 133.663 52.0469 133.339 52.5469C133.016 53.044 132.618 53.4332 132.146 53.7145C131.678 53.9957 131.165 54.1364 130.608 54.1364ZM130.616 53.4418C131.082 53.4418 131.497 53.3182 131.861 53.071C132.227 52.821 132.53 52.4886 132.768 52.0739C133.007 51.6562 133.168 51.1974 133.25 50.6974C133.327 50.2202 133.318 49.7812 133.224 49.3807C133.131 48.9801 132.95 48.6591 132.683 48.4176C132.416 48.1761 132.061 48.0554 131.618 48.0554C131.155 48.0554 130.74 48.1818 130.374 48.4347C130.007 48.6847 129.705 49.0199 129.466 49.4403C129.227 49.858 129.068 50.3153 128.989 50.8125C128.909 51.2926 128.915 51.7315 129.006 52.1293C129.099 52.527 129.28 52.8452 129.547 53.0838C129.817 53.3224 130.173 53.4418 130.616 53.4418ZM140.843 54.1364C140.306 54.1364 139.858 53.9943 139.5 53.7102C139.142 53.4261 138.892 53.0298 138.75 52.5213C138.608 52.0128 138.593 51.4205 138.703 50.7443C138.817 50.071 139.029 49.4815 139.338 48.9759C139.651 48.4673 140.033 48.0724 140.485 47.7912C140.939 47.5071 141.435 47.3651 141.972 47.3651C142.373 47.3651 142.692 47.4361 142.931 47.5781C143.172 47.7173 143.355 47.8906 143.48 48.098C143.605 48.3054 143.695 48.5071 143.749 48.7031H143.817L144.388 45.2727H145.151L143.702 54H142.965L143.169 52.7855H143.076C142.953 52.9844 142.793 53.1889 142.594 53.3991C142.398 53.6065 142.157 53.7812 141.87 53.9233C141.583 54.0653 141.24 54.1364 140.843 54.1364ZM141.009 53.4418C141.432 53.4418 141.814 53.3267 142.155 53.0966C142.499 52.8636 142.786 52.544 143.016 52.1378C143.249 51.7287 143.408 51.2599 143.493 50.7315C143.581 50.2088 143.58 49.7472 143.489 49.3466C143.398 48.9432 143.222 48.6278 142.961 48.4006C142.699 48.1705 142.354 48.0554 141.925 48.0554C141.49 48.0554 141.104 48.1747 140.766 48.4134C140.428 48.6491 140.148 48.9687 139.926 49.3722C139.708 49.7756 139.556 50.2287 139.471 50.7315C139.388 51.2401 139.388 51.6989 139.471 52.108C139.553 52.517 139.721 52.8423 139.973 53.0838C140.229 53.3224 140.574 53.4418 141.009 53.4418ZM148.488 54.1364C147.877 54.1364 147.373 53.9943 146.975 53.7102C146.577 53.4233 146.299 53.027 146.14 52.5213C145.98 52.0128 145.956 51.4276 146.067 50.7656C146.178 50.1065 146.397 49.5213 146.723 49.0099C147.05 48.4957 147.453 48.0937 147.934 47.804C148.414 47.5114 148.935 47.3651 149.498 47.3651C149.853 47.3651 150.185 47.4304 150.495 47.5611C150.804 47.6889 151.067 47.8864 151.283 48.1534C151.502 48.4176 151.654 48.7514 151.739 49.1548C151.824 49.5554 151.821 50.0298 151.73 50.5781L151.671 50.9531H146.557L146.664 50.2841H151.006C151.077 49.8636 151.057 49.4858 150.946 49.1506C150.836 48.8153 150.647 48.5497 150.38 48.3537C150.115 48.1548 149.787 48.0554 149.395 48.0554C148.995 48.0554 148.615 48.1676 148.257 48.392C147.902 48.6165 147.601 48.9091 147.354 49.2699C147.11 49.6278 146.952 50.0099 146.881 50.4162L146.796 50.919C146.705 51.473 146.716 51.9375 146.83 52.3125C146.944 52.6847 147.15 52.9659 147.448 53.1562C147.746 53.3466 148.128 53.4418 148.594 53.4418C148.907 53.4418 149.189 53.3935 149.442 53.2969C149.695 53.2003 149.915 53.071 150.103 52.9091C150.29 52.7443 150.441 52.5639 150.554 52.3679L151.232 52.6023C151.087 52.8778 150.882 53.1321 150.618 53.3651C150.357 53.598 150.046 53.7855 149.685 53.9276C149.327 54.0668 148.928 54.1364 148.488 54.1364ZM158.942 54H156.364L157.812 45.2727H160.501C161.331 45.2727 162.016 45.4489 162.555 45.8011C163.095 46.1534 163.47 46.6577 163.68 47.3139C163.891 47.9673 163.919 48.7486 163.766 49.6577C163.615 50.5668 163.327 51.3452 162.901 51.9929C162.474 52.6406 161.926 53.1378 161.256 53.4844C160.588 53.8281 159.817 54 158.942 54ZM157.28 53.2841H158.984C159.729 53.2841 160.379 53.1335 160.936 52.8324C161.493 52.5312 161.946 52.1037 162.295 51.5497C162.645 50.9929 162.882 50.3324 163.007 49.5682C163.132 48.8182 163.118 48.1761 162.964 47.642C162.814 47.108 162.523 46.6989 162.091 46.4148C161.662 46.1307 161.092 45.9886 160.382 45.9886H158.486L157.28 53.2841ZM167.449 54.1364C166.838 54.1364 166.333 53.9943 165.936 53.7102C165.538 53.4233 165.26 53.027 165.1 52.5213C164.941 52.0128 164.917 51.4276 165.028 50.7656C165.139 50.1065 165.358 49.5213 165.684 49.0099C166.011 48.4957 166.414 48.0937 166.895 47.804C167.375 47.5114 167.896 47.3651 168.458 47.3651C168.814 47.3651 169.146 47.4304 169.456 47.5611C169.765 47.6889 170.028 47.8864 170.244 48.1534C170.463 48.4176 170.615 48.7514 170.7 49.1548C170.785 49.5554 170.782 50.0298 170.691 50.5781L170.632 50.9531H165.518L165.625 50.2841H169.967C170.038 49.8636 170.018 49.4858 169.907 49.1506C169.797 48.8153 169.608 48.5497 169.341 48.3537C169.076 48.1548 168.748 48.0554 168.356 48.0554C167.956 48.0554 167.576 48.1676 167.218 48.392C166.863 48.6165 166.562 48.9091 166.315 49.2699C166.071 49.6278 165.913 50.0099 165.842 50.4162L165.757 50.919C165.666 51.473 165.677 51.9375 165.791 52.3125C165.904 52.6847 166.11 52.9659 166.409 53.1562C166.707 53.3466 167.089 53.4418 167.555 53.4418C167.868 53.4418 168.15 53.3935 168.403 53.2969C168.656 53.2003 168.876 53.071 169.064 52.9091C169.251 52.7443 169.402 52.5639 169.515 52.3679L170.193 52.6023C170.048 52.8778 169.843 53.1321 169.579 53.3651C169.318 53.598 169.007 53.7855 168.646 53.9276C168.288 54.0668 167.889 54.1364 167.449 54.1364ZM177.042 48.8906L176.313 49.0781C176.276 48.8821 176.208 48.706 176.109 48.5497C176.012 48.3906 175.871 48.2656 175.687 48.1747C175.505 48.081 175.266 48.0341 174.971 48.0341C174.528 48.0341 174.146 48.142 173.825 48.358C173.504 48.571 173.316 48.8437 173.262 49.1761C173.217 49.4545 173.275 49.6804 173.437 49.8537C173.602 50.027 173.877 50.1634 174.263 50.2628L175.218 50.5057C175.746 50.642 176.123 50.8551 176.347 51.1449C176.575 51.4347 176.653 51.8011 176.582 52.2443C176.519 52.6136 176.362 52.9403 176.109 53.2244C175.859 53.5085 175.538 53.7315 175.146 53.8935C174.756 54.0554 174.322 54.1364 173.842 54.1364C173.197 54.1364 172.69 53.9915 172.32 53.7017C171.954 53.4119 171.758 52.9943 171.732 52.4489L172.495 52.2784C172.518 52.6648 172.65 52.9574 172.891 53.1562C173.136 53.3551 173.479 53.4545 173.923 53.4545C174.428 53.4545 174.853 53.3395 175.197 53.1094C175.54 52.8793 175.738 52.5952 175.789 52.2571C175.837 51.9901 175.788 51.7685 175.64 51.5923C175.495 51.4162 175.248 51.2855 174.898 51.2003L173.88 50.9446C173.332 50.8054 172.944 50.5881 172.717 50.2926C172.492 49.9943 172.417 49.6264 172.491 49.1889C172.55 48.8281 172.701 48.5114 172.942 48.2386C173.184 47.9659 173.489 47.7528 173.859 47.5994C174.228 47.4432 174.631 47.3651 175.069 47.3651C175.671 47.3651 176.13 47.5014 176.445 47.7741C176.761 48.044 176.96 48.4162 177.042 48.8906ZM180.574 54.1364C179.963 54.1364 179.458 53.9943 179.061 53.7102C178.663 53.4233 178.385 53.027 178.225 52.5213C178.066 52.0128 178.042 51.4276 178.153 50.7656C178.264 50.1065 178.483 49.5213 178.809 49.0099C179.136 48.4957 179.539 48.0937 180.02 47.804C180.5 47.5114 181.021 47.3651 181.583 47.3651C181.939 47.3651 182.271 47.4304 182.581 47.5611C182.89 47.6889 183.153 47.8864 183.369 48.1534C183.588 48.4176 183.74 48.7514 183.825 49.1548C183.91 49.5554 183.907 50.0298 183.816 50.5781L183.757 50.9531H178.643L178.75 50.2841H183.092C183.163 49.8636 183.143 49.4858 183.032 49.1506C182.922 48.8153 182.733 48.5497 182.466 48.3537C182.201 48.1548 181.873 48.0554 181.481 48.0554C181.081 48.0554 180.701 48.1676 180.343 48.392C179.988 48.6165 179.687 48.9091 179.44 49.2699C179.196 49.6278 179.038 50.0099 178.967 50.4162L178.882 50.919C178.791 51.473 178.802 51.9375 178.916 52.3125C179.029 52.6847 179.235 52.9659 179.534 53.1562C179.832 53.3466 180.214 53.4418 180.68 53.4418C180.993 53.4418 181.275 53.3935 181.528 53.2969C181.781 53.2003 182.001 53.071 182.189 52.9091C182.376 52.7443 182.527 52.5639 182.64 52.3679L183.318 52.6023C183.173 52.8778 182.968 53.1321 182.704 53.3651C182.443 53.598 182.132 53.7855 181.771 53.9276C181.413 54.0668 181.014 54.1364 180.574 54.1364ZM186.353 49.9091L185.675 54H184.917L186.008 47.4545H186.745L186.575 48.4815H186.643C186.847 48.1463 187.13 47.8778 187.491 47.6761C187.854 47.4716 188.276 47.3693 188.756 47.3693C189.194 47.3693 189.563 47.4616 189.864 47.6463C190.168 47.8281 190.384 48.0966 190.512 48.4517C190.643 48.8068 190.665 49.2429 190.58 49.7599L189.869 54H189.11L189.809 49.8068C189.897 49.2727 189.819 48.8494 189.575 48.5369C189.333 48.2216 188.96 48.0639 188.454 48.0639C188.11 48.0639 187.79 48.1378 187.495 48.2855C187.202 48.4332 186.955 48.6463 186.754 48.9247C186.552 49.2003 186.418 49.5284 186.353 49.9091ZM197.789 47.4545L194.308 54H193.498L192.199 47.4545H192.987L194.01 52.9986H194.065L196.933 47.4545H197.789ZM200.522 54.1364C199.948 54.1364 199.465 53.9915 199.073 53.7017C198.681 53.4091 198.404 53.0043 198.242 52.4872C198.08 51.9702 198.053 51.3736 198.161 50.6974C198.269 50.0384 198.484 49.4588 198.805 48.9588C199.129 48.456 199.526 48.0653 199.998 47.7869C200.469 47.5057 200.982 47.3651 201.536 47.3651C202.113 47.3651 202.596 47.5114 202.985 47.804C203.377 48.0966 203.654 48.5014 203.816 49.0185C203.981 49.5355 204.009 50.1335 203.901 50.8125C203.793 51.4688 203.577 52.0469 203.254 52.5469C202.93 53.044 202.532 53.4332 202.06 53.7145C201.592 53.9957 201.079 54.1364 200.522 54.1364ZM200.531 53.4418C200.996 53.4418 201.411 53.3182 201.775 53.071C202.141 52.821 202.444 52.4886 202.683 52.0739C202.921 51.6562 203.082 51.1974 203.164 50.6974C203.241 50.2202 203.232 49.7812 203.138 49.3807C203.045 48.9801 202.864 48.6591 202.597 48.4176C202.33 48.1761 201.975 48.0554 201.532 48.0554C201.069 48.0554 200.654 48.1818 200.288 48.4347C199.921 48.6847 199.619 49.0199 199.38 49.4403C199.141 49.858 198.982 50.3153 198.903 50.8125C198.823 51.2926 198.829 51.7315 198.92 52.1293C199.013 52.527 199.194 52.8452 199.461 53.0838C199.731 53.3224 200.087 53.4418 200.531 53.4418ZM207.245 45.2727L205.797 54H205.038L206.487 45.2727H207.245ZM213.961 47.4545L210.48 54H209.67L208.37 47.4545H209.159L210.181 52.9986H210.237L213.105 47.4545H213.961ZM214.363 54L215.454 47.4545H216.217L215.126 54H214.363ZM216.11 46.3168C215.951 46.3168 215.816 46.2628 215.705 46.1548C215.597 46.0469 215.545 45.9162 215.548 45.7628C215.553 45.6179 215.612 45.4929 215.722 45.3878C215.836 45.2798 215.969 45.2259 216.123 45.2259C216.282 45.2259 216.417 45.2812 216.528 45.392C216.638 45.5 216.691 45.6307 216.685 45.7841C216.683 45.929 216.624 46.054 216.511 46.1591C216.397 46.2642 216.263 46.3168 216.11 46.3168ZM217.132 54L218.223 47.4545H218.96L218.789 48.4602H218.858C219.048 48.1222 219.312 47.8565 219.65 47.6634C219.988 47.4673 220.372 47.3693 220.801 47.3693C221.25 47.3693 221.602 47.4759 221.858 47.6889C222.113 47.8991 222.284 48.1889 222.369 48.5582H222.424C222.629 48.1946 222.917 47.9062 223.289 47.6932C223.662 47.4773 224.086 47.3693 224.564 47.3693C225.169 47.3693 225.616 47.5611 225.906 47.9446C226.196 48.3281 226.279 48.8849 226.157 49.6151L225.424 54H224.666L225.399 49.6151C225.481 49.098 225.414 48.7102 225.199 48.4517C224.983 48.1932 224.659 48.0639 224.227 48.0639C223.727 48.0639 223.314 48.2173 222.987 48.5241C222.663 48.8281 222.463 49.2173 222.386 49.6918L221.666 54H220.89L221.636 49.5469C221.707 49.1037 221.643 48.7457 221.444 48.473C221.248 48.2003 220.926 48.0639 220.477 48.0639C220.173 48.0639 219.887 48.1392 219.62 48.2898C219.356 48.4375 219.132 48.6435 218.947 48.9077C218.765 49.169 218.646 49.4687 218.589 49.8068L217.89 54H217.132ZM230.062 54.1364C229.451 54.1364 228.947 53.9943 228.549 53.7102C228.151 53.4233 227.873 53.027 227.714 52.5213C227.555 52.0128 227.531 51.4276 227.641 50.7656C227.752 50.1065 227.971 49.5213 228.298 49.0099C228.624 48.4957 229.028 48.0937 229.508 47.804C229.988 47.5114 230.509 47.3651 231.072 47.3651C231.427 47.3651 231.759 47.4304 232.069 47.5611C232.379 47.6889 232.641 47.8864 232.857 48.1534C233.076 48.4176 233.228 48.7514 233.313 49.1548C233.398 49.5554 233.396 50.0298 233.305 50.5781L233.245 50.9531H228.131L228.238 50.2841H232.58C232.651 49.8636 232.631 49.4858 232.521 49.1506C232.41 48.8153 232.221 48.5497 231.954 48.3537C231.69 48.1548 231.362 48.0554 230.969 48.0554C230.569 48.0554 230.19 48.1676 229.832 48.392C229.477 48.6165 229.175 48.9091 228.928 49.2699C228.684 49.6278 228.526 50.0099 228.455 50.4162L228.37 50.919C228.279 51.473 228.29 51.9375 228.404 52.3125C228.518 52.6847 228.724 52.9659 229.022 53.1562C229.32 53.3466 229.702 53.4418 230.168 53.4418C230.481 53.4418 230.763 53.3935 231.016 53.2969C231.269 53.2003 231.489 53.071 231.677 52.9091C231.864 52.7443 232.015 52.5639 232.129 52.3679L232.806 52.6023C232.661 52.8778 232.457 53.1321 232.192 53.3651C231.931 53.598 231.62 53.7855 231.259 53.9276C230.901 54.0668 230.502 54.1364 230.062 54.1364ZM235.841 49.9091L235.164 54H234.405L235.496 47.4545H236.233L236.063 48.4815H236.131C236.336 48.1463 236.618 47.8778 236.979 47.6761C237.343 47.4716 237.765 47.3693 238.245 47.3693C238.682 47.3693 239.051 47.4616 239.353 47.6463C239.657 47.8281 239.873 48.0966 240 48.4517C240.131 48.8068 240.154 49.2429 240.069 49.7599L239.357 54H238.598L239.297 49.8068C239.385 49.2727 239.307 48.8494 239.063 48.5369C238.821 48.2216 238.448 48.0639 237.942 48.0639C237.598 48.0639 237.279 48.1378 236.983 48.2855C236.691 48.4332 236.444 48.6463 236.242 48.9247C236.04 49.2003 235.907 49.5284 235.841 49.9091ZM245.023 47.4545L244.917 48.1151H241.789L241.9 47.4545H245.023ZM243.131 45.8864H243.894L242.829 52.2912C242.783 52.5639 242.795 52.7784 242.863 52.9347C242.931 53.0881 243.036 53.1974 243.178 53.2628C243.32 53.3253 243.477 53.3565 243.647 53.3565C243.746 53.3565 243.832 53.3509 243.903 53.3395C243.977 53.3253 244.042 53.3111 244.099 53.2969L244.154 53.983C244.072 54.0114 243.974 54.0369 243.86 54.0597C243.746 54.0852 243.61 54.098 243.451 54.098C243.173 54.098 242.915 54.0369 242.68 53.9148C242.444 53.7926 242.265 53.6108 242.143 53.3693C242.021 53.1278 241.988 52.8281 242.045 52.4702L243.131 45.8864ZM248.159 54.1364C247.585 54.1364 247.102 53.9915 246.71 53.7017C246.318 53.4091 246.041 53.0043 245.879 52.4872C245.717 51.9702 245.69 51.3736 245.798 50.6974C245.906 50.0384 246.12 49.4588 246.441 48.9588C246.765 48.456 247.163 48.0653 247.635 47.7869C248.106 47.5057 248.619 47.3651 249.173 47.3651C249.75 47.3651 250.233 47.5114 250.622 47.804C251.014 48.0966 251.291 48.5014 251.453 49.0185C251.618 49.5355 251.646 50.1335 251.538 50.8125C251.43 51.4688 251.214 52.0469 250.89 52.5469C250.566 53.044 250.169 53.4332 249.697 53.7145C249.228 53.9957 248.716 54.1364 248.159 54.1364ZM248.167 53.4418C248.633 53.4418 249.048 53.3182 249.412 53.071C249.778 52.821 250.081 52.4886 250.319 52.0739C250.558 51.6562 250.718 51.1974 250.801 50.6974C250.877 50.2202 250.869 49.7812 250.775 49.3807C250.681 48.9801 250.501 48.6591 250.234 48.4176C249.967 48.1761 249.612 48.0554 249.169 48.0554C248.706 48.0554 248.291 48.1818 247.924 48.4347C247.558 48.6847 247.255 49.0199 247.017 49.4403C246.778 49.858 246.619 50.3153 246.539 50.8125C246.46 51.2926 246.466 51.7315 246.556 52.1293C246.65 52.527 246.831 52.8452 247.098 53.0838C247.368 53.3224 247.724 53.4418 248.167 53.4418ZM257.724 54L256.783 45.2727H257.592L258.321 52.777H258.389L261.615 45.2727H262.536L263.268 52.777H263.337L266.558 45.2727H267.376L263.537 54H262.68L261.888 46.598H261.832L258.577 54H257.724ZM269.226 54.1364C268.615 54.1364 268.111 53.9943 267.713 53.7102C267.315 53.4233 267.037 53.027 266.878 52.5213C266.719 52.0128 266.695 51.4276 266.805 50.7656C266.916 50.1065 267.135 49.5213 267.462 49.0099C267.788 48.4957 268.192 48.0937 268.672 47.804C269.152 47.5114 269.673 47.3651 270.236 47.3651C270.591 47.3651 270.923 47.4304 271.233 47.5611C271.543 47.6889 271.805 47.8864 272.021 48.1534C272.24 48.4176 272.392 48.7514 272.477 49.1548C272.562 49.5554 272.56 50.0298 272.469 50.5781L272.409 50.9531H267.295L267.402 50.2841H271.744C271.815 49.8636 271.795 49.4858 271.685 49.1506C271.574 48.8153 271.385 48.5497 271.118 48.3537C270.854 48.1548 270.526 48.0554 270.134 48.0554C269.733 48.0554 269.354 48.1676 268.996 48.392C268.641 48.6165 268.339 48.9091 268.092 49.2699C267.848 49.6278 267.69 50.0099 267.619 50.4162L267.534 50.919C267.443 51.473 267.455 51.9375 267.568 52.3125C267.682 52.6847 267.888 52.9659 268.186 53.1562C268.484 53.3466 268.866 53.4418 269.332 53.4418C269.645 53.4418 269.928 53.3935 270.18 53.2969C270.433 53.2003 270.653 53.071 270.841 52.9091C271.028 52.7443 271.179 52.5639 271.293 52.3679L271.97 52.6023C271.825 52.8778 271.621 53.1321 271.357 53.3651C271.095 53.598 270.784 53.7855 270.423 53.9276C270.065 54.0668 269.666 54.1364 269.226 54.1364ZM273.727 54L275.176 45.2727H275.939L275.376 48.7031H275.444C275.561 48.5071 275.716 48.3054 275.909 48.098C276.105 47.8906 276.346 47.7173 276.633 47.5781C276.92 47.4361 277.264 47.3651 277.664 47.3651C278.201 47.3651 278.649 47.5071 279.007 47.7912C279.368 48.0724 279.619 48.4673 279.761 48.9759C279.903 49.4815 279.919 50.071 279.808 50.7443C279.694 51.4205 279.483 52.0128 279.173 52.5213C278.863 53.0298 278.483 53.4261 278.031 53.7102C277.579 53.9943 277.086 54.1364 276.552 54.1364C276.154 54.1364 275.833 54.0653 275.589 53.9233C275.348 53.7812 275.163 53.6065 275.035 53.3991C274.91 53.1889 274.819 52.9844 274.762 52.7855H274.669L274.464 54H273.727ZM275.022 50.7315C274.937 51.2599 274.937 51.7287 275.022 52.1378C275.11 52.544 275.282 52.8636 275.538 53.0966C275.797 53.3267 276.137 53.4418 276.561 53.4418C276.995 53.4418 277.383 53.3224 277.724 53.0838C278.068 52.8423 278.352 52.517 278.576 52.108C278.804 51.6989 278.96 51.2401 279.045 50.7315C279.127 50.2287 279.126 49.7756 279.041 49.3722C278.956 48.9687 278.784 48.6491 278.525 48.4134C278.267 48.1747 277.919 48.0554 277.481 48.0554C277.055 48.0554 276.672 48.1705 276.331 48.4006C275.993 48.6278 275.711 48.9432 275.487 49.3466C275.262 49.7472 275.108 50.2088 275.022 50.7315ZM286.843 54.1364C286.252 54.1364 285.765 53.9901 285.382 53.6974C284.998 53.4048 284.73 53.0043 284.576 52.4957C284.426 51.9844 284.404 51.4048 284.512 50.7571C284.62 50.098 284.838 49.5142 285.164 49.0057C285.491 48.4943 285.895 48.0937 286.375 47.804C286.858 47.5114 287.385 47.3651 287.956 47.3651C288.396 47.3651 288.779 47.4503 289.106 47.6207C289.433 47.7884 289.686 48.0256 289.865 48.3324C290.044 48.6364 290.129 48.9915 290.12 49.3977H289.353C289.333 49.0199 289.196 48.7017 288.94 48.4432C288.687 48.1847 288.329 48.0554 287.866 48.0554C287.443 48.0554 287.051 48.169 286.69 48.3963C286.329 48.6207 286.024 48.9347 285.774 49.3381C285.527 49.7386 285.36 50.2031 285.275 50.7315C285.184 51.2628 285.193 51.733 285.301 52.142C285.409 52.5483 285.602 52.8665 285.88 53.0966C286.162 53.3267 286.517 53.4418 286.946 53.4418C287.238 53.4418 287.514 53.3878 287.772 53.2798C288.031 53.169 288.26 53.0128 288.458 52.8111C288.657 52.6065 288.809 52.3665 288.914 52.0909H289.681C289.554 52.4886 289.352 52.8409 289.076 53.1477C288.804 53.4545 288.477 53.696 288.096 53.8722C287.716 54.0483 287.298 54.1364 286.843 54.1364ZM293.557 54.1364C292.983 54.1364 292.5 53.9915 292.108 53.7017C291.716 53.4091 291.439 53.0043 291.277 52.4872C291.115 51.9702 291.088 51.3736 291.196 50.6974C291.304 50.0384 291.519 49.4588 291.84 48.9588C292.164 48.456 292.561 48.0653 293.033 47.7869C293.505 47.5057 294.017 47.3651 294.571 47.3651C295.148 47.3651 295.631 47.5114 296.02 47.804C296.412 48.0966 296.689 48.5014 296.851 49.0185C297.016 49.5355 297.044 50.1335 296.936 50.8125C296.828 51.4688 296.613 52.0469 296.289 52.5469C295.965 53.044 295.567 53.4332 295.096 53.7145C294.627 53.9957 294.114 54.1364 293.557 54.1364ZM293.566 53.4418C294.032 53.4418 294.446 53.3182 294.81 53.071C295.176 52.821 295.479 52.4886 295.718 52.0739C295.956 51.6562 296.117 51.1974 296.199 50.6974C296.276 50.2202 296.267 49.7812 296.174 49.3807C296.08 48.9801 295.9 48.6591 295.632 48.4176C295.365 48.1761 295.01 48.0554 294.567 48.0554C294.104 48.0554 293.689 48.1818 293.323 48.4347C292.956 48.6847 292.654 49.0199 292.415 49.4403C292.176 49.858 292.017 50.3153 291.938 50.8125C291.858 51.2926 291.864 51.7315 291.955 52.1293C292.049 52.527 292.229 52.8452 292.496 53.0838C292.766 53.3224 293.123 53.4418 293.566 53.4418ZM298.073 54L299.164 47.4545H299.901L299.731 48.4602H299.799C299.989 48.1222 300.254 47.8565 300.592 47.6634C300.93 47.4673 301.313 47.3693 301.742 47.3693C302.191 47.3693 302.543 47.4759 302.799 47.6889C303.055 47.8991 303.225 48.1889 303.31 48.5582H303.366C303.57 48.1946 303.859 47.9062 304.231 47.6932C304.603 47.4773 305.028 47.3693 305.505 47.3693C306.11 47.3693 306.558 47.5611 306.847 47.9446C307.137 48.3281 307.221 48.8849 307.099 49.6151L306.366 54H305.607L306.34 49.6151C306.423 49.098 306.356 48.7102 306.14 48.4517C305.924 48.1932 305.6 48.0639 305.168 48.0639C304.668 48.0639 304.255 48.2173 303.928 48.5241C303.604 48.8281 303.404 49.2173 303.327 49.6918L302.607 54H301.832L302.577 49.5469C302.648 49.1037 302.585 48.7457 302.386 48.473C302.19 48.2003 301.867 48.0639 301.418 48.0639C301.114 48.0639 300.829 48.1392 300.562 48.2898C300.298 48.4375 300.073 48.6435 299.888 48.9077C299.707 49.169 299.587 49.4687 299.531 49.8068L298.832 54H298.073ZM68.2093 69H65.6312L67.0801 60.2727H69.769C70.5985 60.2727 71.2832 60.4489 71.823 60.8011C72.3627 61.1534 72.7377 61.6577 72.948 62.3139C73.1582 62.9673 73.1866 63.7486 73.0332 64.6577C72.8826 65.5668 72.5943 66.3452 72.1681 66.9929C71.742 67.6406 71.1937 68.1378 70.5233 68.4844C69.8556 68.8281 69.0843 69 68.2093 69ZM66.5474 68.2841H68.252C68.9963 68.2841 69.6468 68.1335 70.2037 67.8324C70.7605 67.5312 71.2136 67.1037 71.563 66.5497C71.9125 65.9929 72.1497 65.3324 72.2747 64.5682C72.3997 63.8182 72.3855 63.1761 72.2321 62.642C72.0815 62.108 71.7903 61.6989 71.3585 61.4148C70.9295 61.1307 70.3599 60.9886 69.6497 60.9886H67.7534L66.5474 68.2841ZM75.1863 62.4545H75.949L74.7601 69.6349C74.6976 70.0071 74.574 70.3281 74.3894 70.598C74.2047 70.8707 73.9689 71.081 73.682 71.2287C73.3951 71.3793 73.0669 71.4545 72.6976 71.4545C72.6692 71.4545 72.6408 71.4545 72.6124 71.4545C72.584 71.4545 72.5542 71.4531 72.5229 71.4503L72.6465 70.7386C72.6749 70.7386 72.7019 70.7386 72.7275 70.7386C72.753 70.7386 72.78 70.7386 72.8084 70.7386C73.1209 70.7386 73.3823 70.642 73.5925 70.4489C73.8027 70.2557 73.9391 69.9844 74.0016 69.6349L75.1863 62.4545ZM75.8212 61.3295C75.6621 61.3295 75.5272 61.2756 75.4164 61.1676C75.3056 61.0568 75.253 60.9247 75.2587 60.7713C75.2615 60.6264 75.3198 60.5014 75.4334 60.3963C75.5471 60.2912 75.6806 60.2386 75.834 60.2386C75.9931 60.2386 76.1266 60.294 76.2346 60.4048C76.3453 60.5128 76.3993 60.6435 76.3965 60.7969C76.3908 60.9418 76.3311 61.0668 76.2175 61.1719C76.1067 61.277 75.9746 61.3295 75.8212 61.3295ZM78.6752 69.1491C78.2804 69.1491 77.9324 69.0724 77.6312 68.919C77.3301 68.7628 77.1056 68.5384 76.9579 68.2457C76.813 67.9503 76.7733 67.5923 76.8386 67.1719C76.8954 66.848 77.0034 66.5753 77.1625 66.3537C77.3244 66.1321 77.5289 65.9503 77.7761 65.8082C78.0233 65.6634 78.3074 65.5497 78.6284 65.4673C78.9494 65.3849 79.2988 65.3224 79.6767 65.2798C80.046 65.2344 80.3613 65.1946 80.6227 65.1605C80.8841 65.1264 81.0872 65.0724 81.2321 64.9986C81.377 64.9247 81.4636 64.8054 81.492 64.6406L81.5176 64.4872C81.5914 64.0412 81.5233 63.6903 81.313 63.4347C81.1028 63.1761 80.7505 63.0469 80.2562 63.0469C79.7846 63.0469 79.3755 63.152 79.0289 63.3622C78.6852 63.5696 78.4295 63.8125 78.2619 64.0909L77.5886 63.831C77.7931 63.473 78.0446 63.1875 78.3429 62.9744C78.6412 62.7585 78.9608 62.6037 79.3017 62.5099C79.6426 62.4134 79.9792 62.3651 80.3116 62.3651C80.5616 62.3651 80.8159 62.3977 81.0744 62.4631C81.3329 62.5284 81.5645 62.642 81.769 62.804C81.9764 62.9631 82.1284 63.1861 82.225 63.473C82.3244 63.7571 82.3386 64.1179 82.2676 64.5554L81.5261 69H80.7676L80.9423 67.9645H80.8954C80.7761 68.1577 80.6113 68.3452 80.4011 68.527C80.1937 68.7088 79.9451 68.858 79.6554 68.9744C79.3656 69.0909 79.0389 69.1491 78.6752 69.1491ZM78.867 68.4545C79.2704 68.4545 79.6355 68.3651 79.9622 68.1861C80.2917 68.0071 80.5616 67.7699 80.7718 67.4744C80.9849 67.1761 81.1213 66.848 81.1809 66.4901L81.3386 65.544C81.2761 65.598 81.1738 65.6463 81.0318 65.6889C80.8926 65.7315 80.7349 65.7699 80.5588 65.804C80.3855 65.8352 80.2108 65.8622 80.0346 65.8849C79.8613 65.9077 79.7079 65.9276 79.5744 65.9446C79.1966 65.9901 78.867 66.0611 78.5858 66.1577C78.3074 66.2543 78.0843 66.3878 77.9167 66.5582C77.7491 66.7259 77.644 66.9418 77.6014 67.206C77.536 67.6037 77.6227 67.9119 77.8613 68.1307C78.1028 68.3466 78.438 68.4545 78.867 68.4545ZM84.9799 64.9091L84.3024 69H83.5439L84.6348 62.4545H85.372L85.2015 63.4815H85.2697C85.4743 63.1463 85.7569 62.8778 86.1177 62.6761C86.4814 62.4716 86.9032 62.3693 87.3833 62.3693C87.8208 62.3693 88.1902 62.4616 88.4913 62.6463C88.7953 62.8281 89.0112 63.0966 89.139 63.4517C89.2697 63.8068 89.2924 64.2429 89.2072 64.7599L88.4956 69H87.737L88.4359 64.8068C88.524 64.2727 88.4458 63.8494 88.2015 63.5369C87.96 63.2216 87.5865 63.0639 87.0808 63.0639C86.737 63.0639 86.4174 63.1378 86.122 63.2855C85.8294 63.4332 85.5822 63.6463 85.3805 63.9247C85.1788 64.2003 85.0453 64.5284 84.9799 64.9091ZM92.5811 71.5909C92.1351 71.5909 91.753 71.5327 91.4348 71.4162C91.1167 71.3026 90.8581 71.1463 90.6593 70.9474C90.4632 70.7486 90.3198 70.5256 90.2289 70.2784L90.9192 69.8736C90.9817 70.0384 91.0769 70.2003 91.2047 70.3594C91.3326 70.5185 91.513 70.6491 91.7459 70.7514C91.9789 70.8565 92.2843 70.9091 92.6621 70.9091C93.2388 70.9091 93.7346 70.7628 94.1493 70.4702C94.5641 70.1804 94.8226 69.7315 94.9249 69.1236L95.155 67.6491H95.0868C94.9703 67.848 94.8141 68.0469 94.6181 68.2457C94.4221 68.4418 94.1792 68.6051 93.8894 68.7358C93.6025 68.8665 93.263 68.9318 92.8709 68.9318C92.3482 68.9318 91.905 68.8026 91.5414 68.544C91.1777 68.2855 90.9206 67.9162 90.7701 67.4361C90.6195 66.9531 90.601 66.3778 90.7147 65.7102C90.8226 65.0483 91.03 64.4659 91.3368 63.9631C91.6465 63.4602 92.0272 63.0682 92.4789 62.7869C92.9334 62.5057 93.4306 62.3651 93.9703 62.3651C94.3709 62.3651 94.6919 62.4361 94.9334 62.5781C95.1749 62.7173 95.3581 62.8906 95.4831 63.098C95.611 63.3054 95.7033 63.5071 95.7601 63.7031H95.8368L96.0414 62.4545H96.7828L95.6749 69.1705C95.5811 69.7244 95.388 70.1804 95.0953 70.5384C94.8027 70.8963 94.4391 71.1605 94.0044 71.331C93.5726 71.5043 93.0982 71.5909 92.5811 71.5909ZM93.0414 68.2372C93.4618 68.2372 93.8397 68.1364 94.1749 67.9347C94.513 67.7301 94.7956 67.4389 95.0229 67.0611C95.253 66.6804 95.4107 66.2259 95.4959 65.6974C95.5811 65.1861 95.5769 64.733 95.4831 64.3381C95.3922 63.9403 95.2147 63.6278 94.9505 63.4006C94.6891 63.1705 94.3453 63.0554 93.9192 63.0554C93.4789 63.0554 93.0897 63.1733 92.7516 63.4091C92.4164 63.6449 92.1394 63.9631 91.9206 64.3636C91.7047 64.7614 91.5556 65.206 91.4732 65.6974C91.3936 66.1974 91.3965 66.6392 91.4817 67.0227C91.5698 67.4034 91.7431 67.7017 92.0016 67.9176C92.2601 68.1307 92.6067 68.2372 93.0414 68.2372ZM100.274 69.1364C99.7001 69.1364 99.2172 68.9915 98.8251 68.7017C98.4331 68.4091 98.1561 68.0043 97.9941 67.4872C97.8322 66.9702 97.8052 66.3736 97.9132 65.6974C98.0211 65.0384 98.2356 64.4588 98.5566 63.9588C98.8805 63.456 99.2782 63.0653 99.7498 62.7869C100.221 62.5057 100.734 62.3651 101.288 62.3651C101.865 62.3651 102.348 62.5114 102.737 62.804C103.129 63.0966 103.406 63.5014 103.568 64.0185C103.733 64.5355 103.761 65.1335 103.653 65.8125C103.545 66.4688 103.329 67.0469 103.006 67.5469C102.682 68.044 102.284 68.4332 101.812 68.7145C101.344 68.9957 100.831 69.1364 100.274 69.1364ZM100.282 68.4418C100.748 68.4418 101.163 68.3182 101.527 68.071C101.893 67.821 102.196 67.4886 102.434 67.0739C102.673 66.6562 102.834 66.1974 102.916 65.6974C102.993 65.2202 102.984 64.7812 102.89 64.3807C102.797 63.9801 102.616 63.6591 102.349 63.4176C102.082 63.1761 101.727 63.0554 101.284 63.0554C100.821 63.0554 100.406 63.1818 100.04 63.4347C99.6731 63.6847 99.3706 64.0199 99.1319 64.4403C98.8933 64.858 98.7342 65.3153 98.6547 65.8125C98.5751 66.2926 98.5808 66.7315 98.6717 67.1293C98.7654 67.527 98.9458 67.8452 99.2129 68.0838C99.4828 68.3224 99.8393 68.4418 100.282 68.4418ZM112.737 66.4986L113.415 62.4545H114.173L113.083 69H112.324L112.503 67.9134H112.448C112.243 68.2486 111.953 68.5284 111.578 68.7528C111.206 68.9744 110.78 69.0852 110.3 69.0852C109.882 69.0852 109.526 68.9943 109.23 68.8125C108.938 68.6278 108.729 68.358 108.604 68.0028C108.479 67.6477 108.459 67.2116 108.544 66.6946L109.256 62.4545H110.014L109.316 66.6477C109.233 67.1591 109.316 67.571 109.563 67.8835C109.813 68.1932 110.173 68.348 110.645 68.348C110.941 68.348 111.236 68.277 111.531 68.1349C111.83 67.9929 112.088 67.7855 112.307 67.5128C112.529 67.2372 112.672 66.8991 112.737 66.4986ZM120.341 63.8906L119.612 64.0781C119.575 63.8821 119.507 63.706 119.407 63.5497C119.311 63.3906 119.17 63.2656 118.986 63.1747C118.804 63.081 118.565 63.0341 118.27 63.0341C117.827 63.0341 117.444 63.142 117.123 63.358C116.802 63.571 116.615 63.8437 116.561 64.1761C116.515 64.4545 116.574 64.6804 116.736 64.8537C116.9 65.027 117.176 65.1634 117.562 65.2628L118.517 65.5057C119.045 65.642 119.422 65.8551 119.646 66.1449C119.873 66.4347 119.952 66.8011 119.881 67.2443C119.818 67.6136 119.66 67.9403 119.407 68.2244C119.157 68.5085 118.836 68.7315 118.444 68.8935C118.055 69.0554 117.621 69.1364 117.14 69.1364C116.496 69.1364 115.988 68.9915 115.619 68.7017C115.253 68.4119 115.057 67.9943 115.031 67.4489L115.794 67.2784C115.817 67.6648 115.949 67.9574 116.19 68.1562C116.434 68.3551 116.778 68.4545 117.221 68.4545C117.727 68.4545 118.152 68.3395 118.496 68.1094C118.839 67.8793 119.037 67.5952 119.088 67.2571C119.136 66.9901 119.086 66.7685 118.939 66.5923C118.794 66.4162 118.547 66.2855 118.197 66.2003L117.179 65.9446C116.631 65.8054 116.243 65.5881 116.015 65.2926C115.791 64.9943 115.716 64.6264 115.79 64.1889C115.849 63.8281 116 63.5114 116.241 63.2386C116.483 62.9659 116.788 62.7528 117.157 62.5994C117.527 62.4432 117.93 62.3651 118.368 62.3651C118.97 62.3651 119.429 62.5014 119.744 62.7741C120.059 63.044 120.258 63.4162 120.341 63.8906ZM123.054 69.1491C122.659 69.1491 122.311 69.0724 122.01 68.919C121.709 68.7628 121.485 68.5384 121.337 68.2457C121.192 67.9503 121.152 67.5923 121.218 67.1719C121.274 66.848 121.382 66.5753 121.541 66.3537C121.703 66.1321 121.908 65.9503 122.155 65.8082C122.402 65.6634 122.686 65.5497 123.007 65.4673C123.328 65.3849 123.678 65.3224 124.056 65.2798C124.425 65.2344 124.74 65.1946 125.002 65.1605C125.263 65.1264 125.466 65.0724 125.611 64.9986C125.756 64.9247 125.843 64.8054 125.871 64.6406L125.896 64.4872C125.97 64.0412 125.902 63.6903 125.692 63.4347C125.482 63.1761 125.129 63.0469 124.635 63.0469C124.164 63.0469 123.754 63.152 123.408 63.3622C123.064 63.5696 122.808 63.8125 122.641 64.0909L121.968 63.831C122.172 63.473 122.423 63.1875 122.722 62.9744C123.02 62.7585 123.34 62.6037 123.681 62.5099C124.021 62.4134 124.358 62.3651 124.691 62.3651C124.941 62.3651 125.195 62.3977 125.453 62.4631C125.712 62.5284 125.943 62.642 126.148 62.804C126.355 62.9631 126.507 63.1861 126.604 63.473C126.703 63.7571 126.718 64.1179 126.646 64.5554L125.905 69H125.146L125.321 67.9645H125.274C125.155 68.1577 124.99 68.3452 124.78 68.527C124.573 68.7088 124.324 68.858 124.034 68.9744C123.744 69.0909 123.418 69.1491 123.054 69.1491ZM123.246 68.4545C123.649 68.4545 124.014 68.3651 124.341 68.1861C124.671 68.0071 124.941 67.7699 125.151 67.4744C125.364 67.1761 125.5 66.848 125.56 66.4901L125.718 65.544C125.655 65.598 125.553 65.6463 125.411 65.6889C125.271 65.7315 125.114 65.7699 124.938 65.804C124.764 65.8352 124.59 65.8622 124.414 65.8849C124.24 65.9077 124.087 65.9276 123.953 65.9446C123.575 65.9901 123.246 66.0611 122.965 66.1577C122.686 66.2543 122.463 66.3878 122.296 66.5582C122.128 66.7259 122.023 66.9418 121.98 67.206C121.915 67.6037 122.002 67.9119 122.24 68.1307C122.482 68.3466 122.817 68.4545 123.246 68.4545ZM129.359 64.9091L128.681 69H127.923L129.014 62.4545H129.751L129.58 63.4815H129.649C129.853 63.1463 130.136 62.8778 130.497 62.6761C130.86 62.4716 131.282 62.3693 131.762 62.3693C132.2 62.3693 132.569 62.4616 132.87 62.6463C133.174 62.8281 133.39 63.0966 133.518 63.4517C133.649 63.8068 133.671 64.2429 133.586 64.7599L132.874 69H132.116L132.815 64.8068C132.903 64.2727 132.825 63.8494 132.58 63.5369C132.339 63.2216 131.965 63.0639 131.46 63.0639C131.116 63.0639 130.796 63.1378 130.501 63.2855C130.208 63.4332 129.961 63.6463 129.759 63.9247C129.558 64.2003 129.424 64.5284 129.359 64.9091ZM137.216 69.1364C136.679 69.1364 136.231 68.9943 135.873 68.7102C135.515 68.4261 135.265 68.0298 135.123 67.5213C134.981 67.0128 134.966 66.4205 135.077 65.7443C135.19 65.071 135.402 64.4815 135.711 63.9759C136.024 63.4673 136.406 63.0724 136.858 62.7912C137.312 62.5071 137.808 62.3651 138.345 62.3651C138.746 62.3651 139.065 62.4361 139.304 62.5781C139.545 62.7173 139.729 62.8906 139.854 63.098C139.979 63.3054 140.068 63.5071 140.122 63.7031H140.19L140.761 60.2727H141.524L140.075 69H139.338L139.542 67.7855H139.449C139.327 67.9844 139.166 68.1889 138.967 68.3991C138.771 68.6065 138.53 68.7812 138.243 68.9233C137.956 69.0653 137.613 69.1364 137.216 69.1364ZM137.382 68.4418C137.805 68.4418 138.187 68.3267 138.528 68.0966C138.872 67.8636 139.159 67.544 139.389 67.1378C139.622 66.7287 139.781 66.2599 139.866 65.7315C139.954 65.2088 139.953 64.7472 139.862 64.3466C139.771 63.9432 139.595 63.6278 139.334 63.4006C139.072 63.1705 138.727 63.0554 138.298 63.0554C137.863 63.0554 137.477 63.1747 137.139 63.4134C136.801 63.6491 136.521 63.9687 136.3 64.3722C136.081 64.7756 135.929 65.2287 135.844 65.7315C135.761 66.2401 135.761 66.6989 135.844 67.108C135.926 67.517 136.094 67.8423 136.346 68.0838C136.602 68.3224 136.947 68.4418 137.382 68.4418ZM144.805 69.1364C144.231 69.1364 143.748 68.9915 143.356 68.7017C142.964 68.4091 142.687 68.0043 142.525 67.4872C142.363 66.9702 142.336 66.3736 142.444 65.6974C142.552 65.0384 142.767 64.4588 143.088 63.9588C143.412 63.456 143.809 63.0653 144.281 62.7869C144.753 62.5057 145.265 62.3651 145.819 62.3651C146.396 62.3651 146.879 62.5114 147.268 62.804C147.66 63.0966 147.937 63.5014 148.099 64.0185C148.264 64.5355 148.292 65.1335 148.184 65.8125C148.077 66.4688 147.861 67.0469 147.537 67.5469C147.213 68.044 146.815 68.4332 146.344 68.7145C145.875 68.9957 145.362 69.1364 144.805 69.1364ZM144.814 68.4418C145.28 68.4418 145.694 68.3182 146.058 68.071C146.425 67.821 146.727 67.4886 146.966 67.0739C147.204 66.6562 147.365 66.1974 147.447 65.6974C147.524 65.2202 147.515 64.7812 147.422 64.3807C147.328 63.9801 147.148 63.6591 146.881 63.4176C146.613 63.1761 146.258 63.0554 145.815 63.0554C145.352 63.0554 144.937 63.1818 144.571 63.4347C144.204 63.6847 143.902 64.0199 143.663 64.4403C143.425 64.858 143.265 65.3153 143.186 65.8125C143.106 66.2926 143.112 66.7315 143.203 67.1293C143.297 67.527 143.477 67.8452 143.744 68.0838C144.014 68.3224 144.371 68.4418 144.814 68.4418ZM154.507 69.1491C154.112 69.1491 153.764 69.0724 153.463 68.919C153.162 68.7628 152.938 68.5384 152.79 68.2457C152.645 67.9503 152.605 67.5923 152.671 67.1719C152.727 66.848 152.835 66.5753 152.994 66.3537C153.156 66.1321 153.361 65.9503 153.608 65.8082C153.855 65.6634 154.139 65.5497 154.46 65.4673C154.781 65.3849 155.131 65.3224 155.509 65.2798C155.878 65.2344 156.193 65.1946 156.455 65.1605C156.716 65.1264 156.919 65.0724 157.064 64.9986C157.209 64.9247 157.296 64.8054 157.324 64.6406L157.35 64.4872C157.423 64.0412 157.355 63.6903 157.145 63.4347C156.935 63.1761 156.583 63.0469 156.088 63.0469C155.617 63.0469 155.208 63.152 154.861 63.3622C154.517 63.5696 154.262 63.8125 154.094 64.0909L153.421 63.831C153.625 63.473 153.877 63.1875 154.175 62.9744C154.473 62.7585 154.793 62.6037 155.134 62.5099C155.475 62.4134 155.811 62.3651 156.144 62.3651C156.394 62.3651 156.648 62.3977 156.906 62.4631C157.165 62.5284 157.396 62.642 157.601 62.804C157.808 62.9631 157.96 63.1861 158.057 63.473C158.156 63.7571 158.171 64.1179 158.1 64.5554L157.358 69H156.6L156.774 67.9645H156.727C156.608 68.1577 156.443 68.3452 156.233 68.527C156.026 68.7088 155.777 68.858 155.487 68.9744C155.198 69.0909 154.871 69.1491 154.507 69.1491ZM154.699 68.4545C155.102 68.4545 155.468 68.3651 155.794 68.1861C156.124 68.0071 156.394 67.7699 156.604 67.4744C156.817 67.1761 156.953 66.848 157.013 66.4901L157.171 65.544C157.108 65.598 157.006 65.6463 156.864 65.6889C156.725 65.7315 156.567 65.7699 156.391 65.804C156.218 65.8352 156.043 65.8622 155.867 65.8849C155.693 65.9077 155.54 65.9276 155.406 65.9446C155.029 65.9901 154.699 66.0611 154.418 66.1577C154.139 66.2543 153.916 66.3878 153.749 66.5582C153.581 66.7259 153.476 66.9418 153.433 67.206C153.368 67.6037 153.455 67.9119 153.693 68.1307C153.935 68.3466 154.27 68.4545 154.699 68.4545ZM164.958 60.2727L163.509 69H162.751L164.2 60.2727H164.958ZM165.525 69L166.616 62.4545H167.379L166.288 69H165.525ZM167.272 61.3168C167.113 61.3168 166.978 61.2628 166.867 61.1548C166.759 61.0469 166.707 60.9162 166.71 60.7628C166.715 60.6179 166.774 60.4929 166.884 60.3878C166.998 60.2798 167.132 60.2259 167.285 60.2259C167.444 60.2259 167.579 60.2812 167.69 60.392C167.801 60.5 167.853 60.6307 167.847 60.7841C167.845 60.929 167.786 61.054 167.673 61.1591C167.559 61.2642 167.426 61.3168 167.272 61.3168ZM169.73 64.9091L169.052 69H168.294L169.385 62.4545H170.122L169.952 63.4815H170.02C170.224 63.1463 170.507 62.8778 170.868 62.6761C171.231 62.4716 171.653 62.3693 172.133 62.3693C172.571 62.3693 172.94 62.4616 173.241 62.6463C173.545 62.8281 173.761 63.0966 173.889 63.4517C174.02 63.8068 174.042 64.2429 173.957 64.7599L173.246 69H172.487L173.186 64.8068C173.274 64.2727 173.196 63.8494 172.952 63.5369C172.71 63.2216 172.336 63.0639 171.831 63.0639C171.487 63.0639 171.167 63.1378 170.872 63.2855C170.579 63.4332 170.332 63.6463 170.131 63.9247C169.929 64.2003 169.795 64.5284 169.73 64.9091ZM177.331 71.5909C176.885 71.5909 176.503 71.5327 176.185 71.4162C175.867 71.3026 175.608 71.1463 175.409 70.9474C175.213 70.7486 175.07 70.5256 174.979 70.2784L175.669 69.8736C175.732 70.0384 175.827 70.2003 175.955 70.3594C176.083 70.5185 176.263 70.6491 176.496 70.7514C176.729 70.8565 177.034 70.9091 177.412 70.9091C177.989 70.9091 178.485 70.7628 178.899 70.4702C179.314 70.1804 179.573 69.7315 179.675 69.1236L179.905 67.6491H179.837C179.72 67.848 179.564 68.0469 179.368 68.2457C179.172 68.4418 178.929 68.6051 178.639 68.7358C178.352 68.8665 178.013 68.9318 177.621 68.9318C177.098 68.9318 176.655 68.8026 176.291 68.544C175.928 68.2855 175.671 67.9162 175.52 67.4361C175.369 66.9531 175.351 66.3778 175.465 65.7102C175.573 65.0483 175.78 64.4659 176.087 63.9631C176.396 63.4602 176.777 63.0682 177.229 62.7869C177.683 62.5057 178.181 62.3651 178.72 62.3651C179.121 62.3651 179.442 62.4361 179.683 62.5781C179.925 62.7173 180.108 62.8906 180.233 63.098C180.361 63.3054 180.453 63.5071 180.51 63.7031H180.587L180.791 62.4545H181.533L180.425 69.1705C180.331 69.7244 180.138 70.1804 179.845 70.5384C179.553 70.8963 179.189 71.1605 178.754 71.331C178.323 71.5043 177.848 71.5909 177.331 71.5909ZM177.791 68.2372C178.212 68.2372 178.59 68.1364 178.925 67.9347C179.263 67.7301 179.546 67.4389 179.773 67.0611C180.003 66.6804 180.161 66.2259 180.246 65.6974C180.331 65.1861 180.327 64.733 180.233 64.3381C180.142 63.9403 179.965 63.6278 179.7 63.4006C179.439 63.1705 179.095 63.0554 178.669 63.0554C178.229 63.0554 177.84 63.1733 177.502 63.4091C177.166 63.6449 176.889 63.9631 176.671 64.3636C176.455 64.7614 176.306 65.206 176.223 65.6974C176.144 66.1974 176.146 66.6392 176.232 67.0227C176.32 67.4034 176.493 67.7017 176.752 67.9176C177.01 68.1307 177.357 68.2372 177.791 68.2372ZM187.023 66.4986L187.7 62.4545H188.459L187.368 69H186.609L186.788 67.9134H186.733C186.528 68.2486 186.238 68.5284 185.863 68.7528C185.491 68.9744 185.065 69.0852 184.585 69.0852C184.167 69.0852 183.811 68.9943 183.515 68.8125C183.223 68.6278 183.014 68.358 182.889 68.0028C182.764 67.6477 182.744 67.2116 182.829 66.6946L183.541 62.4545H184.3L183.601 66.6477C183.518 67.1591 183.601 67.571 183.848 67.8835C184.098 68.1932 184.459 68.348 184.93 68.348C185.226 68.348 185.521 68.277 185.817 68.1349C186.115 67.9929 186.373 67.7855 186.592 67.5128C186.814 67.2372 186.957 66.8991 187.023 66.4986ZM191.187 69.1491C190.792 69.1491 190.444 69.0724 190.143 68.919C189.842 68.7628 189.617 68.5384 189.47 68.2457C189.325 67.9503 189.285 67.5923 189.35 67.1719C189.407 66.848 189.515 66.5753 189.674 66.3537C189.836 66.1321 190.041 65.9503 190.288 65.8082C190.535 65.6634 190.819 65.5497 191.14 65.4673C191.461 65.3849 191.811 65.3224 192.188 65.2798C192.558 65.2344 192.873 65.1946 193.134 65.1605C193.396 65.1264 193.599 65.0724 193.744 64.9986C193.889 64.9247 193.975 64.8054 194.004 64.6406L194.029 64.4872C194.103 64.0412 194.035 63.6903 193.825 63.4347C193.615 63.1761 193.262 63.0469 192.768 63.0469C192.296 63.0469 191.887 63.152 191.541 63.3622C191.197 63.5696 190.941 63.8125 190.774 64.0909L190.1 63.831C190.305 63.473 190.556 63.1875 190.855 62.9744C191.153 62.7585 191.472 62.6037 191.813 62.5099C192.154 62.4134 192.491 62.3651 192.823 62.3651C193.073 62.3651 193.328 62.3977 193.586 62.4631C193.845 62.5284 194.076 62.642 194.281 62.804C194.488 62.9631 194.64 63.1861 194.737 63.473C194.836 63.7571 194.85 64.1179 194.779 64.5554L194.038 69H193.279L193.454 67.9645H193.407C193.288 68.1577 193.123 68.3452 192.913 68.527C192.705 68.7088 192.457 68.858 192.167 68.9744C191.877 69.0909 191.551 69.1491 191.187 69.1491ZM191.379 68.4545C191.782 68.4545 192.147 68.3651 192.474 68.1861C192.803 68.0071 193.073 67.7699 193.284 67.4744C193.497 67.1761 193.633 66.848 193.693 66.4901L193.85 65.544C193.788 65.598 193.686 65.6463 193.544 65.6889C193.404 65.7315 193.247 65.7699 193.07 65.804C192.897 65.8352 192.722 65.8622 192.546 65.8849C192.373 65.9077 192.22 65.9276 192.086 65.9446C191.708 65.9901 191.379 66.0611 191.097 66.1577C190.819 66.2543 190.596 66.3878 190.428 66.5582C190.261 66.7259 190.156 66.9418 190.113 67.206C190.048 67.6037 190.134 67.9119 190.373 68.1307C190.615 68.3466 190.95 68.4545 191.379 68.4545ZM198.144 71.5909C197.698 71.5909 197.316 71.5327 196.997 71.4162C196.679 71.3026 196.421 71.1463 196.222 70.9474C196.026 70.7486 195.882 70.5256 195.791 70.2784L196.482 69.8736C196.544 70.0384 196.639 70.2003 196.767 70.3594C196.895 70.5185 197.075 70.6491 197.308 70.7514C197.541 70.8565 197.847 70.9091 198.225 70.9091C198.801 70.9091 199.297 70.7628 199.712 70.4702C200.127 70.1804 200.385 69.7315 200.487 69.1236L200.718 67.6491H200.649C200.533 67.848 200.377 68.0469 200.181 68.2457C199.985 68.4418 199.742 68.6051 199.452 68.7358C199.165 68.8665 198.825 68.9318 198.433 68.9318C197.911 68.9318 197.468 68.8026 197.104 68.544C196.74 68.2855 196.483 67.9162 196.333 67.4361C196.182 66.9531 196.164 66.3778 196.277 65.7102C196.385 65.0483 196.593 64.4659 196.899 63.9631C197.209 63.4602 197.59 63.0682 198.041 62.7869C198.496 62.5057 198.993 62.3651 199.533 62.3651C199.933 62.3651 200.254 62.4361 200.496 62.5781C200.737 62.7173 200.921 62.8906 201.046 63.098C201.173 63.3054 201.266 63.5071 201.323 63.7031H201.399L201.604 62.4545H202.345L201.237 69.1705C201.144 69.7244 200.95 70.1804 200.658 70.5384C200.365 70.8963 200.002 71.1605 199.567 71.331C199.135 71.5043 198.661 71.5909 198.144 71.5909ZM198.604 68.2372C199.024 68.2372 199.402 68.1364 199.737 67.9347C200.075 67.7301 200.358 67.4389 200.585 67.0611C200.816 66.6804 200.973 66.2259 201.058 65.6974C201.144 65.1861 201.139 64.733 201.046 64.3381C200.955 63.9403 200.777 63.6278 200.513 63.4006C200.252 63.1705 199.908 63.0554 199.482 63.0554C199.041 63.0554 198.652 63.1733 198.314 63.4091C197.979 63.6449 197.702 63.9631 197.483 64.3636C197.267 64.7614 197.118 65.206 197.036 65.6974C196.956 66.1974 196.959 66.6392 197.044 67.0227C197.132 67.4034 197.306 67.7017 197.564 67.9176C197.823 68.1307 198.169 68.2372 198.604 68.2372ZM205.892 69.1364C205.281 69.1364 204.777 68.9943 204.379 68.7102C203.981 68.4233 203.703 68.027 203.544 67.5213C203.385 67.0128 203.361 66.4276 203.471 65.7656C203.582 65.1065 203.801 64.5213 204.128 64.0099C204.454 63.4957 204.858 63.0937 205.338 62.804C205.818 62.5114 206.339 62.3651 206.902 62.3651C207.257 62.3651 207.589 62.4304 207.899 62.5611C208.209 62.6889 208.471 62.8864 208.687 63.1534C208.906 63.4176 209.058 63.7514 209.143 64.1548C209.229 64.5554 209.226 65.0298 209.135 65.5781L209.075 65.9531H203.961L204.068 65.2841H208.41C208.481 64.8636 208.461 64.4858 208.351 64.1506C208.24 63.8153 208.051 63.5497 207.784 63.3537C207.52 63.1548 207.192 63.0554 206.8 63.0554C206.399 63.0554 206.02 63.1676 205.662 63.392C205.307 63.6165 205.006 63.9091 204.758 64.2699C204.514 64.6278 204.356 65.0099 204.285 65.4162L204.2 65.919C204.109 66.473 204.121 66.9375 204.234 67.3125C204.348 67.6847 204.554 67.9659 204.852 68.1562C205.15 68.3466 205.532 68.4418 205.998 68.4418C206.311 68.4418 206.594 68.3935 206.846 68.2969C207.099 68.2003 207.319 68.071 207.507 67.9091C207.694 67.7443 207.845 67.5639 207.959 67.3679L208.636 67.6023C208.491 67.8778 208.287 68.1321 208.023 68.3651C207.761 68.598 207.45 68.7855 207.089 68.9276C206.731 69.0668 206.332 69.1364 205.892 69.1364ZM210.235 69L211.326 62.4545H212.063L211.893 63.4602H211.961C212.151 63.1222 212.416 62.8565 212.754 62.6634C213.092 62.4673 213.475 62.3693 213.904 62.3693C214.353 62.3693 214.705 62.4759 214.961 62.6889C215.217 62.8991 215.387 63.1889 215.472 63.5582H215.528C215.732 63.1946 216.021 62.9062 216.393 62.6932C216.765 62.4773 217.19 62.3693 217.667 62.3693C218.272 62.3693 218.72 62.5611 219.009 62.9446C219.299 63.3281 219.383 63.8849 219.261 64.6151L218.528 69H217.769L218.502 64.6151C218.585 64.098 218.518 63.7102 218.302 63.4517C218.086 63.1932 217.762 63.0639 217.33 63.0639C216.83 63.0639 216.417 63.2173 216.09 63.5241C215.767 63.8281 215.566 64.2173 215.49 64.6918L214.769 69H213.994L214.74 64.5469C214.811 64.1037 214.747 63.7457 214.548 63.473C214.352 63.2003 214.029 63.0639 213.58 63.0639C213.276 63.0639 212.991 63.1392 212.724 63.2898C212.46 63.4375 212.235 63.6435 212.051 63.9077C211.869 64.169 211.749 64.4687 211.693 64.8068L210.994 69H210.235ZM224.069 69L225.518 60.2727H228.334C228.954 60.2727 229.452 60.3906 229.83 60.6264C230.208 60.8622 230.468 61.1832 230.61 61.5895C230.755 61.9957 230.785 62.4545 230.699 62.9659C230.617 63.4716 230.435 63.929 230.154 64.3381C229.876 64.7443 229.508 65.0668 229.05 65.3054C228.596 65.544 228.062 65.6634 227.448 65.6634H225.232L225.351 64.9474H227.546C228.003 64.9474 228.397 64.8622 228.726 64.6918C229.059 64.5185 229.324 64.2827 229.523 63.9844C229.722 63.6832 229.853 63.3437 229.915 62.9659C229.978 62.5824 229.958 62.2415 229.856 61.9432C229.756 61.6449 229.569 61.4119 229.293 61.2443C229.02 61.0739 228.654 60.9886 228.194 60.9886H226.195L224.866 69H224.069ZM231.539 71.4545C231.388 71.4545 231.249 71.4403 231.121 71.4119C230.996 71.3835 230.898 71.3523 230.827 71.3182L231.147 70.6491C231.385 70.7315 231.604 70.7571 231.803 70.7259C232.005 70.6974 232.197 70.6009 232.378 70.4361C232.56 70.2713 232.739 70.0256 232.915 69.6989L233.273 69.0341L231.978 62.4545H232.766L233.789 68.0114H233.844L236.712 62.4545H237.569L233.542 70.027C233.368 70.3537 233.177 70.6222 232.966 70.8324C232.759 71.0426 232.535 71.1989 232.293 71.3011C232.055 71.4034 231.803 71.4545 231.539 71.4545ZM241.631 62.4545L241.524 63.1151H238.396L238.507 62.4545H241.631ZM239.739 60.8864H240.502L239.436 67.2912C239.391 67.5639 239.402 67.7784 239.47 67.9347C239.539 68.0881 239.644 68.1974 239.786 68.2628C239.928 68.3253 240.084 68.3565 240.254 68.3565C240.354 68.3565 240.439 68.3509 240.51 68.3395C240.584 68.3253 240.649 68.3111 240.706 68.2969L240.762 68.983C240.679 69.0114 240.581 69.0369 240.468 69.0597C240.354 69.0852 240.218 69.098 240.058 69.098C239.78 69.098 239.523 69.0369 239.287 68.9148C239.051 68.7926 238.872 68.6108 238.75 68.3693C238.628 68.1278 238.595 67.8281 238.652 67.4702L239.739 60.8864ZM243.839 64.9091L243.162 69H242.403L243.852 60.2727H244.611L244.082 63.4815H244.15C244.355 63.1406 244.636 62.8707 244.994 62.6719C245.352 62.4702 245.78 62.3693 246.277 62.3693C246.717 62.3693 247.089 62.4602 247.393 62.642C247.7 62.8239 247.917 63.0923 248.045 63.4474C248.176 63.8026 248.199 64.2401 248.113 64.7599L247.402 69H246.639L247.338 64.8068C247.426 64.267 247.346 63.8423 247.099 63.5327C246.855 63.2202 246.48 63.0639 245.974 63.0639C245.628 63.0639 245.304 63.1378 245.003 63.2855C244.704 63.4332 244.452 63.6463 244.244 63.9247C244.04 64.2003 243.905 64.5284 243.839 64.9091ZM251.973 69.1364C251.399 69.1364 250.916 68.9915 250.524 68.7017C250.132 68.4091 249.855 68.0043 249.693 67.4872C249.531 66.9702 249.504 66.3736 249.612 65.6974C249.72 65.0384 249.935 64.4588 250.256 63.9588C250.58 63.456 250.977 63.0653 251.449 62.7869C251.921 62.5057 252.433 62.3651 252.987 62.3651C253.564 62.3651 254.047 62.5114 254.436 62.804C254.828 63.0966 255.105 63.5014 255.267 64.0185C255.432 64.5355 255.46 65.1335 255.352 65.8125C255.244 66.4688 255.029 67.0469 254.705 67.5469C254.381 68.044 253.983 68.4332 253.512 68.7145C253.043 68.9957 252.53 69.1364 251.973 69.1364ZM251.982 68.4418C252.448 68.4418 252.862 68.3182 253.226 68.071C253.593 67.821 253.895 67.4886 254.134 67.0739C254.372 66.6562 254.533 66.1974 254.615 65.6974C254.692 65.2202 254.683 64.7812 254.59 64.3807C254.496 63.9801 254.316 63.6591 254.048 63.4176C253.781 63.1761 253.426 63.0554 252.983 63.0554C252.52 63.0554 252.105 63.1818 251.739 63.4347C251.372 63.6847 251.07 64.0199 250.831 64.4403C250.593 64.858 250.433 65.3153 250.354 65.8125C250.274 66.2926 250.28 66.7315 250.371 67.1293C250.465 67.527 250.645 67.8452 250.912 68.0838C251.182 68.3224 251.539 68.4418 251.982 68.4418ZM257.925 64.9091L257.248 69H256.489L257.58 62.4545H258.317L258.147 63.4815H258.215C258.42 63.1463 258.702 62.8778 259.063 62.6761C259.427 62.4716 259.849 62.3693 260.329 62.3693C260.766 62.3693 261.135 62.4616 261.437 62.6463C261.741 62.8281 261.956 63.0966 262.084 63.4517C262.215 63.8068 262.238 64.2429 262.153 64.7599L261.441 69H260.682L261.381 64.8068C261.469 64.2727 261.391 63.8494 261.147 63.5369C260.905 63.2216 260.532 63.0639 260.026 63.0639C259.682 63.0639 259.363 63.1378 259.067 63.2855C258.775 63.4332 258.528 63.6463 258.326 63.9247C258.124 64.2003 257.991 64.5284 257.925 64.9091Z" fill="#F5F5F5"></path><path d="M29.3463 23H26.1425V13.5455H29.411C30.3496 13.5455 31.156 13.7347 31.83 14.1133C32.5071 14.4888 33.0272 15.0289 33.3904 15.7337C33.7535 16.4384 33.9351 17.2817 33.9351 18.2635C33.9351 19.2483 33.752 20.0947 33.3857 20.8026C33.0226 21.5104 32.4978 22.0536 31.8115 22.4322C31.1283 22.8107 30.3066 23 29.3463 23ZM27.8552 21.5181H29.2632C29.9218 21.5181 30.4712 21.3981 30.9113 21.158C31.3514 20.9149 31.6823 20.5533 31.9039 20.0732C32.1254 19.59 32.2362 18.9867 32.2362 18.2635C32.2362 17.5402 32.1254 16.9401 31.9039 16.4631C31.6823 15.983 31.3545 15.6244 30.9205 15.3874C30.4897 15.1474 29.9542 15.0273 29.314 15.0273H27.8552V21.5181ZM38.6278 23.1385C37.9168 23.1385 37.3028 22.9908 36.7858 22.6953C36.2718 22.3968 35.8763 21.9751 35.5993 21.4304C35.3224 20.8826 35.1839 20.2378 35.1839 19.4961C35.1839 18.7667 35.3224 18.1265 35.5993 17.5756C35.8794 17.0217 36.2703 16.5908 36.7719 16.283C37.2736 15.9722 37.863 15.8168 38.54 15.8168C38.9771 15.8168 39.3895 15.8875 39.7773 16.0291C40.1681 16.1676 40.5128 16.383 40.8113 16.6754C41.113 16.9678 41.3499 17.3402 41.5223 17.7926C41.6946 18.242 41.7808 18.7775 41.7808 19.3991V19.9116H35.9687V18.7852H40.1789C40.1758 18.4651 40.1066 18.1804 39.9711 17.9311C39.8357 17.6787 39.6465 17.4802 39.4033 17.3356C39.1633 17.1909 38.8832 17.1186 38.5631 17.1186C38.2215 17.1186 37.9214 17.2017 37.6629 17.3679C37.4044 17.531 37.2028 17.7464 37.0581 18.0142C36.9166 18.2789 36.8443 18.5697 36.8412 18.8867V19.87C36.8412 20.2824 36.9166 20.6364 37.0674 20.9318C37.2182 21.2242 37.429 21.4489 37.6998 21.6058C37.9707 21.7597 38.2877 21.8366 38.6508 21.8366C38.894 21.8366 39.114 21.8028 39.311 21.7351C39.508 21.6643 39.6788 21.5612 39.8234 21.4258C39.9681 21.2904 40.0773 21.1226 40.1512 20.9226L41.7116 21.098C41.6131 21.5104 41.4253 21.8705 41.1483 22.1783C40.8744 22.483 40.5236 22.7199 40.0958 22.8892C39.668 23.0554 39.1787 23.1385 38.6278 23.1385ZM48.799 17.7834L47.2756 17.9496C47.2325 17.7957 47.1571 17.651 47.0494 17.5156C46.9447 17.3802 46.8031 17.271 46.6246 17.1879C46.4461 17.1048 46.2276 17.0632 45.9691 17.0632C45.6213 17.0632 45.329 17.1386 45.092 17.2894C44.8581 17.4402 44.7427 17.6357 44.7457 17.8757C44.7427 18.0819 44.8181 18.2496 44.9719 18.3789C45.1289 18.5082 45.3874 18.6143 45.7475 18.6974L46.957 18.956C47.628 19.1006 48.1265 19.3299 48.4528 19.6438C48.7821 19.9577 48.9483 20.3686 48.9513 20.8764C48.9483 21.3227 48.8175 21.7166 48.5589 22.0582C48.3035 22.3968 47.948 22.6615 47.4925 22.8523C47.0371 23.0431 46.5138 23.1385 45.9229 23.1385C45.055 23.1385 44.3564 22.9569 43.8271 22.5938C43.2977 22.2275 42.9822 21.7182 42.8807 21.0657L44.5103 20.9087C44.5842 21.2288 44.7411 21.4704 44.9812 21.6335C45.2212 21.7966 45.5336 21.8782 45.9183 21.8782C46.3153 21.8782 46.6339 21.7966 46.8739 21.6335C47.1171 21.4704 47.2386 21.2688 47.2386 21.0288C47.2386 20.8256 47.1602 20.6579 47.0032 20.5256C46.8493 20.3932 46.6093 20.2917 46.283 20.2209L45.0735 19.967C44.3933 19.8254 43.8902 19.5869 43.5639 19.2514C43.2377 18.9129 43.0761 18.4851 43.0792 17.968C43.0761 17.531 43.1946 17.1525 43.4347 16.8324C43.6778 16.5092 44.0148 16.2599 44.4457 16.0845C44.8796 15.906 45.3797 15.8168 45.946 15.8168C46.777 15.8168 47.431 15.9937 47.908 16.3477C48.3881 16.7016 48.6851 17.1802 48.799 17.7834ZM53.4686 23.1385C52.7576 23.1385 52.1436 22.9908 51.6266 22.6953C51.1126 22.3968 50.7172 21.9751 50.4402 21.4304C50.1632 20.8826 50.0247 20.2378 50.0247 19.4961C50.0247 18.7667 50.1632 18.1265 50.4402 17.5756C50.7202 17.0217 51.1111 16.5908 51.6127 16.283C52.1144 15.9722 52.7038 15.8168 53.3809 15.8168C53.8179 15.8168 54.2303 15.8875 54.6181 16.0291C55.0089 16.1676 55.3536 16.383 55.6522 16.6754C55.9538 16.9678 56.1908 17.3402 56.3631 17.7926C56.5355 18.242 56.6216 18.7775 56.6216 19.3991V19.9116H50.8095V18.7852H55.0197C55.0166 18.4651 54.9474 18.1804 54.812 17.9311C54.6766 17.6787 54.4873 17.4802 54.2441 17.3356C54.0041 17.1909 53.724 17.1186 53.4039 17.1186C53.0623 17.1186 52.7623 17.2017 52.5037 17.3679C52.2452 17.531 52.0436 17.7464 51.899 18.0142C51.7574 18.2789 51.6851 18.5697 51.682 18.8867V19.87C51.682 20.2824 51.7574 20.6364 51.9082 20.9318C52.059 21.2242 52.2698 21.4489 52.5407 21.6058C52.8115 21.7597 53.1285 21.8366 53.4917 21.8366C53.7348 21.8366 53.9548 21.8028 54.1518 21.7351C54.3488 21.6643 54.5196 21.5612 54.6642 21.4258C54.8089 21.2904 54.9181 21.1226 54.992 20.9226L56.5524 21.098C56.4539 21.5104 56.2662 21.8705 55.9892 22.1783C55.7153 22.483 55.3644 22.7199 54.9366 22.8892C54.5088 23.0554 54.0195 23.1385 53.4686 23.1385ZM59.7066 18.8452V23H58.0354V15.9091H59.6327V17.114H59.7158C59.8789 16.717 60.139 16.4015 60.496 16.1676C60.8561 15.9337 61.3008 15.8168 61.8302 15.8168C62.3195 15.8168 62.7458 15.9214 63.1089 16.1307C63.4752 16.34 63.7583 16.6431 63.9584 17.0401C64.1615 17.4371 64.2615 17.9188 64.2584 18.4851V23H62.5873V18.7436C62.5873 18.2696 62.4642 17.8988 62.218 17.631C61.9748 17.3633 61.6378 17.2294 61.2069 17.2294C60.9146 17.2294 60.6545 17.294 60.4268 17.4233C60.2021 17.5495 60.0251 17.7326 59.8959 17.9727C59.7697 18.2127 59.7066 18.5036 59.7066 18.8452ZM72.0372 15.9091L69.512 23H67.6654L65.1402 15.9091H66.9221L68.5518 21.1765H68.6256L70.2599 15.9091H72.0372ZM76.0455 23.1385C75.353 23.1385 74.7528 22.9862 74.245 22.6815C73.7372 22.3768 73.3433 21.9505 73.0632 21.4027C72.7862 20.8549 72.6477 20.2147 72.6477 19.4822C72.6477 18.7498 72.7862 18.1081 73.0632 17.5572C73.3433 17.0063 73.7372 16.5785 74.245 16.2738C74.7528 15.9691 75.353 15.8168 76.0455 15.8168C76.7379 15.8168 77.3381 15.9691 77.8459 16.2738C78.3537 16.5785 78.7461 17.0063 79.0231 17.5572C79.3031 18.1081 79.4432 18.7498 79.4432 19.4822C79.4432 20.2147 79.3031 20.8549 79.0231 21.4027C78.7461 21.9505 78.3537 22.3768 77.8459 22.6815C77.3381 22.9862 76.7379 23.1385 76.0455 23.1385ZM76.0547 21.7997C76.4302 21.7997 76.7441 21.6966 76.9964 21.4904C77.2488 21.2811 77.4366 21.0011 77.5597 20.6502C77.6858 20.2994 77.7489 19.9085 77.7489 19.4776C77.7489 19.0437 77.6858 18.6513 77.5597 18.3004C77.4366 17.9465 77.2488 17.6649 76.9964 17.4556C76.7441 17.2463 76.4302 17.1417 76.0547 17.1417C75.67 17.1417 75.3499 17.2463 75.0945 17.4556C74.8421 17.6649 74.6528 17.9465 74.5266 18.3004C74.4035 18.6513 74.342 19.0437 74.342 19.4776C74.342 19.9085 74.4035 20.2994 74.5266 20.6502C74.6528 21.0011 74.8421 21.2811 75.0945 21.4904C75.3499 21.6966 75.67 21.7997 76.0547 21.7997ZM82.5328 13.5455V23H80.8616V13.5455H82.5328ZM90.585 15.9091L88.0598 23H86.2132L83.688 15.9091H85.47L87.0996 21.1765H87.1735L88.8077 15.9091H90.585ZM91.7415 23V15.9091H93.4126V23H91.7415ZM92.5817 14.9027C92.317 14.9027 92.0893 14.815 91.8984 14.6396C91.7076 14.4611 91.6122 14.2472 91.6122 13.9979C91.6122 13.7455 91.7076 13.5316 91.8984 13.3562C92.0893 13.1777 92.317 13.0884 92.5817 13.0884C92.8494 13.0884 93.0772 13.1777 93.2649 13.3562C93.4557 13.5316 93.5511 13.7455 93.5511 13.9979C93.5511 14.2472 93.4557 14.4611 93.2649 14.6396C93.0772 14.815 92.8494 14.9027 92.5817 14.9027ZM95.1311 23V15.9091H96.7284V17.114H96.8115C96.9593 16.7077 97.2039 16.3907 97.5455 16.163C97.8872 15.9322 98.295 15.8168 98.7689 15.8168C99.249 15.8168 99.6537 15.9337 99.983 16.1676C100.315 16.3984 100.549 16.7139 100.685 17.114H100.759C100.916 16.7201 101.18 16.4061 101.553 16.1722C101.928 15.9353 102.373 15.8168 102.887 15.8168C103.539 15.8168 104.072 16.023 104.484 16.4354C104.897 16.8478 105.103 17.4495 105.103 18.2404V23H103.427V18.4989C103.427 18.0588 103.31 17.7372 103.076 17.5341C102.842 17.3279 102.556 17.2248 102.217 17.2248C101.814 17.2248 101.499 17.351 101.271 17.6033C101.046 17.8526 100.934 18.1773 100.934 18.5774V23H99.2952V18.4297C99.2952 18.0634 99.1844 17.7711 98.9628 17.5526C98.7443 17.334 98.4581 17.2248 98.1041 17.2248C97.8641 17.2248 97.6456 17.2863 97.4486 17.4094C97.2516 17.5295 97.0947 17.7003 96.9777 17.9219C96.8608 18.1404 96.8023 18.3958 96.8023 18.6882V23H95.1311ZM109.937 23.1385C109.226 23.1385 108.612 22.9908 108.095 22.6953C107.581 22.3968 107.186 21.9751 106.909 21.4304C106.632 20.8826 106.493 20.2378 106.493 19.4961C106.493 18.7667 106.632 18.1265 106.909 17.5756C107.189 17.0217 107.58 16.5908 108.081 16.283C108.583 15.9722 109.173 15.8168 109.85 15.8168C110.287 15.8168 110.699 15.8875 111.087 16.0291C111.478 16.1676 111.822 16.383 112.121 16.6754C112.423 16.9678 112.66 17.3402 112.832 17.7926C113.004 18.242 113.09 18.7775 113.09 19.3991V19.9116H107.278V18.7852H111.488C111.485 18.4651 111.416 18.1804 111.281 17.9311C111.145 17.6787 110.956 17.4802 110.713 17.3356C110.473 17.1909 110.193 17.1186 109.873 17.1186C109.531 17.1186 109.231 17.2017 108.972 17.3679C108.714 17.531 108.512 17.7464 108.368 18.0142C108.226 18.2789 108.154 18.5697 108.151 18.8867V19.87C108.151 20.2824 108.226 20.6364 108.377 20.9318C108.528 21.2242 108.739 21.4489 109.009 21.6058C109.28 21.7597 109.597 21.8366 109.96 21.8366C110.204 21.8366 110.424 21.8028 110.621 21.7351C110.818 21.6643 110.988 21.5612 111.133 21.4258C111.278 21.2904 111.387 21.1226 111.461 20.9226L113.021 21.098C112.923 21.5104 112.735 21.8705 112.458 22.1783C112.184 22.483 111.833 22.7199 111.405 22.8892C110.978 23.0554 110.488 23.1385 109.937 23.1385ZM116.175 18.8452V23H114.504V15.9091H116.101V17.114H116.185C116.348 16.717 116.608 16.4015 116.965 16.1676C117.325 15.9337 117.77 15.8168 118.299 15.8168C118.788 15.8168 119.215 15.9214 119.578 16.1307C119.944 16.34 120.227 16.6431 120.427 17.0401C120.63 17.4371 120.73 17.9188 120.727 18.4851V23H119.056V18.7436C119.056 18.2696 118.933 17.8988 118.687 17.631C118.444 17.3633 118.107 17.2294 117.676 17.2294C117.383 17.2294 117.123 17.294 116.896 17.4233C116.671 17.5495 116.494 17.7326 116.365 17.9727C116.238 18.2127 116.175 18.5036 116.175 18.8452ZM125.967 15.9091V17.2017H121.891V15.9091H125.967ZM122.897 14.2102H124.568V20.8672C124.568 21.0919 124.602 21.2642 124.67 21.3842C124.74 21.5012 124.833 21.5812 124.947 21.6243C125.061 21.6674 125.187 21.6889 125.325 21.6889C125.43 21.6889 125.525 21.6812 125.611 21.6658C125.701 21.6504 125.768 21.6366 125.815 21.6243L126.096 22.9308C126.007 22.9615 125.879 22.9954 125.713 23.0323C125.55 23.0692 125.35 23.0908 125.113 23.0969C124.694 23.1093 124.317 23.0462 123.982 22.9077C123.646 22.7661 123.38 22.5476 123.183 22.2521C122.989 21.9567 122.894 21.5874 122.897 21.1442V14.2102ZM130.381 23.1385C129.689 23.1385 129.089 22.9862 128.581 22.6815C128.073 22.3768 127.679 21.9505 127.399 21.4027C127.122 20.8549 126.984 20.2147 126.984 19.4822C126.984 18.7498 127.122 18.1081 127.399 17.5572C127.679 17.0063 128.073 16.5785 128.581 16.2738C129.089 15.9691 129.689 15.8168 130.381 15.8168C131.074 15.8168 131.674 15.9691 132.182 16.2738C132.69 16.5785 133.082 17.0063 133.359 17.5572C133.639 18.1081 133.779 18.7498 133.779 19.4822C133.779 20.2147 133.639 20.8549 133.359 21.4027C133.082 21.9505 132.69 22.3768 132.182 22.6815C131.674 22.9862 131.074 23.1385 130.381 23.1385ZM130.391 21.7997C130.766 21.7997 131.08 21.6966 131.332 21.4904C131.585 21.2811 131.772 21.0011 131.896 20.6502C132.022 20.2994 132.085 19.9085 132.085 19.4776C132.085 19.0437 132.022 18.6513 131.896 18.3004C131.772 17.9465 131.585 17.6649 131.332 17.4556C131.08 17.2463 130.766 17.1417 130.391 17.1417C130.006 17.1417 129.686 17.2463 129.43 17.4556C129.178 17.6649 128.989 17.9465 128.863 18.3004C128.739 18.6513 128.678 19.0437 128.678 19.4776C128.678 19.9085 128.739 20.2994 128.863 20.6502C128.989 21.0011 129.178 21.2811 129.43 21.4904C129.686 21.6966 130.006 21.7997 130.391 21.7997ZM140.486 23L137.817 13.5455H139.659L141.363 20.4933H141.451L143.269 13.5455H144.945L146.769 20.4979H146.852L148.555 13.5455H150.397L147.729 23H146.039L144.147 16.3661H144.073L142.175 23H140.486ZM153.927 23.1385C153.216 23.1385 152.602 22.9908 152.085 22.6953C151.571 22.3968 151.175 21.9751 150.898 21.4304C150.621 20.8826 150.483 20.2378 150.483 19.4961C150.483 18.7667 150.621 18.1265 150.898 17.5756C151.178 17.0217 151.569 16.5908 152.071 16.283C152.572 15.9722 153.162 15.8168 153.839 15.8168C154.276 15.8168 154.688 15.8875 155.076 16.0291C155.467 16.1676 155.812 16.383 156.11 16.6754C156.412 16.9678 156.649 17.3402 156.821 17.7926C156.993 18.242 157.08 18.7775 157.08 19.3991V19.9116H151.267V18.7852H155.478C155.475 18.4651 155.405 18.1804 155.27 17.9311C155.135 17.6787 154.945 17.4802 154.702 17.3356C154.462 17.1909 154.182 17.1186 153.862 17.1186C153.52 17.1186 153.22 17.2017 152.962 17.3679C152.703 17.531 152.502 17.7464 152.357 18.0142C152.215 18.2789 152.143 18.5697 152.14 18.8867V19.87C152.14 20.2824 152.215 20.6364 152.366 20.9318C152.517 21.2242 152.728 21.4489 152.999 21.6058C153.27 21.7597 153.586 21.8366 153.95 21.8366C154.193 21.8366 154.413 21.8028 154.61 21.7351C154.807 21.6643 154.978 21.5612 155.122 21.4258C155.267 21.2904 155.376 21.1226 155.45 20.9226L157.01 21.098C156.912 21.5104 156.724 21.8705 156.447 22.1783C156.173 22.483 155.822 22.7199 155.395 22.8892C154.967 23.0554 154.477 23.1385 153.927 23.1385ZM158.567 23V13.5455H160.238V17.0817H160.308C160.394 16.9093 160.515 16.7262 160.672 16.5323C160.829 16.3353 161.042 16.1676 161.309 16.0291C161.577 15.8875 161.919 15.8168 162.334 15.8168C162.882 15.8168 163.376 15.9568 163.816 16.2369C164.259 16.5138 164.61 16.9247 164.869 17.4695C165.13 18.0111 165.261 18.6759 165.261 19.4638C165.261 20.2424 165.133 20.9041 164.878 21.4489C164.623 21.9936 164.275 22.4091 163.835 22.6953C163.395 22.9815 162.896 23.1246 162.339 23.1246C161.933 23.1246 161.596 23.0569 161.328 22.9215C161.06 22.7861 160.845 22.623 160.682 22.4322C160.522 22.2383 160.397 22.0552 160.308 21.8828H160.211V23H158.567ZM160.206 19.4545C160.206 19.9131 160.271 20.3147 160.4 20.6594C160.532 21.0041 160.722 21.2734 160.968 21.4673C161.217 21.6581 161.519 21.7536 161.873 21.7536C162.242 21.7536 162.551 21.6551 162.801 21.4581C163.05 21.258 163.238 20.9857 163.364 20.641C163.493 20.2932 163.558 19.8977 163.558 19.4545C163.558 19.0144 163.495 18.6236 163.368 18.282C163.242 17.9403 163.055 17.6726 162.805 17.4787C162.556 17.2848 162.245 17.1879 161.873 17.1879C161.516 17.1879 161.213 17.2817 160.963 17.4695C160.714 17.6572 160.525 17.9203 160.395 18.2589C160.269 18.5974 160.206 18.996 160.206 19.4545ZM173 23.1385C172.292 23.1385 171.684 22.9831 171.176 22.6722C170.671 22.3614 170.282 21.9321 170.008 21.3842C169.737 20.8333 169.602 20.1993 169.602 19.4822C169.602 18.7621 169.74 18.1265 170.017 17.5756C170.294 17.0217 170.685 16.5908 171.19 16.283C171.698 15.9722 172.298 15.8168 172.99 15.8168C173.566 15.8168 174.075 15.9229 174.518 16.1353C174.965 16.3446 175.32 16.6416 175.585 17.0263C175.849 17.4079 176 17.8542 176.037 18.3651H174.44C174.375 18.0234 174.221 17.7388 173.978 17.511C173.738 17.2802 173.417 17.1648 173.013 17.1648C172.672 17.1648 172.372 17.2571 172.113 17.4418C171.855 17.6233 171.653 17.8849 171.508 18.2266C171.367 18.5682 171.296 18.9775 171.296 19.4545C171.296 19.9377 171.367 20.3532 171.508 20.701C171.65 21.0457 171.849 21.3119 172.104 21.4996C172.362 21.6843 172.666 21.7766 173.013 21.7766C173.26 21.7766 173.48 21.7305 173.674 21.6381C173.871 21.5427 174.035 21.4058 174.168 21.2273C174.3 21.0488 174.391 20.8318 174.44 20.5763H176.037C175.997 21.078 175.849 21.5227 175.594 21.9105C175.339 22.2952 174.991 22.5968 174.551 22.8153C174.111 23.0308 173.594 23.1385 173 23.1385ZM180.502 23.1385C179.81 23.1385 179.21 22.9862 178.702 22.6815C178.194 22.3768 177.8 21.9505 177.52 21.4027C177.243 20.8549 177.105 20.2147 177.105 19.4822C177.105 18.7498 177.243 18.1081 177.52 17.5572C177.8 17.0063 178.194 16.5785 178.702 16.2738C179.21 15.9691 179.81 15.8168 180.502 15.8168C181.195 15.8168 181.795 15.9691 182.303 16.2738C182.811 16.5785 183.203 17.0063 183.48 17.5572C183.76 18.1081 183.9 18.7498 183.9 19.4822C183.9 20.2147 183.76 20.8549 183.48 21.4027C183.203 21.9505 182.811 22.3768 182.303 22.6815C181.795 22.9862 181.195 23.1385 180.502 23.1385ZM180.512 21.7997C180.887 21.7997 181.201 21.6966 181.453 21.4904C181.706 21.2811 181.894 21.0011 182.017 20.6502C182.143 20.2994 182.206 19.9085 182.206 19.4776C182.206 19.0437 182.143 18.6513 182.017 18.3004C181.894 17.9465 181.706 17.6649 181.453 17.4556C181.201 17.2463 180.887 17.1417 180.512 17.1417C180.127 17.1417 179.807 17.2463 179.551 17.4556C179.299 17.6649 179.11 17.9465 178.984 18.3004C178.861 18.6513 178.799 19.0437 178.799 19.4776C178.799 19.9085 178.861 20.2994 178.984 20.6502C179.11 21.0011 179.299 21.2811 179.551 21.4904C179.807 21.6966 180.127 21.7997 180.512 21.7997ZM185.319 23V15.9091H186.916V17.114H186.999C187.147 16.7077 187.391 16.3907 187.733 16.163C188.075 15.9322 188.482 15.8168 188.956 15.8168C189.437 15.8168 189.841 15.9337 190.171 16.1676C190.503 16.3984 190.737 16.7139 190.872 17.114H190.946C191.103 16.7201 191.368 16.4061 191.74 16.1722C192.116 15.9353 192.56 15.8168 193.074 15.8168C193.727 15.8168 194.259 16.023 194.672 16.4354C195.084 16.8478 195.29 17.4495 195.29 18.2404V23H193.614V18.4989C193.614 18.0588 193.497 17.7372 193.264 17.5341C193.03 17.3279 192.743 17.2248 192.405 17.2248C192.002 17.2248 191.686 17.351 191.459 17.6033C191.234 17.8526 191.122 18.1773 191.122 18.5774V23H189.483V18.4297C189.483 18.0634 189.372 17.7711 189.15 17.5526C188.932 17.334 188.646 17.2248 188.292 17.2248C188.052 17.2248 187.833 17.2863 187.636 17.4094C187.439 17.5295 187.282 17.7003 187.165 17.9219C187.048 18.1404 186.99 18.3958 186.99 18.6882V23H185.319ZM203.488 23H200.284V13.5455H203.553C204.491 13.5455 205.298 13.7347 205.972 14.1133C206.649 14.4888 207.169 15.0289 207.532 15.7337C207.895 16.4384 208.077 17.2817 208.077 18.2635C208.077 19.2483 207.894 20.0947 207.527 20.8026C207.164 21.5104 206.639 22.0536 205.953 22.4322C205.27 22.8107 204.448 23 203.488 23ZM201.997 21.5181H203.405C204.063 21.5181 204.613 21.3981 205.053 21.158C205.493 20.9149 205.824 20.5533 206.045 20.0732C206.267 19.59 206.378 18.9867 206.378 18.2635C206.378 17.5402 206.267 16.9401 206.045 16.4631C205.824 15.983 205.496 15.6244 205.062 15.3874C204.631 15.1474 204.096 15.0273 203.456 15.0273H201.997V21.5181ZM209.63 15.9091H211.301V23.4062C211.301 23.9171 211.204 24.3388 211.01 24.6712C210.817 25.0036 210.537 25.2513 210.17 25.4144C209.804 25.5775 209.359 25.6591 208.836 25.6591C208.775 25.6591 208.718 25.6576 208.665 25.6545C208.613 25.6545 208.556 25.6529 208.494 25.6499V24.288C208.541 24.2911 208.582 24.2926 208.619 24.2926C208.656 24.2957 208.695 24.2972 208.735 24.2972C209.055 24.2972 209.284 24.2188 209.422 24.0618C209.561 23.9079 209.63 23.6817 209.63 23.3832V15.9091ZM210.461 14.9027C210.193 14.9027 209.964 14.815 209.773 14.6396C209.586 14.4611 209.492 14.2472 209.492 13.9979C209.492 13.7455 209.586 13.5316 209.773 13.3562C209.964 13.1777 210.193 13.0884 210.461 13.0884C210.726 13.0884 210.952 13.1777 211.14 13.3562C211.331 13.5316 211.426 13.7455 211.426 13.9979C211.426 14.2472 211.331 14.4611 211.14 14.6396C210.952 14.815 210.726 14.9027 210.461 14.9027ZM215.06 23.1431C214.611 23.1431 214.206 23.0631 213.846 22.9031C213.489 22.7399 213.206 22.4999 212.997 22.1829C212.791 21.8659 212.687 21.475 212.687 21.0103C212.687 20.6102 212.761 20.2794 212.909 20.0178C213.057 19.7562 213.258 19.5469 213.514 19.3899C213.769 19.233 214.057 19.1145 214.377 19.0344C214.7 18.9513 215.034 18.8913 215.379 18.8544C215.794 18.8113 216.131 18.7728 216.39 18.739C216.648 18.7021 216.836 18.6467 216.953 18.5728C217.073 18.4959 217.133 18.3774 217.133 18.2173V18.1896C217.133 17.8419 217.03 17.5726 216.824 17.3817C216.618 17.1909 216.321 17.0955 215.933 17.0955C215.523 17.0955 215.199 17.1848 214.959 17.3633C214.722 17.5418 214.562 17.7526 214.479 17.9957L212.918 17.7741C213.041 17.3433 213.244 16.9832 213.528 16.6939C213.811 16.4015 214.157 16.183 214.566 16.0384C214.976 15.8906 215.428 15.8168 215.924 15.8168C216.265 15.8168 216.605 15.8568 216.944 15.9368C217.282 16.0168 217.592 16.1491 217.872 16.3338C218.152 16.5154 218.376 16.7631 218.546 17.0771C218.718 17.391 218.804 17.7834 218.804 18.2543V23H217.198V22.0259H217.142C217.041 22.2229 216.898 22.4076 216.713 22.5799C216.531 22.7492 216.302 22.8861 216.025 22.9908C215.751 23.0923 215.43 23.1431 215.06 23.1431ZM215.494 21.9151C215.83 21.9151 216.121 21.849 216.367 21.7166C216.613 21.5812 216.802 21.4027 216.935 21.1811C217.07 20.9595 217.138 20.7179 217.138 20.4563V19.6207C217.085 19.6638 216.996 19.7038 216.87 19.7408C216.747 19.7777 216.608 19.81 216.454 19.8377C216.301 19.8654 216.148 19.89 215.997 19.9116C215.847 19.9331 215.716 19.9516 215.605 19.967C215.356 20.0008 215.133 20.0562 214.936 20.1332C214.739 20.2101 214.583 20.3178 214.469 20.4563C214.355 20.5917 214.299 20.7672 214.299 20.9826C214.299 21.2904 214.411 21.5227 214.636 21.6797C214.86 21.8366 215.146 21.9151 215.494 21.9151ZM222.156 18.8452V23H220.485V15.9091H222.082V17.114H222.165C222.328 16.717 222.588 16.4015 222.945 16.1676C223.305 15.9337 223.75 15.8168 224.279 15.8168C224.769 15.8168 225.195 15.9214 225.558 16.1307C225.924 16.34 226.208 16.6431 226.408 17.0401C226.611 17.4371 226.711 17.9188 226.708 18.4851V23H225.036V18.7436C225.036 18.2696 224.913 17.8988 224.667 17.631C224.424 17.3633 224.087 17.2294 223.656 17.2294C223.364 17.2294 223.104 17.294 222.876 17.4233C222.651 17.5495 222.474 17.7326 222.345 17.9727C222.219 18.2127 222.156 18.5036 222.156 18.8452ZM231.49 25.8068C230.89 25.8068 230.375 25.7253 229.944 25.5621C229.513 25.4021 229.167 25.1867 228.905 24.9158C228.643 24.645 228.462 24.3449 228.36 24.0156L229.865 23.6509C229.933 23.7894 230.032 23.9264 230.161 24.0618C230.29 24.2003 230.464 24.3142 230.682 24.4034C230.904 24.4957 231.183 24.5419 231.518 24.5419C231.992 24.5419 232.384 24.4265 232.695 24.1957C233.006 23.9679 233.161 23.5924 233.161 23.0692V21.7259H233.078C232.992 21.8982 232.866 22.0752 232.7 22.2567C232.537 22.4383 232.32 22.5907 232.049 22.7138C231.781 22.8369 231.444 22.8984 231.038 22.8984C230.493 22.8984 229.999 22.7707 229.556 22.5153C229.116 22.2567 228.765 21.872 228.503 21.3612C228.245 20.8472 228.116 20.204 228.116 19.4315C228.116 18.6528 228.245 17.9957 228.503 17.4602C228.765 16.9216 229.117 16.5138 229.561 16.2369C230.004 15.9568 230.498 15.8168 231.043 15.8168C231.458 15.8168 231.8 15.8875 232.067 16.0291C232.338 16.1676 232.554 16.3353 232.714 16.5323C232.874 16.7262 232.995 16.9093 233.078 17.0817H233.171V15.9091H234.819V23.1154C234.819 23.7217 234.674 24.2234 234.385 24.6204C234.096 25.0174 233.7 25.3144 233.198 25.5114C232.697 25.7083 232.127 25.8068 231.49 25.8068ZM231.504 21.5874C231.858 21.5874 232.16 21.5012 232.409 21.3288C232.658 21.1565 232.848 20.9087 232.977 20.5856C233.106 20.2624 233.171 19.8746 233.171 19.4222C233.171 18.976 233.106 18.5851 232.977 18.2496C232.851 17.9142 232.663 17.6541 232.414 17.4695C232.167 17.2817 231.864 17.1879 231.504 17.1879C231.132 17.1879 230.821 17.2848 230.572 17.4787C230.322 17.6726 230.135 17.9388 230.008 18.2773C229.882 18.6128 229.819 18.9944 229.819 19.4222C229.819 19.8562 229.882 20.2363 230.008 20.5625C230.138 20.8857 230.327 21.138 230.576 21.3196C230.829 21.4981 231.138 21.5874 231.504 21.5874ZM239.625 23.1385C238.932 23.1385 238.332 22.9862 237.824 22.6815C237.316 22.3768 236.922 21.9505 236.642 21.4027C236.365 20.8549 236.227 20.2147 236.227 19.4822C236.227 18.7498 236.365 18.1081 236.642 17.5572C236.922 17.0063 237.316 16.5785 237.824 16.2738C238.332 15.9691 238.932 15.8168 239.625 15.8168C240.317 15.8168 240.917 15.9691 241.425 16.2738C241.933 16.5785 242.325 17.0063 242.602 17.5572C242.882 18.1081 243.022 18.7498 243.022 19.4822C243.022 20.2147 242.882 20.8549 242.602 21.4027C242.325 21.9505 241.933 22.3768 241.425 22.6815C240.917 22.9862 240.317 23.1385 239.625 23.1385ZM239.634 21.7997C240.009 21.7997 240.323 21.6966 240.576 21.4904C240.828 21.2811 241.016 21.0011 241.139 20.6502C241.265 20.2994 241.328 19.9085 241.328 19.4776C241.328 19.0437 241.265 18.6513 241.139 18.3004C241.016 17.9465 240.828 17.6649 240.576 17.4556C240.323 17.2463 240.009 17.1417 239.634 17.1417C239.249 17.1417 238.929 17.2463 238.674 17.4556C238.421 17.6649 238.232 17.9465 238.106 18.3004C237.983 18.6513 237.921 19.0437 237.921 19.4776C237.921 19.9085 237.983 20.2994 238.106 20.6502C238.232 21.0011 238.421 21.2811 238.674 21.4904C238.929 21.6966 239.249 21.7997 239.634 21.7997ZM248.081 18.2727C248.081 17.1186 248.233 16.0584 248.538 15.092C248.846 14.1225 249.303 13.2269 249.909 12.4052H251.483C251.249 12.7099 251.031 13.0838 250.828 13.527C250.624 13.9671 250.448 14.4503 250.297 14.9766C250.149 15.4998 250.032 16.043 249.946 16.6062C249.863 17.1694 249.821 17.7249 249.821 18.2727C249.821 19.0021 249.894 19.7408 250.038 20.4886C250.186 21.2365 250.384 21.9305 250.634 22.5707C250.886 23.2077 251.169 23.7294 251.483 24.1357H249.909C249.303 23.3139 248.846 22.4199 248.538 21.4535C248.233 20.484 248.081 19.4238 248.081 18.2727ZM252.855 23V13.5455H256.401C257.127 13.5455 257.737 13.6809 258.229 13.9517C258.724 14.2225 259.098 14.5949 259.351 15.0689C259.606 15.5398 259.734 16.0753 259.734 16.6754C259.734 17.2817 259.606 17.8203 259.351 18.2912C259.095 18.7621 258.718 19.1329 258.22 19.4038C257.721 19.6715 257.107 19.8054 256.378 19.8054H254.028V18.3974H256.147C256.572 18.3974 256.919 18.3235 257.19 18.1758C257.461 18.0281 257.661 17.8249 257.79 17.5664C257.923 17.3079 257.989 17.0109 257.989 16.6754C257.989 16.34 257.923 16.0445 257.79 15.7891C257.661 15.5336 257.46 15.3351 257.186 15.1935C256.915 15.0489 256.565 14.9766 256.138 14.9766H254.568V23H252.855ZM262.186 25.6591C261.959 25.6591 261.748 25.6406 261.554 25.6037C261.363 25.5698 261.211 25.5298 261.097 25.4837L261.485 24.1818C261.728 24.2526 261.945 24.2865 262.136 24.2834C262.326 24.2803 262.494 24.2203 262.639 24.1033C262.787 23.9895 262.911 23.7987 263.013 23.5309L263.156 23.1477L260.585 15.9091H262.357L263.991 21.2642H264.065L265.704 15.9091H267.482L264.642 23.8587C264.51 24.2341 264.335 24.5558 264.116 24.8235C263.898 25.0943 263.63 25.3005 263.313 25.4421C262.999 25.5868 262.623 25.6591 262.186 25.6591ZM272.179 15.9091V17.2017H268.102V15.9091H272.179ZM269.109 14.2102H270.78V20.8672C270.78 21.0919 270.814 21.2642 270.882 21.3842C270.952 21.5012 271.045 21.5812 271.159 21.6243C271.272 21.6674 271.399 21.6889 271.537 21.6889C271.642 21.6889 271.737 21.6812 271.823 21.6658C271.913 21.6504 271.98 21.6366 272.026 21.6243L272.308 22.9308C272.219 22.9615 272.091 22.9954 271.925 23.0323C271.762 23.0692 271.562 23.0908 271.325 23.0969C270.906 23.1093 270.529 23.0462 270.194 22.9077C269.858 22.7661 269.592 22.5476 269.395 22.2521C269.201 21.9567 269.106 21.5874 269.109 21.1442V14.2102ZM275.4 18.8452V23H273.729V13.5455H275.363V17.114H275.446C275.612 16.7139 275.869 16.3984 276.217 16.1676C276.568 15.9337 277.014 15.8168 277.556 15.8168C278.048 15.8168 278.478 15.9199 278.844 16.1261C279.21 16.3323 279.493 16.6339 279.693 17.0309C279.896 17.4279 279.998 17.9126 279.998 18.4851V23H278.327V18.7436C278.327 18.2666 278.204 17.8957 277.957 17.631C277.714 17.3633 277.373 17.2294 276.933 17.2294C276.637 17.2294 276.372 17.294 276.139 17.4233C275.908 17.5495 275.726 17.7326 275.594 17.9727C275.465 18.2127 275.4 18.5036 275.4 18.8452ZM284.794 23.1385C284.102 23.1385 283.502 22.9862 282.994 22.6815C282.486 22.3768 282.092 21.9505 281.812 21.4027C281.535 20.8549 281.397 20.2147 281.397 19.4822C281.397 18.7498 281.535 18.1081 281.812 17.5572C282.092 17.0063 282.486 16.5785 282.994 16.2738C283.502 15.9691 284.102 15.8168 284.794 15.8168C285.487 15.8168 286.087 15.9691 286.595 16.2738C287.103 16.5785 287.495 17.0063 287.772 17.5572C288.052 18.1081 288.192 18.7498 288.192 19.4822C288.192 20.2147 288.052 20.8549 287.772 21.4027C287.495 21.9505 287.103 22.3768 286.595 22.6815C286.087 22.9862 285.487 23.1385 284.794 23.1385ZM284.804 21.7997C285.179 21.7997 285.493 21.6966 285.745 21.4904C285.998 21.2811 286.186 21.0011 286.309 20.6502C286.435 20.2994 286.498 19.9085 286.498 19.4776C286.498 19.0437 286.435 18.6513 286.309 18.3004C286.186 17.9465 285.998 17.6649 285.745 17.4556C285.493 17.2463 285.179 17.1417 284.804 17.1417C284.419 17.1417 284.099 17.2463 283.843 17.4556C283.591 17.6649 283.402 17.9465 283.276 18.3004C283.153 18.6513 283.091 19.0437 283.091 19.4776C283.091 19.9085 283.153 20.2994 283.276 20.6502C283.402 21.0011 283.591 21.2811 283.843 21.4904C284.099 21.6966 284.419 21.7997 284.804 21.7997ZM291.282 18.8452V23H289.611V15.9091H291.208V17.114H291.291C291.454 16.717 291.714 16.4015 292.071 16.1676C292.431 15.9337 292.876 15.8168 293.405 15.8168C293.895 15.8168 294.321 15.9214 294.684 16.1307C295.05 16.34 295.334 16.6431 295.534 17.0401C295.737 17.4371 295.837 17.9188 295.834 18.4851V23H294.162V18.7436C294.162 18.2696 294.039 17.8988 293.793 17.631C293.55 17.3633 293.213 17.2294 292.782 17.2294C292.49 17.2294 292.23 17.294 292.002 17.4233C291.777 17.5495 291.6 17.7326 291.471 17.9727C291.345 18.2127 291.282 18.5036 291.282 18.8452ZM300.515 19.1452C300.515 20.2963 300.361 21.3565 300.053 22.326C299.748 23.2924 299.293 24.1864 298.687 25.0082H297.112C297.349 24.7035 297.568 24.3311 297.768 23.891C297.971 23.4509 298.146 22.9677 298.294 22.4414C298.445 21.9151 298.562 21.3704 298.645 20.8072C298.731 20.244 298.774 19.69 298.774 19.1452C298.774 18.4158 298.7 17.6772 298.553 16.9293C298.408 16.1815 298.21 15.4875 297.957 14.8473C297.708 14.2071 297.426 13.6839 297.112 13.2777H298.687C299.293 14.0994 299.748 14.995 300.053 15.9645C300.361 16.9309 300.515 17.9911 300.515 19.1452Z" fill="#F5F5F5"></path></svg>