<svg xmlns="http://www.w3.org/2000/svg" width="347" height="97" viewBox="0 0 347 97" fill="none"><path d="M5.405 16.0679H3.67871L5.11594 16.4659C7.49847 17.1258 9.14798 19.2942 9.14798 21.7664V92C9.14798 94.4853 11.1627 96.5 13.648 96.5H342C344.485 96.5 346.5 94.4853 346.5 92V5C346.5 2.51472 344.485 0.5 342 0.5H13.648C11.1627 0.5 9.14798 2.51472 9.14798 5V9.01387C9.14798 11.3579 7.66232 13.4444 5.44724 14.2112L2.97269 15.0679H5.405V16.0679Z" stroke="#CDAF50"></path><path d="M33.1188 50H32.3262C32.3176 49.7017 32.258 49.4261 32.1472 49.1733C32.0364 48.9176 31.8816 48.6946 31.6827 48.5043C31.4838 48.3139 31.2466 48.1662 30.9711 48.0611C30.6983 47.956 30.3929 47.9034 30.0549 47.9034C29.498 47.9034 28.9654 48.0497 28.4569 48.3423C27.9483 48.6321 27.5108 49.0582 27.1444 49.6207C26.7779 50.1832 26.5279 50.8707 26.3944 51.6832C26.2608 52.4844 26.2821 53.1591 26.4583 53.7074C26.6344 54.2528 26.9228 54.6662 27.3233 54.9474C27.7267 55.2287 28.1998 55.3693 28.7424 55.3693C29.089 55.3693 29.4213 55.3168 29.7395 55.2116C30.0577 55.1065 30.3503 54.9602 30.6174 54.7727C30.8844 54.5824 31.1188 54.3594 31.3205 54.1037C31.5222 53.848 31.6784 53.571 31.7892 53.2727H32.5904C32.4512 53.6733 32.2566 54.0469 32.0066 54.3935C31.7566 54.7372 31.4611 55.0384 31.1202 55.2969C30.7821 55.5554 30.4086 55.7571 29.9995 55.902C29.5932 56.0469 29.1614 56.1193 28.704 56.1193C27.9597 56.1193 27.3304 55.9332 26.8162 55.5611C26.3049 55.1889 25.9412 54.6648 25.7253 53.9886C25.5123 53.3097 25.4824 52.5099 25.6358 51.5895C25.7864 50.6861 26.0748 49.902 26.5009 49.2372C26.9299 48.5724 27.4554 48.0597 28.0776 47.6989C28.6998 47.3352 29.3759 47.1534 30.106 47.1534C30.5719 47.1534 30.9895 47.2259 31.3588 47.3707C31.7282 47.5128 32.0421 47.7145 32.3006 47.9759C32.562 48.2344 32.7623 48.5355 32.9015 48.8793C33.0407 49.223 33.1131 49.5966 33.1188 50ZM36.4778 56.1364C35.867 56.1364 35.3627 55.9943 34.965 55.7102C34.5673 55.4233 34.2889 55.027 34.1298 54.5213C33.9707 54.0128 33.9466 53.4276 34.0574 52.7656C34.1681 52.1065 34.3869 51.5213 34.7136 51.0099C35.0403 50.4957 35.4437 50.0937 35.9238 49.804C36.4039 49.5114 36.9252 49.3651 37.4877 49.3651C37.8429 49.3651 38.1752 49.4304 38.4849 49.5611C38.7946 49.6889 39.0574 49.8864 39.2733 50.1534C39.492 50.4176 39.644 50.7514 39.7292 51.1548C39.8145 51.5554 39.8116 52.0298 39.7207 52.5781L39.661 52.9531H34.5474L34.6539 52.2841H38.9963C39.0673 51.8636 39.0474 51.4858 38.9366 51.1506C38.8258 50.8153 38.6369 50.5497 38.3699 50.3537C38.1056 50.1548 37.7775 50.0554 37.3855 50.0554C36.9849 50.0554 36.6056 50.1676 36.2477 50.392C35.8926 50.6165 35.5914 50.9091 35.3443 51.2699C35.1 51.6278 34.9423 52.0099 34.8713 52.4162L34.786 52.919C34.6951 53.473 34.7065 53.9375 34.8201 54.3125C34.9338 54.6847 35.1397 54.9659 35.438 55.1562C35.7363 55.3466 36.1184 55.4418 36.5843 55.4418C36.8968 55.4418 37.1795 55.3935 37.4324 55.2969C37.6852 55.2003 37.9054 55.071 38.0929 54.9091C38.2804 54.7443 38.4309 54.5639 38.5446 54.3679L39.2221 54.6023C39.0772 54.8778 38.8727 55.1321 38.6085 55.3651C38.3471 55.598 38.036 55.7855 37.6752 55.9276C37.3173 56.0668 36.9181 56.1364 36.4778 56.1364ZM40.8212 56L41.9121 49.4545H42.6493L42.4789 50.4602H42.5343C42.7161 50.1307 42.9874 49.8651 43.3482 49.6634C43.7118 49.4588 44.0996 49.3565 44.5115 49.3565C44.574 49.3565 44.6436 49.358 44.7203 49.3608C44.7971 49.3608 44.861 49.3636 44.9121 49.3693L44.78 50.1406C44.7459 50.1349 44.6863 50.1264 44.601 50.1151C44.5186 50.1037 44.4263 50.098 44.324 50.098C43.9831 50.098 43.6678 50.1705 43.378 50.3153C43.0911 50.4574 42.8496 50.6548 42.6536 50.9077C42.4604 51.1605 42.3354 51.4489 42.2786 51.7727L41.5797 56H40.8212ZM49.1895 49.4545L49.0829 50.1151H45.9551L46.0659 49.4545H49.1895ZM47.2974 47.8864H48.0602L46.9949 54.2912C46.9494 54.5639 46.9608 54.7784 47.0289 54.9347C47.0971 55.0881 47.2022 55.1974 47.3443 55.2628C47.4863 55.3253 47.6426 55.3565 47.813 55.3565C47.9125 55.3565 47.9977 55.3509 48.0687 55.3395C48.1426 55.3253 48.2079 55.3111 48.2647 55.2969L48.3201 55.983C48.2377 56.0114 48.1397 56.0369 48.0261 56.0597C47.9125 56.0852 47.7761 56.098 47.617 56.098C47.3386 56.098 47.0815 56.0369 46.8457 55.9148C46.6099 55.7926 46.4309 55.6108 46.3088 55.3693C46.1866 55.1278 46.1539 54.8281 46.2108 54.4702L47.2974 47.8864ZM49.8297 56L50.9206 49.4545H51.6834L50.5925 56H49.8297ZM51.5769 48.3168C51.4178 48.3168 51.2828 48.2628 51.1721 48.1548C51.0641 48.0469 51.0115 47.9162 51.0144 47.7628C51.0201 47.6179 51.0783 47.4929 51.1891 47.3878C51.3027 47.2798 51.4363 47.2259 51.5897 47.2259C51.7488 47.2259 51.8837 47.2812 51.9945 47.392C52.1053 47.5 52.1578 47.6307 52.1522 47.7841C52.1493 47.929 52.0911 48.054 51.9775 48.1591C51.8638 48.2642 51.7303 48.3168 51.5769 48.3168ZM56.3826 49.4545L56.2718 50.1151H53.0588L53.1653 49.4545H56.3826ZM53.0801 56L54.3287 48.4957C54.3855 48.1435 54.5147 47.8466 54.7164 47.6051C54.921 47.3636 55.1653 47.1804 55.4494 47.0554C55.7335 46.9304 56.0247 46.8679 56.323 46.8679C56.5218 46.8679 56.6838 46.8849 56.8088 46.919C56.9338 46.9503 57.0318 46.9815 57.1028 47.0128L56.7789 47.6776C56.7221 47.6605 56.6539 47.6406 56.5744 47.6179C56.4977 47.5952 56.3968 47.5838 56.2718 47.5838C55.9423 47.5838 55.6724 47.6761 55.4622 47.8608C55.252 48.0455 55.117 48.3097 55.0574 48.6534L53.8386 56H53.0801ZM56.8141 56L57.905 49.4545H58.6678L57.5769 56H56.8141ZM58.5613 48.3168C58.4022 48.3168 58.2672 48.2628 58.1564 48.1548C58.0485 48.0469 57.9959 47.9162 57.9988 47.7628C58.0044 47.6179 58.0627 47.4929 58.1735 47.3878C58.2871 47.2798 58.4206 47.2259 58.574 47.2259C58.7331 47.2259 58.8681 47.2812 58.9789 47.392C59.0897 47.5 59.1422 47.6307 59.1365 47.7841C59.1337 47.929 59.0755 48.054 58.9618 48.1591C58.8482 48.2642 58.7147 48.3168 58.5613 48.3168ZM62.1227 56.1364C61.5318 56.1364 61.0446 55.9901 60.661 55.6974C60.2775 55.4048 60.0091 55.0043 59.8556 54.4957C59.7051 53.9844 59.6838 53.4048 59.7917 52.7571C59.8997 52.098 60.117 51.5142 60.4437 51.0057C60.7704 50.4943 61.1738 50.0937 61.6539 49.804C62.1369 49.5114 62.6639 49.3651 63.2349 49.3651C63.6752 49.3651 64.0588 49.4503 64.3855 49.6207C64.7122 49.7884 64.965 50.0256 65.144 50.3324C65.323 50.6364 65.4082 50.9915 65.3997 51.3977H64.6326C64.6127 51.0199 64.475 50.7017 64.2193 50.4432C63.9664 50.1847 63.6085 50.0554 63.1454 50.0554C62.7221 50.0554 62.3301 50.169 61.9693 50.3963C61.6085 50.6207 61.3031 50.9347 61.0531 51.3381C60.8059 51.7386 60.6397 52.2031 60.5545 52.7315C60.4636 53.2628 60.4721 53.733 60.5801 54.142C60.688 54.5483 60.8812 54.8665 61.1596 55.0966C61.4409 55.3267 61.796 55.4418 62.225 55.4418C62.5176 55.4418 62.7931 55.3878 63.0517 55.2798C63.3102 55.169 63.5389 55.0128 63.7377 54.8111C63.9366 54.6065 64.0886 54.3665 64.1937 54.0909H64.9608C64.8329 54.4886 64.6312 54.8409 64.3556 55.1477C64.0829 55.4545 63.7562 55.696 63.3755 55.8722C62.9949 56.0483 62.5772 56.1364 62.1227 56.1364ZM68.0737 56.1491C67.6788 56.1491 67.3308 56.0724 67.0297 55.919C66.7285 55.7628 66.5041 55.5384 66.3564 55.2457C66.2115 54.9503 66.1717 54.5923 66.237 54.1719C66.2939 53.848 66.4018 53.5753 66.5609 53.3537C66.7228 53.1321 66.9274 52.9503 67.1745 52.8082C67.4217 52.6634 67.7058 52.5497 68.0268 52.4673C68.3478 52.3849 68.6973 52.3224 69.0751 52.2798C69.4444 52.2344 69.7598 52.1946 70.0211 52.1605C70.2825 52.1264 70.4856 52.0724 70.6305 51.9986C70.7754 51.9247 70.862 51.8054 70.8904 51.6406L70.916 51.4872C70.9899 51.0412 70.9217 50.6903 70.7115 50.4347C70.5012 50.1761 70.149 50.0469 69.6547 50.0469C69.1831 50.0469 68.774 50.152 68.4274 50.3622C68.0836 50.5696 67.8279 50.8125 67.6603 51.0909L66.987 50.831C67.1916 50.473 67.443 50.1875 67.7413 49.9744C68.0396 49.7585 68.3592 49.6037 68.7001 49.5099C69.041 49.4134 69.3777 49.3651 69.71 49.3651C69.96 49.3651 70.2143 49.3977 70.4728 49.4631C70.7314 49.5284 70.9629 49.642 71.1674 49.804C71.3748 49.9631 71.5268 50.1861 71.6234 50.473C71.7228 50.7571 71.737 51.1179 71.666 51.5554L70.9245 56H70.166L70.3407 54.9645H70.2939C70.1745 55.1577 70.0098 55.3452 69.7995 55.527C69.5922 55.7088 69.3436 55.858 69.0538 55.9744C68.764 56.0909 68.4373 56.1491 68.0737 56.1491ZM68.2654 55.4545C68.6689 55.4545 69.0339 55.3651 69.3606 55.1861C69.6902 55.0071 69.96 54.7699 70.1703 54.4744C70.3833 54.1761 70.5197 53.848 70.5794 53.4901L70.737 52.544C70.6745 52.598 70.5723 52.6463 70.4302 52.6889C70.291 52.7315 70.1333 52.7699 69.9572 52.804C69.7839 52.8352 69.6092 52.8622 69.4331 52.8849C69.2598 52.9077 69.1064 52.9276 68.9728 52.9446C68.595 52.9901 68.2654 53.0611 67.9842 53.1577C67.7058 53.2543 67.4828 53.3878 67.3152 53.5582C67.1475 53.7259 67.0424 53.9418 66.9998 54.206C66.9345 54.6037 67.0211 54.9119 67.2598 55.1307C67.5012 55.3466 67.8365 55.4545 68.2654 55.4545ZM75.286 56.1364C74.7491 56.1364 74.3017 55.9943 73.9437 55.7102C73.5858 55.4261 73.3358 55.0298 73.1937 54.5213C73.0517 54.0128 73.036 53.4205 73.1468 52.7443C73.2605 52.071 73.4721 51.4815 73.7818 50.9759C74.0943 50.4673 74.4764 50.0724 74.9281 49.7912C75.3826 49.5071 75.8784 49.3651 76.4153 49.3651C76.8159 49.3651 77.1355 49.4361 77.3741 49.5781C77.6156 49.7173 77.7988 49.8906 77.9238 50.098C78.0488 50.3054 78.1383 50.5071 78.1923 50.7031H78.2605L78.8315 47.2727H79.5943L78.1454 56H77.4082L77.6127 54.7855H77.519C77.3968 54.9844 77.2363 55.1889 77.0375 55.3991C76.8414 55.6065 76.6 55.7812 76.313 55.9233C76.0261 56.0653 75.6838 56.1364 75.286 56.1364ZM75.4522 55.4418C75.8755 55.4418 76.2576 55.3267 76.5985 55.0966C76.9423 54.8636 77.2292 54.544 77.4593 54.1378C77.6923 53.7287 77.8514 53.2599 77.9366 52.7315C78.0247 52.2088 78.0233 51.7472 77.9324 51.3466C77.8414 50.9432 77.6653 50.6278 77.4039 50.4006C77.1426 50.1705 76.7974 50.0554 76.3684 50.0554C75.9338 50.0554 75.5474 50.1747 75.2093 50.4134C74.8713 50.6491 74.5914 50.9687 74.3699 51.3722C74.1511 51.7756 73.9991 52.2287 73.9139 52.7315C73.8315 53.2401 73.8315 53.6989 73.9139 54.108C73.9963 54.517 74.1639 54.8423 74.4167 55.0838C74.6724 55.3224 75.0176 55.4418 75.4522 55.4418ZM82.8755 56.1364C82.3017 56.1364 81.8187 55.9915 81.4267 55.7017C81.0346 55.4091 80.7576 55.0043 80.5957 54.4872C80.4338 53.9702 80.4068 53.3736 80.5147 52.6974C80.6227 52.0384 80.8372 51.4588 81.1582 50.9588C81.4821 50.456 81.8798 50.0653 82.3514 49.7869C82.823 49.5057 83.3358 49.3651 83.8897 49.3651C84.4664 49.3651 84.9494 49.5114 85.3386 49.804C85.7306 50.0966 86.0076 50.5014 86.1696 51.0185C86.3343 51.5355 86.3627 52.1335 86.2548 52.8125C86.1468 53.4688 85.9309 54.0469 85.6071 54.5469C85.2832 55.044 84.8855 55.4332 84.4139 55.7145C83.9451 55.9957 83.4324 56.1364 82.8755 56.1364ZM82.8841 55.4418C83.35 55.4418 83.7647 55.3182 84.1284 55.071C84.4949 54.821 84.7974 54.4886 85.036 54.0739C85.2747 53.6562 85.4352 53.1974 85.5176 52.6974C85.5943 52.2202 85.5858 51.7812 85.492 51.3807C85.3983 50.9801 85.2179 50.6591 84.9508 50.4176C84.6838 50.1761 84.3287 50.0554 83.8855 50.0554C83.4224 50.0554 83.0076 50.1818 82.6412 50.4347C82.2747 50.6847 81.9721 51.0199 81.7335 51.4403C81.4949 51.858 81.3358 52.3153 81.2562 52.8125C81.1767 53.2926 81.1824 53.7315 81.2733 54.1293C81.367 54.527 81.5474 54.8452 81.8145 55.0838C82.0843 55.3224 82.4409 55.4418 82.8841 55.4418ZM93.1103 56.1364C92.5733 56.1364 92.1259 55.9943 91.7679 55.7102C91.41 55.4261 91.16 55.0298 91.0179 54.5213C90.8759 54.0128 90.8603 53.4205 90.9711 52.7443C91.0847 52.071 91.2963 51.4815 91.606 50.9759C91.9185 50.4673 92.3006 50.0724 92.7523 49.7912C93.2069 49.5071 93.7026 49.3651 94.2395 49.3651C94.6401 49.3651 94.9597 49.4361 95.1983 49.5781C95.4398 49.7173 95.623 49.8906 95.748 50.098C95.873 50.3054 95.9625 50.5071 96.0165 50.7031H96.0847L96.6557 47.2727H97.4185L95.9696 56H95.2324L95.437 54.7855H95.3432C95.2211 54.9844 95.0605 55.1889 94.8617 55.3991C94.6657 55.6065 94.4242 55.7812 94.1373 55.9233C93.8503 56.0653 93.508 56.1364 93.1103 56.1364ZM93.2765 55.4418C93.6998 55.4418 94.0819 55.3267 94.4228 55.0966C94.7665 54.8636 95.0534 54.544 95.2836 54.1378C95.5165 53.7287 95.6756 53.2599 95.7608 52.7315C95.8489 52.2088 95.8475 51.7472 95.7566 51.3466C95.6657 50.9432 95.4895 50.6278 95.2282 50.4006C94.9668 50.1705 94.6216 50.0554 94.1926 50.0554C93.758 50.0554 93.3716 50.1747 93.0336 50.4134C92.6955 50.6491 92.4157 50.9687 92.1941 51.3722C91.9753 51.7756 91.8233 52.2287 91.7381 52.7315C91.6557 53.2401 91.6557 53.6989 91.7381 54.108C91.8205 54.517 91.9881 54.8423 92.2409 55.0838C92.4966 55.3224 92.8418 55.4418 93.2765 55.4418ZM100.7 56.1364C100.126 56.1364 99.6429 55.9915 99.2509 55.7017C98.8588 55.4091 98.5819 55.0043 98.4199 54.4872C98.258 53.9702 98.231 53.3736 98.339 52.6974C98.4469 52.0384 98.6614 51.4588 98.9824 50.9588C99.3063 50.456 99.704 50.0653 100.176 49.7869C100.647 49.5057 101.16 49.3651 101.714 49.3651C102.291 49.3651 102.774 49.5114 103.163 49.804C103.555 50.0966 103.832 50.5014 103.994 51.0185C104.159 51.5355 104.187 52.1335 104.079 52.8125C103.971 53.4688 103.755 54.0469 103.431 54.5469C103.107 55.044 102.71 55.4332 102.238 55.7145C101.769 55.9957 101.257 56.1364 100.7 56.1364ZM100.708 55.4418C101.174 55.4418 101.589 55.3182 101.953 55.071C102.319 54.821 102.622 54.4886 102.86 54.0739C103.099 53.6562 103.259 53.1974 103.342 52.6974C103.419 52.2202 103.41 51.7812 103.316 51.3807C103.222 50.9801 103.042 50.6591 102.775 50.4176C102.508 50.1761 102.153 50.0554 101.71 50.0554C101.247 50.0554 100.832 50.1818 100.465 50.4347C100.099 50.6847 99.7963 51.0199 99.5577 51.4403C99.3191 51.858 99.16 52.3153 99.0804 52.8125C99.0009 53.2926 99.0066 53.7315 99.0975 54.1293C99.1912 54.527 99.3716 54.8452 99.6387 55.0838C99.9086 55.3224 100.265 55.4418 100.708 55.4418ZM111.131 56.1364C110.54 56.1364 110.052 55.9901 109.669 55.6974C109.285 55.4048 109.017 55.0043 108.863 54.4957C108.713 53.9844 108.692 53.4048 108.8 52.7571C108.907 52.098 109.125 51.5142 109.452 51.0057C109.778 50.4943 110.182 50.0937 110.662 49.804C111.145 49.5114 111.672 49.3651 112.243 49.3651C112.683 49.3651 113.067 49.4503 113.393 49.6207C113.72 49.7884 113.973 50.0256 114.152 50.3324C114.331 50.6364 114.416 50.9915 114.407 51.3977H113.64C113.621 51.0199 113.483 50.7017 113.227 50.4432C112.974 50.1847 112.616 50.0554 112.153 50.0554C111.73 50.0554 111.338 50.169 110.977 50.3963C110.616 50.6207 110.311 50.9347 110.061 51.3381C109.814 51.7386 109.648 52.2031 109.562 52.7315C109.471 53.2628 109.48 53.733 109.588 54.142C109.696 54.5483 109.889 54.8665 110.167 55.0966C110.449 55.3267 110.804 55.4418 111.233 55.4418C111.525 55.4418 111.801 55.3878 112.059 55.2798C112.318 55.169 112.547 55.0128 112.746 54.8111C112.944 54.6065 113.096 54.3665 113.202 54.0909H113.969C113.841 54.4886 113.639 54.8409 113.363 55.1477C113.091 55.4545 112.764 55.696 112.383 55.8722C112.003 56.0483 111.585 56.1364 111.131 56.1364ZM119.843 53.4986L120.52 49.4545H121.279L120.188 56H119.43L119.608 54.9134H119.553C119.349 55.2486 119.059 55.5284 118.684 55.7528C118.312 55.9744 117.885 56.0852 117.405 56.0852C116.988 56.0852 116.631 55.9943 116.336 55.8125C116.043 55.6278 115.834 55.358 115.709 55.0028C115.584 54.6477 115.564 54.2116 115.65 53.6946L116.361 49.4545H117.12L116.421 53.6477C116.339 54.1591 116.421 54.571 116.668 54.8835C116.918 55.1932 117.279 55.348 117.751 55.348C118.046 55.348 118.341 55.277 118.637 55.1349C118.935 54.9929 119.194 54.7855 119.412 54.5128C119.634 54.2372 119.778 53.8991 119.843 53.4986ZM122.196 56L123.287 49.4545H124.024L123.854 50.4602H123.909C124.091 50.1307 124.362 49.8651 124.723 49.6634C125.087 49.4588 125.475 49.3565 125.887 49.3565C125.949 49.3565 126.019 49.358 126.095 49.3608C126.172 49.3608 126.236 49.3636 126.287 49.3693L126.155 50.1406C126.121 50.1349 126.061 50.1264 125.976 50.1151C125.894 50.1037 125.801 50.098 125.699 50.098C125.358 50.098 125.043 50.1705 124.753 50.3153C124.466 50.4574 124.225 50.6548 124.029 50.9077C123.835 51.1605 123.71 51.4489 123.654 51.7727L122.955 56H122.196ZM131.735 50.8906L131.007 51.0781C130.97 50.8821 130.901 50.706 130.802 50.5497C130.705 50.3906 130.565 50.2656 130.38 50.1747C130.198 50.081 129.96 50.0341 129.664 50.0341C129.221 50.0341 128.839 50.142 128.518 50.358C128.197 50.571 128.009 50.8437 127.955 51.1761C127.91 51.4545 127.968 51.6804 128.13 51.8537C128.295 52.027 128.57 52.1634 128.957 52.2628L129.911 52.5057C130.44 52.642 130.816 52.8551 131.041 53.1449C131.268 53.4347 131.346 53.8011 131.275 54.2443C131.213 54.6136 131.055 54.9403 130.802 55.2244C130.552 55.5085 130.231 55.7315 129.839 55.8935C129.45 56.0554 129.015 56.1364 128.535 56.1364C127.89 56.1364 127.383 55.9915 127.014 55.7017C126.647 55.4119 126.451 54.9943 126.426 54.4489L127.188 54.2784C127.211 54.6648 127.343 54.9574 127.585 55.1562C127.829 55.3551 128.173 55.4545 128.616 55.4545C129.122 55.4545 129.546 55.3395 129.89 55.1094C130.234 54.8793 130.431 54.5952 130.482 54.2571C130.531 53.9901 130.481 53.7685 130.333 53.5923C130.188 53.4162 129.941 53.2855 129.592 53.2003L128.573 52.9446C128.025 52.8054 127.637 52.5881 127.41 52.2926C127.186 51.9943 127.11 51.6264 127.184 51.1889C127.244 50.8281 127.394 50.5114 127.636 50.2386C127.877 49.9659 128.183 49.7528 128.552 49.5994C128.921 49.4432 129.325 49.3651 129.762 49.3651C130.365 49.3651 130.823 49.5014 131.139 49.7741C131.454 50.044 131.653 50.4162 131.735 50.8906ZM135.211 56.1364C134.638 56.1364 134.155 55.9915 133.763 55.7017C133.371 55.4091 133.094 55.0043 132.932 54.4872C132.77 53.9702 132.743 53.3736 132.851 52.6974C132.959 52.0384 133.173 51.4588 133.494 50.9588C133.818 50.456 134.216 50.0653 134.687 49.7869C135.159 49.5057 135.672 49.3651 136.226 49.3651C136.802 49.3651 137.285 49.5114 137.675 49.804C138.067 50.0966 138.344 50.5014 138.506 51.0185C138.67 51.5355 138.699 52.1335 138.591 52.8125C138.483 53.4688 138.267 54.0469 137.943 54.5469C137.619 55.044 137.221 55.4332 136.75 55.7145C136.281 55.9957 135.768 56.1364 135.211 56.1364ZM135.22 55.4418C135.686 55.4418 136.101 55.3182 136.464 55.071C136.831 54.821 137.133 54.4886 137.372 54.0739C137.611 53.6562 137.771 53.1974 137.854 52.6974C137.93 52.2202 137.922 51.7812 137.828 51.3807C137.734 50.9801 137.554 50.6591 137.287 50.4176C137.02 50.1761 136.665 50.0554 136.221 50.0554C135.758 50.0554 135.344 50.1818 134.977 50.4347C134.611 50.6847 134.308 51.0199 134.069 51.4403C133.831 51.858 133.672 52.3153 133.592 52.8125C133.513 53.2926 133.518 53.7315 133.609 54.1293C133.703 54.527 133.883 54.8452 134.15 55.0838C134.42 55.3224 134.777 55.4418 135.22 55.4418ZM145.446 56.1364C144.909 56.1364 144.462 55.9943 144.104 55.7102C143.746 55.4261 143.496 55.0298 143.354 54.5213C143.212 54.0128 143.196 53.4205 143.307 52.7443C143.421 52.071 143.632 51.4815 143.942 50.9759C144.254 50.4673 144.637 50.0724 145.088 49.7912C145.543 49.5071 146.039 49.3651 146.575 49.3651C146.976 49.3651 147.296 49.4361 147.534 49.5781C147.776 49.7173 147.959 49.8906 148.084 50.098C148.209 50.3054 148.298 50.5071 148.352 50.7031H148.421L148.992 47.2727H149.754L148.306 56H147.568L147.773 54.7855H147.679C147.557 54.9844 147.396 55.1889 147.198 55.3991C147.002 55.6065 146.76 55.7812 146.473 55.9233C146.186 56.0653 145.844 56.1364 145.446 56.1364ZM145.612 55.4418C146.036 55.4418 146.418 55.3267 146.759 55.0966C147.102 54.8636 147.389 54.544 147.619 54.1378C147.852 53.7287 148.012 53.2599 148.097 52.7315C148.185 52.2088 148.183 51.7472 148.093 51.3466C148.002 50.9432 147.825 50.6278 147.564 50.4006C147.303 50.1705 146.958 50.0554 146.529 50.0554C146.094 50.0554 145.708 50.1747 145.369 50.4134C145.031 50.6491 144.752 50.9687 144.53 51.3722C144.311 51.7756 144.159 52.2287 144.074 52.7315C143.992 53.2401 143.992 53.6989 144.074 54.108C144.156 54.517 144.324 54.8423 144.577 55.0838C144.833 55.3224 145.178 55.4418 145.612 55.4418ZM153.091 56.1364C152.48 56.1364 151.976 55.9943 151.578 55.7102C151.181 55.4233 150.902 55.027 150.743 54.5213C150.584 54.0128 150.56 53.4276 150.671 52.7656C150.781 52.1065 151 51.5213 151.327 51.0099C151.654 50.4957 152.057 50.0937 152.537 49.804C153.017 49.5114 153.539 49.3651 154.101 49.3651C154.456 49.3651 154.789 49.4304 155.098 49.5611C155.408 49.6889 155.671 49.8864 155.887 50.1534C156.105 50.4176 156.257 50.7514 156.343 51.1548C156.428 51.5554 156.425 52.0298 156.334 52.5781L156.274 52.9531H151.161L151.267 52.2841H155.61C155.681 51.8636 155.661 51.4858 155.55 51.1506C155.439 50.8153 155.25 50.5497 154.983 50.3537C154.719 50.1548 154.391 50.0554 153.999 50.0554C153.598 50.0554 153.219 50.1676 152.861 50.392C152.506 50.6165 152.205 50.9091 151.958 51.2699C151.713 51.6278 151.556 52.0099 151.485 52.4162L151.399 52.919C151.308 53.473 151.32 53.9375 151.433 54.3125C151.547 54.6847 151.753 54.9659 152.051 55.1562C152.35 55.3466 152.732 55.4418 153.198 55.4418C153.51 55.4418 153.793 55.3935 154.046 55.2969C154.298 55.2003 154.519 55.071 154.706 54.9091C154.894 54.7443 155.044 54.5639 155.158 54.3679L155.835 54.6023C155.691 54.8778 155.486 55.1321 155.222 55.3651C154.96 55.598 154.649 55.7855 154.289 55.9276C153.931 56.0668 153.531 56.1364 153.091 56.1364ZM160.98 56H160.145L164.768 47.2727H165.621L167.346 56H166.511L165.058 48.3082H165.003L160.98 56ZM162.139 52.6548H166.469L166.349 53.3707H162.02L162.139 52.6548ZM170.121 51.9091L169.443 56H168.684L169.775 49.4545H170.513L170.342 50.4815H170.41C170.615 50.1463 170.898 49.8778 171.258 49.6761C171.622 49.4716 172.044 49.3693 172.524 49.3693C172.961 49.3693 173.331 49.4616 173.632 49.6463C173.936 49.8281 174.152 50.0966 174.28 50.4517C174.41 50.8068 174.433 51.2429 174.348 51.7599L173.636 56H172.878L173.577 51.8068C173.665 51.2727 173.586 50.8494 173.342 50.5369C173.101 50.2216 172.727 50.0639 172.221 50.0639C171.878 50.0639 171.558 50.1378 171.263 50.2855C170.97 50.4332 170.723 50.6463 170.521 50.9247C170.319 51.2003 170.186 51.5284 170.121 51.9091ZM177.445 56.1491C177.05 56.1491 176.702 56.0724 176.401 55.919C176.1 55.7628 175.875 55.5384 175.727 55.2457C175.583 54.9503 175.543 54.5923 175.608 54.1719C175.665 53.848 175.773 53.5753 175.932 53.3537C176.094 53.1321 176.298 52.9503 176.546 52.8082C176.793 52.6634 177.077 52.5497 177.398 52.4673C177.719 52.3849 178.068 52.3224 178.446 52.2798C178.816 52.2344 179.131 52.1946 179.392 52.1605C179.654 52.1264 179.857 52.0724 180.002 51.9986C180.146 51.9247 180.233 51.8054 180.262 51.6406L180.287 51.4872C180.361 51.0412 180.293 50.6903 180.083 50.4347C179.872 50.1761 179.52 50.0469 179.026 50.0469C178.554 50.0469 178.145 50.152 177.798 50.3622C177.455 50.5696 177.199 50.8125 177.031 51.0909L176.358 50.831C176.563 50.473 176.814 50.1875 177.112 49.9744C177.411 49.7585 177.73 49.6037 178.071 49.5099C178.412 49.4134 178.749 49.3651 179.081 49.3651C179.331 49.3651 179.585 49.3977 179.844 49.4631C180.102 49.5284 180.334 49.642 180.539 49.804C180.746 49.9631 180.898 50.1861 180.994 50.473C181.094 50.7571 181.108 51.1179 181.037 51.5554L180.296 56H179.537L179.712 54.9645H179.665C179.546 55.1577 179.381 55.3452 179.171 55.527C178.963 55.7088 178.715 55.858 178.425 55.9744C178.135 56.0909 177.808 56.1491 177.445 56.1491ZM177.637 55.4545C178.04 55.4545 178.405 55.3651 178.732 55.1861C179.061 55.0071 179.331 54.7699 179.541 54.4744C179.754 54.1761 179.891 53.848 179.95 53.4901L180.108 52.544C180.046 52.598 179.943 52.6463 179.801 52.6889C179.662 52.7315 179.504 52.7699 179.328 52.804C179.155 52.8352 178.98 52.8622 178.804 52.8849C178.631 52.9077 178.477 52.9276 178.344 52.9446C177.966 52.9901 177.637 53.0611 177.355 53.1577C177.077 53.2543 176.854 53.3878 176.686 53.5582C176.519 53.7259 176.414 53.9418 176.371 54.206C176.306 54.6037 176.392 54.9119 176.631 55.1307C176.872 55.3466 177.208 55.4545 177.637 55.4545ZM178.911 48.5469L180.321 46.6122H181.225L179.601 48.5469H178.911ZM184.521 47.2727L183.072 56H182.313L183.762 47.2727H184.521ZM185.088 56L186.178 49.4545H186.941L185.85 56H185.088ZM186.835 48.3168C186.676 48.3168 186.541 48.2628 186.43 48.1548C186.322 48.0469 186.269 47.9162 186.272 47.7628C186.278 47.6179 186.336 47.4929 186.447 47.3878C186.561 47.2798 186.694 47.2259 186.847 47.2259C187.007 47.2259 187.142 47.2812 187.252 47.392C187.363 47.5 187.416 47.6307 187.41 47.7841C187.407 47.929 187.349 48.054 187.235 48.1591C187.122 48.2642 186.988 48.3168 186.835 48.3168ZM193.106 50.8906L192.378 51.0781C192.341 50.8821 192.273 50.706 192.173 50.5497C192.077 50.3906 191.936 50.2656 191.751 50.1747C191.569 50.081 191.331 50.0341 191.035 50.0341C190.592 50.0341 190.21 50.142 189.889 50.358C189.568 50.571 189.381 50.8437 189.327 51.1761C189.281 51.4545 189.339 51.6804 189.501 51.8537C189.666 52.027 189.942 52.1634 190.328 52.2628L191.282 52.5057C191.811 52.642 192.187 52.8551 192.412 53.1449C192.639 53.4347 192.717 53.8011 192.646 54.2443C192.584 54.6136 192.426 54.9403 192.173 55.2244C191.923 55.5085 191.602 55.7315 191.21 55.8935C190.821 56.0554 190.386 56.1364 189.906 56.1364C189.261 56.1364 188.754 55.9915 188.385 55.7017C188.018 55.4119 187.822 54.9943 187.797 54.4489L188.559 54.2784C188.582 54.6648 188.714 54.9574 188.956 55.1562C189.2 55.3551 189.544 55.4545 189.987 55.4545C190.493 55.4545 190.917 55.3395 191.261 55.1094C191.605 54.8793 191.802 54.5952 191.854 54.2571C191.902 53.9901 191.852 53.7685 191.704 53.5923C191.559 53.4162 191.312 53.2855 190.963 53.2003L189.944 52.9446C189.396 52.8054 189.008 52.5881 188.781 52.2926C188.557 51.9943 188.481 51.6264 188.555 51.1889C188.615 50.8281 188.765 50.5114 189.007 50.2386C189.248 49.9659 189.554 49.7528 189.923 49.5994C190.292 49.4432 190.696 49.3651 191.133 49.3651C191.736 49.3651 192.194 49.5014 192.51 49.7741C192.825 50.044 193.024 50.4162 193.106 50.8906ZM196.638 56.1364C196.027 56.1364 195.523 55.9943 195.125 55.7102C194.727 55.4233 194.449 55.027 194.29 54.5213C194.131 54.0128 194.107 53.4276 194.218 52.7656C194.328 52.1065 194.547 51.5213 194.874 51.0099C195.2 50.4957 195.604 50.0937 196.084 49.804C196.564 49.5114 197.085 49.3651 197.648 49.3651C198.003 49.3651 198.335 49.4304 198.645 49.5611C198.955 49.6889 199.218 49.8864 199.433 50.1534C199.652 50.4176 199.804 50.7514 199.889 51.1548C199.975 51.5554 199.972 52.0298 199.881 52.5781L199.821 52.9531H194.708L194.814 52.2841H199.156C199.227 51.8636 199.208 51.4858 199.097 51.1506C198.986 50.8153 198.797 50.5497 198.53 50.3537C198.266 50.1548 197.938 50.0554 197.546 50.0554C197.145 50.0554 196.766 50.1676 196.408 50.392C196.053 50.6165 195.752 50.9091 195.504 51.2699C195.26 51.6278 195.102 52.0099 195.031 52.4162L194.946 52.919C194.855 53.473 194.867 53.9375 194.98 54.3125C195.094 54.6847 195.3 54.9659 195.598 55.1562C195.896 55.3466 196.279 55.4418 196.744 55.4418C197.057 55.4418 197.34 55.3935 197.593 55.2969C197.845 55.2003 198.066 55.071 198.253 54.9091C198.441 54.7443 198.591 54.5639 198.705 54.3679L199.382 54.6023C199.237 54.8778 199.033 55.1321 198.769 55.3651C198.507 55.598 198.196 55.7855 197.835 55.9276C197.477 56.0668 197.078 56.1364 196.638 56.1364ZM206.7 56.1364C206.163 56.1364 205.716 55.9943 205.358 55.7102C205 55.4261 204.75 55.0298 204.608 54.5213C204.466 54.0128 204.45 53.4205 204.561 52.7443C204.675 52.071 204.886 51.4815 205.196 50.9759C205.508 50.4673 205.89 50.0724 206.342 49.7912C206.797 49.5071 207.292 49.3651 207.829 49.3651C208.23 49.3651 208.55 49.4361 208.788 49.5781C209.03 49.7173 209.213 49.8906 209.338 50.098C209.463 50.3054 209.552 50.5071 209.606 50.7031H209.675L210.246 47.2727H211.008L209.559 56H208.822L209.027 54.7855H208.933C208.811 54.9844 208.65 55.1889 208.452 55.3991C208.256 55.6065 208.014 55.7812 207.727 55.9233C207.44 56.0653 207.098 56.1364 206.7 56.1364ZM206.866 55.4418C207.29 55.4418 207.672 55.3267 208.013 55.0966C208.356 54.8636 208.643 54.544 208.873 54.1378C209.106 53.7287 209.265 53.2599 209.351 52.7315C209.439 52.2088 209.437 51.7472 209.346 51.3466C209.256 50.9432 209.079 50.6278 208.818 50.4006C208.557 50.1705 208.211 50.0554 207.782 50.0554C207.348 50.0554 206.961 50.1747 206.623 50.4134C206.285 50.6491 206.006 50.9687 205.784 51.3722C205.565 51.7756 205.413 52.2287 205.328 52.7315C205.246 53.2401 205.246 53.6989 205.328 54.108C205.41 54.517 205.578 54.8423 205.831 55.0838C206.086 55.3224 206.432 55.4418 206.866 55.4418ZM214.345 56.1364C213.734 56.1364 213.23 55.9943 212.832 55.7102C212.434 55.4233 212.156 55.027 211.997 54.5213C211.838 54.0128 211.814 53.4276 211.925 52.7656C212.035 52.1065 212.254 51.5213 212.581 51.0099C212.907 50.4957 213.311 50.0937 213.791 49.804C214.271 49.5114 214.792 49.3651 215.355 49.3651C215.71 49.3651 216.042 49.4304 216.352 49.5611C216.662 49.6889 216.925 49.8864 217.14 50.1534C217.359 50.4176 217.511 50.7514 217.596 51.1548C217.682 51.5554 217.679 52.0298 217.588 52.5781L217.528 52.9531H212.415L212.521 52.2841H216.863C216.934 51.8636 216.915 51.4858 216.804 51.1506C216.693 50.8153 216.504 50.5497 216.237 50.3537C215.973 50.1548 215.645 50.0554 215.253 50.0554C214.852 50.0554 214.473 50.1676 214.115 50.392C213.76 50.6165 213.459 50.9091 213.211 51.2699C212.967 51.6278 212.809 52.0099 212.738 52.4162L212.653 52.919C212.562 53.473 212.574 53.9375 212.687 54.3125C212.801 54.6847 213.007 54.9659 213.305 55.1562C213.604 55.3466 213.986 55.4418 214.452 55.4418C214.764 55.4418 215.047 55.3935 215.3 55.2969C215.552 55.2003 215.773 55.071 215.96 54.9091C216.148 54.7443 216.298 54.5639 216.412 54.3679L217.089 54.6023C216.944 54.8778 216.74 55.1321 216.476 55.3651C216.214 55.598 215.903 55.7855 215.542 55.9276C215.184 56.0668 214.785 56.1364 214.345 56.1364ZM224.799 56H222.221L223.67 47.2727H226.359C227.188 47.2727 227.873 47.4489 228.413 47.8011C228.953 48.1534 229.328 48.6577 229.538 49.3139C229.748 49.9673 229.776 50.7486 229.623 51.6577C229.472 52.5668 229.184 53.3452 228.758 53.9929C228.332 54.6406 227.784 55.1378 227.113 55.4844C226.445 55.8281 225.674 56 224.799 56ZM223.137 55.2841H224.842C225.586 55.2841 226.237 55.1335 226.794 54.8324C227.35 54.5312 227.803 54.1037 228.153 53.5497C228.502 52.9929 228.74 52.3324 228.865 51.5682C228.99 50.8182 228.975 50.1761 228.822 49.642C228.671 49.108 228.38 48.6989 227.948 48.4148C227.519 48.1307 226.95 47.9886 226.24 47.9886H224.343L223.137 55.2841ZM232.488 56.1491C232.093 56.1491 231.745 56.0724 231.444 55.919C231.143 55.7628 230.918 55.5384 230.77 55.2457C230.626 54.9503 230.586 54.5923 230.651 54.1719C230.708 53.848 230.816 53.5753 230.975 53.3537C231.137 53.1321 231.341 52.9503 231.589 52.8082C231.836 52.6634 232.12 52.5497 232.441 52.4673C232.762 52.3849 233.111 52.3224 233.489 52.2798C233.858 52.2344 234.174 52.1946 234.435 52.1605C234.697 52.1264 234.9 52.0724 235.045 51.9986C235.189 51.9247 235.276 51.8054 235.305 51.6406L235.33 51.4872C235.404 51.0412 235.336 50.6903 235.126 50.4347C234.915 50.1761 234.563 50.0469 234.069 50.0469C233.597 50.0469 233.188 50.152 232.841 50.3622C232.498 50.5696 232.242 50.8125 232.074 51.0909L231.401 50.831C231.606 50.473 231.857 50.1875 232.155 49.9744C232.454 49.7585 232.773 49.6037 233.114 49.5099C233.455 49.4134 233.792 49.3651 234.124 49.3651C234.374 49.3651 234.628 49.3977 234.887 49.4631C235.145 49.5284 235.377 49.642 235.581 49.804C235.789 49.9631 235.941 50.1861 236.037 50.473C236.137 50.7571 236.151 51.1179 236.08 51.5554L235.339 56H234.58L234.755 54.9645H234.708C234.589 55.1577 234.424 55.3452 234.214 55.527C234.006 55.7088 233.758 55.858 233.468 55.9744C233.178 56.0909 232.851 56.1491 232.488 56.1491ZM232.68 55.4545C233.083 55.4545 233.448 55.3651 233.775 55.1861C234.104 55.0071 234.374 54.7699 234.584 54.4744C234.797 54.1761 234.934 53.848 234.993 53.4901L235.151 52.544C235.089 52.598 234.986 52.6463 234.844 52.6889C234.705 52.7315 234.547 52.7699 234.371 52.804C234.198 52.8352 234.023 52.8622 233.847 52.8849C233.674 52.9077 233.52 52.9276 233.387 52.9446C233.009 52.9901 232.68 53.0611 232.398 53.1577C232.12 53.2543 231.897 53.3878 231.729 53.5582C231.562 53.7259 231.456 53.9418 231.414 54.206C231.349 54.6037 231.435 54.9119 231.674 55.1307C231.915 55.3466 232.251 55.4545 232.68 55.4545ZM239.7 56.1364C239.163 56.1364 238.716 55.9943 238.358 55.7102C238 55.4261 237.75 55.0298 237.608 54.5213C237.466 54.0128 237.45 53.4205 237.561 52.7443C237.675 52.071 237.886 51.4815 238.196 50.9759C238.508 50.4673 238.89 50.0724 239.342 49.7912C239.797 49.5071 240.292 49.3651 240.829 49.3651C241.23 49.3651 241.55 49.4361 241.788 49.5781C242.03 49.7173 242.213 49.8906 242.338 50.098C242.463 50.3054 242.552 50.5071 242.606 50.7031H242.675L243.246 47.2727H244.008L242.559 56H241.822L242.027 54.7855H241.933C241.811 54.9844 241.65 55.1889 241.452 55.3991C241.256 55.6065 241.014 55.7812 240.727 55.9233C240.44 56.0653 240.098 56.1364 239.7 56.1364ZM239.866 55.4418C240.29 55.4418 240.672 55.3267 241.013 55.0966C241.356 54.8636 241.643 54.544 241.873 54.1378C242.106 53.7287 242.265 53.2599 242.351 52.7315C242.439 52.2088 242.437 51.7472 242.346 51.3466C242.256 50.9432 242.079 50.6278 241.818 50.4006C241.557 50.1705 241.211 50.0554 240.782 50.0554C240.348 50.0554 239.961 50.1747 239.623 50.4134C239.285 50.6491 239.006 50.9687 238.784 51.3722C238.565 51.7756 238.413 52.2287 238.328 52.7315C238.246 53.2401 238.246 53.6989 238.328 54.108C238.41 54.517 238.578 54.8423 238.831 55.0838C239.086 55.3224 239.432 55.4418 239.866 55.4418ZM247.29 56.1364C246.716 56.1364 246.233 55.9915 245.841 55.7017C245.449 55.4091 245.172 55.0043 245.01 54.4872C244.848 53.9702 244.821 53.3736 244.929 52.6974C245.037 52.0384 245.251 51.4588 245.572 50.9588C245.896 50.456 246.294 50.0653 246.765 49.7869C247.237 49.5057 247.75 49.3651 248.304 49.3651C248.881 49.3651 249.363 49.5114 249.753 49.804C250.145 50.0966 250.422 50.5014 250.584 51.0185C250.748 51.5355 250.777 52.1335 250.669 52.8125C250.561 53.4688 250.345 54.0469 250.021 54.5469C249.697 55.044 249.3 55.4332 248.828 55.7145C248.359 55.9957 247.846 56.1364 247.29 56.1364ZM247.298 55.4418C247.764 55.4418 248.179 55.3182 248.542 55.071C248.909 54.821 249.211 54.4886 249.45 54.0739C249.689 53.6562 249.849 53.1974 249.932 52.6974C250.008 52.2202 250 51.7812 249.906 51.3807C249.812 50.9801 249.632 50.6591 249.365 50.4176C249.098 50.1761 248.743 50.0554 248.3 50.0554C247.836 50.0554 247.422 50.1818 247.055 50.4347C246.689 50.6847 246.386 51.0199 246.148 51.4403C245.909 51.858 245.75 52.3153 245.67 52.8125C245.591 53.2926 245.596 53.7315 245.687 54.1293C245.781 54.527 245.961 54.8452 246.229 55.0838C246.498 55.3224 246.855 55.4418 247.298 55.4418ZM257.056 50.8906L256.327 51.0781C256.29 50.8821 256.222 50.706 256.122 50.5497C256.026 50.3906 255.885 50.2656 255.7 50.1747C255.519 50.081 255.28 50.0341 254.985 50.0341C254.541 50.0341 254.159 50.142 253.838 50.358C253.517 50.571 253.33 50.8437 253.276 51.1761C253.23 51.4545 253.289 51.6804 253.45 51.8537C253.615 52.027 253.891 52.1634 254.277 52.2628L255.232 52.5057C255.76 52.642 256.137 52.8551 256.361 53.1449C256.588 53.4347 256.666 53.8011 256.595 54.2443C256.533 54.6136 256.375 54.9403 256.122 55.2244C255.872 55.5085 255.551 55.7315 255.159 55.8935C254.77 56.0554 254.335 56.1364 253.855 56.1364C253.21 56.1364 252.703 55.9915 252.334 55.7017C251.968 55.4119 251.771 54.9943 251.746 54.4489L252.509 54.2784C252.531 54.6648 252.664 54.9574 252.905 55.1562C253.149 55.3551 253.493 55.4545 253.936 55.4545C254.442 55.4545 254.867 55.3395 255.21 55.1094C255.554 54.8793 255.752 54.5952 255.803 54.2571C255.851 53.9901 255.801 53.7685 255.654 53.5923C255.509 53.4162 255.262 53.2855 254.912 53.2003L253.894 52.9446C253.345 52.8054 252.958 52.5881 252.73 52.2926C252.506 51.9943 252.431 51.6264 252.504 51.1889C252.564 50.8281 252.715 50.5114 252.956 50.2386C253.198 49.9659 253.503 49.7528 253.872 49.5994C254.242 49.4432 254.645 49.3651 255.083 49.3651C255.685 49.3651 256.144 49.5014 256.459 49.7741C256.774 50.044 256.973 50.4162 257.056 50.8906ZM263.873 56.1364C263.282 56.1364 262.795 55.9901 262.411 55.6974C262.028 55.4048 261.759 55.0043 261.606 54.4957C261.455 53.9844 261.434 53.4048 261.542 52.7571C261.65 52.098 261.867 51.5142 262.194 51.0057C262.52 50.4943 262.924 50.0937 263.404 49.804C263.887 49.5114 264.414 49.3651 264.985 49.3651C265.425 49.3651 265.809 49.4503 266.135 49.6207C266.462 49.7884 266.715 50.0256 266.894 50.3324C267.073 50.6364 267.158 50.9915 267.15 51.3977H266.383C266.363 51.0199 266.225 50.7017 265.969 50.4432C265.716 50.1847 265.358 50.0554 264.895 50.0554C264.472 50.0554 264.08 50.169 263.719 50.3963C263.358 50.6207 263.053 50.9347 262.803 51.3381C262.556 51.7386 262.39 52.2031 262.305 52.7315C262.214 53.2628 262.222 53.733 262.33 54.142C262.438 54.5483 262.631 54.8665 262.91 55.0966C263.191 55.3267 263.546 55.4418 263.975 55.4418C264.268 55.4418 264.543 55.3878 264.802 55.2798C265.06 55.169 265.289 55.0128 265.488 54.8111C265.687 54.6065 265.839 54.3665 265.944 54.0909H266.711C266.583 54.4886 266.381 54.8409 266.106 55.1477C265.833 55.4545 265.506 55.696 265.126 55.8722C264.745 56.0483 264.327 56.1364 263.873 56.1364ZM270.586 56.1364C270.013 56.1364 269.53 55.9915 269.138 55.7017C268.746 55.4091 268.469 55.0043 268.307 54.4872C268.145 53.9702 268.118 53.3736 268.226 52.6974C268.334 52.0384 268.548 51.4588 268.869 50.9588C269.193 50.456 269.591 50.0653 270.062 49.7869C270.534 49.5057 271.047 49.3651 271.601 49.3651C272.177 49.3651 272.66 49.5114 273.05 49.804C273.442 50.0966 273.719 50.5014 273.881 51.0185C274.045 51.5355 274.074 52.1335 273.966 52.8125C273.858 53.4688 273.642 54.0469 273.318 54.5469C272.994 55.044 272.596 55.4332 272.125 55.7145C271.656 55.9957 271.143 56.1364 270.586 56.1364ZM270.595 55.4418C271.061 55.4418 271.476 55.3182 271.839 55.071C272.206 54.821 272.508 54.4886 272.747 54.0739C272.986 53.6562 273.146 53.1974 273.229 52.6974C273.305 52.2202 273.297 51.7812 273.203 51.3807C273.109 50.9801 272.929 50.6591 272.662 50.4176C272.395 50.1761 272.04 50.0554 271.596 50.0554C271.133 50.0554 270.719 50.1818 270.352 50.4347C269.986 50.6847 269.683 51.0199 269.444 51.4403C269.206 51.858 269.047 52.3153 268.967 52.8125C268.888 53.2926 268.893 53.7315 268.984 54.1293C269.078 54.527 269.258 54.8452 269.525 55.0838C269.795 55.3224 270.152 55.4418 270.595 55.4418ZM275.102 56L276.193 49.4545H276.931L276.76 50.4602H276.828C277.019 50.1222 277.283 49.8565 277.621 49.6634C277.959 49.4673 278.343 49.3693 278.771 49.3693C279.22 49.3693 279.573 49.4759 279.828 49.6889C280.084 49.8991 280.254 50.1889 280.34 50.5582H280.395C280.6 50.1946 280.888 49.9062 281.26 49.6932C281.632 49.4773 282.057 49.3693 282.534 49.3693C283.139 49.3693 283.587 49.5611 283.877 49.9446C284.166 50.3281 284.25 50.8849 284.128 51.6151L283.395 56H282.637L283.369 51.6151C283.452 51.098 283.385 50.7102 283.169 50.4517C282.953 50.1932 282.629 50.0639 282.198 50.0639C281.698 50.0639 281.284 50.2173 280.958 50.5241C280.634 50.8281 280.433 51.2173 280.357 51.6918L279.637 56H278.861L279.607 51.5469C279.678 51.1037 279.614 50.7457 279.415 50.473C279.219 50.2003 278.896 50.0639 278.448 50.0639C278.144 50.0639 277.858 50.1392 277.591 50.2898C277.327 50.4375 277.102 50.6435 276.918 50.9077C276.736 51.169 276.617 51.4687 276.56 51.8068L275.861 56H275.102ZM288.936 56L290.385 47.2727H293.202C293.821 47.2727 294.319 47.3906 294.697 47.6264C295.075 47.8622 295.335 48.1832 295.477 48.5895C295.622 48.9957 295.652 49.4545 295.567 49.9659C295.484 50.4716 295.302 50.929 295.021 51.3381C294.743 51.7443 294.375 52.0668 293.917 52.3054C293.463 52.544 292.929 52.6634 292.315 52.6634H290.099L290.219 51.9474H292.413C292.871 51.9474 293.264 51.8622 293.594 51.6918C293.926 51.5185 294.192 51.2827 294.39 50.9844C294.589 50.6832 294.72 50.3437 294.782 49.9659C294.845 49.5824 294.825 49.2415 294.723 48.9432C294.623 48.6449 294.436 48.4119 294.16 48.2443C293.888 48.0739 293.521 47.9886 293.061 47.9886H291.062L289.733 56H288.936ZM298.782 56.1364C298.208 56.1364 297.725 55.9915 297.333 55.7017C296.941 55.4091 296.664 55.0043 296.502 54.4872C296.34 53.9702 296.313 53.3736 296.421 52.6974C296.529 52.0384 296.743 51.4588 297.064 50.9588C297.388 50.456 297.786 50.0653 298.258 49.7869C298.729 49.5057 299.242 49.3651 299.796 49.3651C300.373 49.3651 300.856 49.5114 301.245 49.804C301.637 50.0966 301.914 50.5014 302.076 51.0185C302.241 51.5355 302.269 52.1335 302.161 52.8125C302.053 53.4688 301.837 54.0469 301.513 54.5469C301.189 55.044 300.792 55.4332 300.32 55.7145C299.851 55.9957 299.339 56.1364 298.782 56.1364ZM298.79 55.4418C299.256 55.4418 299.671 55.3182 300.035 55.071C300.401 54.821 300.704 54.4886 300.942 54.0739C301.181 53.6562 301.341 53.1974 301.424 52.6974C301.501 52.2202 301.492 51.7812 301.398 51.3807C301.305 50.9801 301.124 50.6591 300.857 50.4176C300.59 50.1761 300.235 50.0554 299.792 50.0554C299.329 50.0554 298.914 50.1818 298.547 50.4347C298.181 50.6847 297.878 51.0199 297.64 51.4403C297.401 51.858 297.242 52.3153 297.162 52.8125C297.083 53.2926 297.089 53.7315 297.18 54.1293C297.273 54.527 297.454 54.8452 297.721 55.0838C297.991 55.3224 298.347 55.4418 298.79 55.4418ZM304.528 56L303.642 49.4545H304.439L305.091 54.8537H305.146L307.592 49.4545H308.398L309.032 54.8409H309.092L311.538 49.4545H312.348L309.28 56H308.496L307.831 50.6435H307.75L305.312 56H304.528ZM315.138 56.1364C314.527 56.1364 314.023 55.9943 313.625 55.7102C313.227 55.4233 312.949 55.027 312.79 54.5213C312.631 54.0128 312.607 53.4276 312.718 52.7656C312.828 52.1065 313.047 51.5213 313.374 51.0099C313.7 50.4957 314.104 50.0937 314.584 49.804C315.064 49.5114 315.585 49.3651 316.148 49.3651C316.503 49.3651 316.835 49.4304 317.145 49.5611C317.455 49.6889 317.718 49.8864 317.933 50.1534C318.152 50.4176 318.304 50.7514 318.389 51.1548C318.475 51.5554 318.472 52.0298 318.381 52.5781L318.321 52.9531H313.208L313.314 52.2841H317.656C317.727 51.8636 317.708 51.4858 317.597 51.1506C317.486 50.8153 317.297 50.5497 317.03 50.3537C316.766 50.1548 316.438 50.0554 316.046 50.0554C315.645 50.0554 315.266 50.1676 314.908 50.392C314.553 50.6165 314.252 50.9091 314.004 51.2699C313.76 51.6278 313.602 52.0099 313.531 52.4162L313.446 52.919C313.355 53.473 313.367 53.9375 313.48 54.3125C313.594 54.6847 313.8 54.9659 314.098 55.1562C314.396 55.3466 314.779 55.4418 315.244 55.4418C315.557 55.4418 315.84 55.3935 316.093 55.2969C316.345 55.2003 316.566 55.071 316.753 54.9091C316.941 54.7443 317.091 54.5639 317.205 54.3679L317.882 54.6023C317.737 54.8778 317.533 55.1321 317.269 55.3651C317.007 55.598 316.696 55.7855 316.335 55.9276C315.977 56.0668 315.578 56.1364 315.138 56.1364ZM319.481 56L320.572 49.4545H321.309L321.139 50.4602H321.194C321.376 50.1307 321.648 49.8651 322.008 49.6634C322.372 49.4588 322.76 49.3565 323.172 49.3565C323.234 49.3565 323.304 49.358 323.381 49.3608C323.457 49.3608 323.521 49.3636 323.572 49.3693L323.44 50.1406C323.406 50.1349 323.346 50.1264 323.261 50.1151C323.179 50.1037 323.086 50.098 322.984 50.098C322.643 50.098 322.328 50.1705 322.038 50.3153C321.751 50.4574 321.51 50.6548 321.314 50.9077C321.121 51.1605 320.996 51.4489 320.939 51.7727L320.24 56H319.481ZM169.17 71L170.619 62.2727H173.564C174.132 62.2727 174.589 62.3722 174.936 62.571C175.282 62.7699 175.521 63.0412 175.652 63.3849C175.785 63.7287 175.814 64.1193 175.737 64.5568C175.677 64.9205 175.565 65.2315 175.4 65.4901C175.236 65.7457 175.035 65.9545 174.8 66.1165C174.567 66.2756 174.315 66.3906 174.045 66.4616L174.032 66.5298C174.311 66.5497 174.568 66.6491 174.804 66.8281C175.04 67.0043 175.216 67.2514 175.332 67.5696C175.452 67.8878 175.476 68.2685 175.405 68.7116C175.331 69.152 175.166 69.5455 174.91 69.892C174.657 70.2358 174.311 70.5071 173.871 70.706C173.433 70.902 172.902 71 172.277 71H169.17ZM170.086 70.2841H172.396C173.069 70.2841 173.592 70.1349 173.964 69.8366C174.336 69.5384 174.562 69.1634 174.642 68.7116C174.696 68.3793 174.665 68.0781 174.548 67.8082C174.432 67.5355 174.241 67.3196 173.977 67.1605C173.713 67.0014 173.385 66.9219 172.993 66.9219H170.649L170.086 70.2841ZM170.768 66.2145H172.988C173.332 66.2145 173.645 66.1435 173.926 66.0014C174.207 65.8594 174.44 65.6634 174.625 65.4134C174.809 65.1634 174.927 64.8778 174.979 64.5568C175.058 64.0937 174.971 63.7173 174.719 63.4276C174.469 63.1349 174.044 62.9886 173.444 62.9886H171.297L170.768 66.2145ZM179.186 62.2727L177.737 71H176.94L178.389 62.2727H179.186Z" fill="#F5F5F5"></path><path d="M77.5231 30H75.695L79.0235 20.5455H81.1378L84.4709 30H82.6428L80.1176 22.4844H80.0437L77.5231 30ZM77.5831 26.293H82.5689V27.6687H77.5831V26.293ZM87.3135 25.8452V30H85.6424V22.9091H87.2397V24.114H87.3228C87.4859 23.717 87.7459 23.4015 88.1029 23.1676C88.463 22.9337 88.9077 22.8168 89.4371 22.8168C89.9264 22.8168 90.3527 22.9214 90.7159 23.1307C91.0821 23.34 91.3652 23.6431 91.5653 24.0401C91.7684 24.4371 91.8684 24.9188 91.8654 25.4851V30H90.1942V25.7436C90.1942 25.2696 90.0711 24.8988 89.8249 24.631C89.5818 24.3633 89.2447 24.2294 88.8139 24.2294C88.5215 24.2294 88.2614 24.294 88.0337 24.4233C87.809 24.5495 87.6321 24.7326 87.5028 24.9727C87.3766 25.2127 87.3135 25.5036 87.3135 25.8452ZM95.6047 30.1431C95.1554 30.1431 94.7507 30.0631 94.3906 29.9031C94.0336 29.7399 93.7504 29.4999 93.5411 29.1829C93.3349 28.8659 93.2318 28.475 93.2318 28.0103C93.2318 27.6102 93.3057 27.2794 93.4534 27.0178C93.6012 26.7562 93.8027 26.5469 94.0582 26.3899C94.3136 26.233 94.6014 26.1145 94.9215 26.0344C95.2446 25.9513 95.5786 25.8913 95.9233 25.8544C96.3387 25.8113 96.6757 25.7728 96.9343 25.739C97.1928 25.7021 97.3805 25.6467 97.4975 25.5728C97.6175 25.4959 97.6775 25.3774 97.6775 25.2173V25.1896C97.6775 24.8419 97.5744 24.5726 97.3682 24.3817C97.162 24.1909 96.865 24.0955 96.4772 24.0955C96.0679 24.0955 95.7432 24.1848 95.5032 24.3633C95.2662 24.5418 95.1061 24.7526 95.023 24.9957L93.4627 24.7741C93.5858 24.3433 93.7889 23.9832 94.072 23.6939C94.3552 23.4015 94.7014 23.183 95.1108 23.0384C95.5201 22.8906 95.9725 22.8168 96.468 22.8168C96.8096 22.8168 97.1497 22.8568 97.4882 22.9368C97.8268 23.0168 98.1361 23.1491 98.4161 23.3338C98.6962 23.5154 98.9209 23.7631 99.0902 24.0771C99.2625 24.391 99.3487 24.7834 99.3487 25.2543V30H97.7421V29.0259H97.6867C97.5852 29.2229 97.4421 29.4076 97.2574 29.5799C97.0758 29.7492 96.8465 29.8861 96.5696 29.9908C96.2956 30.0923 95.974 30.1431 95.6047 30.1431ZM96.0387 28.9151C96.3741 28.9151 96.665 28.849 96.9112 28.7166C97.1574 28.5812 97.3467 28.4027 97.479 28.1811C97.6144 27.9595 97.6821 27.7179 97.6821 27.4563V26.6207C97.6298 26.6638 97.5406 26.7038 97.4144 26.7408C97.2913 26.7777 97.1528 26.81 96.9989 26.8377C96.845 26.8654 96.6927 26.89 96.5419 26.9116C96.3911 26.9331 96.2603 26.9516 96.1495 26.967C95.9002 27.0008 95.677 27.0562 95.4801 27.1332C95.2831 27.2101 95.1277 27.3178 95.0138 27.4563C94.8999 27.5917 94.843 27.7672 94.843 27.9826C94.843 28.2904 94.9553 28.5227 95.18 28.6797C95.4047 28.8366 95.6909 28.9151 96.0387 28.9151ZM95.9002 21.9766L96.9343 19.8668H98.5685L97.1512 21.9766H95.9002ZM102.7 20.5455V30H101.029V20.5455H102.7ZM104.419 30V22.9091H106.09V30H104.419ZM105.259 21.9027C104.994 21.9027 104.766 21.815 104.576 21.6396C104.385 21.4611 104.289 21.2472 104.289 20.9979C104.289 20.7455 104.385 20.5316 104.576 20.3562C104.766 20.1777 104.994 20.0884 105.259 20.0884C105.527 20.0884 105.754 20.1777 105.942 20.3562C106.133 20.5316 106.228 20.7455 106.228 20.9979C106.228 21.2472 106.133 21.4611 105.942 21.6396C105.754 21.815 105.527 21.9027 105.259 21.9027ZM113.413 24.7834L111.889 24.9496C111.846 24.7957 111.771 24.651 111.663 24.5156C111.558 24.3802 111.417 24.271 111.238 24.1879C111.06 24.1048 110.841 24.0632 110.583 24.0632C110.235 24.0632 109.943 24.1386 109.706 24.2894C109.472 24.4402 109.356 24.6357 109.36 24.8757C109.356 25.0819 109.432 25.2496 109.586 25.3789C109.743 25.5082 110.001 25.6143 110.361 25.6974L111.571 25.956C112.242 26.1006 112.74 26.3299 113.067 26.6438C113.396 26.9577 113.562 27.3686 113.565 27.8764C113.562 28.3227 113.431 28.7166 113.173 29.0582C112.917 29.3968 112.562 29.6615 112.106 29.8523C111.651 30.0431 111.128 30.1385 110.537 30.1385C109.669 30.1385 108.97 29.9569 108.441 29.5938C107.911 29.2275 107.596 28.7182 107.494 28.0657L109.124 27.9087C109.198 28.2288 109.355 28.4704 109.595 28.6335C109.835 28.7966 110.147 28.8782 110.532 28.8782C110.929 28.8782 111.248 28.7966 111.488 28.6335C111.731 28.4704 111.852 28.2688 111.852 28.0288C111.852 27.8256 111.774 27.6579 111.617 27.5256C111.463 27.3932 111.223 27.2917 110.897 27.2209L109.687 26.967C109.007 26.8254 108.504 26.5869 108.178 26.2514C107.851 25.9129 107.69 25.4851 107.693 24.968C107.69 24.531 107.808 24.1525 108.048 23.8324C108.292 23.5092 108.629 23.2599 109.059 23.0845C109.493 22.906 109.994 22.8168 110.56 22.8168C111.391 22.8168 112.045 22.9937 112.522 23.3477C113.002 23.7016 113.299 24.1802 113.413 24.7834ZM118.082 30.1385C117.371 30.1385 116.757 29.9908 116.24 29.6953C115.726 29.3968 115.331 28.9751 115.054 28.4304C114.777 27.8826 114.638 27.2378 114.638 26.4961C114.638 25.7667 114.777 25.1265 115.054 24.5756C115.334 24.0217 115.725 23.5908 116.227 23.283C116.728 22.9722 117.318 22.8168 117.995 22.8168C118.432 22.8168 118.844 22.8875 119.232 23.0291C119.623 23.1676 119.967 23.383 120.266 23.6754C120.568 23.9678 120.805 24.3402 120.977 24.7926C121.149 25.242 121.235 25.7775 121.235 26.3991V26.9116H115.423V25.7852H119.633C119.63 25.4651 119.561 25.1804 119.426 24.9311C119.29 24.6787 119.101 24.4802 118.858 24.3356C118.618 24.1909 118.338 24.1186 118.018 24.1186C117.676 24.1186 117.376 24.2017 117.117 24.3679C116.859 24.531 116.657 24.7464 116.513 25.0142C116.371 25.2789 116.299 25.5697 116.296 25.8867V26.87C116.296 27.2824 116.371 27.6364 116.522 27.9318C116.673 28.2242 116.884 28.4489 117.154 28.6058C117.425 28.7597 117.742 28.8366 118.105 28.8366C118.349 28.8366 118.569 28.8028 118.766 28.7351C118.963 28.6643 119.133 28.5612 119.278 28.4258C119.423 28.2904 119.532 28.1226 119.606 27.9226L121.166 28.098C121.068 28.5104 120.88 28.8705 120.603 29.1783C120.329 29.483 119.978 29.7199 119.55 29.8892C119.123 30.0554 118.633 30.1385 118.082 30.1385ZM128.505 30.1246C127.948 30.1246 127.45 29.9815 127.009 29.6953C126.569 29.4091 126.222 28.9936 125.966 28.4489C125.711 27.9041 125.583 27.2424 125.583 26.4638C125.583 25.6759 125.712 25.0111 125.971 24.4695C126.232 23.9247 126.585 23.5138 127.028 23.2369C127.471 22.9568 127.965 22.8168 128.51 22.8168C128.925 22.8168 129.267 22.8875 129.535 23.0291C129.802 23.1676 130.015 23.3353 130.172 23.5323C130.329 23.7262 130.45 23.9093 130.536 24.0817H130.606V20.5455H132.281V30H130.638V28.8828H130.536C130.45 29.0552 130.326 29.2383 130.163 29.4322C129.999 29.623 129.784 29.7861 129.516 29.9215C129.248 30.0569 128.911 30.1246 128.505 30.1246ZM128.971 28.7536C129.325 28.7536 129.627 28.6581 129.876 28.4673C130.126 28.2734 130.315 28.0041 130.444 27.6594C130.573 27.3147 130.638 26.9131 130.638 26.4545C130.638 25.996 130.573 25.5974 130.444 25.2589C130.318 24.9203 130.13 24.6572 129.881 24.4695C129.635 24.2817 129.332 24.1879 128.971 24.1879C128.599 24.1879 128.288 24.2848 128.039 24.4787C127.79 24.6726 127.602 24.9403 127.476 25.282C127.35 25.6236 127.286 26.0144 127.286 26.4545C127.286 26.8977 127.35 27.2932 127.476 27.641C127.605 27.9857 127.794 28.258 128.044 28.4581C128.296 28.6551 128.605 28.7536 128.971 28.7536ZM137.201 30.1385C136.491 30.1385 135.877 29.9908 135.36 29.6953C134.846 29.3968 134.45 28.9751 134.173 28.4304C133.896 27.8826 133.758 27.2378 133.758 26.4961C133.758 25.7667 133.896 25.1265 134.173 24.5756C134.453 24.0217 134.844 23.5908 135.346 23.283C135.847 22.9722 136.437 22.8168 137.114 22.8168C137.551 22.8168 137.963 22.8875 138.351 23.0291C138.742 23.1676 139.087 23.383 139.385 23.6754C139.687 23.9678 139.924 24.3402 140.096 24.7926C140.268 25.242 140.355 25.7775 140.355 26.3991V26.9116H134.542V25.7852H138.753C138.75 25.4651 138.68 25.1804 138.545 24.9311C138.409 24.6787 138.22 24.4802 137.977 24.3356C137.737 24.1909 137.457 24.1186 137.137 24.1186C136.795 24.1186 136.495 24.2017 136.237 24.3679C135.978 24.531 135.777 24.7464 135.632 25.0142C135.49 25.2789 135.418 25.5697 135.415 25.8867V26.87C135.415 27.2824 135.49 27.6364 135.641 27.9318C135.792 28.2242 136.003 28.4489 136.274 28.6058C136.544 28.7597 136.861 28.8366 137.225 28.8366C137.468 28.8366 137.688 28.8028 137.885 28.7351C138.082 28.6643 138.253 28.5612 138.397 28.4258C138.542 28.2904 138.651 28.1226 138.725 27.9226L140.285 28.098C140.187 28.5104 139.999 28.8705 139.722 29.1783C139.448 29.483 139.097 29.7199 138.67 29.8892C138.242 30.0554 137.752 30.1385 137.201 30.1385ZM148.271 30H145.067V20.5455H148.335C149.274 20.5455 150.08 20.7347 150.754 21.1133C151.431 21.4888 151.952 22.0289 152.315 22.7337C152.678 23.4384 152.859 24.2817 152.859 25.2635C152.859 26.2483 152.676 27.0947 152.31 27.8026C151.947 28.5104 151.422 29.0536 150.736 29.4322C150.053 29.8107 149.231 30 148.271 30ZM146.78 28.5181H148.188C148.846 28.5181 149.396 28.3981 149.836 28.158C150.276 27.9149 150.607 27.5533 150.828 27.0732C151.05 26.59 151.161 25.9867 151.161 25.2635C151.161 24.5402 151.05 23.9401 150.828 23.4631C150.607 22.983 150.279 22.6244 149.845 22.3874C149.414 22.1474 148.878 22.0273 148.238 22.0273H146.78V28.5181ZM156.453 30.1431C156.004 30.1431 155.599 30.0631 155.239 29.9031C154.882 29.7399 154.599 29.4999 154.39 29.1829C154.184 28.8659 154.08 28.475 154.08 28.0103C154.08 27.6102 154.154 27.2794 154.302 27.0178C154.45 26.7562 154.651 26.5469 154.907 26.3899C155.162 26.233 155.45 26.1145 155.77 26.0344C156.093 25.9513 156.427 25.8913 156.772 25.8544C157.187 25.8113 157.524 25.7728 157.783 25.739C158.041 25.7021 158.229 25.6467 158.346 25.5728C158.466 25.4959 158.526 25.3774 158.526 25.2173V25.1896C158.526 24.8419 158.423 24.5726 158.217 24.3817C158.011 24.1909 157.714 24.0955 157.326 24.0955C156.917 24.0955 156.592 24.1848 156.352 24.3633C156.115 24.5418 155.955 24.7526 155.872 24.9957L154.311 24.7741C154.434 24.3433 154.638 23.9832 154.921 23.6939C155.204 23.4015 155.55 23.183 155.959 23.0384C156.369 22.8906 156.821 22.8168 157.317 22.8168C157.658 22.8168 157.998 22.8568 158.337 22.9368C158.675 23.0168 158.985 23.1491 159.265 23.3338C159.545 23.5154 159.77 23.7631 159.939 24.0771C160.111 24.391 160.197 24.7834 160.197 25.2543V30H158.591V29.0259H158.535C158.434 29.2229 158.291 29.4076 158.106 29.5799C157.924 29.7492 157.695 29.8861 157.418 29.9908C157.144 30.0923 156.823 30.1431 156.453 30.1431ZM156.887 28.9151C157.223 28.9151 157.514 28.849 157.76 28.7166C158.006 28.5812 158.195 28.4027 158.328 28.1811C158.463 27.9595 158.531 27.7179 158.531 27.4563V26.6207C158.478 26.6638 158.389 26.7038 158.263 26.7408C158.14 26.7777 158.001 26.81 157.848 26.8377C157.694 26.8654 157.541 26.89 157.39 26.9116C157.24 26.9331 157.109 26.9516 156.998 26.967C156.749 27.0008 156.526 27.0562 156.329 27.1332C156.132 27.2101 155.976 27.3178 155.862 27.4563C155.749 27.5917 155.692 27.7672 155.692 27.9826C155.692 28.2904 155.804 28.5227 156.029 28.6797C156.253 28.8366 156.54 28.9151 156.887 28.9151ZM164.509 30.1246C163.952 30.1246 163.453 29.9815 163.013 29.6953C162.573 29.4091 162.225 28.9936 161.97 28.4489C161.715 27.9041 161.587 27.2424 161.587 26.4638C161.587 25.6759 161.716 25.0111 161.975 24.4695C162.236 23.9247 162.589 23.5138 163.032 23.2369C163.475 22.9568 163.969 22.8168 164.514 22.8168C164.929 22.8168 165.271 22.8875 165.539 23.0291C165.806 23.1676 166.019 23.3353 166.176 23.5323C166.333 23.7262 166.454 23.9093 166.54 24.0817H166.61V20.5455H168.285V30H166.642V28.8828H166.54C166.454 29.0552 166.33 29.2383 166.166 29.4322C166.003 29.623 165.788 29.7861 165.52 29.9215C165.252 30.0569 164.915 30.1246 164.509 30.1246ZM164.975 28.7536C165.329 28.7536 165.631 28.6581 165.88 28.4673C166.129 28.2734 166.319 28.0041 166.448 27.6594C166.577 27.3147 166.642 26.9131 166.642 26.4545C166.642 25.996 166.577 25.5974 166.448 25.2589C166.322 24.9203 166.134 24.6572 165.885 24.4695C165.639 24.2817 165.335 24.1879 164.975 24.1879C164.603 24.1879 164.292 24.2848 164.043 24.4787C163.794 24.6726 163.606 24.9403 163.48 25.282C163.353 25.6236 163.29 26.0144 163.29 26.4545C163.29 26.8977 163.353 27.2932 163.48 27.641C163.609 27.9857 163.798 28.258 164.047 28.4581C164.3 28.6551 164.609 28.7536 164.975 28.7536ZM173.159 30.1385C172.467 30.1385 171.867 29.9862 171.359 29.6815C170.851 29.3768 170.457 28.9505 170.177 28.4027C169.9 27.8549 169.761 27.2147 169.761 26.4822C169.761 25.7498 169.9 25.1081 170.177 24.5572C170.457 24.0063 170.851 23.5785 171.359 23.2738C171.867 22.9691 172.467 22.8168 173.159 22.8168C173.852 22.8168 174.452 22.9691 174.96 23.2738C175.467 23.5785 175.86 24.0063 176.137 24.5572C176.417 25.1081 176.557 25.7498 176.557 26.4822C176.557 27.2147 176.417 27.8549 176.137 28.4027C175.86 28.9505 175.467 29.3768 174.96 29.6815C174.452 29.9862 173.852 30.1385 173.159 30.1385ZM173.168 28.7997C173.544 28.7997 173.858 28.6966 174.11 28.4904C174.363 28.2811 174.55 28.0011 174.673 27.6502C174.8 27.2994 174.863 26.9085 174.863 26.4776C174.863 26.0437 174.8 25.6513 174.673 25.3004C174.55 24.9465 174.363 24.6649 174.11 24.4556C173.858 24.2463 173.544 24.1417 173.168 24.1417C172.784 24.1417 172.464 24.2463 172.208 24.4556C171.956 24.6649 171.767 24.9465 171.64 25.3004C171.517 25.6513 171.456 26.0437 171.456 26.4776C171.456 26.9085 171.517 27.2994 171.64 27.6502C171.767 28.0011 171.956 28.2811 172.208 28.4904C172.464 28.6966 172.784 28.7997 173.168 28.7997ZM183.58 24.7834L182.056 24.9496C182.013 24.7957 181.938 24.651 181.83 24.5156C181.725 24.3802 181.584 24.271 181.405 24.1879C181.227 24.1048 181.008 24.0632 180.75 24.0632C180.402 24.0632 180.11 24.1386 179.873 24.2894C179.639 24.4402 179.523 24.6357 179.527 24.8757C179.523 25.0819 179.599 25.2496 179.753 25.3789C179.91 25.5082 180.168 25.6143 180.528 25.6974L181.738 25.956C182.409 26.1006 182.907 26.3299 183.234 26.6438C183.563 26.9577 183.729 27.3686 183.732 27.8764C183.729 28.3227 183.598 28.7166 183.34 29.0582C183.084 29.3968 182.729 29.6615 182.273 29.8523C181.818 30.0431 181.295 30.1385 180.704 30.1385C179.836 30.1385 179.137 29.9569 178.608 29.5938C178.078 29.2275 177.763 28.7182 177.661 28.0657L179.291 27.9087C179.365 28.2288 179.522 28.4704 179.762 28.6335C180.002 28.7966 180.314 28.8782 180.699 28.8782C181.096 28.8782 181.415 28.7966 181.655 28.6335C181.898 28.4704 182.019 28.2688 182.019 28.0288C182.019 27.8256 181.941 27.6579 181.784 27.5256C181.63 27.3932 181.39 27.2917 181.064 27.2209L179.854 26.967C179.174 26.8254 178.671 26.5869 178.345 26.2514C178.018 25.9129 177.857 25.4851 177.86 24.968C177.857 24.531 177.975 24.1525 178.215 23.8324C178.459 23.5092 178.796 23.2599 179.226 23.0845C179.66 22.906 180.16 22.8168 180.727 22.8168C181.558 22.8168 182.212 22.9937 182.689 23.3477C183.169 23.7016 183.466 24.1802 183.58 24.7834ZM191.428 30.1385C190.72 30.1385 190.112 29.9831 189.604 29.6722C189.1 29.3614 188.71 28.9321 188.436 28.3842C188.165 27.8333 188.03 27.1993 188.03 26.4822C188.03 25.7621 188.169 25.1265 188.446 24.5756C188.723 24.0217 189.113 23.5908 189.618 23.283C190.126 22.9722 190.726 22.8168 191.419 22.8168C191.994 22.8168 192.503 22.9229 192.947 23.1353C193.393 23.3446 193.748 23.6416 194.013 24.0263C194.278 24.4079 194.428 24.8542 194.465 25.3651H192.868C192.803 25.0234 192.65 24.7388 192.406 24.511C192.166 24.2802 191.845 24.1648 191.442 24.1648C191.1 24.1648 190.8 24.2571 190.541 24.4418C190.283 24.6233 190.081 24.8849 189.937 25.2266C189.795 25.5682 189.724 25.9775 189.724 26.4545C189.724 26.9377 189.795 27.3532 189.937 27.701C190.078 28.0457 190.277 28.3119 190.532 28.4996C190.791 28.6843 191.094 28.7766 191.442 28.7766C191.688 28.7766 191.908 28.7305 192.102 28.6381C192.299 28.5427 192.463 28.4058 192.596 28.2273C192.728 28.0488 192.819 27.8318 192.868 27.5763H194.465C194.425 28.078 194.278 28.5227 194.022 28.9105C193.767 29.2952 193.419 29.5968 192.979 29.8153C192.539 30.0308 192.022 30.1385 191.428 30.1385ZM198.931 30.1385C198.238 30.1385 197.638 29.9862 197.13 29.6815C196.622 29.3768 196.229 28.9505 195.948 28.4027C195.671 27.8549 195.533 27.2147 195.533 26.4822C195.533 25.7498 195.671 25.1081 195.948 24.5572C196.229 24.0063 196.622 23.5785 197.13 23.2738C197.638 22.9691 198.238 22.8168 198.931 22.8168C199.623 22.8168 200.223 22.9691 200.731 23.2738C201.239 23.5785 201.631 24.0063 201.908 24.5572C202.188 25.1081 202.328 25.7498 202.328 26.4822C202.328 27.2147 202.188 27.8549 201.908 28.4027C201.631 28.9505 201.239 29.3768 200.731 29.6815C200.223 29.9862 199.623 30.1385 198.931 30.1385ZM198.94 28.7997C199.315 28.7997 199.629 28.6966 199.882 28.4904C200.134 28.2811 200.322 28.0011 200.445 27.6502C200.571 27.2994 200.634 26.9085 200.634 26.4776C200.634 26.0437 200.571 25.6513 200.445 25.3004C200.322 24.9465 200.134 24.6649 199.882 24.4556C199.629 24.2463 199.315 24.1417 198.94 24.1417C198.555 24.1417 198.235 24.2463 197.98 24.4556C197.727 24.6649 197.538 24.9465 197.412 25.3004C197.289 25.6513 197.227 26.0437 197.227 26.4776C197.227 26.9085 197.289 27.2994 197.412 27.6502C197.538 28.0011 197.727 28.2811 197.98 28.4904C198.235 28.6966 198.555 28.7997 198.94 28.7997ZM203.747 30V22.9091H205.344V24.114H205.427C205.575 23.7077 205.82 23.3907 206.161 23.163C206.503 22.9322 206.911 22.8168 207.385 22.8168C207.865 22.8168 208.269 22.9337 208.599 23.1676C208.931 23.3984 209.165 23.7139 209.3 24.114H209.374C209.531 23.7201 209.796 23.4061 210.168 23.1722C210.544 22.9353 210.989 22.8168 211.503 22.8168C212.155 22.8168 212.687 23.023 213.1 23.4354C213.512 23.8478 213.718 24.4495 213.718 25.2404V30H212.043V25.4989C212.043 25.0588 211.926 24.7372 211.692 24.5341C211.458 24.3279 211.172 24.2248 210.833 24.2248C210.43 24.2248 210.115 24.351 209.887 24.6033C209.662 24.8526 209.55 25.1773 209.55 25.5774V30H207.911V25.4297C207.911 25.0634 207.8 24.7711 207.579 24.5526C207.36 24.334 207.074 24.2248 206.72 24.2248C206.48 24.2248 206.261 24.2863 206.064 24.4094C205.867 24.5295 205.71 24.7003 205.593 24.9219C205.476 25.1404 205.418 25.3958 205.418 25.6882V30H203.747ZM218.712 30V20.5455H222.258C222.984 20.5455 223.593 20.6809 224.086 20.9517C224.581 21.2225 224.955 21.5949 225.208 22.0689C225.463 22.5398 225.591 23.0753 225.591 23.6754C225.591 24.2817 225.463 24.8203 225.208 25.2912C224.952 25.7621 224.575 26.1329 224.077 26.4038C223.578 26.6715 222.964 26.8054 222.235 26.8054H219.885V25.3974H222.004C222.429 25.3974 222.776 25.3235 223.047 25.1758C223.318 25.0281 223.518 24.8249 223.647 24.5664C223.78 24.3079 223.846 24.0109 223.846 23.6754C223.846 23.34 223.78 23.0445 223.647 22.7891C223.518 22.5336 223.316 22.3351 223.043 22.1935C222.772 22.0489 222.422 21.9766 221.995 21.9766H220.425V30H218.712ZM229.996 30.1385C229.304 30.1385 228.704 29.9862 228.196 29.6815C227.688 29.3768 227.294 28.9505 227.014 28.4027C226.737 27.8549 226.598 27.2147 226.598 26.4822C226.598 25.7498 226.737 25.1081 227.014 24.5572C227.294 24.0063 227.688 23.5785 228.196 23.2738C228.704 22.9691 229.304 22.8168 229.996 22.8168C230.689 22.8168 231.289 22.9691 231.797 23.2738C232.304 23.5785 232.697 24.0063 232.974 24.5572C233.254 25.1081 233.394 25.7498 233.394 26.4822C233.394 27.2147 233.254 27.8549 232.974 28.4027C232.697 28.9505 232.304 29.3768 231.797 29.6815C231.289 29.9862 230.689 30.1385 229.996 30.1385ZM230.005 28.7997C230.381 28.7997 230.695 28.6966 230.947 28.4904C231.199 28.2811 231.387 28.0011 231.51 27.6502C231.637 27.2994 231.7 26.9085 231.7 26.4776C231.7 26.0437 231.637 25.6513 231.51 25.3004C231.387 24.9465 231.199 24.6649 230.947 24.4556C230.695 24.2463 230.381 24.1417 230.005 24.1417C229.621 24.1417 229.301 24.2463 229.045 24.4556C228.793 24.6649 228.604 24.9465 228.477 25.3004C228.354 25.6513 228.293 26.0437 228.293 26.4776C228.293 26.9085 228.354 27.2994 228.477 27.6502C228.604 28.0011 228.793 28.2811 229.045 28.4904C229.301 28.6966 229.621 28.7997 230.005 28.7997ZM236.073 30L234.069 22.9091H235.773L237.019 27.8949H237.084L238.358 22.9091H240.043L241.317 27.8672H241.386L242.614 22.9091H244.322L242.314 30H240.574L239.244 25.2081H239.147L237.818 30H236.073ZM248.425 30.1385C247.714 30.1385 247.1 29.9908 246.583 29.6953C246.069 29.3968 245.674 28.9751 245.397 28.4304C245.12 27.8826 244.981 27.2378 244.981 26.4961C244.981 25.7667 245.12 25.1265 245.397 24.5756C245.677 24.0217 246.068 23.5908 246.569 23.283C247.071 22.9722 247.66 22.8168 248.337 22.8168C248.774 22.8168 249.187 22.8875 249.575 23.0291C249.965 23.1676 250.31 23.383 250.609 23.6754C250.91 23.9678 251.147 24.3402 251.32 24.7926C251.492 25.242 251.578 25.7775 251.578 26.3991V26.9116H245.766V25.7852H249.976C249.973 25.4651 249.904 25.1804 249.769 24.9311C249.633 24.6787 249.444 24.4802 249.201 24.3356C248.961 24.1909 248.681 24.1186 248.36 24.1186C248.019 24.1186 247.719 24.2017 247.46 24.3679C247.202 24.531 247 24.7464 246.856 25.0142C246.714 25.2789 246.642 25.5697 246.639 25.8867V26.87C246.639 27.2824 246.714 27.6364 246.865 27.9318C247.016 28.2242 247.226 28.4489 247.497 28.6058C247.768 28.7597 248.085 28.8366 248.448 28.8366C248.691 28.8366 248.911 28.8028 249.108 28.7351C249.305 28.6643 249.476 28.5612 249.621 28.4258C249.765 28.2904 249.875 28.1226 249.949 27.9226L251.509 28.098C251.41 28.5104 251.223 28.8705 250.946 29.1783C250.672 29.483 250.321 29.7199 249.893 29.8892C249.465 30.0554 248.976 30.1385 248.425 30.1385ZM252.992 30V22.9091H254.612V24.0909H254.686C254.815 23.6816 255.037 23.3661 255.351 23.1445C255.668 22.9199 256.03 22.8075 256.436 22.8075C256.528 22.8075 256.631 22.8121 256.745 22.8214C256.862 22.8275 256.959 22.8383 257.036 22.8537V24.391C256.965 24.3664 256.853 24.3448 256.699 24.3263C256.548 24.3048 256.402 24.294 256.26 24.294C255.956 24.294 255.682 24.3602 255.439 24.4925C255.199 24.6218 255.009 24.8018 254.871 25.0327C254.732 25.2635 254.663 25.5297 254.663 25.8313V30H252.992ZM261.445 30V20.5455H265.064C265.747 20.5455 266.315 20.6532 266.768 20.8686C267.223 21.081 267.563 21.3718 267.788 21.7411C268.016 22.1104 268.129 22.529 268.129 22.9968C268.129 23.3815 268.056 23.7108 267.908 23.9847C267.76 24.2556 267.562 24.4756 267.312 24.6449C267.063 24.8142 266.784 24.9357 266.477 25.0096V25.1019C266.812 25.1204 267.134 25.2235 267.442 25.4112C267.752 25.5959 268.006 25.8575 268.203 26.196C268.4 26.5346 268.499 26.9439 268.499 27.424C268.499 27.9134 268.38 28.3535 268.143 28.7443C267.906 29.1321 267.549 29.4383 267.072 29.663C266.595 29.8877 265.995 30 265.272 30H261.445ZM263.157 28.5689H264.999C265.621 28.5689 266.069 28.4504 266.343 28.2134C266.62 27.9734 266.758 27.6656 266.758 27.2901C266.758 27.0101 266.689 26.7577 266.551 26.533C266.412 26.3053 266.215 26.1268 265.96 25.9975C265.704 25.8652 265.4 25.799 265.046 25.799H263.157V28.5689ZM263.157 24.5664H264.852C265.147 24.5664 265.413 24.5125 265.65 24.4048C265.887 24.294 266.074 24.1386 266.209 23.9386C266.347 23.7354 266.417 23.4954 266.417 23.2184C266.417 22.8522 266.287 22.5505 266.029 22.3136C265.773 22.0766 265.393 21.9581 264.889 21.9581H263.157V24.5664ZM271.701 20.5455V30H269.989V20.5455H271.701Z" fill="#F5F5F5"></path></svg>