<svg width="1276" height="347" viewBox="0 0 1276 347" fill="none" xmlns="http://www.w3.org/2000/svg">
<path d="M1269.2 2H60.1963C58.8485 2 57.9775 2.00187 57.3193 2.06445C56.6911 2.12422 56.4655 2.22513 56.3516 2.29492C56.0826 2.45982 55.8563 2.68602 55.6914 2.95508C55.6216 3.06895 55.5217 3.29456 55.4619 3.92285C55.3993 4.5811 55.3965 5.45182 55.3965 6.7998V138.455C55.3965 139.415 55.4119 140.268 55.2314 141.077L55.1416 141.422C55.0333 141.781 54.8901 142.133 54.7158 142.467L54.5312 142.794C54.0385 143.609 53.3197 144.232 52.5117 144.961L52.5098 144.962V144.963C48.4647 148.614 44.7422 151.859 41.2051 154.728C34.7076 159.997 29.8617 163.929 26.5947 166.696C24.9582 168.083 23.7498 169.15 22.9395 169.934C22.5322 170.327 22.257 170.619 22.0869 170.822C22.0527 170.863 22.0289 170.899 22.0088 170.925C21.9661 171.077 21.9392 171.174 21.9189 171.253C21.938 171.332 21.9636 171.429 22.0039 171.581C22.0238 171.608 22.0483 171.643 22.082 171.685C22.2511 171.892 22.5246 172.19 22.9297 172.593C23.7358 173.394 24.9392 174.487 26.5693 175.908C29.8237 178.746 34.654 182.78 41.1299 188.188L41.1318 188.19C44.8106 191.263 48.5543 194.709 52.6377 198.557C53.4147 199.289 54.1049 199.914 54.5742 200.715C54.821 201.136 55.0167 201.589 55.1543 202.058V202.059C55.4155 202.949 55.3965 203.882 55.3965 204.951V340.2C55.3965 341.548 55.3993 342.419 55.4619 343.077C55.5217 343.705 55.6216 343.931 55.6914 344.045C55.8563 344.314 56.0826 344.54 56.3516 344.705C56.4655 344.775 56.6911 344.876 57.3193 344.936C57.9775 344.998 58.8485 345 60.1963 345H1269.2C1270.55 345 1271.42 344.998 1272.08 344.936C1272.71 344.876 1272.93 344.775 1273.04 344.705C1273.31 344.54 1273.54 344.314 1273.71 344.045C1273.77 343.931 1273.88 343.706 1273.94 343.077C1274 342.419 1274 341.548 1274 340.2V6.7998C1274 5.45182 1274 4.58111 1273.94 3.92285C1273.88 3.29441 1273.77 3.06895 1273.71 2.95508C1273.54 2.68599 1273.31 2.45982 1273.04 2.29492C1272.93 2.22514 1272.71 2.12421 1272.08 2.06445C1271.42 2.00187 1270.55 2 1269.2 2Z" fill="black" stroke="#AF9D49" stroke-width="4"/>
<path d="M283.997 93H275.593L288.398 55.9091H298.503L311.29 93H302.886L293.595 64.3849H293.306L283.997 93ZM283.472 78.4208H303.321V84.5423H283.472V78.4208ZM323.324 76.9176V93H315.609V65.1818H322.962V70.0898H323.288C323.904 68.4719 324.936 67.1921 326.385 66.2504C327.834 65.2965 329.591 64.8196 331.655 64.8196C333.587 64.8196 335.271 65.2422 336.708 66.0874C338.145 66.9325 339.262 68.1399 340.059 69.7095C340.856 71.267 341.254 73.1264 341.254 75.2876V93H333.539V76.6641C333.551 74.9616 333.116 73.6335 332.235 72.6797C331.353 71.7138 330.14 71.2308 328.595 71.2308C327.556 71.2308 326.639 71.4542 325.842 71.9009C325.057 72.3477 324.441 72.9996 323.994 73.8569C323.56 74.7021 323.336 75.7223 323.324 76.9176ZM355.267 93.5252C353.492 93.5252 351.911 93.2173 350.522 92.6016C349.134 91.9737 348.035 91.0501 347.226 89.8306C346.429 88.5991 346.031 87.0657 346.031 85.2305C346.031 83.685 346.314 82.3871 346.882 81.3366C347.449 80.2862 348.222 79.4411 349.2 78.8011C350.178 78.1612 351.289 77.6783 352.532 77.3523C353.788 77.0263 355.104 76.7969 356.481 76.6641C358.099 76.495 359.403 76.3381 360.393 76.1932C361.383 76.0362 362.101 75.8068 362.548 75.505C362.994 75.2031 363.218 74.7564 363.218 74.1648V74.0561C363.218 72.9091 362.856 72.0217 362.131 71.3938C361.419 70.766 360.405 70.4521 359.089 70.4521C357.7 70.4521 356.595 70.7599 355.774 71.3757C354.953 71.9794 354.41 72.7401 354.144 73.6577L347.009 73.0781C347.371 71.3878 348.083 69.9268 349.146 68.6953C350.208 67.4517 351.579 66.4979 353.257 65.8338C354.947 65.1577 356.903 64.8196 359.125 64.8196C360.67 64.8196 362.149 65.0007 363.562 65.3629C364.987 65.7251 366.248 66.2866 367.347 67.0472C368.458 67.8079 369.333 68.7859 369.973 69.9812C370.613 71.1644 370.933 72.5831 370.933 74.2372V93H363.616V89.1424H363.399C362.952 90.0117 362.355 90.7784 361.606 91.4425C360.857 92.0945 359.958 92.6076 358.907 92.9819C357.857 93.3441 356.644 93.5252 355.267 93.5252ZM357.477 88.2006C358.612 88.2006 359.614 87.9773 360.483 87.5305C361.352 87.0717 362.035 86.456 362.53 85.6832C363.025 84.9105 363.272 84.0352 363.272 83.0572V80.1051C363.031 80.2621 362.699 80.407 362.276 80.5398C361.866 80.6605 361.401 80.7752 360.882 80.8839C360.362 80.9805 359.843 81.071 359.324 81.1555C358.805 81.228 358.334 81.2944 357.911 81.3548C357.006 81.4876 356.215 81.6989 355.539 81.9886C354.863 82.2784 354.338 82.6708 353.963 83.1658C353.589 83.6488 353.402 84.2525 353.402 84.9769C353.402 86.0273 353.782 86.8303 354.543 87.3857C355.316 87.929 356.294 88.2006 357.477 88.2006ZM356.644 61.5959L360.483 53.3555H367.619L362.095 61.5959H356.644ZM384.634 55.9091V93H376.919V55.9091H384.634ZM390.814 93V65.1818H398.529V93H390.814ZM394.69 61.5959C393.543 61.5959 392.559 61.2156 391.738 60.4549C390.929 59.6822 390.524 58.7585 390.524 57.6839C390.524 56.6214 390.929 55.7099 391.738 54.9492C392.559 54.1765 393.543 53.7901 394.69 53.7901C395.837 53.7901 396.815 54.1765 397.624 54.9492C398.445 55.7099 398.855 56.6214 398.855 57.6839C398.855 58.7585 398.445 59.6822 397.624 60.4549C396.815 61.2156 395.837 61.5959 394.69 61.5959ZM427.855 73.1143L420.792 73.549C420.671 72.9453 420.412 72.402 420.013 71.919C419.615 71.424 419.09 71.0316 418.438 70.7418C417.798 70.44 417.031 70.2891 416.138 70.2891C414.942 70.2891 413.934 70.5426 413.113 71.0497C412.292 71.5447 411.882 72.2088 411.882 73.0419C411.882 73.706 412.147 74.2674 412.678 74.7262C413.21 75.185 414.121 75.5533 415.413 75.831L420.448 76.8452C423.153 77.4006 425.169 78.294 426.497 79.5256C427.825 80.7571 428.489 82.375 428.489 84.3793C428.489 86.2024 427.952 87.8022 426.877 89.1786C425.815 90.555 424.354 91.6296 422.494 92.4023C420.647 93.163 418.516 93.5433 416.101 93.5433C412.419 93.5433 409.485 92.7766 407.3 91.2433C405.126 89.6978 403.852 87.5969 403.478 84.9407L411.067 84.5423C411.296 85.6651 411.851 86.5224 412.733 87.114C413.614 87.6935 414.743 87.9833 416.119 87.9833C417.472 87.9833 418.558 87.7237 419.379 87.2045C420.213 86.6733 420.635 85.9911 420.647 85.158C420.635 84.4577 420.339 83.8842 419.76 83.4375C419.18 82.9787 418.287 82.6286 417.079 82.3871L412.262 81.4272C409.545 80.8839 407.523 79.9421 406.195 78.6019C404.879 77.2617 404.221 75.5533 404.221 73.4766C404.221 71.6896 404.704 70.1502 405.67 68.8583C406.648 67.5664 408.018 66.5703 409.781 65.87C411.556 65.1697 413.632 64.8196 416.011 64.8196C419.524 64.8196 422.289 65.5621 424.306 67.0472C426.334 68.5323 427.517 70.5547 427.855 73.1143ZM446.025 93.5433C443.163 93.5433 440.7 92.9638 438.636 91.8047C436.583 90.6335 435.002 88.9794 433.891 86.8423C432.78 84.6932 432.225 82.1516 432.225 79.2177C432.225 76.3562 432.78 73.8448 433.891 71.6836C435.002 69.5224 436.565 67.8381 438.581 66.6307C440.61 65.4233 442.988 64.8196 445.717 64.8196C447.552 64.8196 449.261 65.1154 450.842 65.707C452.436 66.2866 453.825 67.1619 455.008 68.3331C456.203 69.5043 457.133 70.9773 457.797 72.7521C458.461 74.5149 458.793 76.5795 458.793 78.946V81.065H435.303V76.2837H451.531C451.531 75.1729 451.289 74.1889 450.806 73.3317C450.323 72.4744 449.653 71.8043 448.796 71.3214C447.951 70.8263 446.967 70.5788 445.844 70.5788C444.673 70.5788 443.634 70.8505 442.729 71.3938C441.835 71.9251 441.135 72.6435 440.628 73.549C440.121 74.4425 439.861 75.4386 439.849 76.5373V81.0831C439.849 82.4595 440.103 83.6488 440.61 84.6509C441.129 85.6531 441.859 86.4258 442.801 86.9691C443.743 87.5124 444.86 87.7841 446.152 87.7841C447.009 87.7841 447.794 87.6634 448.506 87.4219C449.218 87.1804 449.828 86.8182 450.335 86.3352C450.842 85.8523 451.229 85.2607 451.494 84.5604L458.63 85.0312C458.268 86.7457 457.525 88.2429 456.402 89.5227C455.292 90.7905 453.855 91.7805 452.092 92.4929C450.341 93.1932 448.319 93.5433 446.025 93.5433ZM485.882 93.4528C483.769 93.4528 481.856 92.9094 480.141 91.8228C478.439 90.7241 477.086 89.1122 476.084 86.9872C475.094 84.8501 474.599 82.2301 474.599 79.1271C474.599 75.9396 475.112 73.2894 476.139 71.1765C477.165 69.0515 478.529 67.4638 480.232 66.4134C481.946 65.3509 483.824 64.8196 485.864 64.8196C487.422 64.8196 488.72 65.0852 489.758 65.6165C490.808 66.1357 491.654 66.7876 492.294 67.5724C492.945 68.3452 493.441 69.1058 493.779 69.8544H494.014V55.9091H501.711V93H494.105V88.5447H493.779C493.416 89.3175 492.903 90.0842 492.239 90.8448C491.587 91.5934 490.736 92.2152 489.686 92.7102C488.647 93.2053 487.379 93.4528 485.882 93.4528ZM488.327 87.3132C489.571 87.3132 490.621 86.9751 491.479 86.299C492.348 85.6108 493.012 84.6509 493.471 83.4194C493.942 82.1879 494.177 80.745 494.177 79.0909C494.177 77.4368 493.948 76 493.489 74.7805C493.03 73.5611 492.366 72.6193 491.497 71.9553C490.627 71.2912 489.571 70.9592 488.327 70.9592C487.059 70.9592 485.991 71.3033 485.122 71.9915C484.252 72.6797 483.594 73.6335 483.148 74.853C482.701 76.0724 482.477 77.4851 482.477 79.0909C482.477 80.7088 482.701 82.1396 483.148 83.3832C483.606 84.6147 484.264 85.5806 485.122 86.2809C485.991 86.9691 487.059 87.3132 488.327 87.3132ZM520.732 93.5433C517.87 93.5433 515.407 92.9638 513.343 91.8047C511.29 90.6335 509.709 88.9794 508.598 86.8423C507.487 84.6932 506.932 82.1516 506.932 79.2177C506.932 76.3562 507.487 73.8448 508.598 71.6836C509.709 69.5224 511.272 67.8381 513.288 66.6307C515.317 65.4233 517.695 64.8196 520.424 64.8196C522.259 64.8196 523.968 65.1154 525.549 65.707C527.143 66.2866 528.532 67.1619 529.715 68.3331C530.91 69.5043 531.84 70.9773 532.504 72.7521C533.168 74.5149 533.5 76.5795 533.5 78.946V81.065H510.01V76.2837H526.238C526.238 75.1729 525.996 74.1889 525.513 73.3317C525.03 72.4744 524.36 71.8043 523.503 71.3214C522.658 70.8263 521.674 70.5788 520.551 70.5788C519.38 70.5788 518.341 70.8505 517.436 71.3938C516.542 71.9251 515.842 72.6435 515.335 73.549C514.828 74.4425 514.568 75.4386 514.556 76.5373V81.0831C514.556 82.4595 514.81 83.6488 515.317 84.6509C515.836 85.6531 516.566 86.4258 517.508 86.9691C518.45 87.5124 519.567 87.7841 520.859 87.7841C521.716 87.7841 522.501 87.6634 523.213 87.4219C523.926 87.1804 524.535 86.8182 525.042 86.3352C525.549 85.8523 525.936 85.2607 526.201 84.5604L533.337 85.0312C532.975 86.7457 532.232 88.2429 531.109 89.5227C529.999 90.7905 528.562 91.7805 526.799 92.4929C525.048 93.1932 523.026 93.5433 520.732 93.5433ZM563.632 93H550.483V55.9091H563.741C567.471 55.9091 570.683 56.6516 573.376 58.1367C576.068 59.6097 578.139 61.7287 579.588 64.4936C581.048 67.2585 581.779 70.5668 581.779 74.4183C581.779 78.282 581.048 81.6023 579.588 84.3793C578.139 87.1562 576.056 89.2873 573.339 90.7724C570.635 92.2575 567.399 93 563.632 93ZM558.325 86.2809H563.306C565.624 86.2809 567.574 85.8704 569.156 85.0494C570.749 84.2163 571.945 82.9304 572.742 81.1918C573.551 79.4411 573.955 77.1832 573.955 74.4183C573.955 71.6776 573.551 69.4379 572.742 67.6992C571.945 65.9606 570.756 64.6808 569.174 63.8597C567.592 63.0387 565.642 62.6282 563.324 62.6282H558.325V86.2809ZM595.376 93.5252C593.601 93.5252 592.019 93.2173 590.631 92.6016C589.242 91.9737 588.143 91.0501 587.334 89.8306C586.538 88.5991 586.139 87.0657 586.139 85.2305C586.139 83.685 586.423 82.3871 586.99 81.3366C587.558 80.2862 588.331 79.4411 589.309 78.8011C590.286 78.1612 591.397 77.6783 592.641 77.3523C593.897 77.0263 595.213 76.7969 596.589 76.6641C598.207 76.495 599.511 76.3381 600.501 76.1932C601.491 76.0362 602.209 75.8068 602.656 75.505C603.103 75.2031 603.326 74.7564 603.326 74.1648V74.0561C603.326 72.9091 602.964 72.0217 602.24 71.3938C601.527 70.766 600.513 70.4521 599.197 70.4521C597.809 70.4521 596.704 70.7599 595.883 71.3757C595.062 71.9794 594.518 72.7401 594.253 73.6577L587.117 73.0781C587.479 71.3878 588.192 69.9268 589.254 68.6953C590.317 67.4517 591.687 66.4979 593.365 65.8338C595.056 65.1577 597.012 64.8196 599.233 64.8196C600.779 64.8196 602.258 65.0007 603.67 65.3629C605.095 65.7251 606.357 66.2866 607.456 67.0472C608.566 67.8079 609.442 68.7859 610.082 69.9812C610.722 71.1644 611.041 72.5831 611.041 74.2372V93H603.725V89.1424H603.507C603.061 90.0117 602.463 90.7784 601.714 91.4425C600.966 92.0945 600.066 92.6076 599.016 92.9819C597.965 93.3441 596.752 93.5252 595.376 93.5252ZM597.585 88.2006C598.72 88.2006 599.722 87.9773 600.592 87.5305C601.461 87.0717 602.143 86.456 602.638 85.6832C603.133 84.9105 603.381 84.0352 603.381 83.0572V80.1051C603.139 80.2621 602.807 80.407 602.385 80.5398C601.974 80.6605 601.509 80.7752 600.99 80.8839C600.471 80.9805 599.952 81.071 599.432 81.1555C598.913 81.228 598.442 81.2944 598.02 81.3548C597.114 81.4876 596.323 81.6989 595.647 81.9886C594.971 82.2784 594.446 82.6708 594.072 83.1658C593.697 83.6488 593.51 84.2525 593.51 84.9769C593.51 86.0273 593.891 86.8303 594.651 87.3857C595.424 87.929 596.402 88.2006 597.585 88.2006ZM627.278 93.4528C625.165 93.4528 623.251 92.9094 621.537 91.8228C619.834 90.7241 618.482 89.1122 617.48 86.9872C616.49 84.8501 615.995 82.2301 615.995 79.1271C615.995 75.9396 616.508 73.2894 617.534 71.1765C618.56 69.0515 619.925 67.4638 621.627 66.4134C623.342 65.3509 625.219 64.8196 627.26 64.8196C628.817 64.8196 630.115 65.0852 631.153 65.6165C632.204 66.1357 633.049 66.7876 633.689 67.5724C634.341 68.3452 634.836 69.1058 635.174 69.8544H635.41V55.9091H643.107V93H635.5V88.5447H635.174C634.812 89.3175 634.299 90.0842 633.635 90.8448C632.983 91.5934 632.131 92.2152 631.081 92.7102C630.043 93.2053 628.775 93.4528 627.278 93.4528ZM629.723 87.3132C630.966 87.3132 632.017 86.9751 632.874 86.299C633.743 85.6108 634.407 84.6509 634.866 83.4194C635.337 82.1879 635.573 80.745 635.573 79.0909C635.573 77.4368 635.343 76 634.884 74.7805C634.426 73.5611 633.761 72.6193 632.892 71.9553C632.023 71.2912 630.966 70.9592 629.723 70.9592C628.455 70.9592 627.386 71.3033 626.517 71.9915C625.648 72.6797 624.99 73.6335 624.543 74.853C624.096 76.0724 623.873 77.4851 623.873 79.0909C623.873 80.7088 624.096 82.1396 624.543 83.3832C625.002 84.6147 625.66 85.5806 626.517 86.2809C627.386 86.9691 628.455 87.3132 629.723 87.3132ZM662.019 93.5433C659.206 93.5433 656.773 92.9457 654.72 91.7504C652.68 90.543 651.104 88.8647 649.993 86.7156C648.882 84.5543 648.327 82.049 648.327 79.1996C648.327 76.326 648.882 73.8146 649.993 71.6655C651.104 69.5043 652.68 67.826 654.72 66.6307C656.773 65.4233 659.206 64.8196 662.019 64.8196C664.832 64.8196 667.259 65.4233 669.299 66.6307C671.352 67.826 672.934 69.5043 674.044 71.6655C675.155 73.8146 675.711 76.326 675.711 79.1996C675.711 82.049 675.155 84.5543 674.044 86.7156C672.934 88.8647 671.352 90.543 669.299 91.7504C667.259 92.9457 664.832 93.5433 662.019 93.5433ZM662.055 87.5668C663.335 87.5668 664.403 87.2045 665.261 86.4801C666.118 85.7436 666.764 84.7415 667.199 83.4737C667.645 82.206 667.869 80.7631 667.869 79.1452C667.869 77.5273 667.645 76.0845 667.199 74.8168C666.764 73.549 666.118 72.5469 665.261 71.8104C664.403 71.0739 663.335 70.7056 662.055 70.7056C660.763 70.7056 659.676 71.0739 658.795 71.8104C657.926 72.5469 657.268 73.549 656.821 74.8168C656.386 76.0845 656.169 77.5273 656.169 79.1452C656.169 80.7631 656.386 82.206 656.821 83.4737C657.268 84.7415 657.926 85.7436 658.795 86.4801C659.676 87.2045 660.763 87.5668 662.055 87.5668ZM703.873 73.1143L696.81 73.549C696.689 72.9453 696.429 72.402 696.031 71.919C695.632 71.424 695.107 71.0316 694.455 70.7418C693.815 70.44 693.049 70.2891 692.155 70.2891C690.96 70.2891 689.952 70.5426 689.131 71.0497C688.31 71.5447 687.899 72.2088 687.899 73.0419C687.899 73.706 688.165 74.2674 688.696 74.7262C689.227 75.185 690.139 75.5533 691.431 75.831L696.466 76.8452C699.17 77.4006 701.186 78.294 702.515 79.5256C703.843 80.7571 704.507 82.375 704.507 84.3793C704.507 86.2024 703.969 87.8022 702.895 89.1786C701.832 90.555 700.371 91.6296 698.512 92.4023C696.665 93.163 694.534 93.5433 692.119 93.5433C688.436 93.5433 685.502 92.7766 683.317 91.2433C681.144 89.6978 679.87 87.5969 679.496 84.9407L687.084 84.5423C687.314 85.6651 687.869 86.5224 688.75 87.114C689.632 87.6935 690.761 87.9833 692.137 87.9833C693.489 87.9833 694.576 87.7237 695.397 87.2045C696.23 86.6733 696.653 85.9911 696.665 85.158C696.653 84.4577 696.357 83.8842 695.777 83.4375C695.198 82.9787 694.304 82.6286 693.097 82.3871L688.279 81.4272C685.563 80.8839 683.54 79.9421 682.212 78.6019C680.896 77.2617 680.238 75.5533 680.238 73.4766C680.238 71.6896 680.721 70.1502 681.687 68.8583C682.665 67.5664 684.036 66.5703 685.798 65.87C687.573 65.1697 689.65 64.8196 692.028 64.8196C695.542 64.8196 698.307 65.5621 700.323 67.0472C702.352 68.5323 703.535 70.5547 703.873 73.1143ZM733.738 93.5433C730.888 93.5433 728.437 92.9396 726.385 91.7322C724.344 90.5128 722.775 88.8224 721.676 86.6612C720.589 84.5 720.046 82.0128 720.046 79.1996C720.046 76.3501 720.595 73.8509 721.694 71.7017C722.805 69.5405 724.38 67.8562 726.421 66.6488C728.461 65.4293 730.888 64.8196 733.701 64.8196C736.128 64.8196 738.253 65.2603 740.076 66.1417C741.9 67.0231 743.342 68.2607 744.405 69.8544C745.467 71.4482 746.053 73.3196 746.162 75.4688H738.881C738.676 74.0803 738.132 72.9634 737.251 72.1183C736.382 71.261 735.241 70.8324 733.828 70.8324C732.633 70.8324 731.588 71.1584 730.695 71.8104C729.814 72.4503 729.125 73.386 728.63 74.6175C728.135 75.8491 727.888 77.3402 727.888 79.0909C727.888 80.8658 728.129 82.375 728.612 83.6186C729.107 84.8622 729.801 85.81 730.695 86.462C731.588 87.114 732.633 87.44 733.828 87.44C734.71 87.44 735.5 87.2589 736.201 86.8967C736.913 86.5344 737.499 86.0092 737.957 85.321C738.428 84.6207 738.736 83.7816 738.881 82.8036H746.162C746.041 84.9286 745.461 86.8001 744.423 88.418C743.397 90.0238 741.978 91.2795 740.167 92.185C738.356 93.0906 736.213 93.5433 733.738 93.5433ZM763.67 93.5433C760.857 93.5433 758.424 92.9457 756.372 91.7504C754.331 90.543 752.755 88.8647 751.645 86.7156C750.534 84.5543 749.978 82.049 749.978 79.1996C749.978 76.326 750.534 73.8146 751.645 71.6655C752.755 69.5043 754.331 67.826 756.372 66.6307C758.424 65.4233 760.857 64.8196 763.67 64.8196C766.483 64.8196 768.91 65.4233 770.951 66.6307C773.003 67.826 774.585 69.5043 775.696 71.6655C776.807 73.8146 777.362 76.326 777.362 79.1996C777.362 82.049 776.807 84.5543 775.696 86.7156C774.585 88.8647 773.003 90.543 770.951 91.7504C768.91 92.9457 766.483 93.5433 763.67 93.5433ZM763.706 87.5668C764.986 87.5668 766.055 87.2045 766.912 86.4801C767.769 85.7436 768.415 84.7415 768.85 83.4737C769.297 82.206 769.52 80.7631 769.52 79.1452C769.52 77.5273 769.297 76.0845 768.85 74.8168C768.415 73.549 767.769 72.5469 766.912 71.8104C766.055 71.0739 764.986 70.7056 763.706 70.7056C762.415 70.7056 761.328 71.0739 760.446 71.8104C759.577 72.5469 758.919 73.549 758.472 74.8168C758.038 76.0845 757.82 77.5273 757.82 79.1452C757.82 80.7631 758.038 82.206 758.472 83.4737C758.919 84.7415 759.577 85.7436 760.446 86.4801C761.328 87.2045 762.415 87.5668 763.706 87.5668ZM782.379 93V65.1818H789.732V70.0898H790.058C790.637 68.4599 791.603 67.174 792.955 66.2322C794.308 65.2905 795.926 64.8196 797.809 64.8196C799.717 64.8196 801.341 65.2965 802.681 66.2504C804.021 67.1921 804.915 68.4719 805.361 70.0898H805.651C806.218 68.4961 807.245 67.2223 808.73 66.2685C810.227 65.3026 811.996 64.8196 814.036 64.8196C816.632 64.8196 818.739 65.6467 820.357 67.3008C821.987 68.9428 822.802 71.2731 822.802 74.2915V93H815.105V75.8129C815.105 74.2674 814.694 73.1083 813.873 72.3356C813.052 71.5629 812.026 71.1765 810.794 71.1765C809.394 71.1765 808.301 71.6232 807.516 72.5167C806.732 73.3981 806.339 74.5632 806.339 76.0121V93H798.859V75.6499C798.859 74.2855 798.467 73.1989 797.682 72.3899C796.91 71.581 795.889 71.1765 794.622 71.1765C793.764 71.1765 792.992 71.3938 792.303 71.8285C791.627 72.2511 791.09 72.8487 790.691 73.6214C790.293 74.3821 790.094 75.2756 790.094 76.3018V93H782.379ZM840.845 93V55.9091H855.478C858.292 55.9091 860.688 56.4464 862.668 57.521C864.648 58.5835 866.158 60.0625 867.196 61.9581C868.246 63.8416 868.772 66.0149 868.772 68.478C868.772 70.9411 868.24 73.1143 867.178 74.9979C866.115 76.8814 864.576 78.3484 862.56 79.3988C860.555 80.4492 858.129 80.9744 855.279 80.9744H845.952V74.69H854.011C855.521 74.69 856.764 74.4304 857.742 73.9112C858.732 73.38 859.469 72.6495 859.952 71.7198C860.447 70.7781 860.694 69.6974 860.694 68.478C860.694 67.2464 860.447 66.1719 859.952 65.2543C859.469 64.3246 858.732 63.6062 857.742 63.0991C856.752 62.5799 855.496 62.3203 853.975 62.3203H848.687V93H840.845ZM885.841 93.5433C883.028 93.5433 880.595 92.9457 878.542 91.7504C876.502 90.543 874.926 88.8647 873.816 86.7156C872.705 84.5543 872.149 82.049 872.149 79.1996C872.149 76.326 872.705 73.8146 873.816 71.6655C874.926 69.5043 876.502 67.826 878.542 66.6307C880.595 65.4233 883.028 64.8196 885.841 64.8196C888.654 64.8196 891.081 65.4233 893.122 66.6307C895.174 67.826 896.756 69.5043 897.867 71.6655C898.977 73.8146 899.533 76.326 899.533 79.1996C899.533 82.049 898.977 84.5543 897.867 86.7156C896.756 88.8647 895.174 90.543 893.122 91.7504C891.081 92.9457 888.654 93.5433 885.841 93.5433ZM885.877 87.5668C887.157 87.5668 888.226 87.2045 889.083 86.4801C889.94 85.7436 890.586 84.7415 891.021 83.4737C891.468 82.206 891.691 80.7631 891.691 79.1452C891.691 77.5273 891.468 76.0845 891.021 74.8168C890.586 73.549 889.94 72.5469 889.083 71.8104C888.226 71.0739 887.157 70.7056 885.877 70.7056C884.585 70.7056 883.499 71.0739 882.617 71.8104C881.748 72.5469 881.09 73.549 880.643 74.8168C880.209 76.0845 879.991 77.5273 879.991 79.1452C879.991 80.7631 880.209 82.206 880.643 83.4737C881.09 84.7415 881.748 85.7436 882.617 86.4801C883.499 87.2045 884.585 87.5668 885.877 87.5668ZM909.34 93L901.77 65.1818H909.575L913.886 83.8722H914.139L918.631 65.1818H926.292L930.855 83.7635H931.091L935.329 65.1818H943.116L935.564 93H927.396L922.615 75.505H922.271L917.49 93H909.34ZM959.212 93.5433C956.351 93.5433 953.888 92.9638 951.823 91.8047C949.771 90.6335 948.189 88.9794 947.078 86.8423C945.967 84.6932 945.412 82.1516 945.412 79.2177C945.412 76.3562 945.967 73.8448 947.078 71.6836C948.189 69.5224 949.753 67.8381 951.769 66.6307C953.797 65.4233 956.176 64.8196 958.905 64.8196C960.74 64.8196 962.448 65.1154 964.03 65.707C965.624 66.2866 967.012 67.1619 968.195 68.3331C969.391 69.5043 970.32 70.9773 970.984 72.7521C971.649 74.5149 971.981 76.5795 971.981 78.946V81.065H948.491V76.2837H964.718C964.718 75.1729 964.477 74.1889 963.994 73.3317C963.511 72.4744 962.841 71.8043 961.983 71.3214C961.138 70.8263 960.154 70.5788 959.031 70.5788C957.86 70.5788 956.822 70.8505 955.916 71.3938C955.023 71.9251 954.323 72.6435 953.815 73.549C953.308 74.4425 953.049 75.4386 953.037 76.5373V81.0831C953.037 82.4595 953.29 83.6488 953.797 84.6509C954.316 85.6531 955.047 86.4258 955.989 86.9691C956.93 87.5124 958.047 87.7841 959.339 87.7841C960.196 87.7841 960.981 87.6634 961.694 87.4219C962.406 87.1804 963.016 86.8182 963.523 86.3352C964.03 85.8523 964.416 85.2607 964.682 84.5604L971.818 85.0312C971.455 86.7457 970.713 88.2429 969.59 89.5227C968.479 90.7905 967.042 91.7805 965.28 92.4929C963.529 93.1932 961.506 93.5433 959.212 93.5433ZM977.015 93V65.1818H984.495V70.0355H984.785C985.292 68.3089 986.143 67.005 987.339 66.1236C988.534 65.2301 989.91 64.7834 991.468 64.7834C991.854 64.7834 992.271 64.8075 992.717 64.8558C993.164 64.9041 993.557 64.9705 993.895 65.055V71.9009C993.532 71.7923 993.031 71.6957 992.391 71.6111C991.752 71.5266 991.166 71.4844 990.635 71.4844C989.5 71.4844 988.486 71.7319 987.592 72.2269C986.711 72.7099 986.01 73.386 985.491 74.2553C984.984 75.1246 984.731 76.1268 984.731 77.2617V93H977.015ZM1009.83 93V55.9091H1024.68C1027.41 55.9091 1029.69 56.3136 1031.51 57.1225C1033.33 57.9315 1034.7 59.0543 1035.62 60.4911C1036.54 61.9158 1037 63.5579 1037 65.4173C1037 66.8661 1036.71 68.1399 1036.13 69.2386C1035.55 70.3253 1034.75 71.2187 1033.74 71.919C1032.74 72.6072 1031.59 73.0962 1030.3 73.386V73.7482C1031.71 73.8086 1033.03 74.207 1034.26 74.9435C1035.51 75.68 1036.52 76.7124 1037.29 78.0405C1038.06 79.3565 1038.45 80.9261 1038.45 82.7493C1038.45 84.7173 1037.96 86.4741 1036.98 88.0195C1036.01 89.5529 1034.58 90.7663 1032.69 91.6598C1030.79 92.5533 1028.46 93 1025.68 93H1009.83ZM1017.67 86.5888H1024.07C1026.25 86.5888 1027.85 86.1722 1028.85 85.3391C1029.85 84.494 1030.35 83.3711 1030.35 81.9705C1030.35 80.9442 1030.1 80.0387 1029.61 79.2539C1029.11 78.4691 1028.41 77.8533 1027.49 77.4066C1026.58 76.9599 1025.5 76.7365 1024.25 76.7365H1017.67V86.5888ZM1017.67 71.43H1023.49C1024.56 71.43 1025.52 71.2429 1026.35 70.8686C1027.19 70.4822 1027.86 69.9389 1028.34 69.2386C1028.84 68.5384 1029.08 67.6992 1029.08 66.7212C1029.08 65.381 1028.61 64.3004 1027.65 63.4794C1026.71 62.6584 1025.37 62.2479 1023.63 62.2479H1017.67V71.43ZM1051.39 55.9091V93H1043.55V55.9091H1051.39Z" fill="white"/>
<path d="M210.985 201.5H208.013C207.981 200.381 207.757 199.348 207.342 198.4C206.926 197.441 206.345 196.605 205.6 195.891C204.854 195.177 203.964 194.623 202.931 194.229C201.908 193.835 200.763 193.638 199.495 193.638C197.407 193.638 195.41 194.186 193.503 195.284C191.596 196.37 189.955 197.968 188.581 200.078C187.207 202.187 186.269 204.765 185.768 207.812C185.268 210.816 185.348 213.347 186.008 215.403C186.669 217.448 187.75 218.998 189.252 220.053C190.765 221.108 192.539 221.635 194.573 221.635C195.873 221.635 197.12 221.438 198.313 221.044C199.506 220.65 200.603 220.101 201.605 219.398C202.606 218.684 203.485 217.848 204.241 216.889C204.998 215.93 205.584 214.891 205.999 213.773H209.003C208.481 215.275 207.752 216.676 206.814 217.975C205.877 219.265 204.769 220.394 203.49 221.363C202.223 222.333 200.822 223.089 199.288 223.632C197.764 224.176 196.145 224.447 194.43 224.447C191.638 224.447 189.279 223.75 187.35 222.354C185.433 220.958 184.069 218.993 183.259 216.457C182.46 213.911 182.349 210.912 182.924 207.461C183.489 204.073 184.57 201.132 186.168 198.64C187.777 196.147 189.747 194.224 192.081 192.871C194.414 191.507 196.949 190.825 199.687 190.825C201.434 190.825 203 191.097 204.385 191.64C205.77 192.173 206.947 192.929 207.917 193.909C208.897 194.879 209.648 196.008 210.17 197.297C210.692 198.586 210.964 199.987 210.985 201.5ZM223.581 224.511C221.291 224.511 219.4 223.979 217.908 222.913C216.417 221.837 215.373 220.351 214.776 218.455C214.18 216.548 214.089 214.353 214.505 211.871C214.92 209.4 215.74 207.205 216.966 205.287C218.191 203.359 219.703 201.852 221.504 200.765C223.304 199.668 225.259 199.119 227.369 199.119C228.7 199.119 229.947 199.364 231.108 199.854C232.269 200.333 233.255 201.074 234.064 202.075C234.885 203.066 235.455 204.318 235.774 205.831C236.094 207.333 236.083 209.112 235.742 211.168L235.518 212.574H216.342L216.742 210.065H233.026C233.292 208.489 233.217 207.072 232.802 205.815C232.386 204.558 231.678 203.561 230.676 202.826C229.686 202.081 228.455 201.708 226.985 201.708C225.483 201.708 224.061 202.129 222.718 202.97C221.387 203.812 220.257 204.909 219.331 206.262C218.414 207.604 217.823 209.037 217.557 210.561L217.237 212.446C216.896 214.524 216.939 216.266 217.365 217.672C217.791 219.067 218.564 220.122 219.682 220.836C220.801 221.55 222.234 221.907 223.981 221.907C225.153 221.907 226.213 221.725 227.161 221.363C228.109 221.001 228.935 220.516 229.638 219.909C230.341 219.291 230.906 218.615 231.332 217.88L233.873 218.759C233.329 219.792 232.562 220.745 231.571 221.619C230.591 222.493 229.425 223.196 228.072 223.728C226.729 224.25 225.233 224.511 223.581 224.511ZM239.869 224L243.96 199.455H246.725L246.085 203.226H246.293C246.975 201.99 247.992 200.994 249.345 200.238C250.709 199.471 252.163 199.087 253.708 199.087C253.942 199.087 254.203 199.092 254.491 199.103C254.778 199.103 255.018 199.114 255.21 199.135L254.715 202.027C254.587 202.006 254.363 201.974 254.043 201.931C253.734 201.889 253.388 201.868 253.005 201.868C251.726 201.868 250.544 202.139 249.457 202.683C248.381 203.215 247.476 203.956 246.741 204.904C246.016 205.852 245.547 206.933 245.334 208.148L242.714 224H239.869ZM271.25 199.455L270.85 201.931H259.121L259.537 199.455H271.25ZM264.155 193.574H267.015L263.02 217.592C262.85 218.615 262.892 219.419 263.148 220.005C263.404 220.58 263.798 220.99 264.331 221.235C264.863 221.47 265.449 221.587 266.088 221.587C266.461 221.587 266.781 221.566 267.047 221.523C267.324 221.47 267.569 221.417 267.782 221.363L267.99 223.936C267.681 224.043 267.314 224.138 266.887 224.224C266.461 224.32 265.95 224.368 265.353 224.368C264.309 224.368 263.345 224.138 262.461 223.68C261.577 223.222 260.906 222.54 260.447 221.635C259.989 220.729 259.867 219.605 260.08 218.263L264.155 193.574ZM273.651 224L277.742 199.455H280.602L276.511 224H273.651ZM280.203 195.188C279.606 195.188 279.1 194.985 278.685 194.581C278.28 194.176 278.083 193.686 278.093 193.11C278.115 192.567 278.333 192.098 278.749 191.704C279.175 191.299 279.676 191.097 280.251 191.097C280.847 191.097 281.353 191.305 281.769 191.72C282.184 192.125 282.381 192.615 282.36 193.19C282.35 193.734 282.131 194.202 281.705 194.597C281.279 194.991 280.778 195.188 280.203 195.188ZM298.224 199.455L297.809 201.931H285.76L286.159 199.455H298.224ZM285.84 224L290.522 195.859C290.735 194.538 291.22 193.425 291.976 192.519C292.743 191.614 293.659 190.926 294.725 190.458C295.79 189.989 296.882 189.755 298.001 189.755C298.746 189.755 299.354 189.819 299.822 189.946C300.291 190.064 300.659 190.181 300.925 190.298L299.711 192.791C299.498 192.727 299.242 192.652 298.944 192.567C298.656 192.482 298.278 192.439 297.809 192.439C296.573 192.439 295.561 192.786 294.773 193.478C293.984 194.17 293.478 195.161 293.255 196.45L288.684 224H285.84ZM299.842 224L303.933 199.455H306.794L302.703 224H299.842ZM306.394 195.188C305.798 195.188 305.292 194.985 304.876 194.581C304.471 194.176 304.274 193.686 304.285 193.11C304.306 192.567 304.525 192.098 304.94 191.704C305.366 191.299 305.867 191.097 306.442 191.097C307.039 191.097 307.545 191.305 307.96 191.72C308.376 192.125 308.573 192.615 308.552 193.19C308.541 193.734 308.323 194.202 307.896 194.597C307.47 194.991 306.97 195.188 306.394 195.188ZM319.75 224.511C317.534 224.511 315.707 223.963 314.268 222.865C312.83 221.768 311.824 220.266 311.248 218.359C310.684 216.441 310.604 214.268 311.009 211.839C311.413 209.368 312.228 207.178 313.453 205.271C314.679 203.354 316.191 201.852 317.992 200.765C319.803 199.668 321.779 199.119 323.92 199.119C325.572 199.119 327.01 199.439 328.235 200.078C329.46 200.706 330.408 201.596 331.08 202.746C331.751 203.886 332.07 205.218 332.038 206.741H329.162C329.087 205.325 328.571 204.131 327.612 203.162C326.664 202.192 325.321 201.708 323.585 201.708C321.998 201.708 320.527 202.134 319.174 202.986C317.821 203.828 316.676 205.005 315.739 206.518C314.812 208.02 314.189 209.762 313.869 211.743C313.528 213.735 313.56 215.499 313.965 217.033C314.37 218.556 315.094 219.749 316.138 220.612C317.193 221.475 318.525 221.907 320.133 221.907C321.23 221.907 322.264 221.704 323.233 221.299C324.203 220.884 325.06 220.298 325.806 219.542C326.552 218.775 327.122 217.874 327.516 216.841H330.392C329.913 218.332 329.157 219.653 328.123 220.804C327.1 221.955 325.875 222.86 324.448 223.521C323.02 224.181 321.454 224.511 319.75 224.511ZM342.066 224.559C340.585 224.559 339.28 224.272 338.151 223.696C337.021 223.11 336.18 222.269 335.626 221.172C335.083 220.064 334.933 218.721 335.178 217.145C335.392 215.93 335.796 214.907 336.393 214.076C337 213.245 337.767 212.564 338.694 212.031C339.621 211.488 340.686 211.061 341.89 210.752C343.094 210.444 344.404 210.209 345.821 210.049C347.206 209.879 348.389 209.73 349.369 209.602C350.349 209.474 351.111 209.272 351.654 208.995C352.197 208.718 352.522 208.27 352.629 207.652L352.725 207.077C353.002 205.404 352.746 204.089 351.958 203.13C351.169 202.161 349.848 201.676 347.994 201.676C346.226 201.676 344.692 202.07 343.392 202.858C342.103 203.636 341.144 204.547 340.516 205.591L337.991 204.616C338.758 203.274 339.701 202.203 340.819 201.404C341.938 200.594 343.137 200.014 344.415 199.662C345.693 199.3 346.956 199.119 348.202 199.119C349.14 199.119 350.093 199.241 351.063 199.487C352.032 199.732 352.9 200.158 353.667 200.765C354.445 201.362 355.015 202.198 355.377 203.274C355.75 204.339 355.803 205.692 355.537 207.333L352.757 224H349.912L350.567 220.117H350.392C349.944 220.841 349.326 221.544 348.538 222.226C347.76 222.908 346.828 223.467 345.741 223.904C344.655 224.341 343.43 224.559 342.066 224.559ZM342.785 221.955C344.298 221.955 345.667 221.619 346.892 220.948C348.128 220.277 349.14 219.387 349.928 218.279C350.727 217.161 351.238 215.93 351.462 214.588L352.053 211.04C351.819 211.243 351.436 211.424 350.903 211.583C350.381 211.743 349.79 211.887 349.129 212.015C348.479 212.132 347.824 212.233 347.164 212.319C346.514 212.404 345.938 212.478 345.438 212.542C344.021 212.713 342.785 212.979 341.73 213.341C340.686 213.703 339.85 214.204 339.221 214.843C338.593 215.472 338.199 216.282 338.039 217.272C337.794 218.764 338.119 219.92 339.014 220.74C339.919 221.55 341.176 221.955 342.785 221.955ZM369.112 224.511C367.099 224.511 365.421 223.979 364.078 222.913C362.736 221.848 361.799 220.362 361.266 218.455C360.733 216.548 360.675 214.327 361.09 211.791C361.516 209.266 362.31 207.056 363.471 205.159C364.643 203.252 366.076 201.772 367.77 200.717C369.474 199.652 371.333 199.119 373.347 199.119C374.849 199.119 376.048 199.385 376.942 199.918C377.848 200.44 378.535 201.09 379.004 201.868C379.473 202.645 379.808 203.402 380.011 204.137H380.266L382.408 191.273H385.268L379.835 224H377.07L377.837 219.446H377.486C377.028 220.191 376.426 220.958 375.68 221.747C374.945 222.525 374.039 223.18 372.963 223.712C371.887 224.245 370.604 224.511 369.112 224.511ZM369.735 221.907C371.323 221.907 372.756 221.475 374.034 220.612C375.323 219.739 376.399 218.54 377.262 217.017C378.136 215.483 378.732 213.725 379.052 211.743C379.382 209.783 379.377 208.052 379.036 206.55C378.695 205.037 378.034 203.854 377.054 203.002C376.074 202.139 374.78 201.708 373.171 201.708C371.541 201.708 370.092 202.155 368.825 203.05C367.557 203.934 366.507 205.133 365.676 206.646C364.856 208.158 364.286 209.858 363.967 211.743C363.658 213.65 363.658 215.371 363.967 216.905C364.276 218.439 364.904 219.659 365.852 220.564C366.811 221.459 368.105 221.907 369.735 221.907ZM397.573 224.511C395.421 224.511 393.61 223.968 392.14 222.881C390.669 221.784 389.631 220.266 389.023 218.327C388.416 216.388 388.315 214.151 388.72 211.615C389.125 209.144 389.929 206.971 391.133 205.096C392.347 203.21 393.839 201.745 395.607 200.701C397.376 199.646 399.299 199.119 401.376 199.119C403.539 199.119 405.35 199.668 406.809 200.765C408.279 201.862 409.318 203.38 409.925 205.319C410.543 207.258 410.65 209.501 410.245 212.047C409.84 214.508 409.031 216.676 407.816 218.551C406.602 220.415 405.11 221.875 403.342 222.929C401.584 223.984 399.661 224.511 397.573 224.511ZM397.605 221.907C399.352 221.907 400.907 221.443 402.271 220.516C403.645 219.579 404.78 218.332 405.675 216.777C406.57 215.211 407.172 213.49 407.48 211.615C407.768 209.826 407.736 208.18 407.385 206.678C407.033 205.175 406.357 203.972 405.355 203.066C404.354 202.161 403.022 201.708 401.36 201.708C399.624 201.708 398.068 202.182 396.694 203.13C395.32 204.067 394.185 205.325 393.29 206.901C392.395 208.467 391.799 210.183 391.5 212.047C391.202 213.847 391.223 215.493 391.564 216.985C391.916 218.476 392.592 219.669 393.594 220.564C394.606 221.459 395.943 221.907 397.605 221.907ZM435.953 224.511C433.94 224.511 432.262 223.979 430.919 222.913C429.577 221.848 428.639 220.362 428.107 218.455C427.574 216.548 427.516 214.327 427.931 211.791C428.357 209.266 429.151 207.056 430.312 205.159C431.484 203.252 432.917 201.772 434.611 200.717C436.315 199.652 438.174 199.119 440.188 199.119C441.69 199.119 442.888 199.385 443.783 199.918C444.689 200.44 445.376 201.09 445.845 201.868C446.313 202.645 446.649 203.402 446.851 204.137H447.107L449.248 191.273H452.109L446.676 224H443.911L444.678 219.446H444.327C443.869 220.191 443.267 220.958 442.521 221.747C441.786 222.525 440.88 223.18 439.804 223.712C438.728 224.245 437.445 224.511 435.953 224.511ZM436.576 221.907C438.164 221.907 439.597 221.475 440.875 220.612C442.164 219.739 443.24 218.54 444.103 217.017C444.976 215.483 445.573 213.725 445.893 211.743C446.223 209.783 446.218 208.052 445.877 206.55C445.536 205.037 444.875 203.854 443.895 203.002C442.915 202.139 441.621 201.708 440.012 201.708C438.382 201.708 436.933 202.155 435.665 203.05C434.398 203.934 433.348 205.133 432.517 206.646C431.697 208.158 431.127 209.858 430.807 211.743C430.498 213.65 430.498 215.371 430.807 216.905C431.116 218.439 431.745 219.659 432.693 220.564C433.652 221.459 434.946 221.907 436.576 221.907ZM464.414 224.511C462.262 224.511 460.451 223.968 458.98 222.881C457.51 221.784 456.472 220.266 455.864 218.327C455.257 216.388 455.156 214.151 455.561 211.615C455.965 209.144 456.77 206.971 457.974 205.096C459.188 203.21 460.68 201.745 462.448 200.701C464.217 199.646 466.139 199.119 468.217 199.119C470.38 199.119 472.191 199.668 473.65 200.765C475.12 201.862 476.159 203.38 476.766 205.319C477.384 207.258 477.491 209.501 477.086 212.047C476.681 214.508 475.871 216.676 474.657 218.551C473.442 220.415 471.951 221.875 470.182 222.929C468.425 223.984 466.502 224.511 464.414 224.511ZM464.446 221.907C466.193 221.907 467.748 221.443 469.112 220.516C470.486 219.579 471.621 218.332 472.516 216.777C473.41 215.211 474.012 213.49 474.321 211.615C474.609 209.826 474.577 208.18 474.225 206.678C473.874 205.175 473.197 203.972 472.196 203.066C471.195 202.161 469.863 201.708 468.201 201.708C466.464 201.708 464.909 202.182 463.535 203.13C462.16 204.067 461.026 205.325 460.131 206.901C459.236 208.467 458.639 210.183 458.341 212.047C458.043 213.847 458.064 215.493 458.405 216.985C458.757 218.476 459.433 219.669 460.435 220.564C461.447 221.459 462.784 221.907 464.446 221.907ZM503.529 224.511C501.313 224.511 499.486 223.963 498.048 222.865C496.61 221.768 495.603 220.266 495.028 218.359C494.463 216.441 494.383 214.268 494.788 211.839C495.193 209.368 496.008 207.178 497.233 205.271C498.458 203.354 499.971 201.852 501.771 200.765C503.582 199.668 505.558 199.119 507.7 199.119C509.351 199.119 510.789 199.439 512.014 200.078C513.24 200.706 514.188 201.596 514.859 202.746C515.53 203.886 515.85 205.218 515.818 206.741H512.941C512.867 205.325 512.35 204.131 511.391 203.162C510.443 202.192 509.101 201.708 507.364 201.708C505.777 201.708 504.307 202.134 502.954 202.986C501.601 203.828 500.455 205.005 499.518 206.518C498.591 208.02 497.968 209.762 497.648 211.743C497.307 213.735 497.339 215.499 497.744 217.033C498.149 218.556 498.873 219.749 499.917 220.612C500.972 221.475 502.304 221.907 503.912 221.907C505.01 221.907 506.043 221.704 507.013 221.299C507.982 220.884 508.84 220.298 509.585 219.542C510.331 218.775 510.901 217.874 511.295 216.841H514.172C513.692 218.332 512.936 219.653 511.903 220.804C510.88 221.955 509.655 222.86 508.227 223.521C506.8 224.181 505.233 224.511 503.529 224.511ZM536.2 214.62L538.741 199.455H541.586L537.495 224H534.65L535.321 219.925H535.114C534.347 221.182 533.26 222.232 531.854 223.073C530.458 223.904 528.86 224.32 527.06 224.32C525.494 224.32 524.157 223.979 523.049 223.297C521.951 222.604 521.168 221.592 520.7 220.261C520.231 218.929 520.156 217.294 520.476 215.355L523.145 199.455H525.989L523.368 215.179C523.059 217.097 523.368 218.641 524.295 219.813C525.233 220.974 526.586 221.555 528.354 221.555C529.462 221.555 530.57 221.289 531.678 220.756C532.797 220.223 533.766 219.446 534.586 218.423C535.417 217.39 535.955 216.122 536.2 214.62ZM545.025 224L549.116 199.455H551.881L551.242 203.226H551.449C552.131 201.99 553.149 200.994 554.502 200.238C555.865 199.471 557.319 199.087 558.864 199.087C559.098 199.087 559.359 199.092 559.647 199.103C559.935 199.103 560.174 199.114 560.366 199.135L559.871 202.027C559.743 202.006 559.519 201.974 559.2 201.931C558.891 201.889 558.544 201.868 558.161 201.868C556.883 201.868 555.7 202.139 554.613 202.683C553.537 203.215 552.632 203.956 551.897 204.904C551.172 205.852 550.704 206.933 550.491 208.148L547.87 224H545.025ZM580.797 204.84L578.064 205.543C577.926 204.808 577.67 204.147 577.297 203.561C576.935 202.965 576.408 202.496 575.715 202.155C575.033 201.804 574.138 201.628 573.03 201.628C571.369 201.628 569.936 202.033 568.732 202.842C567.528 203.641 566.825 204.664 566.622 205.911C566.452 206.955 566.67 207.801 567.278 208.451C567.896 209.101 568.929 209.613 570.378 209.985L573.957 210.896C575.939 211.408 577.35 212.207 578.192 213.293C579.044 214.38 579.337 215.754 579.071 217.416C578.837 218.801 578.245 220.026 577.297 221.092C576.36 222.157 575.156 222.993 573.686 223.6C572.226 224.208 570.596 224.511 568.796 224.511C566.377 224.511 564.476 223.968 563.091 222.881C561.717 221.795 560.981 220.229 560.886 218.183L563.746 217.544C563.831 218.993 564.327 220.09 565.232 220.836C566.148 221.582 567.437 221.955 569.099 221.955C570.996 221.955 572.588 221.523 573.877 220.66C575.166 219.797 575.907 218.732 576.099 217.464C576.28 216.463 576.093 215.632 575.539 214.971C574.996 214.311 574.069 213.821 572.759 213.501L568.94 212.542C566.883 212.02 565.429 211.205 564.577 210.097C563.735 208.979 563.453 207.599 563.73 205.958C563.954 204.605 564.518 203.418 565.424 202.395C566.329 201.372 567.475 200.573 568.86 199.998C570.245 199.412 571.757 199.119 573.398 199.119C575.657 199.119 577.377 199.63 578.56 200.653C579.742 201.665 580.488 203.061 580.797 204.84ZM593.833 224.511C591.681 224.511 589.869 223.968 588.399 222.881C586.929 221.784 585.89 220.266 585.283 218.327C584.676 216.388 584.575 214.151 584.98 211.615C585.384 209.144 586.189 206.971 587.393 205.096C588.607 203.21 590.099 201.745 591.867 200.701C593.635 199.646 595.558 199.119 597.636 199.119C599.798 199.119 601.61 199.668 603.069 200.765C604.539 201.862 605.578 203.38 606.185 205.319C606.803 207.258 606.91 209.501 606.505 212.047C606.1 214.508 605.29 216.676 604.076 218.551C602.861 220.415 601.37 221.875 599.601 222.929C597.844 223.984 595.921 224.511 593.833 224.511ZM593.865 221.907C595.612 221.907 597.167 221.443 598.531 220.516C599.905 219.579 601.04 218.332 601.934 216.777C602.829 215.211 603.431 213.49 603.74 211.615C604.028 209.826 603.996 208.18 603.644 206.678C603.293 205.175 602.616 203.972 601.615 203.066C600.613 202.161 599.282 201.708 597.62 201.708C595.883 201.708 594.328 202.182 592.954 203.13C591.579 204.067 590.445 205.325 589.55 206.901C588.655 208.467 588.058 210.183 587.76 212.047C587.462 213.847 587.483 215.493 587.824 216.985C588.176 218.476 588.852 219.669 589.854 220.564C590.866 221.459 592.203 221.907 593.865 221.907ZM632.213 224.511C630.199 224.511 628.521 223.979 627.179 222.913C625.837 221.848 624.899 220.362 624.367 218.455C623.834 216.548 623.775 214.327 624.191 211.791C624.617 209.266 625.411 207.056 626.572 205.159C627.744 203.252 629.177 201.772 630.87 200.717C632.575 199.652 634.434 199.119 636.448 199.119C637.95 199.119 639.148 199.385 640.043 199.918C640.949 200.44 641.636 201.09 642.104 201.868C642.573 202.645 642.909 203.402 643.111 204.137H643.367L645.508 191.273H648.369L642.935 224H640.171L640.938 219.446H640.586C640.128 220.191 639.526 220.958 638.781 221.747C638.046 222.525 637.14 223.18 636.064 223.712C634.988 224.245 633.704 224.511 632.213 224.511ZM632.836 221.907C634.423 221.907 635.856 221.475 637.135 220.612C638.424 219.739 639.5 218.54 640.363 217.017C641.236 215.483 641.833 213.725 642.152 211.743C642.483 209.783 642.477 208.052 642.136 206.55C641.796 205.037 641.135 203.854 640.155 203.002C639.175 202.139 637.88 201.708 636.272 201.708C634.642 201.708 633.193 202.155 631.925 203.05C630.657 203.934 629.608 205.133 628.777 206.646C627.957 208.158 627.387 209.858 627.067 211.743C626.758 213.65 626.758 215.371 627.067 216.905C627.376 218.439 628.005 219.659 628.953 220.564C629.912 221.459 631.206 221.907 632.836 221.907ZM660.881 224.511C658.591 224.511 656.7 223.979 655.208 222.913C653.717 221.837 652.673 220.351 652.076 218.455C651.479 216.548 651.389 214.353 651.804 211.871C652.22 209.4 653.04 207.205 654.265 205.287C655.491 203.359 657.003 201.852 658.804 200.765C660.604 199.668 662.559 199.119 664.668 199.119C666 199.119 667.247 199.364 668.408 199.854C669.569 200.333 670.554 201.074 671.364 202.075C672.184 203.066 672.754 204.318 673.074 205.831C673.394 207.333 673.383 209.112 673.042 211.168L672.818 212.574H653.642L654.042 210.065H670.325C670.592 208.489 670.517 207.072 670.102 205.815C669.686 204.558 668.978 203.561 667.976 202.826C666.986 202.081 665.755 201.708 664.285 201.708C662.783 201.708 661.361 202.129 660.018 202.97C658.687 203.812 657.557 204.909 656.63 206.262C655.714 207.604 655.123 209.037 654.857 210.561L654.537 212.446C654.196 214.524 654.239 216.266 654.665 217.672C655.091 219.067 655.863 220.122 656.982 220.836C658.101 221.55 659.533 221.907 661.281 221.907C662.453 221.907 663.513 221.725 664.461 221.363C665.409 221.001 666.234 220.516 666.938 219.909C667.641 219.291 668.205 218.615 668.631 217.88L671.172 218.759C670.629 219.792 669.862 220.745 668.871 221.619C667.891 222.493 666.725 223.196 665.372 223.728C664.029 224.25 662.532 224.511 660.881 224.511ZM690.464 224H687.332L704.671 191.273H707.867L714.339 224H711.207L705.757 195.156H705.55L690.464 224ZM694.811 211.456H711.047L710.599 214.14H694.363L694.811 211.456ZM724.742 208.659L722.201 224H719.356L723.447 199.455H726.212L725.573 203.306H725.828C726.595 202.049 727.655 201.042 729.008 200.286C730.372 199.518 731.954 199.135 733.754 199.135C735.395 199.135 736.78 199.481 737.909 200.174C739.049 200.855 739.859 201.862 740.338 203.194C740.828 204.526 740.914 206.161 740.594 208.1L737.925 224H735.081L737.702 208.276C738.032 206.273 737.739 204.685 736.823 203.513C735.917 202.331 734.516 201.74 732.62 201.74C731.331 201.74 730.132 202.017 729.024 202.571C727.927 203.125 727 203.924 726.244 204.968C725.487 206.001 724.987 207.232 724.742 208.659ZM752.207 224.559C750.727 224.559 749.422 224.272 748.292 223.696C747.163 223.11 746.321 222.269 745.767 221.172C745.224 220.064 745.075 218.721 745.32 217.145C745.533 215.93 745.938 214.907 746.535 214.076C747.142 213.245 747.909 212.564 748.836 212.031C749.763 211.488 750.828 211.061 752.032 210.752C753.236 210.444 754.546 210.209 755.963 210.049C757.348 209.879 758.53 209.73 759.51 209.602C760.491 209.474 761.252 209.272 761.796 208.995C762.339 208.718 762.664 208.27 762.77 207.652L762.866 207.077C763.143 205.404 762.888 204.089 762.099 203.13C761.311 202.161 759.99 201.676 758.136 201.676C756.368 201.676 754.834 202.07 753.534 202.858C752.245 203.636 751.286 204.547 750.657 205.591L748.133 204.616C748.9 203.274 749.842 202.203 750.961 201.404C752.08 200.594 753.278 200.014 754.557 199.662C755.835 199.3 757.097 199.119 758.344 199.119C759.281 199.119 760.235 199.241 761.204 199.487C762.174 199.732 763.042 200.158 763.809 200.765C764.587 201.362 765.157 202.198 765.519 203.274C765.892 204.339 765.945 205.692 765.679 207.333L762.898 224H760.054L760.709 220.117H760.533C760.086 220.841 759.468 221.544 758.679 222.226C757.902 222.908 756.97 223.467 755.883 223.904C754.796 224.341 753.571 224.559 752.207 224.559ZM752.927 221.955C754.439 221.955 755.808 221.619 757.033 220.948C758.269 220.277 759.281 219.387 760.07 218.279C760.869 217.161 761.38 215.93 761.604 214.588L762.195 211.04C761.961 211.243 761.577 211.424 761.044 211.583C760.522 211.743 759.931 211.887 759.271 212.015C758.621 212.132 757.966 212.233 757.305 212.319C756.655 212.404 756.08 212.478 755.579 212.542C754.162 212.713 752.927 212.979 751.872 213.341C750.828 213.703 749.992 214.204 749.363 214.843C748.734 215.472 748.34 216.282 748.18 217.272C747.935 218.764 748.26 219.92 749.155 220.74C750.061 221.55 751.318 221.955 752.927 221.955ZM757.705 196.051L762.994 188.796H766.382L760.293 196.051H757.705ZM778.742 191.273L773.309 224H770.465L775.898 191.273H778.742ZM780.868 224L784.959 199.455H787.819L783.728 224H780.868ZM787.42 195.188C786.823 195.188 786.317 194.985 785.902 194.581C785.497 194.176 785.3 193.686 785.31 193.11C785.332 192.567 785.55 192.098 785.965 191.704C786.392 191.299 786.892 191.097 787.468 191.097C788.064 191.097 788.57 191.305 788.986 191.72C789.401 192.125 789.598 192.615 789.577 193.19C789.566 193.734 789.348 194.202 788.922 194.597C788.496 194.991 787.995 195.188 787.42 195.188ZM810.938 204.84L808.206 205.543C808.067 204.808 807.812 204.147 807.439 203.561C807.077 202.965 806.549 202.496 805.857 202.155C805.175 201.804 804.28 201.628 803.172 201.628C801.51 201.628 800.077 202.033 798.873 202.842C797.67 203.641 796.966 204.664 796.764 205.911C796.594 206.955 796.812 207.801 797.419 208.451C798.037 209.101 799.07 209.613 800.519 209.985L804.099 210.896C806.08 211.408 807.492 212.207 808.334 213.293C809.186 214.38 809.479 215.754 809.213 217.416C808.978 218.801 808.387 220.026 807.439 221.092C806.501 222.157 805.297 222.993 803.827 223.6C802.368 224.208 800.738 224.511 798.937 224.511C796.519 224.511 794.617 223.968 793.232 222.881C791.858 221.795 791.123 220.229 791.027 218.183L793.888 217.544C793.973 218.993 794.468 220.09 795.374 220.836C796.29 221.582 797.579 221.955 799.241 221.955C801.137 221.955 802.73 221.523 804.019 220.66C805.308 219.797 806.048 218.732 806.24 217.464C806.421 216.463 806.235 215.632 805.681 214.971C805.138 214.311 804.211 213.821 802.9 213.501L799.081 212.542C797.025 212.02 795.571 211.205 794.719 210.097C793.877 208.979 793.595 207.599 793.872 205.958C794.095 204.605 794.66 203.418 795.566 202.395C796.471 201.372 797.616 200.573 799.001 199.998C800.386 199.412 801.899 199.119 803.54 199.119C805.798 199.119 807.519 199.63 808.701 200.653C809.884 201.665 810.629 203.061 810.938 204.84ZM824.182 224.511C821.891 224.511 820 223.979 818.509 222.913C817.017 221.837 815.973 220.351 815.377 218.455C814.78 216.548 814.69 214.353 815.105 211.871C815.521 209.4 816.341 207.205 817.566 205.287C818.791 203.359 820.304 201.852 822.104 200.765C823.905 199.668 825.86 199.119 827.969 199.119C829.301 199.119 830.547 199.364 831.709 199.854C832.87 200.333 833.855 201.074 834.665 202.075C835.485 203.066 836.055 204.318 836.375 205.831C836.694 207.333 836.684 209.112 836.343 211.168L836.119 212.574H816.943L817.342 210.065H833.626C833.892 208.489 833.818 207.072 833.402 205.815C832.987 204.558 832.278 203.561 831.277 202.826C830.286 202.081 829.056 201.708 827.586 201.708C826.084 201.708 824.661 202.129 823.319 202.97C821.987 203.812 820.858 204.909 819.931 206.262C819.015 207.604 818.424 209.037 818.157 210.561L817.838 212.446C817.497 214.524 817.54 216.266 817.966 217.672C818.392 219.067 819.164 220.122 820.283 220.836C821.401 221.55 822.834 221.907 824.581 221.907C825.753 221.907 826.813 221.725 827.761 221.363C828.71 221.001 829.535 220.516 830.238 219.909C830.941 219.291 831.506 218.615 831.932 217.88L834.473 218.759C833.93 219.792 833.163 220.745 832.172 221.619C831.192 222.493 830.025 223.196 828.672 223.728C827.33 224.25 825.833 224.511 824.182 224.511ZM861.915 224.511C859.901 224.511 858.224 223.979 856.881 222.913C855.539 221.848 854.601 220.362 854.069 218.455C853.536 216.548 853.477 214.327 853.893 211.791C854.319 209.266 855.113 207.056 856.274 205.159C857.446 203.252 858.879 201.772 860.573 200.717C862.277 199.652 864.136 199.119 866.15 199.119C867.652 199.119 868.85 199.385 869.745 199.918C870.651 200.44 871.338 201.09 871.807 201.868C872.275 202.645 872.611 203.402 872.813 204.137H873.069L875.21 191.273H878.071L872.638 224H869.873L870.64 219.446H870.289C869.83 220.191 869.229 220.958 868.483 221.747C867.748 222.525 866.842 223.18 865.766 223.712C864.69 224.245 863.406 224.511 861.915 224.511ZM862.538 221.907C864.126 221.907 865.558 221.475 866.837 220.612C868.126 219.739 869.202 218.54 870.065 217.017C870.938 215.483 871.535 213.725 871.855 211.743C872.185 209.783 872.18 208.052 871.839 206.55C871.498 205.037 870.837 203.854 869.857 203.002C868.877 202.139 867.583 201.708 865.974 201.708C864.344 201.708 862.895 202.155 861.627 203.05C860.36 203.934 859.31 205.133 858.479 206.646C857.659 208.158 857.089 209.858 856.769 211.743C856.46 213.65 856.46 215.371 856.769 216.905C857.078 218.439 857.707 219.659 858.655 220.564C859.614 221.459 860.908 221.907 862.538 221.907ZM890.583 224.511C888.293 224.511 886.402 223.979 884.91 222.913C883.419 221.837 882.375 220.351 881.778 218.455C881.182 216.548 881.091 214.353 881.507 211.871C881.922 209.4 882.742 207.205 883.968 205.287C885.193 203.359 886.705 201.852 888.506 200.765C890.306 199.668 892.261 199.119 894.371 199.119C895.702 199.119 896.949 199.364 898.11 199.854C899.271 200.333 900.257 201.074 901.066 202.075C901.887 203.066 902.456 204.318 902.776 205.831C903.096 207.333 903.085 209.112 902.744 211.168L902.52 212.574H883.344L883.744 210.065H900.028C900.294 208.489 900.219 207.072 899.804 205.815C899.388 204.558 898.68 203.561 897.678 202.826C896.688 202.081 895.457 201.708 893.987 201.708C892.485 201.708 891.063 202.129 889.72 202.97C888.389 203.812 887.259 204.909 886.333 206.262C885.416 207.604 884.825 209.037 884.559 210.561L884.239 212.446C883.898 214.524 883.941 216.266 884.367 217.672C884.793 219.067 885.566 220.122 886.684 220.836C887.803 221.55 889.236 221.907 890.983 221.907C892.155 221.907 893.215 221.725 894.163 221.363C895.111 221.001 895.937 220.516 896.64 219.909C897.343 219.291 897.907 218.615 898.334 217.88L900.874 218.759C900.331 219.792 899.564 220.745 898.573 221.619C897.593 222.493 896.427 223.196 895.074 223.728C893.731 224.25 892.235 224.511 890.583 224.511ZM928.316 224.511C926.303 224.511 924.625 223.979 923.283 222.913C921.94 221.848 921.003 220.362 920.47 218.455C919.937 216.548 919.879 214.327 920.294 211.791C920.72 209.266 921.514 207.056 922.675 205.159C923.847 203.252 925.28 201.772 926.974 200.717C928.679 199.652 930.538 199.119 932.551 199.119C934.053 199.119 935.252 199.385 936.147 199.918C937.052 200.44 937.739 201.09 938.208 201.868C938.677 202.645 939.012 203.402 939.215 204.137H939.47L941.612 191.273H944.472L939.039 224H936.274L937.041 219.446H936.69C936.232 220.191 935.63 220.958 934.884 221.747C934.149 222.525 933.244 223.18 932.168 223.712C931.092 224.245 929.808 224.511 928.316 224.511ZM928.94 221.907C930.527 221.907 931.96 221.475 933.238 220.612C934.527 219.739 935.603 218.54 936.466 217.017C937.34 215.483 937.936 213.725 938.256 211.743C938.586 209.783 938.581 208.052 938.24 206.55C937.899 205.037 937.239 203.854 936.258 203.002C935.278 202.139 933.984 201.708 932.375 201.708C930.745 201.708 929.296 202.155 928.029 203.05C926.761 203.934 925.712 205.133 924.881 206.646C924.06 208.158 923.49 209.858 923.171 211.743C922.862 213.65 922.862 215.371 923.171 216.905C923.48 218.439 924.108 219.659 925.056 220.564C926.015 221.459 927.31 221.907 928.94 221.907ZM953.916 224.559C952.436 224.559 951.131 224.272 950.001 223.696C948.872 223.11 948.03 222.269 947.476 221.172C946.933 220.064 946.784 218.721 947.029 217.145C947.242 215.93 947.647 214.907 948.244 214.076C948.851 213.245 949.618 212.564 950.545 212.031C951.472 211.488 952.537 211.061 953.741 210.752C954.945 210.444 956.255 210.209 957.672 210.049C959.057 209.879 960.239 209.73 961.219 209.602C962.199 209.474 962.961 209.272 963.505 208.995C964.048 208.718 964.373 208.27 964.479 207.652L964.575 207.077C964.852 205.404 964.597 204.089 963.808 203.13C963.02 202.161 961.699 201.676 959.845 201.676C958.077 201.676 956.543 202.07 955.243 202.858C953.954 203.636 952.995 204.547 952.366 205.591L949.842 204.616C950.609 203.274 951.551 202.203 952.67 201.404C953.789 200.594 954.987 200.014 956.266 199.662C957.544 199.3 958.806 199.119 960.053 199.119C960.99 199.119 961.944 199.241 962.913 199.487C963.883 199.732 964.751 200.158 965.518 200.765C966.296 201.362 966.866 202.198 967.228 203.274C967.601 204.339 967.654 205.692 967.388 207.333L964.607 224H961.763L962.418 220.117H962.242C961.795 220.841 961.177 221.544 960.388 222.226C959.611 222.908 958.679 223.467 957.592 223.904C956.505 224.341 955.28 224.559 953.916 224.559ZM954.636 221.955C956.148 221.955 957.517 221.619 958.742 220.948C959.978 220.277 960.99 219.387 961.779 218.279C962.578 217.161 963.089 215.93 963.313 214.588L963.904 211.04C963.67 211.243 963.286 211.424 962.753 211.583C962.231 211.743 961.64 211.887 960.98 212.015C960.33 212.132 959.675 212.233 959.014 212.319C958.364 212.404 957.789 212.478 957.288 212.542C955.871 212.713 954.636 212.979 953.581 213.341C952.537 213.703 951.701 214.204 951.072 214.843C950.443 215.472 950.049 216.282 949.889 217.272C949.644 218.764 949.969 219.92 950.864 220.74C951.77 221.55 953.027 221.955 954.636 221.955ZM980.963 224.511C978.949 224.511 977.271 223.979 975.929 222.913C974.587 221.848 973.649 220.362 973.117 218.455C972.584 216.548 972.525 214.327 972.941 211.791C973.367 209.266 974.161 207.056 975.322 205.159C976.494 203.252 977.927 201.772 979.62 200.717C981.325 199.652 983.184 199.119 985.198 199.119C986.7 199.119 987.898 199.385 988.793 199.918C989.699 200.44 990.386 201.09 990.854 201.868C991.323 202.645 991.659 203.402 991.861 204.137H992.117L994.258 191.273H997.119L991.685 224H988.921L989.688 219.446H989.336C988.878 220.191 988.276 220.958 987.531 221.747C986.796 222.525 985.89 223.18 984.814 223.712C983.738 224.245 982.454 224.511 980.963 224.511ZM981.586 221.907C983.173 221.907 984.606 221.475 985.885 220.612C987.174 219.739 988.25 218.54 989.113 217.017C989.986 215.483 990.583 213.725 990.902 211.743C991.233 209.783 991.227 208.052 990.886 206.55C990.546 205.037 989.885 203.854 988.905 203.002C987.925 202.139 986.63 201.708 985.022 201.708C983.392 201.708 981.943 202.155 980.675 203.05C979.407 203.934 978.358 205.133 977.527 206.646C976.707 208.158 976.137 209.858 975.817 211.743C975.508 213.65 975.508 215.371 975.817 216.905C976.126 218.439 976.755 219.659 977.703 220.564C978.662 221.459 979.956 221.907 981.586 221.907ZM1009.42 224.511C1007.27 224.511 1005.46 223.968 1003.99 222.881C1002.52 221.784 1001.48 220.266 1000.87 218.327C1000.27 216.388 1000.17 214.151 1000.57 211.615C1000.98 209.144 1001.78 206.971 1002.98 205.096C1004.2 203.21 1005.69 201.745 1007.46 200.701C1009.23 199.646 1011.15 199.119 1013.23 199.119C1015.39 199.119 1017.2 199.668 1018.66 200.765C1020.13 201.862 1021.17 203.38 1021.78 205.319C1022.39 207.258 1022.5 209.501 1022.1 212.047C1021.69 214.508 1020.88 216.676 1019.67 218.551C1018.45 220.415 1016.96 221.875 1015.19 222.929C1013.43 223.984 1011.51 224.511 1009.42 224.511ZM1009.46 221.907C1011.2 221.907 1012.76 221.443 1014.12 220.516C1015.5 219.579 1016.63 218.332 1017.53 216.777C1018.42 215.211 1019.02 213.49 1019.33 211.615C1019.62 209.826 1019.59 208.18 1019.24 206.678C1018.88 205.175 1018.21 203.972 1017.21 203.066C1016.2 202.161 1014.87 201.708 1013.21 201.708C1011.47 201.708 1009.92 202.182 1008.54 203.13C1007.17 204.067 1006.04 205.325 1005.14 206.901C1004.25 208.467 1003.65 210.183 1003.35 212.047C1003.05 213.847 1003.07 215.493 1003.41 216.985C1003.77 218.476 1004.44 219.669 1005.44 220.564C1006.46 221.459 1007.79 221.907 1009.46 221.907ZM1046.05 204.84L1043.31 205.543C1043.17 204.808 1042.92 204.147 1042.55 203.561C1042.18 202.965 1041.66 202.496 1040.96 202.155C1040.28 201.804 1039.39 201.628 1038.28 201.628C1036.62 201.628 1035.18 202.033 1033.98 202.842C1032.78 203.641 1032.07 204.664 1031.87 205.911C1031.7 206.955 1031.92 207.801 1032.53 208.451C1033.14 209.101 1034.18 209.613 1035.63 209.985L1039.21 210.896C1041.19 211.408 1042.6 212.207 1043.44 213.293C1044.29 214.38 1044.59 215.754 1044.32 217.416C1044.09 218.801 1043.49 220.026 1042.55 221.092C1041.61 222.157 1040.4 222.993 1038.93 223.6C1037.48 224.208 1035.85 224.511 1034.04 224.511C1031.63 224.511 1029.72 223.968 1028.34 222.881C1026.97 221.795 1026.23 220.229 1026.13 218.183L1029 217.544C1029.08 218.993 1029.58 220.09 1030.48 220.836C1031.4 221.582 1032.69 221.955 1034.35 221.955C1036.24 221.955 1037.84 221.523 1039.13 220.66C1040.42 219.797 1041.16 218.732 1041.35 217.464C1041.53 216.463 1041.34 215.632 1040.79 214.971C1040.25 214.311 1039.32 213.821 1038.01 213.501L1034.19 212.542C1032.13 212.02 1030.68 211.205 1029.83 210.097C1028.98 208.979 1028.7 207.599 1028.98 205.958C1029.2 204.605 1029.77 203.418 1030.67 202.395C1031.58 201.372 1032.72 200.573 1034.11 199.998C1035.49 199.412 1037.01 199.119 1038.65 199.119C1040.91 199.119 1042.63 199.63 1043.81 200.653C1044.99 201.665 1045.74 203.061 1046.05 204.84ZM1071.61 224.511C1069.39 224.511 1067.57 223.963 1066.13 222.865C1064.69 221.768 1063.68 220.266 1063.11 218.359C1062.54 216.441 1062.46 214.268 1062.87 211.839C1063.27 209.368 1064.09 207.178 1065.31 205.271C1066.54 203.354 1068.05 201.852 1069.85 200.765C1071.66 199.668 1073.64 199.119 1075.78 199.119C1077.43 199.119 1078.87 199.439 1080.1 200.078C1081.32 200.706 1082.27 201.596 1082.94 202.746C1083.61 203.886 1083.93 205.218 1083.9 206.741H1081.02C1080.95 205.325 1080.43 204.131 1079.47 203.162C1078.52 202.192 1077.18 201.708 1075.45 201.708C1073.86 201.708 1072.39 202.134 1071.03 202.986C1069.68 203.828 1068.54 205.005 1067.6 206.518C1066.67 208.02 1066.05 209.762 1065.73 211.743C1065.39 213.735 1065.42 215.499 1065.83 217.033C1066.23 218.556 1066.95 219.749 1068 220.612C1069.05 221.475 1070.38 221.907 1071.99 221.907C1073.09 221.907 1074.12 221.704 1075.09 221.299C1076.06 220.884 1076.92 220.298 1077.67 219.542C1078.41 218.775 1078.98 217.874 1079.38 216.841H1082.25C1081.77 218.332 1081.02 219.653 1079.98 220.804C1078.96 221.955 1077.74 222.86 1076.31 223.521C1074.88 224.181 1073.31 224.511 1071.61 224.511ZM1096.79 224.511C1094.63 224.511 1092.82 223.968 1091.35 222.881C1089.88 221.784 1088.84 220.266 1088.24 218.327C1087.63 216.388 1087.53 214.151 1087.93 211.615C1088.34 209.144 1089.14 206.971 1090.35 205.096C1091.56 203.21 1093.05 201.745 1094.82 200.701C1096.59 199.646 1098.51 199.119 1100.59 199.119C1102.75 199.119 1104.56 199.668 1106.02 200.765C1107.49 201.862 1108.53 203.38 1109.14 205.319C1109.76 207.258 1109.86 209.501 1109.46 212.047C1109.05 214.508 1108.24 216.676 1107.03 218.551C1105.82 220.415 1104.32 221.875 1102.56 222.929C1100.8 223.984 1098.87 224.511 1096.79 224.511ZM1096.82 221.907C1098.57 221.907 1100.12 221.443 1101.48 220.516C1102.86 219.579 1103.99 218.332 1104.89 216.777C1105.78 215.211 1106.39 213.49 1106.69 211.615C1106.98 209.826 1106.95 208.18 1106.6 206.678C1106.25 205.175 1105.57 203.972 1104.57 203.066C1103.57 202.161 1102.24 201.708 1100.57 201.708C1098.84 201.708 1097.28 202.182 1095.91 203.13C1094.53 204.067 1093.4 205.325 1092.5 206.901C1091.61 208.467 1091.01 210.183 1090.71 212.047C1090.42 213.847 1090.44 215.493 1090.78 216.985C1091.13 218.476 1091.81 219.669 1092.81 220.564C1093.82 221.459 1095.16 221.907 1096.82 221.907ZM1113.72 224L1117.81 199.455H1120.58L1119.94 203.226H1120.19C1120.91 201.958 1121.9 200.962 1123.17 200.238C1124.43 199.502 1125.87 199.135 1127.48 199.135C1129.16 199.135 1130.48 199.534 1131.44 200.333C1132.4 201.122 1133.04 202.208 1133.36 203.593H1133.57C1134.34 202.23 1135.42 201.148 1136.81 200.349C1138.21 199.54 1139.8 199.135 1141.59 199.135C1143.86 199.135 1145.54 199.854 1146.62 201.292C1147.71 202.73 1148.03 204.819 1147.57 207.556L1144.82 224H1141.97L1144.72 207.556C1145.03 205.618 1144.78 204.163 1143.97 203.194C1143.16 202.224 1141.95 201.74 1140.33 201.74C1138.45 201.74 1136.9 202.315 1135.68 203.466C1134.46 204.605 1133.71 206.065 1133.43 207.844L1130.72 224H1127.82L1130.61 207.301C1130.88 205.639 1130.64 204.297 1129.89 203.274C1129.16 202.251 1127.95 201.74 1126.27 201.74C1125.13 201.74 1124.06 202.022 1123.05 202.587C1122.06 203.141 1121.22 203.913 1120.53 204.904C1119.85 205.884 1119.4 207.008 1119.19 208.276L1116.57 224H1113.72ZM568.908 278L574.341 245.273H584.904C587.226 245.273 589.096 245.715 590.513 246.599C591.93 247.483 592.904 248.687 593.437 250.211C593.98 251.734 594.092 253.455 593.773 255.372C593.464 257.268 592.782 258.984 591.727 260.518C590.683 262.041 589.304 263.25 587.588 264.145C585.884 265.04 583.881 265.488 581.58 265.488H573.27L573.718 262.803H581.947C583.663 262.803 585.138 262.483 586.374 261.844C587.62 261.194 588.616 260.31 589.362 259.191C590.108 258.062 590.598 256.789 590.832 255.372C591.067 253.934 590.992 252.656 590.609 251.537C590.236 250.418 589.533 249.545 588.499 248.916C587.476 248.277 586.102 247.957 584.376 247.957H576.882L571.896 278H568.908ZM605.83 278.511C603.678 278.511 601.867 277.968 600.396 276.881C598.926 275.784 597.888 274.266 597.28 272.327C596.673 270.388 596.572 268.151 596.977 265.615C597.381 263.144 598.186 260.971 599.39 259.096C600.604 257.21 602.096 255.745 603.864 254.701C605.633 253.646 607.555 253.119 609.633 253.119C611.796 253.119 613.607 253.668 615.066 254.765C616.536 255.862 617.575 257.38 618.182 259.319C618.8 261.258 618.907 263.501 618.502 266.047C618.097 268.508 617.287 270.676 616.073 272.551C614.858 274.415 613.367 275.875 611.598 276.929C609.841 277.984 607.918 278.511 605.83 278.511ZM605.862 275.907C607.609 275.907 609.164 275.443 610.528 274.516C611.902 273.579 613.037 272.332 613.932 270.777C614.826 269.211 615.428 267.49 615.737 265.615C616.025 263.826 615.993 262.18 615.641 260.678C615.29 259.175 614.613 257.972 613.612 257.066C612.611 256.161 611.279 255.708 609.617 255.708C607.88 255.708 606.325 256.182 604.951 257.13C603.576 258.067 602.442 259.325 601.547 260.901C600.652 262.467 600.055 264.183 599.757 266.047C599.459 267.847 599.48 269.493 599.821 270.985C600.173 272.476 600.849 273.669 601.851 274.564C602.863 275.459 604.2 275.907 605.862 275.907ZM627.379 278L624.055 253.455H627.043L629.488 273.701H629.696L638.869 253.455H641.889L644.27 273.653H644.494L653.666 253.455H656.702L645.197 278H642.256L639.763 257.913H639.46L630.319 278H627.379ZM667.165 278.511C664.875 278.511 662.984 277.979 661.492 276.913C660.001 275.837 658.957 274.351 658.36 272.455C657.764 270.548 657.673 268.353 658.089 265.871C658.504 263.4 659.324 261.205 660.55 259.287C661.775 257.359 663.287 255.852 665.088 254.765C666.888 253.668 668.843 253.119 670.953 253.119C672.284 253.119 673.531 253.364 674.692 253.854C675.853 254.333 676.839 255.074 677.648 256.075C678.469 257.066 679.039 258.318 679.358 259.831C679.678 261.333 679.667 263.112 679.326 265.168L679.102 266.574H659.926L660.326 264.065H676.61C676.876 262.489 676.801 261.072 676.386 259.815C675.97 258.558 675.262 257.561 674.26 256.826C673.27 256.081 672.039 255.708 670.569 255.708C669.067 255.708 667.645 256.129 666.302 256.97C664.971 257.812 663.841 258.909 662.915 260.262C661.998 261.604 661.407 263.037 661.141 264.561L660.821 266.446C660.48 268.524 660.523 270.266 660.949 271.672C661.375 273.067 662.148 274.122 663.266 274.836C664.385 275.55 665.818 275.907 667.565 275.907C668.737 275.907 669.797 275.725 670.745 275.363C671.693 275.001 672.519 274.516 673.222 273.909C673.925 273.291 674.49 272.615 674.916 271.88L677.456 272.759C676.913 273.792 676.146 274.745 675.155 275.619C674.175 276.493 673.009 277.196 671.656 277.728C670.313 278.25 668.817 278.511 667.165 278.511ZM683.453 278L687.544 253.455H690.309L689.669 257.226H689.877C690.559 255.99 691.576 254.994 692.929 254.238C694.293 253.471 695.747 253.087 697.292 253.087C697.526 253.087 697.787 253.092 698.075 253.103C698.362 253.103 698.602 253.114 698.794 253.135L698.299 256.027C698.171 256.006 697.947 255.974 697.627 255.931C697.318 255.889 696.972 255.868 696.589 255.868C695.31 255.868 694.128 256.139 693.041 256.683C691.965 257.215 691.06 257.956 690.324 258.904C689.6 259.852 689.131 260.933 688.918 262.148L686.297 278H683.453ZM712.785 278L718.218 245.273H729.26C731.391 245.273 733.106 245.646 734.406 246.391C735.705 247.137 736.6 248.154 737.09 249.444C737.591 250.733 737.698 252.197 737.41 253.838C737.186 255.202 736.765 256.368 736.147 257.338C735.53 258.297 734.778 259.08 733.894 259.687C733.021 260.283 732.078 260.715 731.066 260.981L731.018 261.237C732.062 261.311 733.026 261.684 733.91 262.355C734.794 263.016 735.455 263.943 735.892 265.136C736.339 266.329 736.43 267.757 736.163 269.419C735.886 271.07 735.269 272.545 734.31 273.845C733.362 275.134 732.062 276.152 730.411 276.897C728.77 277.632 726.778 278 724.434 278H712.785ZM716.22 275.315H724.881C727.406 275.315 729.367 274.756 730.762 273.637C732.158 272.519 733.005 271.113 733.303 269.419C733.505 268.172 733.388 267.043 732.951 266.031C732.515 265.008 731.801 264.199 730.81 263.602C729.819 263.005 728.589 262.707 727.119 262.707H718.33L716.22 275.315ZM718.777 260.054H727.103C728.392 260.054 729.564 259.788 730.618 259.255C731.673 258.723 732.547 257.988 733.239 257.05C733.932 256.113 734.374 255.042 734.565 253.838C734.864 252.102 734.539 250.69 733.591 249.603C732.653 248.506 731.06 247.957 728.813 247.957H720.759L718.777 260.054ZM750.342 245.273L744.909 278H741.92L747.354 245.273H750.342ZM755.607 278.24C754.968 278.24 754.43 278.016 753.993 277.569C753.567 277.121 753.354 276.578 753.354 275.939C753.354 275.299 753.588 274.761 754.057 274.325C754.526 273.888 755.075 273.669 755.703 273.669C756.332 273.669 756.87 273.893 757.317 274.341C757.765 274.788 757.978 275.321 757.956 275.939C757.946 276.365 757.828 276.754 757.605 277.105C757.392 277.446 757.109 277.723 756.758 277.936C756.417 278.138 756.033 278.24 755.607 278.24Z" fill="white"/>
<line x1="448" y1="141.5" x2="828" y2="141.5" stroke="white" stroke-width="3"/>
</svg>
