<svg width="1276" height="314" viewBox="0 0 1276 314" fill="none" xmlns="http://www.w3.org/2000/svg">
<path d="M1269.2 2H60.1963C58.8485 2 57.9775 2.00187 57.3193 2.06445C56.6911 2.12422 56.4655 2.22513 56.3516 2.29492C56.0826 2.45982 55.8563 2.68602 55.6914 2.95508C55.6216 3.06895 55.5217 3.29456 55.4619 3.92285C55.3993 4.5811 55.3965 5.45182 55.3965 6.7998V124.8C55.3965 125.968 55.419 126.986 55.1104 127.949C54.9483 128.455 54.7165 128.942 54.4277 129.387C53.8829 130.225 53.0942 130.844 52.207 131.567L52.2041 131.57L52.1777 131.593C49.8594 133.484 47.6473 135.253 45.5156 136.905C38.1086 142.647 32.5788 146.934 28.8535 149.943C26.9877 151.451 25.6058 152.612 24.6777 153.462C24.2111 153.889 23.892 154.208 23.6924 154.433C23.6488 154.482 23.6177 154.523 23.5928 154.554C23.5502 154.701 23.523 154.796 23.5029 154.873C23.5213 154.95 23.5466 155.045 23.5859 155.192C23.6108 155.224 23.6415 155.268 23.6855 155.319C23.8835 155.551 24.2006 155.88 24.6641 156.321C25.5858 157.199 26.9595 158.401 28.8154 159.963C32.5219 163.082 38.0287 167.532 45.4033 173.493V173.494C47.6252 175.29 49.9093 177.209 52.3105 179.254C53.1769 179.992 53.9465 180.619 54.4727 181.454C54.7494 181.893 54.9694 182.37 55.124 182.864C55.4181 183.806 55.3965 184.801 55.3965 185.941V307.2C55.3965 308.548 55.3993 309.419 55.4619 310.077C55.5217 310.705 55.6216 310.931 55.6914 311.045C55.8563 311.314 56.0826 311.54 56.3516 311.705C56.4655 311.775 56.6911 311.876 57.3193 311.936C57.9775 311.998 58.8485 312 60.1963 312H1269.2C1270.55 312 1271.42 311.998 1272.08 311.936C1272.71 311.876 1272.93 311.775 1273.04 311.705C1273.31 311.54 1273.54 311.314 1273.71 311.045C1273.77 310.931 1273.88 310.706 1273.94 310.077C1274 309.419 1274 308.548 1274 307.2V6.7998C1274 5.45182 1274 4.58111 1273.94 3.92285C1273.88 3.29441 1273.77 3.06895 1273.71 2.95508C1273.54 2.68599 1273.31 2.45982 1273.04 2.29492C1272.93 2.22514 1272.71 2.12421 1272.08 2.06445C1271.42 2.00187 1270.55 2 1269.2 2Z" fill="black" stroke="#AF9D49" stroke-width="4"/>
<path d="M210.505 104V66.9091H225.139C227.952 66.9091 230.349 67.4464 232.329 68.521C234.309 69.5835 235.818 71.0625 236.857 72.9581C237.907 74.8416 238.432 77.0149 238.432 79.478C238.432 81.9411 237.901 84.1143 236.839 85.9979C235.776 87.8814 234.237 89.3484 232.22 90.3988C230.216 91.4492 227.789 91.9744 224.94 91.9744H215.613V85.69H223.672C225.181 85.69 226.425 85.4304 227.403 84.9112C228.393 84.38 229.129 83.6495 229.612 82.7198C230.107 81.7781 230.355 80.6974 230.355 79.478C230.355 78.2464 230.107 77.1719 229.612 76.2543C229.129 75.3246 228.393 74.6062 227.403 74.0991C226.413 73.5799 225.157 73.3203 223.636 73.3203H218.347V104H210.505ZM255.502 104.543C252.689 104.543 250.256 103.946 248.203 102.75C246.163 101.543 244.587 99.8647 243.476 97.7156C242.365 95.5543 241.81 93.049 241.81 90.1996C241.81 87.326 242.365 84.8146 243.476 82.6655C244.587 80.5043 246.163 78.826 248.203 77.6307C250.256 76.4233 252.689 75.8196 255.502 75.8196C258.315 75.8196 260.742 76.4233 262.782 77.6307C264.835 78.826 266.417 80.5043 267.527 82.6655C268.638 84.8146 269.193 87.326 269.193 90.1996C269.193 93.049 268.638 95.5543 267.527 97.7156C266.417 99.8647 264.835 101.543 262.782 102.75C260.742 103.946 258.315 104.543 255.502 104.543ZM255.538 98.5668C256.818 98.5668 257.886 98.2045 258.744 97.4801C259.601 96.7436 260.247 95.7415 260.681 94.4737C261.128 93.206 261.352 91.7631 261.352 90.1452C261.352 88.5273 261.128 87.0845 260.681 85.8168C260.247 84.549 259.601 83.5469 258.744 82.8104C257.886 82.0739 256.818 81.7056 255.538 81.7056C254.246 81.7056 253.159 82.0739 252.278 82.8104C251.409 83.5469 250.751 84.549 250.304 85.8168C249.869 87.0845 249.652 88.5273 249.652 90.1452C249.652 91.7631 249.869 93.206 250.304 94.4737C250.751 95.7415 251.409 96.7436 252.278 97.4801C253.159 98.2045 254.246 98.5668 255.538 98.5668ZM252.731 72.5959L256.57 64.3555H263.706L258.182 72.5959H252.731ZM297.356 84.1143L290.293 84.549C290.172 83.9453 289.912 83.402 289.514 82.919C289.115 82.424 288.59 82.0316 287.938 81.7418C287.298 81.44 286.532 81.2891 285.638 81.2891C284.443 81.2891 283.435 81.5426 282.614 82.0497C281.793 82.5447 281.382 83.2088 281.382 84.0419C281.382 84.706 281.648 85.2674 282.179 85.7262C282.71 86.185 283.622 86.5533 284.914 86.831L289.948 87.8452C292.653 88.4006 294.669 89.294 295.997 90.5256C297.326 91.7571 297.99 93.375 297.99 95.3793C297.99 97.2024 297.452 98.8022 296.378 100.179C295.315 101.555 293.854 102.63 291.995 103.402C290.148 104.163 288.017 104.543 285.602 104.543C281.919 104.543 278.985 103.777 276.8 102.243C274.627 100.698 273.353 98.5969 272.979 95.9407L280.567 95.5423C280.796 96.6651 281.352 97.5224 282.233 98.114C283.115 98.6935 284.244 98.9833 285.62 98.9833C286.972 98.9833 288.059 98.7237 288.88 98.2045C289.713 97.6733 290.136 96.9911 290.148 96.158C290.136 95.4577 289.84 94.8842 289.26 94.4375C288.681 93.9787 287.787 93.6286 286.58 93.3871L281.762 92.4272C279.046 91.8839 277.023 90.9421 275.695 89.6019C274.379 88.2617 273.721 86.5533 273.721 84.4766C273.721 82.6896 274.204 81.1502 275.17 79.8583C276.148 78.5664 277.518 77.5703 279.281 76.87C281.056 76.1697 283.133 75.8196 285.511 75.8196C289.025 75.8196 291.79 76.5621 293.806 78.0472C295.834 79.5323 297.018 81.5547 297.356 84.1143ZM320.18 85.7081V91.8295H303.264V85.7081H320.18ZM351.493 78.8984C351.24 78.017 350.884 77.2383 350.425 76.5621C349.966 75.8739 349.405 75.2944 348.741 74.8235C348.089 74.3406 347.34 73.9723 346.495 73.7188C345.662 73.4652 344.738 73.3384 343.724 73.3384C341.828 73.3384 340.162 73.8093 338.725 74.7511C337.301 75.6928 336.19 77.0632 335.393 78.8622C334.596 80.6491 334.198 82.8345 334.198 85.4183C334.198 88.0021 334.59 90.1996 335.375 92.0107C336.16 93.8217 337.27 95.2042 338.707 96.158C340.144 97.0998 341.84 97.5707 343.796 97.5707C345.571 97.5707 347.087 97.2567 348.342 96.6289C349.61 95.989 350.576 95.0895 351.24 93.9304C351.916 92.7713 352.254 91.4009 352.254 89.8192L353.848 90.0547H344.285V84.1506H359.806V88.8232C359.806 92.0831 359.118 94.8842 357.742 97.2266C356.365 99.5568 354.47 101.356 352.055 102.624C349.64 103.879 346.875 104.507 343.76 104.507C340.283 104.507 337.228 103.74 334.596 102.207C331.964 100.662 329.911 98.4702 328.438 95.6328C326.977 92.7834 326.247 89.4027 326.247 85.4908C326.247 82.4844 326.682 79.804 327.551 77.4496C328.432 75.0831 329.664 73.0788 331.246 71.4368C332.827 69.7947 334.669 68.5451 336.769 67.6879C338.87 66.8306 341.146 66.402 343.597 66.402C345.698 66.402 347.654 66.7099 349.465 67.3256C351.276 67.9293 352.882 68.7866 354.283 69.8974C355.695 71.0082 356.848 72.3303 357.742 73.8636C358.635 75.3849 359.209 77.0632 359.462 78.8984H351.493ZM365.552 104V76.1818H373.032V81.0355H373.322C373.829 79.3089 374.68 78.005 375.875 77.1236C377.07 76.2301 378.447 75.7834 380.004 75.7834C380.391 75.7834 380.807 75.8075 381.254 75.8558C381.701 75.9041 382.093 75.9705 382.431 76.055V82.9009C382.069 82.7923 381.568 82.6957 380.928 82.6111C380.288 82.5266 379.703 82.4844 379.171 82.4844C378.036 82.4844 377.022 82.7319 376.129 83.2269C375.247 83.7099 374.547 84.386 374.028 85.2553C373.521 86.1246 373.267 87.1268 373.267 88.2617V104H365.552ZM393.556 104.525C391.781 104.525 390.199 104.217 388.811 103.602C387.422 102.974 386.324 102.05 385.515 100.831C384.718 99.5991 384.319 98.0657 384.319 96.2305C384.319 94.685 384.603 93.3871 385.17 92.3366C385.738 91.2862 386.511 90.4411 387.489 89.8011C388.467 89.1612 389.577 88.6783 390.821 88.3523C392.077 88.0263 393.393 87.7969 394.769 87.6641C396.387 87.495 397.691 87.3381 398.681 87.1932C399.671 87.0362 400.39 86.8068 400.836 86.505C401.283 86.2031 401.506 85.7564 401.506 85.1648V85.0561C401.506 83.9091 401.144 83.0217 400.42 82.3938C399.707 81.766 398.693 81.4521 397.377 81.4521C395.989 81.4521 394.884 81.7599 394.063 82.3757C393.242 82.9794 392.699 83.7401 392.433 84.6577L385.297 84.0781C385.659 82.3878 386.372 80.9268 387.434 79.6953C388.497 78.4517 389.867 77.4979 391.545 76.8338C393.236 76.1577 395.192 75.8196 397.413 75.8196C398.959 75.8196 400.438 76.0007 401.851 76.3629C403.275 76.7251 404.537 77.2866 405.636 78.0472C406.746 78.8079 407.622 79.7859 408.262 80.9812C408.902 82.1644 409.222 83.5831 409.222 85.2372V104H401.905V100.142H401.688C401.241 101.012 400.643 101.778 399.895 102.442C399.146 103.094 398.246 103.608 397.196 103.982C396.146 104.344 394.932 104.525 393.556 104.525ZM395.765 99.2006C396.9 99.2006 397.902 98.9773 398.772 98.5305C399.641 98.0717 400.323 97.456 400.818 96.6832C401.313 95.9105 401.561 95.0352 401.561 94.0572V91.1051C401.319 91.2621 400.987 91.407 400.565 91.5398C400.154 91.6605 399.689 91.7752 399.17 91.8839C398.651 91.9805 398.132 92.071 397.613 92.1555C397.093 92.228 396.623 92.2944 396.2 92.3548C395.294 92.4876 394.504 92.6989 393.827 92.9886C393.151 93.2784 392.626 93.6708 392.252 94.1658C391.878 94.6488 391.69 95.2525 391.69 95.9769C391.69 97.0273 392.071 97.8303 392.831 98.3857C393.604 98.929 394.582 99.2006 395.765 99.2006ZM425.458 104.453C423.345 104.453 421.431 103.909 419.717 102.823C418.014 101.724 416.662 100.112 415.66 97.9872C414.67 95.8501 414.175 93.2301 414.175 90.1271C414.175 86.9396 414.688 84.2894 415.714 82.1765C416.741 80.0515 418.105 78.4638 419.807 77.4134C421.522 76.3509 423.399 75.8196 425.44 75.8196C426.997 75.8196 428.295 76.0852 429.334 76.6165C430.384 77.1357 431.229 77.7876 431.869 78.5724C432.521 79.3452 433.016 80.1058 433.354 80.8544H433.59V66.9091H441.287V104H433.68V99.5447H433.354C432.992 100.317 432.479 101.084 431.815 101.845C431.163 102.593 430.312 103.215 429.261 103.71C428.223 104.205 426.955 104.453 425.458 104.453ZM427.903 98.3132C429.147 98.3132 430.197 97.9751 431.054 97.299C431.924 96.6108 432.588 95.6509 433.046 94.4194C433.517 93.1879 433.753 91.745 433.753 90.0909C433.753 88.4368 433.523 87 433.064 85.7805C432.606 84.5611 431.942 83.6193 431.072 82.9553C430.203 82.2912 429.147 81.9592 427.903 81.9592C426.635 81.9592 425.567 82.3033 424.697 82.9915C423.828 83.6797 423.17 84.6335 422.723 85.853C422.277 87.0724 422.053 88.4851 422.053 90.0909C422.053 91.7088 422.277 93.1396 422.723 94.3832C423.182 95.6147 423.84 96.5806 424.697 97.2809C425.567 97.9691 426.635 98.3132 427.903 98.3132ZM465.469 92.1555V76.1818H473.184V104H465.777V98.9471H465.487C464.86 100.577 463.815 101.887 462.354 102.877C460.905 103.867 459.136 104.362 457.048 104.362C455.188 104.362 453.552 103.94 452.14 103.094C450.727 102.249 449.622 101.048 448.825 99.4904C448.041 97.9329 447.642 96.0675 447.63 93.8942V76.1818H455.345V92.5178C455.357 94.1598 455.798 95.4577 456.667 96.4116C457.537 97.3654 458.702 97.8423 460.163 97.8423C461.092 97.8423 461.962 97.631 462.771 97.2085C463.58 96.7738 464.232 96.1339 464.727 95.2887C465.234 94.4435 465.481 93.3991 465.469 92.1555ZM487.288 104.525C485.513 104.525 483.932 104.217 482.543 103.602C481.155 102.974 480.056 102.05 479.247 100.831C478.45 99.5991 478.052 98.0657 478.052 96.2305C478.052 94.685 478.335 93.3871 478.903 92.3366C479.47 91.2862 480.243 90.4411 481.221 89.8011C482.199 89.1612 483.31 88.6783 484.553 88.3523C485.809 88.0263 487.125 87.7969 488.502 87.6641C490.12 87.495 491.424 87.3381 492.414 87.1932C493.404 87.0362 494.122 86.8068 494.569 86.505C495.015 86.2031 495.239 85.7564 495.239 85.1648V85.0561C495.239 83.9091 494.877 83.0217 494.152 82.3938C493.44 81.766 492.426 81.4521 491.11 81.4521C489.721 81.4521 488.616 81.7599 487.795 82.3757C486.974 82.9794 486.431 83.7401 486.165 84.6577L479.03 84.0781C479.392 82.3878 480.104 80.9268 481.167 79.6953C482.229 78.4517 483.6 77.4979 485.278 76.8338C486.968 76.1577 488.924 75.8196 491.146 75.8196C492.691 75.8196 494.17 76.0007 495.583 76.3629C497.008 76.7251 498.269 77.2866 499.368 78.0472C500.479 78.8079 501.354 79.7859 501.994 80.9812C502.634 82.1644 502.954 83.5831 502.954 85.2372V104H495.637V100.142H495.42C494.973 101.012 494.376 101.778 493.627 102.442C492.878 103.094 491.979 103.608 490.928 103.982C489.878 104.344 488.665 104.525 487.288 104.525ZM489.498 99.2006C490.633 99.2006 491.635 98.9773 492.504 98.5305C493.373 98.0717 494.056 97.456 494.551 96.6832C495.046 95.9105 495.293 95.0352 495.293 94.0572V91.1051C495.052 91.2621 494.72 91.407 494.297 91.5398C493.887 91.6605 493.422 91.7752 492.903 91.8839C492.383 91.9805 491.864 92.071 491.345 92.1555C490.826 92.228 490.355 92.2944 489.932 92.3548C489.027 92.4876 488.236 92.6989 487.56 92.9886C486.884 93.2784 486.359 93.6708 485.984 94.1658C485.61 94.6488 485.423 95.2525 485.423 95.9769C485.423 97.0273 485.803 97.8303 486.564 98.3857C487.337 98.929 488.314 99.2006 489.498 99.2006ZM521.509 104.543C518.659 104.543 516.208 103.94 514.156 102.732C512.115 101.513 510.545 99.8224 509.447 97.6612C508.36 95.5 507.817 93.0128 507.817 90.1996C507.817 87.3501 508.366 84.8509 509.465 82.7017C510.576 80.5405 512.151 78.8562 514.192 77.6488C516.232 76.4293 518.659 75.8196 521.472 75.8196C523.899 75.8196 526.024 76.2603 527.847 77.1417C529.67 78.0231 531.113 79.2607 532.176 80.8544C533.238 82.4482 533.824 84.3196 533.933 86.4688H526.652C526.447 85.0803 525.903 83.9634 525.022 83.1183C524.153 82.261 523.012 81.8324 521.599 81.8324C520.404 81.8324 519.359 82.1584 518.466 82.8104C517.585 83.4503 516.896 84.386 516.401 85.6175C515.906 86.8491 515.659 88.3402 515.659 90.0909C515.659 91.8658 515.9 93.375 516.383 94.6186C516.878 95.8622 517.572 96.81 518.466 97.462C519.359 98.114 520.404 98.44 521.599 98.44C522.481 98.44 523.271 98.2589 523.972 97.8967C524.684 97.5344 525.27 97.0092 525.728 96.321C526.199 95.6207 526.507 94.7816 526.652 93.8036H533.933C533.812 95.9286 533.232 97.8001 532.194 99.418C531.168 101.024 529.749 102.279 527.938 103.185C526.127 104.091 523.984 104.543 521.509 104.543ZM519.697 103.855H523.247L522.957 105.431C524.201 105.624 525.215 106.089 526 106.825C526.797 107.562 527.201 108.564 527.213 109.832C527.226 111.631 526.392 113.061 524.714 114.124C523.036 115.199 520.682 115.736 517.651 115.736L517.579 112.295C519.1 112.295 520.289 112.108 521.146 111.733C522.016 111.371 522.468 110.804 522.505 110.031C522.529 109.294 522.245 108.733 521.653 108.347C521.062 107.96 520.138 107.689 518.883 107.532L519.697 103.855ZM546.805 104.525C545.03 104.525 543.448 104.217 542.06 103.602C540.671 102.974 539.573 102.05 538.764 100.831C537.967 99.5991 537.568 98.0657 537.568 96.2305C537.568 94.685 537.852 93.3871 538.42 92.3366C538.987 91.2862 539.76 90.4411 540.738 89.8011C541.716 89.1612 542.826 88.6783 544.07 88.3523C545.326 88.0263 546.642 87.7969 548.018 87.6641C549.636 87.495 550.94 87.3381 551.93 87.1932C552.92 87.0362 553.639 86.8068 554.085 86.505C554.532 86.2031 554.755 85.7564 554.755 85.1648V85.0561C554.755 83.9091 554.393 83.0217 553.669 82.3938C552.956 81.766 551.942 81.4521 550.626 81.4521C549.238 81.4521 548.133 81.7599 547.312 82.3757C546.491 82.9794 545.948 83.7401 545.682 84.6577L538.546 84.0781C538.909 82.3878 539.621 80.9268 540.683 79.6953C541.746 78.4517 543.116 77.4979 544.795 76.8338C546.485 76.1577 548.441 75.8196 550.662 75.8196C552.208 75.8196 553.687 76.0007 555.1 76.3629C556.524 76.7251 557.786 77.2866 558.885 78.0472C559.996 78.8079 560.871 79.7859 561.511 80.9812C562.151 82.1644 562.471 83.5831 562.471 85.2372V104H555.154V100.142H554.937C554.49 101.012 553.892 101.778 553.144 102.442C552.395 103.094 551.496 103.608 550.445 103.982C549.395 104.344 548.181 104.525 546.805 104.525ZM549.014 99.2006C550.149 99.2006 551.151 98.9773 552.021 98.5305C552.89 98.0717 553.572 97.456 554.067 96.6832C554.562 95.9105 554.81 95.0352 554.81 94.0572V91.1051C554.568 91.2621 554.236 91.407 553.814 91.5398C553.403 91.6605 552.938 91.7752 552.419 91.8839C551.9 91.9805 551.381 92.071 550.862 92.1555C550.342 92.228 549.872 92.2944 549.449 92.3548C548.543 92.4876 547.753 92.6989 547.076 92.9886C546.4 93.2784 545.875 93.6708 545.501 94.1658C545.127 94.6488 544.939 95.2525 544.939 95.9769C544.939 97.0273 545.32 97.8303 546.08 98.3857C546.853 98.929 547.831 99.2006 549.014 99.2006ZM545.773 72.7589L541.48 72.7045C541.48 70.3984 542.048 68.6296 543.183 67.3981C544.33 66.1665 545.724 65.5447 547.366 65.5327C548.211 65.5327 548.936 65.6715 549.54 65.9492C550.155 66.2148 550.705 66.5288 551.188 66.891C551.683 67.2532 552.154 67.5732 552.6 67.8509C553.047 68.1165 553.53 68.2493 554.049 68.2493C554.749 68.2372 555.281 67.9776 555.643 67.4705C556.017 66.9513 556.204 66.2752 556.204 65.4421L560.424 65.5689C560.4 67.8509 559.82 69.6136 558.686 70.8572C557.551 72.0888 556.168 72.7106 554.538 72.7227C553.633 72.7227 552.872 72.5898 552.256 72.3242C551.652 72.0465 551.121 71.7326 550.662 71.3825C550.204 71.0202 549.757 70.7003 549.322 70.4226C548.888 70.1449 548.399 70.006 547.855 70.006C547.227 70.006 546.72 70.2535 546.334 70.7486C545.96 71.2436 545.773 71.9137 545.773 72.7589ZM581.025 104.543C578.212 104.543 575.779 103.946 573.727 102.75C571.686 101.543 570.11 99.8647 569 97.7156C567.889 95.5543 567.333 93.049 567.333 90.1996C567.333 87.326 567.889 84.8146 569 82.6655C570.11 80.5043 571.686 78.826 573.727 77.6307C575.779 76.4233 578.212 75.8196 581.025 75.8196C583.838 75.8196 586.265 76.4233 588.306 77.6307C590.358 78.826 591.94 80.5043 593.051 82.6655C594.162 84.8146 594.717 87.326 594.717 90.1996C594.717 93.049 594.162 95.5543 593.051 97.7156C591.94 99.8647 590.358 101.543 588.306 102.75C586.265 103.946 583.838 104.543 581.025 104.543ZM581.061 98.5668C582.341 98.5668 583.41 98.2045 584.267 97.4801C585.124 96.7436 585.77 95.7415 586.205 94.4737C586.652 93.206 586.875 91.7631 586.875 90.1452C586.875 88.5273 586.652 87.0845 586.205 85.8168C585.77 84.549 585.124 83.5469 584.267 82.8104C583.41 82.0739 582.341 81.7056 581.061 81.7056C579.769 81.7056 578.683 82.0739 577.801 82.8104C576.932 83.5469 576.274 84.549 575.827 85.8168C575.393 87.0845 575.175 88.5273 575.175 90.1452C575.175 91.7631 575.393 93.206 575.827 94.4737C576.274 95.7415 576.932 96.7436 577.801 97.4801C578.683 98.2045 579.769 98.5668 581.061 98.5668ZM624.215 104.543C621.353 104.543 618.89 103.964 616.826 102.805C614.773 101.634 613.191 99.9794 612.081 97.8423C610.97 95.6932 610.414 93.1516 610.414 90.2177C610.414 87.3562 610.97 84.8448 612.081 82.6836C613.191 80.5224 614.755 78.8381 616.771 77.6307C618.8 76.4233 621.178 75.8196 623.907 75.8196C625.742 75.8196 627.451 76.1154 629.032 76.707C630.626 77.2866 632.015 78.1619 633.198 79.3331C634.393 80.5043 635.323 81.9773 635.987 83.7521C636.651 85.5149 636.983 87.5795 636.983 89.946V92.065H613.493V87.2837H629.721C629.721 86.1729 629.479 85.1889 628.996 84.3317C628.513 83.4744 627.843 82.8043 626.986 82.3214C626.141 81.8263 625.157 81.5788 624.034 81.5788C622.863 81.5788 621.824 81.8505 620.919 82.3938C620.025 82.9251 619.325 83.6435 618.818 84.549C618.311 85.4425 618.051 86.4386 618.039 87.5373V92.0831C618.039 93.4595 618.293 94.6488 618.8 95.6509C619.319 96.6531 620.049 97.4258 620.991 97.9691C621.933 98.5124 623.05 98.7841 624.342 98.7841C625.199 98.7841 625.984 98.6634 626.696 98.4219C627.408 98.1804 628.018 97.8182 628.525 97.3352C629.032 96.8523 629.419 96.2607 629.684 95.5604L636.82 96.0312C636.458 97.7457 635.715 99.2429 634.592 100.523C633.482 101.79 632.045 102.781 630.282 103.493C628.531 104.193 626.509 104.543 624.215 104.543ZM642.018 104V76.1818H649.371V81.0898H649.697C650.276 79.4599 651.242 78.174 652.595 77.2322C653.947 76.2905 655.565 75.8196 657.448 75.8196C659.356 75.8196 660.98 76.2965 662.32 77.2504C663.66 78.1921 664.554 79.4719 665 81.0898H665.29C665.858 79.4961 666.884 78.2223 668.369 77.2685C669.866 76.3026 671.635 75.8196 673.675 75.8196C676.271 75.8196 678.378 76.6467 679.996 78.3008C681.626 79.9428 682.441 82.2731 682.441 85.2915V104H674.744V86.8129C674.744 85.2674 674.333 84.1083 673.512 83.3356C672.691 82.5629 671.665 82.1765 670.434 82.1765C669.033 82.1765 667.94 82.6232 667.156 83.5167C666.371 84.3981 665.978 85.5632 665.978 87.0121V104H658.499V86.6499C658.499 85.2855 658.106 84.1989 657.321 83.3899C656.549 82.581 655.528 82.1765 654.261 82.1765C653.403 82.1765 652.631 82.3938 651.943 82.8285C651.266 83.2511 650.729 83.8487 650.331 84.6214C649.932 85.3821 649.733 86.2756 649.733 87.3018V104H642.018ZM700.484 66.9091H710.155L720.37 91.8295H720.804L731.019 66.9091H740.69V104H733.083V79.8583H732.776L723.177 103.819H717.997L708.398 79.7678H708.091V104H700.484V66.9091ZM759.684 104.543C756.822 104.543 754.359 103.964 752.294 102.805C750.242 101.634 748.66 99.9794 747.549 97.8423C746.439 95.6932 745.883 93.1516 745.883 90.2177C745.883 87.3562 746.439 84.8448 747.549 82.6836C748.66 80.5224 750.224 78.8381 752.24 77.6307C754.269 76.4233 756.647 75.8196 759.376 75.8196C761.211 75.8196 762.919 76.1154 764.501 76.707C766.095 77.2866 767.483 78.1619 768.667 79.3331C769.862 80.5043 770.792 81.9773 771.456 83.7521C772.12 85.5149 772.452 87.5795 772.452 89.946V92.065H748.962V87.2837H765.189C765.189 86.1729 764.948 85.1889 764.465 84.3317C763.982 83.4744 763.312 82.8043 762.455 82.3214C761.609 81.8263 760.625 81.5788 759.503 81.5788C758.331 81.5788 757.293 81.8505 756.387 82.3938C755.494 82.9251 754.794 83.6435 754.287 84.549C753.78 85.4425 753.52 86.4386 753.508 87.5373V92.0831C753.508 93.4595 753.761 94.6488 754.269 95.6509C754.788 96.6531 755.518 97.4258 756.46 97.9691C757.402 98.5124 758.519 98.7841 759.81 98.7841C760.668 98.7841 761.452 98.6634 762.165 98.4219C762.877 98.1804 763.487 97.8182 763.994 97.3352C764.501 96.8523 764.887 96.2607 765.153 95.5604L772.289 96.0312C771.927 97.7457 771.184 99.2429 770.061 100.523C768.95 101.79 767.514 102.781 765.751 103.493C764 104.193 761.978 104.543 759.684 104.543ZM792.283 76.1818V81.9773H775.531V76.1818H792.283ZM779.334 69.517H787.049V95.4517C787.049 96.1641 787.158 96.7195 787.375 97.1179C787.592 97.5043 787.894 97.7759 788.281 97.9329C788.679 98.0898 789.138 98.1683 789.657 98.1683C790.019 98.1683 790.381 98.1381 790.744 98.0778C791.106 98.0053 791.384 97.951 791.577 97.9148L792.79 103.656C792.404 103.777 791.86 103.915 791.16 104.072C790.46 104.241 789.609 104.344 788.607 104.38C786.747 104.453 785.117 104.205 783.717 103.638C782.328 103.07 781.248 102.189 780.475 100.994C779.702 99.7983 779.322 98.2891 779.334 96.4659V69.517ZM809.579 104.543C806.766 104.543 804.333 103.946 802.28 102.75C800.24 101.543 798.664 99.8647 797.553 97.7156C796.443 95.5543 795.887 93.049 795.887 90.1996C795.887 87.326 796.443 84.8146 797.553 82.6655C798.664 80.5043 800.24 78.826 802.28 77.6307C804.333 76.4233 806.766 75.8196 809.579 75.8196C812.392 75.8196 814.819 76.4233 816.859 77.6307C818.912 78.826 820.494 80.5043 821.604 82.6655C822.715 84.8146 823.271 87.326 823.271 90.1996C823.271 93.049 822.715 95.5543 821.604 97.7156C820.494 99.8647 818.912 101.543 816.859 102.75C814.819 103.946 812.392 104.543 809.579 104.543ZM809.615 98.5668C810.895 98.5668 811.963 98.2045 812.821 97.4801C813.678 96.7436 814.324 95.7415 814.759 94.4737C815.205 93.206 815.429 91.7631 815.429 90.1452C815.429 88.5273 815.205 87.0845 814.759 85.8168C814.324 84.549 813.678 83.5469 812.821 82.8104C811.963 82.0739 810.895 81.7056 809.615 81.7056C808.323 81.7056 807.237 82.0739 806.355 82.8104C805.486 83.5469 804.828 84.549 804.381 85.8168C803.946 87.0845 803.729 88.5273 803.729 90.1452C803.729 91.7631 803.946 93.206 804.381 94.4737C804.828 95.7415 805.486 96.7436 806.355 97.4801C807.237 98.2045 808.323 98.5668 809.615 98.5668ZM836.003 66.9091V104H828.287V66.9091H836.003ZM854.752 104.543C851.939 104.543 849.506 103.946 847.453 102.75C845.413 101.543 843.837 99.8647 842.726 97.7156C841.615 95.5543 841.06 93.049 841.06 90.1996C841.06 87.326 841.615 84.8146 842.726 82.6655C843.837 80.5043 845.413 78.826 847.453 77.6307C849.506 76.4233 851.939 75.8196 854.752 75.8196C857.565 75.8196 859.992 76.4233 862.032 77.6307C864.085 78.826 865.667 80.5043 866.777 82.6655C867.888 84.8146 868.443 87.326 868.443 90.1996C868.443 93.049 867.888 95.5543 866.777 97.7156C865.667 99.8647 864.085 101.543 862.032 102.75C859.992 103.946 857.565 104.543 854.752 104.543ZM854.788 98.5668C856.068 98.5668 857.136 98.2045 857.994 97.4801C858.851 96.7436 859.497 95.7415 859.931 94.4737C860.378 93.206 860.602 91.7631 860.602 90.1452C860.602 88.5273 860.378 87.0845 859.931 85.8168C859.497 84.549 858.851 83.5469 857.994 82.8104C857.136 82.0739 856.068 81.7056 854.788 81.7056C853.496 81.7056 852.409 82.0739 851.528 82.8104C850.659 83.5469 850.001 84.549 849.554 85.8168C849.119 87.0845 848.902 88.5273 848.902 90.1452C848.902 91.7631 849.119 93.206 849.554 94.4737C850.001 95.7415 850.659 96.7436 851.528 97.4801C852.409 98.2045 853.496 98.5668 854.788 98.5668ZM885.993 115.011C883.494 115.011 881.35 114.667 879.564 113.979C877.789 113.303 876.376 112.379 875.326 111.208C874.275 110.037 873.593 108.721 873.279 107.26L880.415 106.3C880.632 106.855 880.976 107.375 881.447 107.858C881.918 108.341 882.54 108.727 883.312 109.017C884.097 109.319 885.051 109.469 886.174 109.469C887.852 109.469 889.235 109.059 890.321 108.238C891.42 107.429 891.969 106.071 891.969 104.163V99.0739H891.643C891.305 99.8466 890.798 100.577 890.122 101.265C889.446 101.953 888.577 102.515 887.514 102.95C886.452 103.384 885.184 103.602 883.711 103.602C881.622 103.602 879.72 103.119 878.006 102.153C876.304 101.175 874.945 99.6836 873.931 97.6793C872.929 95.663 872.428 93.1154 872.428 90.0366C872.428 86.8853 872.941 84.2532 873.967 82.1403C874.994 80.0273 876.358 78.4457 878.06 77.3952C879.775 76.3448 881.652 75.8196 883.693 75.8196C885.25 75.8196 886.554 76.0852 887.605 76.6165C888.655 77.1357 889.5 77.7876 890.14 78.5724C890.792 79.3452 891.293 80.1058 891.643 80.8544H891.933V76.1818H899.594V104.272C899.594 106.638 899.015 108.618 897.855 110.212C896.696 111.806 895.091 113.001 893.038 113.798C890.997 114.607 888.649 115.011 885.993 115.011ZM886.156 97.8061C887.399 97.8061 888.45 97.4982 889.307 96.8825C890.176 96.2546 890.841 95.3612 891.299 94.2021C891.77 93.0309 892.006 91.6303 892.006 90.0004C892.006 88.3704 891.776 86.9577 891.317 85.7624C890.859 84.555 890.195 83.6193 889.325 82.9553C888.456 82.2912 887.399 81.9592 886.156 81.9592C884.888 81.9592 883.82 82.3033 882.95 82.9915C882.081 83.6676 881.423 84.6094 880.976 85.8168C880.529 87.0241 880.306 88.4187 880.306 90.0004C880.306 91.6062 880.529 92.9947 880.976 94.1658C881.435 95.3249 882.093 96.2244 882.95 96.8643C883.82 97.4922 884.888 97.8061 886.156 97.8061ZM905.734 104V76.1818H913.449V104H905.734ZM909.609 72.5959C908.462 72.5959 907.478 72.2156 906.657 71.4549C905.848 70.6822 905.444 69.7585 905.444 68.6839C905.444 67.6214 905.848 66.7099 906.657 65.9492C907.478 65.1765 908.462 64.7901 909.609 64.7901C910.756 64.7901 911.734 65.1765 912.543 65.9492C913.364 66.7099 913.775 67.6214 913.775 68.6839C913.775 69.7585 913.364 70.6822 912.543 71.4549C911.734 72.2156 910.756 72.5959 909.609 72.5959ZM927.562 104.525C925.787 104.525 924.205 104.217 922.817 103.602C921.428 102.974 920.329 102.05 919.52 100.831C918.724 99.5991 918.325 98.0657 918.325 96.2305C918.325 94.685 918.609 93.3871 919.176 92.3366C919.744 91.2862 920.517 90.4411 921.495 89.8011C922.473 89.1612 923.583 88.6783 924.827 88.3523C926.083 88.0263 927.399 87.7969 928.775 87.6641C930.393 87.495 931.697 87.3381 932.687 87.1932C933.677 87.0362 934.395 86.8068 934.842 86.505C935.289 86.2031 935.512 85.7564 935.512 85.1648V85.0561C935.512 83.9091 935.15 83.0217 934.426 82.3938C933.713 81.766 932.699 81.4521 931.383 81.4521C929.995 81.4521 928.89 81.7599 928.069 82.3757C927.248 82.9794 926.704 83.7401 926.439 84.6577L919.303 84.0781C919.665 82.3878 920.378 80.9268 921.44 79.6953C922.503 78.4517 923.873 77.4979 925.551 76.8338C927.242 76.1577 929.198 75.8196 931.419 75.8196C932.965 75.8196 934.444 76.0007 935.856 76.3629C937.281 76.7251 938.543 77.2866 939.642 78.0472C940.752 78.8079 941.628 79.7859 942.268 80.9812C942.908 82.1644 943.227 83.5831 943.227 85.2372V104H935.911V100.142H935.693C935.247 101.012 934.649 101.778 933.9 102.442C933.152 103.094 932.252 103.608 931.202 103.982C930.152 104.344 928.938 104.525 927.562 104.525ZM929.771 99.2006C930.906 99.2006 931.908 98.9773 932.778 98.5305C933.647 98.0717 934.329 97.456 934.824 96.6832C935.319 95.9105 935.567 95.0352 935.567 94.0572V91.1051C935.325 91.2621 934.993 91.407 934.571 91.5398C934.16 91.6605 933.695 91.7752 933.176 91.8839C932.657 91.9805 932.138 92.071 931.618 92.1555C931.099 92.228 930.628 92.2944 930.206 92.3548C929.3 92.4876 928.509 92.6989 927.833 92.9886C927.157 93.2784 926.632 93.6708 926.258 94.1658C925.883 94.6488 925.696 95.2525 925.696 95.9769C925.696 97.0273 926.077 97.8303 926.837 98.3857C927.61 98.929 928.588 99.2006 929.771 99.2006ZM972.359 84.1143L965.296 84.549C965.175 83.9453 964.915 83.402 964.517 82.919C964.118 82.424 963.593 82.0316 962.941 81.7418C962.301 81.44 961.534 81.2891 960.641 81.2891C959.446 81.2891 958.438 81.5426 957.617 82.0497C956.795 82.5447 956.385 83.2088 956.385 84.0419C956.385 84.706 956.651 85.2674 957.182 85.7262C957.713 86.185 958.625 86.5533 959.917 86.831L964.951 87.8452C967.656 88.4006 969.672 89.294 971 90.5256C972.329 91.7571 972.993 93.375 972.993 95.3793C972.993 97.2024 972.455 98.8022 971.381 100.179C970.318 101.555 968.857 102.63 966.998 103.402C965.151 104.163 963.02 104.543 960.605 104.543C956.922 104.543 953.988 103.777 951.803 102.243C949.63 100.698 948.356 98.5969 947.982 95.9407L955.57 95.5423C955.799 96.6651 956.355 97.5224 957.236 98.114C958.118 98.6935 959.246 98.9833 960.623 98.9833C961.975 98.9833 963.062 98.7237 963.883 98.2045C964.716 97.6733 965.139 96.9911 965.151 96.158C965.139 95.4577 964.843 94.8842 964.263 94.4375C963.684 93.9787 962.79 93.6286 961.583 93.3871L956.765 92.4272C954.049 91.8839 952.026 90.9421 950.698 89.6019C949.382 88.2617 948.724 86.5533 948.724 84.4766C948.724 82.6896 949.207 81.1502 950.173 79.8583C951.151 78.5664 952.521 77.5703 954.284 76.87C956.059 76.1697 958.136 75.8196 960.514 75.8196C964.028 75.8196 966.793 76.5621 968.809 78.0472C970.837 79.5323 972.021 81.5547 972.359 84.1143ZM996.193 104H987.789L1000.59 66.9091H1010.7L1023.49 104H1015.08L1005.79 75.3849H1005.5L996.193 104ZM995.667 89.4208H1015.52V95.5423H995.667V89.4208ZM1002.88 63.3232L1006.71 55.0827H1013.85L1008.33 63.3232H1002.88ZM1039.04 115.011C1036.54 115.011 1034.4 114.667 1032.61 113.979C1030.84 113.303 1029.43 112.379 1028.38 111.208C1027.32 110.037 1026.64 108.721 1026.33 107.26L1033.46 106.3C1033.68 106.855 1034.03 107.375 1034.5 107.858C1034.97 108.341 1035.59 108.727 1036.36 109.017C1037.15 109.319 1038.1 109.469 1039.22 109.469C1040.9 109.469 1042.28 109.059 1043.37 108.238C1044.47 107.429 1045.02 106.071 1045.02 104.163V99.0739H1044.69C1044.36 99.8466 1043.85 100.577 1043.17 101.265C1042.5 101.953 1041.63 102.515 1040.56 102.95C1039.5 103.384 1038.23 103.602 1036.76 103.602C1034.67 103.602 1032.77 103.119 1031.06 102.153C1029.35 101.175 1028 99.6836 1026.98 97.6793C1025.98 95.663 1025.48 93.1154 1025.48 90.0366C1025.48 86.8853 1025.99 84.2532 1027.02 82.1403C1028.04 80.0273 1029.41 78.4457 1031.11 77.3952C1032.82 76.3448 1034.7 75.8196 1036.74 75.8196C1038.3 75.8196 1039.6 76.0852 1040.65 76.6165C1041.7 77.1357 1042.55 77.7876 1043.19 78.5724C1043.84 79.3452 1044.34 80.1058 1044.69 80.8544H1044.98V76.1818H1052.64V104.272C1052.64 106.638 1052.06 108.618 1050.91 110.212C1049.75 111.806 1048.14 113.001 1046.09 113.798C1044.05 114.607 1041.7 115.011 1039.04 115.011ZM1039.21 97.8061C1040.45 97.8061 1041.5 97.4982 1042.36 96.8825C1043.23 96.2546 1043.89 95.3612 1044.35 94.2021C1044.82 93.0309 1045.06 91.6303 1045.06 90.0004C1045.06 88.3704 1044.83 86.9577 1044.37 85.7624C1043.91 84.555 1043.24 83.6193 1042.38 82.9553C1041.51 82.2912 1040.45 81.9592 1039.21 81.9592C1037.94 81.9592 1036.87 82.3033 1036 82.9915C1035.13 83.6676 1034.47 84.6094 1034.03 85.8168C1033.58 87.0241 1033.36 88.4187 1033.36 90.0004C1033.36 91.6062 1033.58 92.9947 1034.03 94.1658C1034.48 95.3249 1035.14 96.2244 1036 96.8643C1036.87 97.4922 1037.94 97.8061 1039.21 97.8061ZM1071.46 104.543C1068.6 104.543 1066.14 103.964 1064.07 102.805C1062.02 101.634 1060.44 99.9794 1059.33 97.8423C1058.22 95.6932 1057.66 93.1516 1057.66 90.2177C1057.66 87.3562 1058.22 84.8448 1059.33 82.6836C1060.44 80.5224 1062 78.8381 1064.02 77.6307C1066.05 76.4233 1068.42 75.8196 1071.15 75.8196C1072.99 75.8196 1074.7 76.1154 1076.28 76.707C1077.87 77.2866 1079.26 78.1619 1080.44 79.3331C1081.64 80.5043 1082.57 81.9773 1083.23 83.7521C1083.9 85.5149 1084.23 87.5795 1084.23 89.946V92.065H1060.74V87.2837H1076.97C1076.97 86.1729 1076.73 85.1889 1076.24 84.3317C1075.76 83.4744 1075.09 82.8043 1074.23 82.3214C1073.39 81.8263 1072.4 81.5788 1071.28 81.5788C1070.11 81.5788 1069.07 81.8505 1068.16 82.3938C1067.27 82.9251 1066.57 83.6435 1066.06 84.549C1065.56 85.4425 1065.3 86.4386 1065.29 87.5373V92.0831C1065.29 93.4595 1065.54 94.6488 1066.05 95.6509C1066.57 96.6531 1067.3 97.4258 1068.24 97.9691C1069.18 98.5124 1070.3 98.7841 1071.59 98.7841C1072.45 98.7841 1073.23 98.6634 1073.94 98.4219C1074.65 98.1804 1075.26 97.8182 1075.77 97.3352C1076.28 96.8523 1076.66 96.2607 1076.93 95.5604L1084.07 96.0312C1083.7 97.7457 1082.96 99.2429 1081.84 100.523C1080.73 101.79 1079.29 102.781 1077.53 103.493C1075.78 104.193 1073.76 104.543 1071.46 104.543ZM1089.26 104V76.1818H1096.98V104H1089.26ZM1093.14 72.5959C1091.99 72.5959 1091.01 72.2156 1090.19 71.4549C1089.38 70.6822 1088.97 69.7585 1088.97 68.6839C1088.97 67.6214 1089.38 66.7099 1090.19 65.9492C1091.01 65.1765 1091.99 64.7901 1093.14 64.7901C1094.29 64.7901 1095.26 65.1765 1096.07 65.9492C1096.89 66.7099 1097.31 67.6214 1097.31 68.6839C1097.31 69.7585 1096.89 70.6822 1096.07 71.4549C1095.26 72.2156 1094.29 72.5959 1093.14 72.5959ZM1126.3 84.1143L1119.24 84.549C1119.12 83.9453 1118.86 83.402 1118.46 82.919C1118.06 82.424 1117.54 82.0316 1116.89 81.7418C1116.25 81.44 1115.48 81.2891 1114.59 81.2891C1113.39 81.2891 1112.38 81.5426 1111.56 82.0497C1110.74 82.5447 1110.33 83.2088 1110.33 84.0419C1110.33 84.706 1110.6 85.2674 1111.13 85.7262C1111.66 86.185 1112.57 86.5533 1113.86 86.831L1118.9 87.8452C1121.6 88.4006 1123.62 89.294 1124.95 90.5256C1126.27 91.7571 1126.94 93.375 1126.94 95.3793C1126.94 97.2024 1126.4 98.8022 1125.33 100.179C1124.26 101.555 1122.8 102.63 1120.94 103.402C1119.1 104.163 1116.97 104.543 1114.55 104.543C1110.87 104.543 1107.93 103.777 1105.75 102.243C1103.58 100.698 1102.3 98.5969 1101.93 95.9407L1109.52 95.5423C1109.75 96.6651 1110.3 97.5224 1111.18 98.114C1112.06 98.6935 1113.19 98.9833 1114.57 98.9833C1115.92 98.9833 1117.01 98.7237 1117.83 98.2045C1118.66 97.6733 1119.08 96.9911 1119.1 96.158C1119.08 95.4577 1118.79 94.8842 1118.21 94.4375C1117.63 93.9787 1116.74 93.6286 1115.53 93.3871L1110.71 92.4272C1107.99 91.8839 1105.97 90.9421 1104.64 89.6019C1103.33 88.2617 1102.67 86.5533 1102.67 84.4766C1102.67 82.6896 1103.15 81.1502 1104.12 79.8583C1105.1 78.5664 1106.47 77.5703 1108.23 76.87C1110.01 76.1697 1112.08 75.8196 1114.46 75.8196C1117.97 75.8196 1120.74 76.5621 1122.76 78.0472C1124.78 79.5323 1125.97 81.5547 1126.3 84.1143Z" fill="white"/>
<path d="M125.418 241L130.851 208.273H141.414C143.736 208.273 145.606 208.715 147.023 209.599C148.44 210.483 149.415 211.687 149.947 213.211C150.491 214.734 150.602 216.455 150.283 218.372C149.974 220.268 149.292 221.984 148.237 223.518C147.193 225.041 145.814 226.25 144.099 227.145C142.394 228.04 140.391 228.488 138.09 228.488H129.78L130.228 225.803H138.458C140.173 225.803 141.648 225.483 142.884 224.844C144.131 224.194 145.127 223.31 145.872 222.191C146.618 221.062 147.108 219.789 147.343 218.372C147.577 216.934 147.502 215.656 147.119 214.537C146.746 213.418 146.043 212.545 145.009 211.916C143.987 211.277 142.612 210.957 140.887 210.957H133.392L128.406 241H125.418ZM162.34 241.511C160.188 241.511 158.377 240.968 156.907 239.881C155.436 238.784 154.398 237.266 153.791 235.327C153.183 233.388 153.082 231.151 153.487 228.615C153.892 226.144 154.696 223.971 155.9 222.096C157.114 220.21 158.606 218.745 160.374 217.701C162.143 216.646 164.066 216.119 166.143 216.119C168.306 216.119 170.117 216.668 171.576 217.765C173.047 218.862 174.085 220.38 174.693 222.319C175.31 224.258 175.417 226.501 175.012 229.047C174.607 231.508 173.798 233.676 172.583 235.551C171.369 237.415 169.877 238.875 168.109 239.929C166.351 240.984 164.428 241.511 162.34 241.511ZM162.372 238.907C164.119 238.907 165.674 238.443 167.038 237.516C168.412 236.579 169.547 235.332 170.442 233.777C171.337 232.211 171.939 230.49 172.248 228.615C172.535 226.826 172.503 225.18 172.152 223.678C171.8 222.175 171.124 220.972 170.122 220.066C169.121 219.161 167.789 218.708 166.127 218.708C164.391 218.708 162.835 219.182 161.461 220.13C160.087 221.067 158.952 222.325 158.057 223.901C157.162 225.467 156.566 227.183 156.267 229.047C155.969 230.847 155.99 232.493 156.331 233.985C156.683 235.476 157.359 236.669 158.361 237.564C159.373 238.459 160.71 238.907 162.372 238.907ZM165.504 213.051L170.793 205.796H174.181L168.093 213.051H165.504ZM198.962 221.84L196.23 222.543C196.091 221.808 195.836 221.147 195.463 220.561C195.1 219.965 194.573 219.496 193.881 219.155C193.199 218.804 192.304 218.628 191.196 218.628C189.534 218.628 188.101 219.033 186.897 219.842C185.693 220.641 184.99 221.664 184.788 222.911C184.617 223.955 184.836 224.801 185.443 225.451C186.061 226.101 187.094 226.613 188.543 226.985L192.123 227.896C194.104 228.408 195.516 229.207 196.358 230.293C197.21 231.38 197.503 232.754 197.236 234.416C197.002 235.801 196.411 237.026 195.463 238.092C194.525 239.157 193.321 239.993 191.851 240.6C190.392 241.208 188.762 241.511 186.961 241.511C184.543 241.511 182.641 240.968 181.256 239.881C179.882 238.795 179.147 237.229 179.051 235.183L181.912 234.544C181.997 235.993 182.492 237.09 183.398 237.836C184.314 238.582 185.603 238.955 187.265 238.955C189.161 238.955 190.754 238.523 192.043 237.66C193.332 236.797 194.072 235.732 194.264 234.464C194.445 233.463 194.259 232.632 193.705 231.971C193.162 231.311 192.235 230.821 190.924 230.501L187.105 229.542C185.049 229.02 183.595 228.205 182.742 227.097C181.901 225.979 181.619 224.599 181.896 222.958C182.119 221.605 182.684 220.418 183.589 219.395C184.495 218.372 185.64 217.573 187.025 216.998C188.41 216.412 189.923 216.119 191.564 216.119C193.822 216.119 195.543 216.63 196.725 217.653C197.908 218.665 198.653 220.061 198.962 221.84ZM241.929 218.5C241.822 217.403 241.577 216.38 241.194 215.432C240.81 214.473 240.272 213.637 239.58 212.923C238.887 212.209 238.03 211.65 237.007 211.245C235.995 210.84 234.802 210.638 233.427 210.638C231.393 210.638 229.422 211.176 227.515 212.252C225.618 213.328 223.973 214.91 222.577 216.998C221.192 219.075 220.249 221.621 219.748 224.636C219.258 227.587 219.306 230.107 219.892 232.195C220.478 234.283 221.517 235.881 223.008 236.989C224.5 238.086 226.359 238.635 228.585 238.635C230.588 238.635 232.453 238.187 234.178 237.293C235.904 236.387 237.359 235.103 238.541 233.441C239.724 231.779 240.491 229.809 240.842 227.529L241.737 227.832H231.254L231.75 225.148H244.166L243.671 227.832C243.223 230.634 242.27 233.053 240.81 235.087C239.351 237.122 237.54 238.694 235.377 239.801C233.214 240.899 230.86 241.447 228.314 241.447C225.459 241.447 223.072 240.76 221.155 239.386C219.248 238.001 217.911 236.051 217.144 233.537C216.377 231.023 216.281 228.056 216.856 224.636C217.261 222.069 217.975 219.752 218.997 217.685C220.02 215.618 221.277 213.855 222.769 212.396C224.271 210.925 225.943 209.796 227.786 209.008C229.64 208.219 231.6 207.825 233.667 207.825C235.457 207.825 237.05 208.108 238.445 208.672C239.841 209.237 241.023 210.015 241.993 211.005C242.962 211.985 243.697 213.12 244.198 214.409C244.709 215.687 244.976 217.051 244.997 218.5H241.929ZM248.357 241L252.448 216.455H255.212L254.573 220.226H254.781C255.463 218.99 256.48 217.994 257.833 217.238C259.197 216.471 260.651 216.087 262.196 216.087C262.43 216.087 262.691 216.092 262.979 216.103C263.266 216.103 263.506 216.114 263.698 216.135L263.202 219.027C263.075 219.006 262.851 218.974 262.531 218.931C262.222 218.889 261.876 218.868 261.492 218.868C260.214 218.868 259.032 219.139 257.945 219.683C256.869 220.215 255.963 220.956 255.228 221.904C254.504 222.852 254.035 223.933 253.822 225.148L251.201 241H248.357ZM271.232 241.559C269.752 241.559 268.447 241.272 267.317 240.696C266.188 240.11 265.346 239.269 264.792 238.172C264.249 237.064 264.1 235.721 264.345 234.145C264.558 232.93 264.963 231.907 265.559 231.076C266.167 230.245 266.934 229.564 267.861 229.031C268.787 228.488 269.853 228.061 271.057 227.752C272.26 227.444 273.571 227.209 274.988 227.049C276.373 226.879 277.555 226.73 278.535 226.602C279.515 226.474 280.277 226.272 280.82 225.995C281.364 225.718 281.689 225.27 281.795 224.652L281.891 224.077C282.168 222.404 281.912 221.089 281.124 220.13C280.336 219.161 279.015 218.676 277.161 218.676C275.393 218.676 273.858 219.07 272.559 219.858C271.27 220.636 270.311 221.547 269.682 222.591L267.157 221.616C267.924 220.274 268.867 219.203 269.986 218.404C271.105 217.594 272.303 217.014 273.581 216.662C274.86 216.3 276.122 216.119 277.369 216.119C278.306 216.119 279.26 216.241 280.229 216.487C281.199 216.732 282.067 217.158 282.834 217.765C283.612 218.362 284.182 219.198 284.544 220.274C284.917 221.339 284.97 222.692 284.704 224.333L281.923 241H279.079L279.734 237.117H279.558C279.111 237.841 278.493 238.544 277.704 239.226C276.927 239.908 275.994 240.467 274.908 240.904C273.821 241.341 272.596 241.559 271.232 241.559ZM271.951 238.955C273.464 238.955 274.833 238.619 276.058 237.948C277.294 237.277 278.306 236.387 279.095 235.279C279.894 234.161 280.405 232.93 280.629 231.588L281.22 228.04C280.986 228.243 280.602 228.424 280.069 228.583C279.547 228.743 278.956 228.887 278.296 229.015C277.646 229.132 276.991 229.233 276.33 229.319C275.68 229.404 275.105 229.478 274.604 229.542C273.187 229.713 271.951 229.979 270.897 230.341C269.853 230.703 269.016 231.204 268.388 231.843C267.759 232.472 267.365 233.282 267.205 234.272C266.96 235.764 267.285 236.92 268.18 237.74C269.086 238.55 270.343 238.955 271.951 238.955ZM298.279 241.511C296.265 241.511 294.587 240.979 293.245 239.913C291.903 238.848 290.965 237.362 290.432 235.455C289.9 233.548 289.841 231.327 290.257 228.791C290.683 226.266 291.477 224.056 292.638 222.159C293.81 220.252 295.242 218.772 296.936 217.717C298.641 216.652 300.5 216.119 302.513 216.119C304.016 216.119 305.214 216.385 306.109 216.918C307.015 217.44 307.702 218.09 308.17 218.868C308.639 219.645 308.975 220.402 309.177 221.137H309.433L311.574 208.273H314.435L309.001 241H306.237L307.004 236.446H306.652C306.194 237.191 305.592 237.958 304.847 238.747C304.111 239.525 303.206 240.18 302.13 240.712C301.054 241.245 299.77 241.511 298.279 241.511ZM298.902 238.907C300.489 238.907 301.922 238.475 303.201 237.612C304.49 236.739 305.566 235.54 306.429 234.017C307.302 232.483 307.899 230.725 308.218 228.743C308.549 226.783 308.543 225.052 308.202 223.55C307.861 222.037 307.201 220.854 306.221 220.002C305.241 219.139 303.946 218.708 302.338 218.708C300.708 218.708 299.259 219.155 297.991 220.05C296.723 220.934 295.674 222.133 294.843 223.646C294.023 225.158 293.453 226.858 293.133 228.743C292.824 230.65 292.824 232.371 293.133 233.905C293.442 235.439 294.071 236.659 295.019 237.564C295.978 238.459 297.272 238.907 298.902 238.907ZM334.234 231.62L336.775 216.455H339.619L335.528 241H332.684L333.355 236.925H333.147C332.38 238.182 331.294 239.232 329.887 240.073C328.492 240.904 326.894 241.32 325.093 241.32C323.527 241.32 322.19 240.979 321.082 240.297C319.985 239.604 319.202 238.592 318.733 237.261C318.265 235.929 318.19 234.294 318.51 232.355L321.178 216.455H324.023L321.402 232.179C321.093 234.097 321.402 235.641 322.329 236.813C323.266 237.974 324.619 238.555 326.388 238.555C327.496 238.555 328.604 238.289 329.712 237.756C330.83 237.223 331.8 236.446 332.62 235.423C333.451 234.39 333.989 233.122 334.234 231.62ZM349.851 241.559C348.37 241.559 347.065 241.272 345.935 240.696C344.806 240.11 343.965 239.269 343.411 238.172C342.867 237.064 342.718 235.721 342.963 234.145C343.176 232.93 343.581 231.907 344.178 231.076C344.785 230.245 345.552 229.564 346.479 229.031C347.406 228.488 348.471 228.061 349.675 227.752C350.879 227.444 352.189 227.209 353.606 227.049C354.991 226.879 356.173 226.73 357.153 226.602C358.134 226.474 358.895 226.272 359.439 225.995C359.982 225.718 360.307 225.27 360.413 224.652L360.509 224.077C360.786 222.404 360.531 221.089 359.742 220.13C358.954 219.161 357.633 218.676 355.779 218.676C354.011 218.676 352.477 219.07 351.177 219.858C349.888 220.636 348.929 221.547 348.3 222.591L345.776 221.616C346.543 220.274 347.485 219.203 348.604 218.404C349.723 217.594 350.921 217.014 352.2 216.662C353.478 216.3 354.74 216.119 355.987 216.119C356.924 216.119 357.878 216.241 358.847 216.487C359.817 216.732 360.685 217.158 361.452 217.765C362.23 218.362 362.8 219.198 363.162 220.274C363.535 221.339 363.588 222.692 363.322 224.333L360.541 241H357.697L358.352 237.117H358.176C357.729 237.841 357.111 238.544 356.322 239.226C355.545 239.908 354.613 240.467 353.526 240.904C352.439 241.341 351.214 241.559 349.851 241.559ZM350.57 238.955C352.082 238.955 353.451 238.619 354.677 237.948C355.912 237.277 356.924 236.387 357.713 235.279C358.512 234.161 359.023 232.93 359.247 231.588L359.838 228.04C359.604 228.243 359.22 228.424 358.688 228.583C358.166 228.743 357.574 228.887 356.914 229.015C356.264 229.132 355.609 229.233 354.948 229.319C354.298 229.404 353.723 229.478 353.222 229.542C351.805 229.713 350.57 229.979 349.515 230.341C348.471 230.703 347.635 231.204 347.006 231.843C346.378 232.472 345.983 233.282 345.824 234.272C345.579 235.764 345.903 236.92 346.798 237.74C347.704 238.55 348.961 238.955 350.57 238.955ZM377.632 241.511C375.416 241.511 373.589 240.963 372.151 239.865C370.713 238.768 369.706 237.266 369.131 235.359C368.566 233.441 368.486 231.268 368.891 228.839C369.296 226.368 370.111 224.178 371.336 222.271C372.561 220.354 374.074 218.852 375.874 217.765C377.685 216.668 379.661 216.119 381.803 216.119C383.454 216.119 384.892 216.439 386.117 217.078C387.343 217.706 388.291 218.596 388.962 219.746C389.633 220.886 389.953 222.218 389.921 223.741H387.044C386.97 222.325 386.453 221.131 385.494 220.162C384.546 219.192 383.204 218.708 381.467 218.708C379.88 218.708 378.41 219.134 377.057 219.986C375.704 220.828 374.558 222.005 373.621 223.518C372.694 225.02 372.071 226.762 371.751 228.743C371.41 230.735 371.442 232.499 371.847 234.033C372.252 235.556 372.976 236.749 374.02 237.612C375.075 238.475 376.407 238.907 378.015 238.907C379.113 238.907 380.146 238.704 381.116 238.299C382.085 237.884 382.943 237.298 383.688 236.542C384.434 235.775 385.004 234.874 385.398 233.841H388.275C387.795 235.332 387.039 236.653 386.006 237.804C384.983 238.955 383.758 239.86 382.33 240.521C380.903 241.181 379.337 241.511 377.632 241.511ZM376.465 240.872H378.894L378.399 242.151C379.315 242.289 380.045 242.657 380.588 243.253C381.132 243.86 381.302 244.745 381.1 245.906C380.887 247.195 380.215 248.218 379.086 248.974C377.968 249.73 376.439 250.119 374.5 250.141L374.756 248.143C375.81 248.132 376.668 247.957 377.328 247.616C377.989 247.275 378.378 246.732 378.495 245.986C378.633 245.187 378.447 244.622 377.936 244.292C377.435 243.962 376.583 243.765 375.379 243.701L376.465 240.872ZM399.948 241.559C398.467 241.559 397.162 241.272 396.033 240.696C394.904 240.11 394.062 239.269 393.508 238.172C392.965 237.064 392.816 235.721 393.061 234.145C393.274 232.93 393.679 231.907 394.275 231.076C394.883 230.245 395.65 229.564 396.576 229.031C397.503 228.488 398.569 228.061 399.772 227.752C400.976 227.444 402.287 227.209 403.704 227.049C405.088 226.879 406.271 226.73 407.251 226.602C408.231 226.474 408.993 226.272 409.536 225.995C410.08 225.718 410.405 225.27 410.511 224.652L410.607 224.077C410.884 222.404 410.628 221.089 409.84 220.13C409.052 219.161 407.731 218.676 405.877 218.676C404.108 218.676 402.574 219.07 401.275 219.858C399.985 220.636 399.027 221.547 398.398 222.591L395.873 221.616C396.64 220.274 397.583 219.203 398.702 218.404C399.82 217.594 401.019 217.014 402.297 216.662C403.576 216.3 404.838 216.119 406.085 216.119C407.022 216.119 407.976 216.241 408.945 216.487C409.914 216.732 410.783 217.158 411.55 217.765C412.327 218.362 412.897 219.198 413.26 220.274C413.633 221.339 413.686 222.692 413.419 224.333L410.639 241H407.794L408.45 237.117H408.274C407.826 237.841 407.208 238.544 406.42 239.226C405.642 239.908 404.71 240.467 403.624 240.904C402.537 241.341 401.312 241.559 399.948 241.559ZM400.667 238.955C402.18 238.955 403.549 238.619 404.774 237.948C406.01 237.277 407.022 236.387 407.81 235.279C408.609 234.161 409.121 232.93 409.345 231.588L409.936 228.04C409.701 228.243 409.318 228.424 408.785 228.583C408.263 228.743 407.672 228.887 407.011 229.015C406.362 229.132 405.706 229.233 405.046 229.319C404.396 229.404 403.821 229.478 403.32 229.542C401.903 229.713 400.667 229.979 399.613 230.341C398.569 230.703 397.732 231.204 397.104 231.843C396.475 232.472 396.081 233.282 395.921 234.272C395.676 235.764 396.001 236.92 396.896 237.74C397.802 238.55 399.059 238.955 400.667 238.955ZM401.418 213.067L399.149 212.939C399.426 211.522 400.081 210.361 401.115 209.455C402.148 208.55 403.304 208.097 404.582 208.097C405.232 208.097 405.781 208.214 406.228 208.449C406.686 208.672 407.107 208.933 407.491 209.232C407.874 209.519 408.274 209.775 408.689 209.999C409.115 210.222 409.616 210.334 410.191 210.334C410.841 210.334 411.449 210.1 412.013 209.631C412.588 209.162 412.956 208.582 413.116 207.889L415.305 208.145C415.007 209.572 414.336 210.718 413.292 211.581C412.258 212.433 411.124 212.859 409.888 212.859C409.174 212.859 408.593 212.747 408.146 212.523C407.709 212.289 407.315 212.028 406.963 211.74C406.623 211.442 406.255 211.181 405.861 210.957C405.467 210.734 404.95 210.622 404.311 210.622C403.629 210.622 403.016 210.856 402.473 211.325C401.93 211.794 401.578 212.374 401.418 213.067ZM427.857 241.511C425.705 241.511 423.894 240.968 422.424 239.881C420.954 238.784 419.915 237.266 419.308 235.327C418.701 233.388 418.6 231.151 419.004 228.615C419.409 226.144 420.214 223.971 421.417 222.096C422.632 220.21 424.123 218.745 425.892 217.701C427.66 216.646 429.583 216.119 431.661 216.119C433.823 216.119 435.634 216.668 437.094 217.765C438.564 218.862 439.603 220.38 440.21 222.319C440.828 224.258 440.935 226.501 440.53 229.047C440.125 231.508 439.315 233.676 438.101 235.551C436.886 237.415 435.395 238.875 433.626 239.929C431.868 240.984 429.946 241.511 427.857 241.511ZM427.889 238.907C429.637 238.907 431.192 238.443 432.556 237.516C433.93 236.579 435.064 235.332 435.959 233.777C436.854 232.211 437.456 230.49 437.765 228.615C438.053 226.826 438.021 225.18 437.669 223.678C437.318 222.175 436.641 220.972 435.64 220.066C434.638 219.161 433.307 218.708 431.645 218.708C429.908 218.708 428.353 219.182 426.979 220.13C425.604 221.067 424.47 222.325 423.575 223.901C422.68 225.467 422.083 227.183 421.785 229.047C421.487 230.847 421.508 232.493 421.849 233.985C422.201 235.476 422.877 236.669 423.878 237.564C424.89 238.459 426.227 238.907 427.889 238.907ZM467.308 241.511C465.018 241.511 463.127 240.979 461.635 239.913C460.144 238.837 459.1 237.351 458.503 235.455C457.907 233.548 457.816 231.353 458.232 228.871C458.647 226.4 459.467 224.205 460.693 222.287C461.918 220.359 463.431 218.852 465.231 217.765C467.031 216.668 468.986 216.119 471.096 216.119C472.427 216.119 473.674 216.364 474.835 216.854C475.996 217.333 476.982 218.074 477.791 219.075C478.612 220.066 479.182 221.318 479.501 222.831C479.821 224.333 479.81 226.112 479.469 228.168L479.246 229.574H460.069L460.469 227.065H476.753C477.019 225.489 476.944 224.072 476.529 222.815C476.113 221.558 475.405 220.561 474.404 219.826C473.413 219.081 472.182 218.708 470.712 218.708C469.21 218.708 467.788 219.129 466.445 219.97C465.114 220.812 463.985 221.909 463.058 223.262C462.141 224.604 461.55 226.037 461.284 227.561L460.964 229.446C460.623 231.524 460.666 233.266 461.092 234.672C461.518 236.067 462.291 237.122 463.409 237.836C464.528 238.55 465.961 238.907 467.708 238.907C468.88 238.907 469.94 238.725 470.888 238.363C471.836 238.001 472.662 237.516 473.365 236.909C474.068 236.291 474.633 235.615 475.059 234.88L477.6 235.759C477.056 236.792 476.289 237.745 475.298 238.619C474.318 239.493 473.152 240.196 471.799 240.728C470.456 241.25 468.96 241.511 467.308 241.511ZM483.596 241L487.687 216.455H490.452L489.812 220.226H490.068C490.782 218.958 491.773 217.962 493.04 217.238C494.308 216.502 495.746 216.135 497.355 216.135C499.038 216.135 500.359 216.534 501.318 217.333C502.277 218.122 502.916 219.208 503.236 220.593H503.443C504.21 219.23 505.292 218.148 506.687 217.349C508.083 216.54 509.676 216.135 511.465 216.135C513.735 216.135 515.413 216.854 516.499 218.292C517.586 219.73 517.9 221.819 517.442 224.556L514.693 241H511.849L514.598 224.556C514.906 222.618 514.656 221.163 513.846 220.194C513.037 219.224 511.822 218.74 510.203 218.74C508.328 218.74 506.778 219.315 505.553 220.466C504.338 221.605 503.587 223.065 503.3 224.844L500.599 241H497.691L500.487 224.301C500.753 222.639 500.514 221.297 499.768 220.274C499.033 219.251 497.824 218.74 496.14 218.74C495.001 218.74 493.93 219.022 492.928 219.587C491.938 220.141 491.096 220.913 490.404 221.904C489.722 222.884 489.274 224.008 489.061 225.276L486.441 241H483.596ZM540.905 208.273H544.356L551.516 236.781H551.819L568.391 208.273H571.842L566.409 241H563.597L568.007 214.585H567.751L552.299 241H549.582L542.95 214.585H542.695L538.284 241H535.472L540.905 208.273ZM584.379 241.511C582.088 241.511 580.197 240.979 578.706 239.913C577.214 238.837 576.17 237.351 575.574 235.455C574.977 233.548 574.886 231.353 575.302 228.871C575.717 226.4 576.538 224.205 577.763 222.287C578.988 220.359 580.501 218.852 582.301 217.765C584.102 216.668 586.057 216.119 588.166 216.119C589.498 216.119 590.744 216.364 591.905 216.854C593.067 217.333 594.052 218.074 594.862 219.075C595.682 220.066 596.252 221.318 596.572 222.831C596.891 224.333 596.88 226.112 596.54 228.168L596.316 229.574H577.14L577.539 227.065H593.823C594.089 225.489 594.015 224.072 593.599 222.815C593.184 221.558 592.475 220.561 591.474 219.826C590.483 219.081 589.253 218.708 587.782 218.708C586.28 218.708 584.858 219.129 583.516 219.97C582.184 220.812 581.055 221.909 580.128 223.262C579.212 224.604 578.621 226.037 578.354 227.561L578.035 229.446C577.694 231.524 577.736 233.266 578.162 234.672C578.589 236.067 579.361 237.122 580.48 237.836C581.598 238.55 583.031 238.907 584.778 238.907C585.95 238.907 587.01 238.725 587.958 238.363C588.906 238.001 589.732 237.516 590.435 236.909C591.138 236.291 591.703 235.615 592.129 234.88L594.67 235.759C594.127 236.792 593.36 237.745 592.369 238.619C591.389 239.493 590.222 240.196 588.869 240.728C587.527 241.25 586.03 241.511 584.379 241.511ZM614.425 216.455L614.026 218.931H602.296L602.712 216.455H614.425ZM607.33 210.574H610.191L606.196 234.592C606.025 235.615 606.068 236.419 606.323 237.005C606.579 237.58 606.973 237.99 607.506 238.235C608.039 238.47 608.625 238.587 609.264 238.587C609.637 238.587 609.956 238.566 610.223 238.523C610.5 238.47 610.745 238.417 610.958 238.363L611.165 240.936C610.856 241.043 610.489 241.138 610.063 241.224C609.637 241.32 609.125 241.368 608.529 241.368C607.485 241.368 606.52 241.138 605.636 240.68C604.752 240.222 604.081 239.54 603.623 238.635C603.165 237.729 603.042 236.605 603.255 235.263L607.33 210.574ZM626.183 241.511C624.031 241.511 622.22 240.968 620.749 239.881C619.279 238.784 618.241 237.266 617.633 235.327C617.026 233.388 616.925 231.151 617.33 228.615C617.735 226.144 618.539 223.971 619.743 222.096C620.957 220.21 622.449 218.745 624.217 217.701C625.986 216.646 627.909 216.119 629.986 216.119C632.149 216.119 633.96 216.668 635.419 217.765C636.889 218.862 637.928 220.38 638.535 222.319C639.153 224.258 639.26 226.501 638.855 229.047C638.45 231.508 637.64 233.676 636.426 235.551C635.211 237.415 633.72 238.875 631.951 239.929C630.194 240.984 628.271 241.511 626.183 241.511ZM626.215 238.907C627.962 238.907 629.517 238.443 630.881 237.516C632.255 236.579 633.39 235.332 634.285 233.777C635.179 232.211 635.781 230.49 636.09 228.615C636.378 226.826 636.346 225.18 635.994 223.678C635.643 222.175 634.966 220.972 633.965 220.066C632.964 219.161 631.632 218.708 629.97 218.708C628.233 218.708 626.678 219.182 625.304 220.13C623.929 221.067 622.795 222.325 621.9 223.901C621.005 225.467 620.409 227.183 620.11 229.047C619.812 230.847 619.833 232.493 620.174 233.985C620.526 235.476 621.202 236.669 622.204 237.564C623.216 238.459 624.553 238.907 626.215 238.907ZM651.907 241.511C649.893 241.511 648.215 240.979 646.873 239.913C645.531 238.848 644.593 237.362 644.06 235.455C643.528 233.548 643.469 231.327 643.885 228.791C644.311 226.266 645.104 224.056 646.266 222.159C647.438 220.252 648.87 218.772 650.564 217.717C652.269 216.652 654.128 216.119 656.141 216.119C657.644 216.119 658.842 216.385 659.737 216.918C660.642 217.44 661.33 218.09 661.798 218.868C662.267 219.645 662.603 220.402 662.805 221.137H663.061L665.202 208.273H668.063L662.629 241H659.865L660.632 236.446H660.28C659.822 237.191 659.22 237.958 658.474 238.747C657.739 239.525 656.834 240.18 655.758 240.712C654.682 241.245 653.398 241.511 651.907 241.511ZM652.53 238.907C654.117 238.907 655.55 238.475 656.829 237.612C658.118 236.739 659.194 235.54 660.057 234.017C660.93 232.483 661.527 230.725 661.846 228.743C662.177 226.783 662.171 225.052 661.83 223.55C661.489 222.037 660.829 220.854 659.849 220.002C658.869 219.139 657.574 218.708 655.966 218.708C654.336 218.708 652.887 219.155 651.619 220.05C650.351 220.934 649.302 222.133 648.471 223.646C647.651 225.158 647.081 226.858 646.761 228.743C646.452 230.65 646.452 232.371 646.761 233.905C647.07 235.439 647.699 236.659 648.647 237.564C649.606 238.459 650.9 238.907 652.53 238.907ZM680.367 241.511C678.215 241.511 676.404 240.968 674.934 239.881C673.464 238.784 672.425 237.266 671.818 235.327C671.211 233.388 671.109 231.151 671.514 228.615C671.919 226.144 672.723 223.971 673.927 222.096C675.142 220.21 676.633 218.745 678.402 217.701C680.17 216.646 682.093 216.119 684.17 216.119C686.333 216.119 688.144 216.668 689.604 217.765C691.074 218.862 692.113 220.38 692.72 222.319C693.338 224.258 693.444 226.501 693.039 229.047C692.635 231.508 691.825 233.676 690.61 235.551C689.396 237.415 687.905 238.875 686.136 239.929C684.378 240.984 682.455 241.511 680.367 241.511ZM680.399 238.907C682.146 238.907 683.702 238.443 685.065 237.516C686.44 236.579 687.574 235.332 688.469 233.777C689.364 232.211 689.966 230.49 690.275 228.615C690.563 226.826 690.531 225.18 690.179 223.678C689.827 222.175 689.151 220.972 688.15 220.066C687.148 219.161 685.816 218.708 684.155 218.708C682.418 218.708 680.863 219.182 679.488 220.13C678.114 221.067 676.979 222.325 676.085 223.901C675.19 225.467 674.593 227.183 674.295 229.047C673.996 230.847 674.018 232.493 674.359 233.985C674.71 235.476 675.387 236.669 676.388 237.564C677.4 238.459 678.737 238.907 680.399 238.907ZM705.58 208.273L700.147 241H697.302L702.735 208.273H705.58ZM717.325 241.511C715.173 241.511 713.362 240.968 711.892 239.881C710.422 238.784 709.383 237.266 708.776 235.327C708.169 233.388 708.067 231.151 708.472 228.615C708.877 226.144 709.681 223.971 710.885 222.096C712.1 220.21 713.591 218.745 715.36 217.701C717.128 216.646 719.051 216.119 721.129 216.119C723.291 216.119 725.102 216.668 726.562 217.765C728.032 218.862 729.071 220.38 729.678 222.319C730.296 224.258 730.402 226.501 729.997 229.047C729.593 231.508 728.783 233.676 727.568 235.551C726.354 237.415 724.863 238.875 723.094 239.929C721.336 240.984 719.413 241.511 717.325 241.511ZM717.357 238.907C719.104 238.907 720.66 238.443 722.023 237.516C723.398 236.579 724.532 235.332 725.427 233.777C726.322 232.211 726.924 230.49 727.233 228.615C727.521 226.826 727.489 225.18 727.137 223.678C726.785 222.175 726.109 220.972 725.108 220.066C724.106 219.161 722.774 218.708 721.113 218.708C719.376 218.708 717.821 219.182 716.446 220.13C715.072 221.067 713.937 222.325 713.043 223.901C712.148 225.467 711.551 227.183 711.253 229.047C710.955 230.847 710.976 232.493 711.317 233.985C711.668 235.476 712.345 236.669 713.346 237.564C714.358 238.459 715.695 238.907 717.357 238.907ZM742.09 250.716C740.418 250.716 738.985 250.498 737.792 250.061C736.599 249.635 735.629 249.049 734.883 248.303C734.148 247.557 733.61 246.721 733.269 245.794L735.858 244.276C736.093 244.894 736.449 245.501 736.929 246.098C737.408 246.694 738.085 247.184 738.958 247.568C739.832 247.962 740.977 248.159 742.394 248.159C744.557 248.159 746.416 247.61 747.971 246.513C749.527 245.426 750.496 243.743 750.879 241.463L751.742 235.934H751.487C751.05 236.68 750.464 237.426 749.729 238.172C748.994 238.907 748.083 239.519 746.996 240.009C745.92 240.499 744.647 240.744 743.177 240.744C741.217 240.744 739.555 240.26 738.191 239.29C736.828 238.321 735.864 236.936 735.299 235.135C734.734 233.324 734.665 231.167 735.091 228.663C735.496 226.181 736.274 223.997 737.424 222.112C738.585 220.226 740.013 218.756 741.707 217.701C743.411 216.646 745.276 216.119 747.3 216.119C748.802 216.119 750.006 216.385 750.911 216.918C751.817 217.44 752.504 218.09 752.973 218.868C753.452 219.645 753.799 220.402 754.012 221.137H754.299L755.066 216.455H757.847L753.692 241.639C753.34 243.717 752.616 245.426 751.519 246.769C750.421 248.111 749.058 249.102 747.428 249.741C745.808 250.391 744.029 250.716 742.09 250.716ZM743.816 238.14C745.393 238.14 746.81 237.761 748.067 237.005C749.335 236.238 750.395 235.146 751.247 233.729C752.11 232.301 752.701 230.597 753.021 228.615C753.34 226.698 753.324 224.999 752.973 223.518C752.632 222.026 751.966 220.854 750.975 220.002C749.995 219.139 748.706 218.708 747.108 218.708C745.457 218.708 743.997 219.15 742.73 220.034C741.473 220.918 740.434 222.112 739.614 223.614C738.804 225.105 738.245 226.772 737.936 228.615C737.637 230.49 737.648 232.147 737.968 233.585C738.298 235.013 738.948 236.131 739.917 236.941C740.887 237.74 742.186 238.14 743.816 238.14ZM761.318 241L765.409 216.455H768.27L764.179 241H761.318ZM767.87 212.188C767.274 212.188 766.768 211.985 766.352 211.581C765.947 211.176 765.75 210.686 765.761 210.11C765.782 209.567 766.001 209.098 766.416 208.704C766.842 208.299 767.343 208.097 767.918 208.097C768.515 208.097 769.021 208.305 769.436 208.72C769.852 209.125 770.049 209.615 770.028 210.19C770.017 210.734 769.799 211.202 769.372 211.597C768.946 211.991 768.446 212.188 767.87 212.188ZM778.493 241.559C777.012 241.559 775.707 241.272 774.578 240.696C773.449 240.11 772.607 239.269 772.053 238.172C771.51 237.064 771.361 235.721 771.606 234.145C771.819 232.93 772.224 231.907 772.82 231.076C773.427 230.245 774.194 229.564 775.121 229.031C776.048 228.488 777.114 228.061 778.317 227.752C779.521 227.444 780.832 227.209 782.248 227.049C783.633 226.879 784.816 226.73 785.796 226.602C786.776 226.474 787.538 226.272 788.081 225.995C788.625 225.718 788.949 225.27 789.056 224.652L789.152 224.077C789.429 222.404 789.173 221.089 788.385 220.13C787.596 219.161 786.275 218.676 784.422 218.676C782.653 218.676 781.119 219.07 779.819 219.858C778.53 220.636 777.572 221.547 776.943 222.591L774.418 221.616C775.185 220.274 776.128 219.203 777.247 218.404C778.365 217.594 779.564 217.014 780.842 216.662C782.121 216.3 783.383 216.119 784.629 216.119C785.567 216.119 786.52 216.241 787.49 216.487C788.459 216.732 789.328 217.158 790.095 217.765C790.872 218.362 791.442 219.198 791.805 220.274C792.177 221.339 792.231 222.692 791.964 224.333L789.184 241H786.339L786.995 237.117H786.819C786.371 237.841 785.753 238.544 784.965 239.226C784.187 239.908 783.255 240.467 782.169 240.904C781.082 241.341 779.857 241.559 778.493 241.559ZM779.212 238.955C780.725 238.955 782.094 238.619 783.319 237.948C784.555 237.277 785.567 236.387 786.355 235.279C787.154 234.161 787.666 232.93 787.889 231.588L788.481 228.04C788.246 228.243 787.863 228.424 787.33 228.583C786.808 228.743 786.217 228.887 785.556 229.015C784.906 229.132 784.251 229.233 783.591 229.319C782.941 229.404 782.366 229.478 781.865 229.542C780.448 229.713 779.212 229.979 778.158 230.341C777.114 230.703 776.277 231.204 775.649 231.843C775.02 232.472 774.626 233.282 774.466 234.272C774.221 235.764 774.546 236.92 775.441 237.74C776.346 238.55 777.604 238.955 779.212 238.955ZM816.438 221.84L813.705 222.543C813.567 221.808 813.311 221.147 812.938 220.561C812.576 219.965 812.049 219.496 811.356 219.155C810.674 218.804 809.78 218.628 808.672 218.628C807.01 218.628 805.577 219.033 804.373 219.842C803.169 220.641 802.466 221.664 802.264 222.911C802.093 223.955 802.311 224.801 802.919 225.451C803.537 226.101 804.57 226.613 806.019 226.985L809.598 227.896C811.58 228.408 812.992 229.207 813.833 230.293C814.685 231.38 814.978 232.754 814.712 234.416C814.478 235.801 813.886 237.026 812.938 238.092C812.001 239.157 810.797 239.993 809.327 240.6C807.867 241.208 806.237 241.511 804.437 241.511C802.019 241.511 800.117 240.968 798.732 239.881C797.358 238.795 796.623 237.229 796.527 235.183L799.387 234.544C799.472 235.993 799.968 237.09 800.873 237.836C801.789 238.582 803.079 238.955 804.74 238.955C806.637 238.955 808.229 238.523 809.519 237.66C810.808 236.797 811.548 235.732 811.74 234.464C811.921 233.463 811.734 232.632 811.18 231.971C810.637 231.311 809.71 230.821 808.4 230.501L804.581 229.542C802.525 229.02 801.07 228.205 800.218 227.097C799.376 225.979 799.094 224.599 799.371 222.958C799.595 221.605 800.159 220.418 801.065 219.395C801.971 218.372 803.116 217.573 804.501 216.998C805.886 216.412 807.398 216.119 809.039 216.119C811.298 216.119 813.018 216.63 814.201 217.653C815.383 218.665 816.129 220.061 816.438 221.84ZM833.117 241H829.985L847.323 208.273H850.519L856.991 241H853.859L848.41 212.156H848.202L833.117 241ZM837.464 228.456H853.7L853.252 231.14H837.016L837.464 228.456ZM848.154 204.869L853.444 197.614H856.832L850.743 204.869H848.154ZM869.839 250.716C868.167 250.716 866.734 250.498 865.541 250.061C864.348 249.635 863.378 249.049 862.632 248.303C861.897 247.557 861.359 246.721 861.018 245.794L863.607 244.276C863.842 244.894 864.198 245.501 864.678 246.098C865.157 246.694 865.834 247.184 866.707 247.568C867.581 247.962 868.726 248.159 870.143 248.159C872.306 248.159 874.165 247.61 875.72 246.513C877.276 245.426 878.245 243.743 878.629 241.463L879.491 235.934H879.236C878.799 236.68 878.213 237.426 877.478 238.172C876.743 238.907 875.832 239.519 874.745 240.009C873.669 240.499 872.396 240.744 870.926 240.744C868.966 240.744 867.304 240.26 865.94 239.29C864.577 238.321 863.613 236.936 863.048 235.135C862.483 233.324 862.414 231.167 862.84 228.663C863.245 226.181 864.023 223.997 865.173 222.112C866.334 220.226 867.762 218.756 869.456 217.701C871.16 216.646 873.025 216.119 875.049 216.119C876.551 216.119 877.755 216.385 878.66 216.918C879.566 217.44 880.253 218.09 880.722 218.868C881.201 219.645 881.548 220.402 881.761 221.137H882.048L882.815 216.455H885.596L881.441 241.639C881.089 243.717 880.365 245.426 879.268 246.769C878.17 248.111 876.807 249.102 875.177 249.741C873.557 250.391 871.778 250.716 869.839 250.716ZM871.565 238.14C873.142 238.14 874.559 237.761 875.816 237.005C877.084 236.238 878.144 235.146 878.996 233.729C879.859 232.301 880.45 230.597 880.77 228.615C881.089 226.698 881.073 224.999 880.722 223.518C880.381 222.026 879.715 220.854 878.724 220.002C877.744 219.139 876.455 218.708 874.857 218.708C873.206 218.708 871.746 219.15 870.479 220.034C869.222 220.918 868.183 222.112 867.363 223.614C866.553 225.105 865.994 226.772 865.685 228.615C865.386 230.49 865.397 232.147 865.717 233.585C866.047 235.013 866.697 236.131 867.666 236.941C868.636 237.74 869.935 238.14 871.565 238.14ZM898.895 241.511C896.605 241.511 894.714 240.979 893.222 239.913C891.731 238.837 890.687 237.351 890.09 235.455C889.494 233.548 889.403 231.353 889.819 228.871C890.234 226.4 891.054 224.205 892.28 222.287C893.505 220.359 895.017 218.852 896.818 217.765C898.618 216.668 900.573 216.119 902.683 216.119C904.014 216.119 905.261 216.364 906.422 216.854C907.583 217.333 908.569 218.074 909.378 219.075C910.199 220.066 910.769 221.318 911.088 222.831C911.408 224.333 911.397 226.112 911.056 228.168L910.832 229.574H891.656L892.056 227.065H908.34C908.606 225.489 908.531 224.072 908.116 222.815C907.7 221.558 906.992 220.561 905.99 219.826C905 219.081 903.769 218.708 902.299 218.708C900.797 218.708 899.375 219.129 898.032 219.97C896.701 220.812 895.571 221.909 894.645 223.262C893.728 224.604 893.137 226.037 892.871 227.561L892.551 229.446C892.21 231.524 892.253 233.266 892.679 234.672C893.105 236.067 893.878 237.122 894.996 237.836C896.115 238.55 897.548 238.907 899.295 238.907C900.467 238.907 901.527 238.725 902.475 238.363C903.423 238.001 904.249 237.516 904.952 236.909C905.655 236.291 906.22 235.615 906.646 234.88L909.186 235.759C908.643 236.792 907.876 237.745 906.885 238.619C905.905 239.493 904.739 240.196 903.386 240.728C902.043 241.25 900.547 241.511 898.895 241.511ZM915.215 241L919.306 216.455H922.166L918.075 241H915.215ZM921.767 212.188C921.17 212.188 920.664 211.985 920.249 211.581C919.844 211.176 919.647 210.686 919.657 210.11C919.679 209.567 919.897 209.098 920.313 208.704C920.739 208.299 921.239 208.097 921.815 208.097C922.411 208.097 922.917 208.305 923.333 208.72C923.748 209.125 923.945 209.615 923.924 210.19C923.913 210.734 923.695 211.202 923.269 211.597C922.843 211.991 922.342 212.188 921.767 212.188ZM945.286 221.84L942.553 222.543C942.414 221.808 942.159 221.147 941.786 220.561C941.424 219.965 940.896 219.496 940.204 219.155C939.522 218.804 938.627 218.628 937.519 218.628C935.857 218.628 934.424 219.033 933.221 219.842C932.017 220.641 931.314 221.664 931.111 222.911C930.941 223.955 931.159 224.801 931.766 225.451C932.384 226.101 933.418 226.613 934.867 226.985L938.446 227.896C940.428 228.408 941.839 229.207 942.681 230.293C943.533 231.38 943.826 232.754 943.56 234.416C943.325 235.801 942.734 237.026 941.786 238.092C940.848 239.157 939.645 239.993 938.174 240.6C936.715 241.208 935.085 241.511 933.284 241.511C930.866 241.511 928.965 240.968 927.58 239.881C926.205 238.795 925.47 237.229 925.374 235.183L928.235 234.544C928.32 235.993 928.815 237.09 929.721 237.836C930.637 238.582 931.926 238.955 933.588 238.955C935.484 238.955 937.077 238.523 938.366 237.66C939.655 236.797 940.396 235.732 940.587 234.464C940.769 233.463 940.582 232.632 940.028 231.971C939.485 231.311 938.558 230.821 937.248 230.501L933.428 229.542C931.372 229.02 929.918 228.205 929.066 227.097C928.224 225.979 927.942 224.599 928.219 222.958C928.443 221.605 929.007 220.418 929.913 219.395C930.818 218.372 931.963 217.573 933.348 216.998C934.733 216.412 936.246 216.119 937.887 216.119C940.145 216.119 941.866 216.63 943.048 217.653C944.231 218.665 944.977 220.061 945.286 221.84ZM959.792 250.205L965.448 216.455H968.213L967.446 221.137H967.782C968.229 220.402 968.81 219.645 969.523 218.868C970.248 218.09 971.148 217.44 972.224 216.918C973.311 216.385 974.61 216.119 976.123 216.119C978.147 216.119 979.825 216.646 981.157 217.701C982.499 218.756 983.437 220.237 983.969 222.143C984.513 224.05 984.571 226.266 984.145 228.791C983.73 231.327 982.936 233.548 981.764 235.455C980.592 237.362 979.159 238.848 977.466 239.913C975.782 240.979 973.939 241.511 971.936 241.511C970.456 241.511 969.257 241.245 968.341 240.712C967.435 240.18 966.743 239.525 966.263 238.747C965.784 237.958 965.438 237.191 965.225 236.446H964.969L962.668 250.205H959.792ZM966.216 228.743C965.896 230.725 965.896 232.483 966.216 234.017C966.535 235.54 967.18 236.739 968.149 237.612C969.119 238.475 970.397 238.907 971.984 238.907C973.614 238.907 975.068 238.459 976.347 237.564C977.625 236.659 978.691 235.439 979.543 233.905C980.395 232.371 980.981 230.65 981.301 228.743C981.599 226.858 981.588 225.158 981.269 223.646C980.949 222.133 980.31 220.934 979.351 220.05C978.392 219.155 977.087 218.708 975.436 218.708C973.838 218.708 972.4 219.139 971.121 220.002C969.854 220.854 968.799 222.037 967.957 223.55C967.116 225.052 966.535 226.783 966.216 228.743ZM998.212 241.511C995.921 241.511 994.03 240.979 992.539 239.913C991.047 238.837 990.003 237.351 989.407 235.455C988.81 233.548 988.72 231.353 989.135 228.871C989.55 226.4 990.371 224.205 991.596 222.287C992.821 220.359 994.334 218.852 996.134 217.765C997.935 216.668 999.89 216.119 1002 216.119C1003.33 216.119 1004.58 216.364 1005.74 216.854C1006.9 217.333 1007.88 218.074 1008.69 219.075C1009.51 220.066 1010.08 221.318 1010.4 222.831C1010.72 224.333 1010.71 226.112 1010.37 228.168L1010.15 229.574H990.973L991.372 227.065H1007.66C1007.92 225.489 1007.85 224.072 1007.43 222.815C1007.02 221.558 1006.31 220.561 1005.31 219.826C1004.32 219.081 1003.09 218.708 1001.62 218.708C1000.11 218.708 998.691 219.129 997.349 219.97C996.017 220.812 994.888 221.909 993.961 223.262C993.045 224.604 992.454 226.037 992.187 227.561L991.868 229.446C991.527 231.524 991.569 233.266 991.995 234.672C992.422 236.067 993.194 237.122 994.313 237.836C995.431 238.55 996.864 238.907 998.611 238.907C999.783 238.907 1000.84 238.725 1001.79 238.363C1002.74 238.001 1003.57 237.516 1004.27 236.909C1004.97 236.291 1005.54 235.615 1005.96 234.88L1008.5 235.759C1007.96 236.792 1007.19 237.745 1006.2 238.619C1005.22 239.493 1004.06 240.196 1002.7 240.728C1001.36 241.25 999.863 241.511 998.212 241.511ZM1022.78 208.273L1017.34 241H1014.5L1019.93 208.273H1022.78ZM1031.66 241.559C1030.18 241.559 1028.88 241.272 1027.75 240.696C1026.62 240.11 1025.78 239.269 1025.22 238.172C1024.68 237.064 1024.53 235.721 1024.77 234.145C1024.99 232.93 1025.39 231.907 1025.99 231.076C1026.6 230.245 1027.36 229.564 1028.29 229.031C1029.22 228.488 1030.28 228.061 1031.49 227.752C1032.69 227.444 1034 227.209 1035.42 227.049C1036.8 226.879 1037.98 226.73 1038.96 226.602C1039.95 226.474 1040.71 226.272 1041.25 225.995C1041.79 225.718 1042.12 225.27 1042.22 224.652L1042.32 224.077C1042.6 222.404 1042.34 221.089 1041.55 220.13C1040.77 219.161 1039.44 218.676 1037.59 218.676C1035.82 218.676 1034.29 219.07 1032.99 219.858C1031.7 220.636 1030.74 221.547 1030.11 222.591L1027.59 221.616C1028.35 220.274 1029.3 219.203 1030.42 218.404C1031.53 217.594 1032.73 217.014 1034.01 216.662C1035.29 216.3 1036.55 216.119 1037.8 216.119C1038.74 216.119 1039.69 216.241 1040.66 216.487C1041.63 216.732 1042.5 217.158 1043.26 217.765C1044.04 218.362 1044.61 219.198 1044.97 220.274C1045.35 221.339 1045.4 222.692 1045.13 224.333L1042.35 241H1039.51L1040.16 237.117H1039.99C1039.54 237.841 1038.92 238.544 1038.13 239.226C1037.36 239.908 1036.42 240.467 1035.34 240.904C1034.25 241.341 1033.03 241.559 1031.66 241.559ZM1032.38 238.955C1033.89 238.955 1035.26 238.619 1036.49 237.948C1037.72 237.277 1038.74 236.387 1039.52 235.279C1040.32 234.161 1040.83 232.93 1041.06 231.588L1041.65 228.04C1041.42 228.243 1041.03 228.424 1040.5 228.583C1039.98 228.743 1039.39 228.887 1038.73 229.015C1038.08 229.132 1037.42 229.233 1036.76 229.319C1036.11 229.404 1035.53 229.478 1035.03 229.542C1033.62 229.713 1032.38 229.979 1031.33 230.341C1030.28 230.703 1029.45 231.204 1028.82 231.843C1028.19 232.472 1027.79 233.282 1027.64 234.272C1027.39 235.764 1027.71 236.92 1028.61 237.74C1029.52 238.55 1030.77 238.955 1032.38 238.955ZM1063.17 241L1068.6 208.273H1087.58L1087.14 210.957H1071.14L1069.1 223.278H1084.08L1083.64 225.963H1068.65L1066.6 238.315H1082.92L1082.47 241H1063.17ZM1108.98 221.84L1106.25 222.543C1106.11 221.808 1105.86 221.147 1105.48 220.561C1105.12 219.965 1104.59 219.496 1103.9 219.155C1103.22 218.804 1102.32 218.628 1101.22 218.628C1099.55 218.628 1098.12 219.033 1096.92 219.842C1095.71 220.641 1095.01 221.664 1094.81 222.911C1094.64 223.955 1094.86 224.801 1095.46 225.451C1096.08 226.101 1097.11 226.613 1098.56 226.985L1102.14 227.896C1104.12 228.408 1105.54 229.207 1106.38 230.293C1107.23 231.38 1107.52 232.754 1107.26 234.416C1107.02 235.801 1106.43 237.026 1105.48 238.092C1104.54 239.157 1103.34 239.993 1101.87 240.6C1100.41 241.208 1098.78 241.511 1096.98 241.511C1094.56 241.511 1092.66 240.968 1091.28 239.881C1089.9 238.795 1089.17 237.229 1089.07 235.183L1091.93 234.544C1092.02 235.993 1092.51 237.09 1093.42 237.836C1094.33 238.582 1095.62 238.955 1097.28 238.955C1099.18 238.955 1100.77 238.523 1102.06 237.66C1103.35 236.797 1104.09 235.732 1104.28 234.464C1104.46 233.463 1104.28 232.632 1103.72 231.971C1103.18 231.311 1102.25 230.821 1100.94 230.501L1097.12 229.542C1095.07 229.02 1093.61 228.205 1092.76 227.097C1091.92 225.979 1091.64 224.599 1091.92 222.958C1092.14 221.605 1092.7 220.418 1093.61 219.395C1094.51 218.372 1095.66 217.573 1097.04 216.998C1098.43 216.412 1099.94 216.119 1101.58 216.119C1103.84 216.119 1105.56 216.63 1106.74 217.653C1107.93 218.665 1108.67 220.061 1108.98 221.84ZM1126.12 216.455L1125.73 218.931H1114L1114.41 216.455H1126.12ZM1119.03 210.574H1121.89L1117.89 234.592C1117.72 235.615 1117.77 236.419 1118.02 237.005C1118.28 237.58 1118.67 237.99 1119.21 238.235C1119.74 238.47 1120.32 238.587 1120.96 238.587C1121.34 238.587 1121.66 238.566 1121.92 238.523C1122.2 238.47 1122.44 238.417 1122.66 238.363L1122.86 240.936C1122.56 241.043 1122.19 241.138 1121.76 241.224C1121.34 241.32 1120.82 241.368 1120.23 241.368C1119.18 241.368 1118.22 241.138 1117.34 240.68C1116.45 240.222 1115.78 239.54 1115.32 238.635C1114.86 237.729 1114.74 236.605 1114.95 235.263L1119.03 210.574ZM1135.29 241.559C1133.8 241.559 1132.5 241.272 1131.37 240.696C1130.24 240.11 1129.4 239.269 1128.85 238.172C1128.3 237.064 1128.15 235.721 1128.4 234.145C1128.61 232.93 1129.02 231.907 1129.61 231.076C1130.22 230.245 1130.99 229.564 1131.91 229.031C1132.84 228.488 1133.91 228.061 1135.11 227.752C1136.31 227.444 1137.62 227.209 1139.04 227.049C1140.43 226.879 1141.61 226.73 1142.59 226.602C1143.57 226.474 1144.33 226.272 1144.87 225.995C1145.42 225.718 1145.74 225.27 1145.85 224.652L1145.94 224.077C1146.22 222.404 1145.97 221.089 1145.18 220.13C1144.39 219.161 1143.07 218.676 1141.21 218.676C1139.45 218.676 1137.91 219.07 1136.61 219.858C1135.32 220.636 1134.36 221.547 1133.74 222.591L1131.21 221.616C1131.98 220.274 1132.92 219.203 1134.04 218.404C1135.16 217.594 1136.36 217.014 1137.63 216.662C1138.91 216.3 1140.18 216.119 1141.42 216.119C1142.36 216.119 1143.31 216.241 1144.28 216.487C1145.25 216.732 1146.12 217.158 1146.89 217.765C1147.66 218.362 1148.23 219.198 1148.6 220.274C1148.97 221.339 1149.02 222.692 1148.76 224.333L1145.98 241H1143.13L1143.79 237.117H1143.61C1143.16 237.841 1142.55 238.544 1141.76 239.226C1140.98 239.908 1140.05 240.467 1138.96 240.904C1137.87 241.341 1136.65 241.559 1135.29 241.559ZM1136 238.955C1137.52 238.955 1138.89 238.619 1140.11 237.948C1141.35 237.277 1142.36 236.387 1143.15 235.279C1143.95 234.161 1144.46 232.93 1144.68 231.588L1145.27 228.04C1145.04 228.243 1144.65 228.424 1144.12 228.583C1143.6 228.743 1143.01 228.887 1142.35 229.015C1141.7 229.132 1141.04 229.233 1140.38 229.319C1139.73 229.404 1139.16 229.478 1138.66 229.542C1137.24 229.713 1136 229.979 1134.95 230.341C1133.91 230.703 1133.07 231.204 1132.44 231.843C1131.81 232.472 1131.42 233.282 1131.26 234.272C1131.01 235.764 1131.34 236.92 1132.23 237.74C1133.14 238.55 1134.4 238.955 1136 238.955ZM1140.78 213.051L1146.07 205.796H1149.46L1143.37 213.051H1140.78ZM1163.07 241.511C1160.85 241.511 1159.02 240.963 1157.59 239.865C1156.15 238.768 1155.14 237.266 1154.57 235.359C1154 233.441 1153.92 231.268 1154.33 228.839C1154.73 226.368 1155.55 224.178 1156.77 222.271C1158 220.354 1159.51 218.852 1161.31 217.765C1163.12 216.668 1165.1 216.119 1167.24 216.119C1168.89 216.119 1170.33 216.439 1171.55 217.078C1172.78 217.706 1173.73 218.596 1174.4 219.746C1175.07 220.886 1175.39 222.218 1175.36 223.741H1172.48C1172.4 222.325 1171.89 221.131 1170.93 220.162C1169.98 219.192 1168.64 218.708 1166.9 218.708C1165.31 218.708 1163.84 219.134 1162.49 219.986C1161.14 220.828 1159.99 222.005 1159.06 223.518C1158.13 225.02 1157.51 226.762 1157.19 228.743C1156.84 230.735 1156.88 232.499 1157.28 234.033C1157.69 235.556 1158.41 236.749 1159.46 237.612C1160.51 238.475 1161.84 238.907 1163.45 238.907C1164.55 238.907 1165.58 238.704 1166.55 238.299C1167.52 237.884 1168.38 237.298 1169.12 236.542C1169.87 235.775 1170.44 234.874 1170.83 233.841H1173.71C1173.23 235.332 1172.47 236.653 1171.44 237.804C1170.42 238.955 1169.19 239.86 1167.76 240.521C1166.34 241.181 1164.77 241.511 1163.07 241.511ZM1178.62 241L1182.71 216.455H1185.57L1181.48 241H1178.62ZM1185.18 212.188C1184.58 212.188 1184.07 211.985 1183.66 211.581C1183.25 211.176 1183.05 210.686 1183.07 210.11C1183.09 209.567 1183.31 209.098 1183.72 208.704C1184.15 208.299 1184.65 208.097 1185.22 208.097C1185.82 208.097 1186.33 208.305 1186.74 208.72C1187.16 209.125 1187.35 209.615 1187.33 210.19C1187.32 210.734 1187.1 211.202 1186.68 211.597C1186.25 211.991 1185.75 212.188 1185.18 212.188ZM1198.66 241.511C1196.51 241.511 1194.7 240.968 1193.23 239.881C1191.75 238.784 1190.72 237.266 1190.11 235.327C1189.5 233.388 1189.4 231.151 1189.81 228.615C1190.21 226.144 1191.01 223.971 1192.22 222.096C1193.43 220.21 1194.92 218.745 1196.69 217.701C1198.46 216.646 1200.38 216.119 1202.46 216.119C1204.62 216.119 1206.44 216.668 1207.89 217.765C1209.36 218.862 1210.4 220.38 1211.01 222.319C1211.63 224.258 1211.74 226.501 1211.33 229.047C1210.93 231.508 1210.12 233.676 1208.9 235.551C1207.69 237.415 1206.2 238.875 1204.43 239.929C1202.67 240.984 1200.75 241.511 1198.66 241.511ZM1198.69 238.907C1200.44 238.907 1201.99 238.443 1203.36 237.516C1204.73 236.579 1205.87 235.332 1206.76 233.777C1207.66 232.211 1208.26 230.49 1208.57 228.615C1208.85 226.826 1208.82 225.18 1208.47 223.678C1208.12 222.175 1207.44 220.972 1206.44 220.066C1205.44 219.161 1204.11 218.708 1202.45 218.708C1200.71 218.708 1199.15 219.182 1197.78 220.13C1196.41 221.067 1195.27 222.325 1194.38 223.901C1193.48 225.467 1192.88 227.183 1192.59 229.047C1192.29 230.847 1192.31 232.493 1192.65 233.985C1193 235.476 1193.68 236.669 1194.68 237.564C1195.69 238.459 1197.03 238.907 1198.69 238.907Z" fill="white"/>
<line x1="478" y1="155.5" x2="858" y2="155.5" stroke="white" stroke-width="3"/>
</svg>
