<svg width="1276" height="348" viewBox="0 0 1276 348" fill="none" xmlns="http://www.w3.org/2000/svg">
<path d="M6.7998 2H1215.8C1217.15 2 1218.02 2.00187 1218.68 2.06445C1219.31 2.12422 1219.53 2.22513 1219.65 2.29492C1219.92 2.45982 1220.14 2.68602 1220.31 2.95508C1220.38 3.06895 1220.48 3.29456 1220.54 3.92285C1220.6 4.5811 1220.6 5.45181 1220.6 6.7998V138.869C1220.6 139.964 1220.58 140.918 1220.86 141.829V141.83C1220.97 142.189 1221.11 142.54 1221.28 142.873L1221.47 143.2C1221.96 144.014 1222.67 144.637 1223.48 145.366L1223.48 145.367C1227.57 149.073 1231.34 152.362 1234.91 155.265C1241.39 160.521 1246.22 164.442 1249.47 167.203C1251.1 168.586 1252.3 169.651 1253.11 170.433C1253.52 170.825 1253.79 171.117 1253.96 171.32C1253.99 171.361 1254.02 171.395 1254.04 171.421C1254.08 171.574 1254.11 171.671 1254.13 171.75C1254.11 171.829 1254.08 171.926 1254.04 172.077C1254.02 172.104 1254 172.139 1253.97 172.181C1253.8 172.388 1253.52 172.685 1253.12 173.087C1252.32 173.886 1251.12 174.976 1249.5 176.394C1246.25 179.223 1241.44 183.246 1234.99 188.639L1234.98 188.641C1231.27 191.742 1227.5 195.225 1223.38 199.116L1223.35 199.143C1222.58 199.874 1221.89 200.498 1221.42 201.298C1221.18 201.718 1220.98 202.171 1220.84 202.64C1220.58 203.529 1220.6 204.461 1220.6 205.528V341.2C1220.6 342.548 1220.6 343.419 1220.54 344.077C1220.48 344.705 1220.38 344.931 1220.31 345.045C1220.14 345.314 1219.92 345.54 1219.65 345.705C1219.53 345.775 1219.31 345.876 1218.68 345.936C1218.02 345.998 1217.15 346 1215.8 346H6.7998C5.45183 346 4.58111 345.998 3.92285 345.936C3.29441 345.876 3.06894 345.775 2.95508 345.705C2.686 345.54 2.45982 345.314 2.29492 345.045C2.22514 344.931 2.12421 344.706 2.06445 344.077C2.00187 343.419 2 342.548 2 341.2V6.7998C2 5.45181 2.00187 4.58111 2.06445 3.92285C2.12421 3.29441 2.22514 3.06895 2.29492 2.95508C2.45982 2.68599 2.68599 2.45982 2.95508 2.29492C3.06895 2.22514 3.29441 2.12421 3.92285 2.06445C4.58111 2.00187 5.45182 2 6.7998 2Z" fill="black" stroke="#AF9D49" stroke-width="4"/>
<path d="M258.424 79.8945H250.491C250.346 78.8683 250.05 77.9567 249.604 77.1598C249.157 76.3509 248.583 75.6626 247.883 75.0952C247.183 74.5277 246.374 74.093 245.456 73.7912C244.551 73.4893 243.567 73.3384 242.504 73.3384C240.584 73.3384 238.912 73.8153 237.487 74.7692C236.063 75.7109 234.958 77.0874 234.173 78.8984C233.388 80.6974 232.996 82.8828 232.996 85.4545C232.996 88.0987 233.388 90.3203 234.173 92.1193C234.97 93.9183 236.081 95.2766 237.506 96.1942C238.93 97.1119 240.578 97.5707 242.45 97.5707C243.5 97.5707 244.472 97.4318 245.366 97.1541C246.271 96.8764 247.074 96.4719 247.774 95.9407C248.475 95.3974 249.054 94.7393 249.513 93.9666C249.984 93.1939 250.31 92.3125 250.491 91.3224L258.424 91.3587C258.218 93.0611 257.705 94.7031 256.884 96.2848C256.075 97.8544 254.983 99.261 253.606 100.505C252.242 101.736 250.612 102.714 248.716 103.439C246.833 104.151 244.702 104.507 242.323 104.507C239.015 104.507 236.057 103.759 233.449 102.261C230.853 100.764 228.8 98.5969 227.291 95.7596C225.794 92.9222 225.045 89.4872 225.045 85.4545C225.045 81.4098 225.806 77.9688 227.327 75.1314C228.849 72.294 230.913 70.1328 233.521 68.6477C236.129 67.1506 239.063 66.402 242.323 66.402C244.472 66.402 246.464 66.7038 248.3 67.3075C250.147 67.9112 251.783 68.7926 253.208 69.9517C254.632 71.0987 255.791 72.5053 256.685 74.1715C257.59 75.8377 258.17 77.7454 258.424 79.8945ZM281.741 92.1555V76.1818H289.456V104H282.049V98.9471H281.759C281.131 100.577 280.087 101.887 278.626 102.877C277.177 103.867 275.408 104.362 273.32 104.362C271.46 104.362 269.824 103.94 268.412 103.094C266.999 102.249 265.894 101.048 265.097 99.4904C264.313 97.9329 263.914 96.0675 263.902 93.8942V76.1818H271.617V92.5178C271.629 94.1598 272.07 95.4577 272.939 96.4116C273.809 97.3654 274.974 97.8423 276.435 97.8423C277.364 97.8423 278.234 97.631 279.043 97.2085C279.852 96.7738 280.504 96.1339 280.999 95.2887C281.506 94.4435 281.753 93.3991 281.741 92.1555ZM295.628 104V76.1818H303.107V81.0355H303.397C303.904 79.3089 304.756 78.005 305.951 77.1236C307.146 76.2301 308.523 75.7834 310.08 75.7834C310.466 75.7834 310.883 75.8075 311.33 75.8558C311.776 75.9041 312.169 75.9705 312.507 76.055V82.9009C312.145 82.7923 311.644 82.6957 311.004 82.6111C310.364 82.5266 309.778 82.4844 309.247 82.4844C308.112 82.4844 307.098 82.7319 306.204 83.2269C305.323 83.7099 304.623 84.386 304.104 85.2553C303.596 86.1246 303.343 87.1268 303.343 88.2617V104H295.628ZM339.641 84.1143L332.578 84.549C332.457 83.9453 332.198 83.402 331.799 82.919C331.401 82.424 330.876 82.0316 330.224 81.7418C329.584 81.44 328.817 81.2891 327.924 81.2891C326.728 81.2891 325.72 81.5426 324.899 82.0497C324.078 82.5447 323.668 83.2088 323.668 84.0419C323.668 84.706 323.933 85.2674 324.465 85.7262C324.996 86.185 325.907 86.5533 327.199 86.831L332.234 87.8452C334.939 88.4006 336.955 89.294 338.283 90.5256C339.611 91.7571 340.275 93.375 340.275 95.3793C340.275 97.2024 339.738 98.8022 338.663 100.179C337.601 101.555 336.14 102.63 334.281 103.402C332.433 104.163 330.302 104.543 327.888 104.543C324.205 104.543 321.271 103.777 319.086 102.243C316.912 100.698 315.639 98.5969 315.264 95.9407L322.853 95.5423C323.082 96.6651 323.638 97.5224 324.519 98.114C325.4 98.6935 326.529 98.9833 327.906 98.9833C329.258 98.9833 330.345 98.7237 331.166 98.2045C331.999 97.6733 332.421 96.9911 332.433 96.158C332.421 95.4577 332.125 94.8842 331.546 94.4375C330.966 93.9787 330.073 93.6286 328.866 93.3871L324.048 92.4272C321.331 91.8839 319.309 90.9421 317.981 89.6019C316.665 88.2617 316.007 86.5533 316.007 84.4766C316.007 82.6896 316.49 81.1502 317.456 79.8583C318.434 78.5664 319.804 77.5703 321.567 76.87C323.342 76.1697 325.418 75.8196 327.797 75.8196C331.31 75.8196 334.075 76.5621 336.092 78.0472C338.12 79.5323 339.303 81.5547 339.641 84.1143ZM357.702 104.543C354.889 104.543 352.456 103.946 350.404 102.75C348.363 101.543 346.788 99.8647 345.677 97.7156C344.566 95.5543 344.011 93.049 344.011 90.1996C344.011 87.326 344.566 84.8146 345.677 82.6655C346.788 80.5043 348.363 78.826 350.404 77.6307C352.456 76.4233 354.889 75.8196 357.702 75.8196C360.516 75.8196 362.942 76.4233 364.983 77.6307C367.036 78.826 368.617 80.5043 369.728 82.6655C370.839 84.8146 371.394 87.326 371.394 90.1996C371.394 93.049 370.839 95.5543 369.728 97.7156C368.617 99.8647 367.036 101.543 364.983 102.75C362.942 103.946 360.516 104.543 357.702 104.543ZM357.739 98.5668C359.018 98.5668 360.087 98.2045 360.944 97.4801C361.801 96.7436 362.447 95.7415 362.882 94.4737C363.329 93.206 363.552 91.7631 363.552 90.1452C363.552 88.5273 363.329 87.0845 362.882 85.8168C362.447 84.549 361.801 83.5469 360.944 82.8104C360.087 82.0739 359.018 81.7056 357.739 81.7056C356.447 81.7056 355.36 82.0739 354.479 82.8104C353.609 83.5469 352.951 84.549 352.505 85.8168C352.07 87.0845 351.853 88.5273 351.853 90.1452C351.853 91.7631 352.07 93.206 352.505 94.4737C352.951 95.7415 353.609 96.7436 354.479 97.4801C355.36 98.2045 356.447 98.5668 357.739 98.5668ZM411.27 66.9091H419.112V90.9964C419.112 93.701 418.466 96.0675 417.174 98.0959C415.894 100.124 414.101 101.706 411.795 102.841C409.489 103.964 406.802 104.525 403.736 104.525C400.657 104.525 397.964 103.964 395.658 102.841C393.352 101.706 391.559 100.124 390.279 98.0959C388.999 96.0675 388.359 93.701 388.359 90.9964V66.9091H396.201V90.3263C396.201 91.739 396.509 92.9947 397.125 94.0934C397.753 95.1921 398.634 96.0554 399.769 96.6832C400.904 97.3111 402.226 97.625 403.736 97.625C405.257 97.625 406.579 97.3111 407.702 96.6832C408.837 96.0554 409.712 95.1921 410.328 94.0934C410.956 92.9947 411.27 91.739 411.27 90.3263V66.9091ZM433.406 66.9091V104H425.564V66.9091H433.406ZM455.867 65.1705L443.914 109.578H437.268L449.221 65.1705H455.867ZM482.64 66.9091H490.482V90.9964C490.482 93.701 489.836 96.0675 488.544 98.0959C487.264 100.124 485.471 101.706 483.165 102.841C480.859 103.964 478.172 104.525 475.106 104.525C472.027 104.525 469.334 103.964 467.028 102.841C464.722 101.706 462.929 100.124 461.649 98.0959C460.369 96.0675 459.73 93.701 459.73 90.9964V66.9091H467.572V90.3263C467.572 91.739 467.879 92.9947 468.495 94.0934C469.123 95.1921 470.004 96.0554 471.139 96.6832C472.274 97.3111 473.596 97.625 475.106 97.625C476.627 97.625 477.949 97.3111 479.072 96.6832C480.207 96.0554 481.082 95.1921 481.698 94.0934C482.326 92.9947 482.64 91.739 482.64 90.3263V66.9091ZM504.287 66.9091L511.766 79.5504H512.056L519.572 66.9091H528.428L517.109 85.4545L528.682 104H519.663L512.056 91.3406H511.766L504.16 104H495.177L506.786 85.4545L495.394 66.9091H504.287ZM558.343 104H545.194V66.9091H558.452C562.182 66.9091 565.394 67.6516 568.086 69.1367C570.779 70.6097 572.85 72.7287 574.298 75.4936C575.759 78.2585 576.49 81.5668 576.49 85.4183C576.49 89.282 575.759 92.6023 574.298 95.3793C572.85 98.1562 570.767 100.287 568.05 101.772C565.346 103.257 562.11 104 558.343 104ZM553.036 97.2809H558.017C560.335 97.2809 562.285 96.8704 563.867 96.0494C565.46 95.2163 566.656 93.9304 567.453 92.1918C568.262 90.4411 568.666 88.1832 568.666 85.4183C568.666 82.6776 568.262 80.4379 567.453 78.6992C566.656 76.9606 565.466 75.6808 563.885 74.8597C562.303 74.0387 560.353 73.6282 558.035 73.6282H553.036V97.2809ZM594.832 104.543C591.97 104.543 589.507 103.964 587.442 102.805C585.39 101.634 583.808 99.9794 582.697 97.8423C581.587 95.6932 581.031 93.1516 581.031 90.2177C581.031 87.3562 581.587 84.8448 582.697 82.6836C583.808 80.5224 585.372 78.8381 587.388 77.6307C589.416 76.4233 591.795 75.8196 594.524 75.8196C596.359 75.8196 598.067 76.1154 599.649 76.707C601.243 77.2866 602.631 78.1619 603.815 79.3331C605.01 80.5043 605.94 81.9773 606.604 83.7521C607.268 85.5149 607.6 87.5795 607.6 89.946V92.065H584.11V87.2837H600.337C600.337 86.1729 600.096 85.1889 599.613 84.3317C599.13 83.4744 598.46 82.8043 597.603 82.3214C596.757 81.8263 595.773 81.5788 594.65 81.5788C593.479 81.5788 592.441 81.8505 591.535 82.3938C590.642 82.9251 589.942 83.6435 589.435 84.549C588.927 85.4425 588.668 86.4386 588.656 87.5373V92.0831C588.656 93.4595 588.909 94.6488 589.416 95.6509C589.936 96.6531 590.666 97.4258 591.608 97.9691C592.55 98.5124 593.666 98.7841 594.958 98.7841C595.816 98.7841 596.6 98.6634 597.313 98.4219C598.025 98.1804 598.635 97.8182 599.142 97.3352C599.649 96.8523 600.035 96.2607 600.301 95.5604L607.437 96.0312C607.074 97.7457 606.332 99.2429 605.209 100.523C604.098 101.79 602.661 102.781 600.899 103.493C599.148 104.193 597.126 104.543 594.832 104.543ZM635.78 84.1143L628.717 84.549C628.596 83.9453 628.337 83.402 627.938 82.919C627.54 82.424 627.014 82.0316 626.362 81.7418C625.723 81.44 624.956 81.2891 624.062 81.2891C622.867 81.2891 621.859 81.5426 621.038 82.0497C620.217 82.5447 619.806 83.2088 619.806 84.0419C619.806 84.706 620.072 85.2674 620.603 85.7262C621.134 86.185 622.046 86.5533 623.338 86.831L628.373 87.8452C631.077 88.4006 633.094 89.294 634.422 90.5256C635.75 91.7571 636.414 93.375 636.414 95.3793C636.414 97.2024 635.877 98.8022 634.802 100.179C633.74 101.555 632.279 102.63 630.419 103.402C628.572 104.163 626.441 104.543 624.026 104.543C620.344 104.543 617.41 103.777 615.224 102.243C613.051 100.698 611.777 98.5969 611.403 95.9407L618.991 95.5423C619.221 96.6651 619.776 97.5224 620.658 98.114C621.539 98.6935 622.668 98.9833 624.044 98.9833C625.397 98.9833 626.483 98.7237 627.304 98.2045C628.137 97.6733 628.56 96.9911 628.572 96.158C628.56 95.4577 628.264 94.8842 627.685 94.4375C627.105 93.9787 626.212 93.6286 625.004 93.3871L620.187 92.4272C617.47 91.8839 615.448 90.9421 614.12 89.6019C612.804 88.2617 612.146 86.5533 612.146 84.4766C612.146 82.6896 612.628 81.1502 613.594 79.8583C614.572 78.5664 615.943 77.5703 617.706 76.87C619.48 76.1697 621.557 75.8196 623.936 75.8196C627.449 75.8196 630.214 76.5621 632.23 78.0472C634.259 79.5323 635.442 81.5547 635.78 84.1143ZM641.272 104V76.1818H648.987V104H641.272ZM645.148 72.5959C644.001 72.5959 643.017 72.2156 642.196 71.4549C641.387 70.6822 640.982 69.7585 640.982 68.6839C640.982 67.6214 641.387 66.7099 642.196 65.9492C643.017 65.1765 644.001 64.7901 645.148 64.7901C646.295 64.7901 647.273 65.1765 648.082 65.9492C648.903 66.7099 649.313 67.6214 649.313 68.6839C649.313 69.7585 648.903 70.6822 648.082 71.4549C647.273 72.2156 646.295 72.5959 645.148 72.5959ZM667.7 115.011C665.201 115.011 663.058 114.667 661.271 113.979C659.496 113.303 658.084 112.379 657.033 111.208C655.983 110.037 655.301 108.721 654.987 107.26L662.122 106.3C662.34 106.855 662.684 107.375 663.155 107.858C663.625 108.341 664.247 108.727 665.02 109.017C665.805 109.319 666.759 109.469 667.881 109.469C669.56 109.469 670.942 109.059 672.029 108.238C673.128 107.429 673.677 106.071 673.677 104.163V99.0739H673.351C673.013 99.8466 672.506 100.577 671.83 101.265C671.153 101.953 670.284 102.515 669.222 102.95C668.159 103.384 666.891 103.602 665.418 103.602C663.33 103.602 661.428 103.119 659.714 102.153C658.011 101.175 656.653 99.6836 655.639 97.6793C654.636 95.663 654.135 93.1154 654.135 90.0366C654.135 86.8853 654.649 84.2532 655.675 82.1403C656.701 80.0273 658.065 78.4457 659.768 77.3952C661.482 76.3448 663.36 75.8196 665.4 75.8196C666.958 75.8196 668.262 76.0852 669.312 76.6165C670.363 77.1357 671.208 77.7876 671.848 78.5724C672.5 79.3452 673.001 80.1058 673.351 80.8544H673.641V76.1818H681.302V104.272C681.302 106.638 680.722 108.618 679.563 110.212C678.404 111.806 676.798 113.001 674.745 113.798C672.705 114.607 670.357 115.011 667.7 115.011ZM667.863 97.8061C669.107 97.8061 670.157 97.4982 671.015 96.8825C671.884 96.2546 672.548 95.3612 673.007 94.2021C673.478 93.0309 673.713 91.6303 673.713 90.0004C673.713 88.3704 673.484 86.9577 673.025 85.7624C672.566 84.555 671.902 83.6193 671.033 82.9553C670.163 82.2912 669.107 81.9592 667.863 81.9592C666.596 81.9592 665.527 82.3033 664.658 82.9915C663.788 83.6676 663.13 84.6094 662.684 85.8168C662.237 87.0241 662.014 88.4187 662.014 90.0004C662.014 91.6062 662.237 92.9947 662.684 94.1658C663.142 95.3249 663.801 96.2244 664.658 96.8643C665.527 97.4922 666.596 97.8061 667.863 97.8061ZM695.156 87.9176V104H687.441V76.1818H694.794V81.0898H695.12C695.736 79.4719 696.768 78.1921 698.217 77.2504C699.666 76.2965 701.423 75.8196 703.487 75.8196C705.419 75.8196 707.103 76.2422 708.54 77.0874C709.977 77.9325 711.094 79.1399 711.891 80.7095C712.688 82.267 713.086 84.1264 713.086 86.2876V104H705.371V87.6641C705.383 85.9616 704.948 84.6335 704.067 83.6797C703.185 82.7138 701.972 82.2308 700.427 82.2308C699.388 82.2308 698.471 82.4542 697.674 82.9009C696.889 83.3477 696.273 83.9996 695.826 84.8569C695.392 85.7021 695.168 86.7223 695.156 87.9176ZM743.539 104.543C740.69 104.543 738.239 103.94 736.186 102.732C734.146 101.513 732.576 99.8224 731.478 97.6612C730.391 95.5 729.848 93.0128 729.848 90.1996C729.848 87.3501 730.397 84.8509 731.496 82.7017C732.606 80.5405 734.182 78.8562 736.223 77.6488C738.263 76.4293 740.69 75.8196 743.503 75.8196C745.93 75.8196 748.055 76.2603 749.878 77.1417C751.701 78.0231 753.144 79.2607 754.207 80.8544C755.269 82.4482 755.855 84.3196 755.963 86.4688H748.683C748.478 85.0803 747.934 83.9634 747.053 83.1183C746.184 82.261 745.043 81.8324 743.63 81.8324C742.435 81.8324 741.39 82.1584 740.497 82.8104C739.615 83.4503 738.927 84.386 738.432 85.6175C737.937 86.8491 737.69 88.3402 737.69 90.0909C737.69 91.8658 737.931 93.375 738.414 94.6186C738.909 95.8622 739.603 96.81 740.497 97.462C741.39 98.114 742.435 98.44 743.63 98.44C744.511 98.44 745.302 98.2589 746.002 97.8967C746.715 97.5344 747.3 97.0092 747.759 96.321C748.23 95.6207 748.538 94.7816 748.683 93.8036H755.963C755.843 95.9286 755.263 97.8001 754.225 99.418C753.198 101.024 751.78 102.279 749.969 103.185C748.158 104.091 746.014 104.543 743.539 104.543ZM773.472 104.543C770.659 104.543 768.226 103.946 766.173 102.75C764.133 101.543 762.557 99.8647 761.446 97.7156C760.336 95.5543 759.78 93.049 759.78 90.1996C759.78 87.326 760.336 84.8146 761.446 82.6655C762.557 80.5043 764.133 78.826 766.173 77.6307C768.226 76.4233 770.659 75.8196 773.472 75.8196C776.285 75.8196 778.712 76.4233 780.752 77.6307C782.805 78.826 784.387 80.5043 785.498 82.6655C786.608 84.8146 787.164 87.326 787.164 90.1996C787.164 93.049 786.608 95.5543 785.498 97.7156C784.387 99.8647 782.805 101.543 780.752 102.75C778.712 103.946 776.285 104.543 773.472 104.543ZM773.508 98.5668C774.788 98.5668 775.857 98.2045 776.714 97.4801C777.571 96.7436 778.217 95.7415 778.652 94.4737C779.098 93.206 779.322 91.7631 779.322 90.1452C779.322 88.5273 779.098 87.0845 778.652 85.8168C778.217 84.549 777.571 83.5469 776.714 82.8104C775.857 82.0739 774.788 81.7056 773.508 81.7056C772.216 81.7056 771.13 82.0739 770.248 82.8104C769.379 83.5469 768.721 84.549 768.274 85.8168C767.839 87.0845 767.622 88.5273 767.622 90.1452C767.622 91.7631 767.839 93.206 768.274 94.4737C768.721 95.7415 769.379 96.7436 770.248 97.4801C771.13 98.2045 772.216 98.5668 773.508 98.5668ZM792.18 104V76.1818H799.533V81.0898H799.859C800.439 79.4599 801.405 78.174 802.757 77.2322C804.109 76.2905 805.727 75.8196 807.611 75.8196C809.518 75.8196 811.142 76.2965 812.483 77.2504C813.823 78.1921 814.716 79.4719 815.163 81.0898H815.453C816.02 79.4961 817.047 78.2223 818.532 77.2685C820.029 76.3026 821.798 75.8196 823.838 75.8196C826.434 75.8196 828.541 76.6467 830.159 78.3008C831.789 79.9428 832.604 82.2731 832.604 85.2915V104H824.907V86.8129C824.907 85.2674 824.496 84.1083 823.675 83.3356C822.854 82.5629 821.828 82.1765 820.596 82.1765C819.196 82.1765 818.103 82.6232 817.318 83.5167C816.533 84.3981 816.141 85.5632 816.141 87.0121V104H808.661V86.6499C808.661 85.2855 808.269 84.1989 807.484 83.3899C806.711 82.581 805.691 82.1765 804.423 82.1765C803.566 82.1765 802.793 82.3938 802.105 82.8285C801.429 83.2511 800.892 83.8487 800.493 84.6214C800.095 85.3821 799.896 86.2756 799.896 87.3018V104H792.18ZM850.647 104V66.9091H875.205V73.3746H858.489V82.2127H873.575V88.6783H858.489V104H850.647ZM880.335 104V76.1818H888.05V104H880.335ZM884.21 72.5959C883.063 72.5959 882.079 72.2156 881.258 71.4549C880.449 70.6822 880.045 69.7585 880.045 68.6839C880.045 67.6214 880.449 66.7099 881.258 65.9492C882.079 65.1765 883.063 64.7901 884.21 64.7901C885.357 64.7901 886.335 65.1765 887.144 65.9492C887.965 66.7099 888.376 67.6214 888.376 68.6839C888.376 69.7585 887.965 70.6822 887.144 71.4549C886.335 72.2156 885.357 72.5959 884.21 72.5959ZM906.763 115.011C904.264 115.011 902.12 114.667 900.334 113.979C898.559 113.303 897.146 112.379 896.096 111.208C895.045 110.037 894.363 108.721 894.049 107.26L901.185 106.3C901.402 106.855 901.746 107.375 902.217 107.858C902.688 108.341 903.31 108.727 904.082 109.017C904.867 109.319 905.821 109.469 906.944 109.469C908.622 109.469 910.005 109.059 911.091 108.238C912.19 107.429 912.739 106.071 912.739 104.163V99.0739H912.413C912.075 99.8466 911.568 100.577 910.892 101.265C910.216 101.953 909.347 102.515 908.284 102.95C907.222 103.384 905.954 103.602 904.481 103.602C902.392 103.602 900.491 103.119 898.776 102.153C897.074 101.175 895.715 99.6836 894.701 97.6793C893.699 95.663 893.198 93.1154 893.198 90.0366C893.198 86.8853 893.711 84.2532 894.737 82.1403C895.764 80.0273 897.128 78.4457 898.83 77.3952C900.545 76.3448 902.422 75.8196 904.463 75.8196C906.02 75.8196 907.324 76.0852 908.375 76.6165C909.425 77.1357 910.27 77.7876 910.91 78.5724C911.562 79.3452 912.063 80.1058 912.413 80.8544H912.703V76.1818H920.364V104.272C920.364 106.638 919.785 108.618 918.625 110.212C917.466 111.806 915.861 113.001 913.808 113.798C911.767 114.607 909.419 115.011 906.763 115.011ZM906.926 97.8061C908.169 97.8061 909.22 97.4982 910.077 96.8825C910.946 96.2546 911.611 95.3612 912.069 94.2021C912.54 93.0309 912.776 91.6303 912.776 90.0004C912.776 88.3704 912.546 86.9577 912.087 85.7624C911.629 84.555 910.965 83.6193 910.095 82.9553C909.226 82.2912 908.169 81.9592 906.926 81.9592C905.658 81.9592 904.59 82.3033 903.72 82.9915C902.851 83.6676 902.193 84.6094 901.746 85.8168C901.299 87.0241 901.076 88.4187 901.076 90.0004C901.076 91.6062 901.299 92.9947 901.746 94.1658C902.205 95.3249 902.863 96.2244 903.72 96.8643C904.59 97.4922 905.658 97.8061 906.926 97.8061ZM926.504 104V76.1818H933.857V81.0898H934.183C934.762 79.4599 935.728 78.174 937.08 77.2322C938.433 76.2905 940.051 75.8196 941.934 75.8196C943.842 75.8196 945.466 76.2965 946.806 77.2504C948.146 78.1921 949.04 79.4719 949.486 81.0898H949.776C950.343 79.4961 951.37 78.2223 952.855 77.2685C954.352 76.3026 956.121 75.8196 958.161 75.8196C960.757 75.8196 962.864 76.6467 964.482 78.3008C966.112 79.9428 966.927 82.2731 966.927 85.2915V104H959.23V86.8129C959.23 85.2674 958.819 84.1083 957.998 83.3356C957.177 82.5629 956.151 82.1765 954.919 82.1765C953.519 82.1765 952.426 82.6232 951.641 83.5167C950.857 84.3981 950.464 85.5632 950.464 87.0121V104H942.984V86.6499C942.984 85.2855 942.592 84.1989 941.807 83.3899C941.035 82.581 940.014 82.1765 938.747 82.1765C937.889 82.1765 937.117 82.3938 936.428 82.8285C935.752 83.2511 935.215 83.8487 934.816 84.6214C934.418 85.3821 934.219 86.2756 934.219 87.3018V104H926.504ZM980.954 104.525C979.179 104.525 977.597 104.217 976.209 103.602C974.82 102.974 973.722 102.05 972.913 100.831C972.116 99.5991 971.717 98.0657 971.717 96.2305C971.717 94.685 972.001 93.3871 972.568 92.3366C973.136 91.2862 973.909 90.4411 974.887 89.8011C975.865 89.1612 976.975 88.6783 978.219 88.3523C979.475 88.0263 980.791 87.7969 982.167 87.6641C983.785 87.495 985.089 87.3381 986.079 87.1932C987.069 87.0362 987.788 86.8068 988.234 86.505C988.681 86.2031 988.904 85.7564 988.904 85.1648V85.0561C988.904 83.9091 988.542 83.0217 987.818 82.3938C987.105 81.766 986.091 81.4521 984.775 81.4521C983.387 81.4521 982.282 81.7599 981.461 82.3757C980.64 82.9794 980.097 83.7401 979.831 84.6577L972.695 84.0781C973.057 82.3878 973.77 80.9268 974.832 79.6953C975.895 78.4517 977.265 77.4979 978.943 76.8338C980.634 76.1577 982.59 75.8196 984.811 75.8196C986.357 75.8196 987.836 76.0007 989.248 76.3629C990.673 76.7251 991.935 77.2866 993.034 78.0472C994.144 78.8079 995.02 79.7859 995.66 80.9812C996.3 82.1644 996.62 83.5831 996.62 85.2372V104H989.303V100.142H989.085C988.639 101.012 988.041 101.778 987.293 102.442C986.544 103.094 985.644 103.608 984.594 103.982C983.544 104.344 982.33 104.525 980.954 104.525ZM983.163 99.2006C984.298 99.2006 985.3 98.9773 986.17 98.5305C987.039 98.0717 987.721 97.456 988.216 96.6832C988.711 95.9105 988.959 95.0352 988.959 94.0572V91.1051C988.717 91.2621 988.385 91.407 987.963 91.5398C987.552 91.6605 987.087 91.7752 986.568 91.8839C986.049 91.9805 985.53 92.071 985.011 92.1555C984.491 92.228 984.021 92.2944 983.598 92.3548C982.692 92.4876 981.902 92.6989 981.225 92.9886C980.549 93.2784 980.024 93.6708 979.65 94.1658C979.275 94.6488 979.088 95.2525 979.088 95.9769C979.088 97.0273 979.469 97.8303 980.229 98.3857C981.002 98.929 981.98 99.2006 983.163 99.2006Z" fill="white"/>
<path d="M185.967 218.5H182.995C182.963 217.381 182.739 216.348 182.323 215.4C181.908 214.441 181.327 213.605 180.582 212.891C179.836 212.177 178.946 211.623 177.913 211.229C176.89 210.835 175.745 210.638 174.477 210.638C172.389 210.638 170.392 211.186 168.485 212.284C166.578 213.37 164.937 214.968 163.563 217.078C162.189 219.187 161.251 221.765 160.75 224.812C160.25 227.816 160.33 230.347 160.99 232.403C161.651 234.448 162.732 235.998 164.234 237.053C165.747 238.108 167.521 238.635 169.555 238.635C170.855 238.635 172.102 238.438 173.295 238.044C174.488 237.65 175.585 237.101 176.587 236.398C177.588 235.684 178.467 234.848 179.223 233.889C179.98 232.93 180.566 231.891 180.981 230.773H183.985C183.463 232.275 182.734 233.676 181.796 234.975C180.859 236.265 179.751 237.394 178.472 238.363C177.205 239.333 175.804 240.089 174.269 240.632C172.746 241.176 171.127 241.447 169.412 241.447C166.62 241.447 164.261 240.75 162.332 239.354C160.415 237.958 159.051 235.993 158.241 233.457C157.442 230.911 157.331 227.912 157.906 224.461C158.47 221.073 159.552 218.132 161.15 215.64C162.758 213.147 164.729 211.224 167.062 209.871C169.396 208.507 171.931 207.825 174.669 207.825C176.416 207.825 177.982 208.097 179.367 208.64C180.752 209.173 181.929 209.929 182.899 210.909C183.879 211.879 184.63 213.008 185.152 214.297C185.674 215.586 185.946 216.987 185.967 218.5ZM205.85 231.62L208.391 216.455H211.235L207.145 241H204.3L204.971 236.925H204.764C203.996 238.182 202.91 239.232 201.504 240.073C200.108 240.904 198.51 241.32 196.71 241.32C195.144 241.32 193.807 240.979 192.699 240.297C191.601 239.604 190.818 238.592 190.349 237.261C189.881 235.929 189.806 234.294 190.126 232.355L192.794 216.455H195.639L193.018 232.179C192.709 234.097 193.018 235.641 193.945 236.813C194.883 237.974 196.235 238.555 198.004 238.555C199.112 238.555 200.22 238.289 201.328 237.756C202.446 237.223 203.416 236.446 204.236 235.423C205.067 234.39 205.605 233.122 205.85 231.62ZM214.675 241L218.766 216.455H221.531L220.891 220.226H221.099C221.781 218.99 222.798 217.994 224.151 217.238C225.515 216.471 226.969 216.087 228.514 216.087C228.748 216.087 229.009 216.092 229.297 216.103C229.585 216.103 229.824 216.114 230.016 216.135L229.521 219.027C229.393 219.006 229.169 218.974 228.85 218.931C228.541 218.889 228.194 218.868 227.811 218.868C226.532 218.868 225.35 219.139 224.263 219.683C223.187 220.215 222.282 220.956 221.547 221.904C220.822 222.852 220.353 223.933 220.14 225.148L217.52 241H214.675ZM250.447 221.84L247.714 222.543C247.576 221.808 247.32 221.147 246.947 220.561C246.585 219.965 246.057 219.496 245.365 219.155C244.683 218.804 243.788 218.628 242.68 218.628C241.018 218.628 239.586 219.033 238.382 219.842C237.178 220.641 236.475 221.664 236.272 222.911C236.102 223.955 236.32 224.801 236.928 225.451C237.545 226.101 238.579 226.613 240.028 226.985L243.607 227.896C245.589 228.408 247 229.207 247.842 230.293C248.694 231.38 248.987 232.754 248.721 234.416C248.486 235.801 247.895 237.026 246.947 238.092C246.01 239.157 244.806 239.993 243.336 240.6C241.876 241.208 240.246 241.511 238.446 241.511C236.027 241.511 234.126 240.968 232.741 239.881C231.366 238.795 230.631 237.229 230.535 235.183L233.396 234.544C233.481 235.993 233.977 237.09 234.882 237.836C235.798 238.582 237.087 238.955 238.749 238.955C240.646 238.955 242.238 238.523 243.527 237.66C244.816 236.797 245.557 235.732 245.749 234.464C245.93 233.463 245.743 232.632 245.189 231.971C244.646 231.311 243.719 230.821 242.409 230.501L238.589 229.542C236.533 229.02 235.079 228.205 234.227 227.097C233.385 225.979 233.103 224.599 233.38 222.958C233.604 221.605 234.168 220.418 235.074 219.395C235.979 218.372 237.125 217.573 238.51 216.998C239.894 216.412 241.407 216.119 243.048 216.119C245.306 216.119 247.027 216.63 248.209 217.653C249.392 218.665 250.138 220.061 250.447 221.84ZM263.482 241.511C261.33 241.511 259.519 240.968 258.049 239.881C256.579 238.784 255.54 237.266 254.933 235.327C254.326 233.388 254.225 231.151 254.629 228.615C255.034 226.144 255.839 223.971 257.042 222.096C258.257 220.21 259.748 218.745 261.517 217.701C263.285 216.646 265.208 216.119 267.286 216.119C269.448 216.119 271.259 216.668 272.719 217.765C274.189 218.862 275.228 220.38 275.835 222.319C276.453 224.258 276.56 226.501 276.155 229.047C275.75 231.508 274.94 233.676 273.726 235.551C272.511 237.415 271.02 238.875 269.251 239.929C267.493 240.984 265.571 241.511 263.482 241.511ZM263.514 238.907C265.262 238.907 266.817 238.443 268.181 237.516C269.555 236.579 270.689 235.332 271.584 233.777C272.479 232.211 273.081 230.49 273.39 228.615C273.678 226.826 273.646 225.18 273.294 223.678C272.943 222.175 272.266 220.972 271.265 220.066C270.263 219.161 268.932 218.708 267.27 218.708C265.533 218.708 263.978 219.182 262.604 220.13C261.229 221.067 260.095 222.325 259.2 223.901C258.305 225.467 257.708 227.183 257.41 229.047C257.112 230.847 257.133 232.493 257.474 233.985C257.826 235.476 258.502 236.669 259.503 237.564C260.515 238.459 261.852 238.907 263.514 238.907ZM301.863 241.511C299.849 241.511 298.171 240.979 296.829 239.913C295.487 238.848 294.549 237.362 294.016 235.455C293.484 233.548 293.425 231.327 293.841 228.791C294.267 226.266 295.061 224.056 296.222 222.159C297.394 220.252 298.826 218.772 300.52 217.717C302.225 216.652 304.084 216.119 306.097 216.119C307.6 216.119 308.798 216.385 309.693 216.918C310.598 217.44 311.286 218.09 311.754 218.868C312.223 219.645 312.559 220.402 312.761 221.137H313.017L315.158 208.273H318.019L312.585 241H309.821L310.588 236.446H310.236C309.778 237.191 309.176 237.958 308.431 238.747C307.695 239.525 306.79 240.18 305.714 240.712C304.638 241.245 303.354 241.511 301.863 241.511ZM302.486 238.907C304.073 238.907 305.506 238.475 306.785 237.612C308.074 236.739 309.15 235.54 310.013 234.017C310.886 232.483 311.483 230.725 311.802 228.743C312.133 226.783 312.127 225.052 311.786 223.55C311.445 222.037 310.785 220.854 309.805 220.002C308.825 219.139 307.53 218.708 305.922 218.708C304.292 218.708 302.843 219.155 301.575 220.05C300.307 220.934 299.258 222.133 298.427 223.646C297.607 225.158 297.037 226.858 296.717 228.743C296.408 230.65 296.408 232.371 296.717 233.905C297.026 235.439 297.655 236.659 298.603 237.564C299.562 238.459 300.856 238.907 302.486 238.907ZM330.531 241.511C328.241 241.511 326.35 240.979 324.858 239.913C323.367 238.837 322.323 237.351 321.726 235.455C321.129 233.548 321.039 231.353 321.454 228.871C321.87 226.4 322.69 224.205 323.915 222.287C325.14 220.359 326.653 218.852 328.454 217.765C330.254 216.668 332.209 216.119 334.318 216.119C335.65 216.119 336.896 216.364 338.058 216.854C339.219 217.333 340.204 218.074 341.014 219.075C341.834 220.066 342.404 221.318 342.724 222.831C343.043 224.333 343.033 226.112 342.692 228.168L342.468 229.574H323.292L323.692 227.065H339.975C340.242 225.489 340.167 224.072 339.752 222.815C339.336 221.558 338.628 220.561 337.626 219.826C336.635 219.081 335.405 218.708 333.935 218.708C332.433 218.708 331.01 219.129 329.668 219.97C328.336 220.812 327.207 221.909 326.28 223.262C325.364 224.604 324.773 226.037 324.507 227.561L324.187 229.446C323.846 231.524 323.889 233.266 324.315 234.672C324.741 236.067 325.513 237.122 326.632 237.836C327.75 238.55 329.183 238.907 330.931 238.907C332.102 238.907 333.162 238.725 334.111 238.363C335.059 238.001 335.884 237.516 336.587 236.909C337.291 236.291 337.855 235.615 338.281 234.88L340.822 235.759C340.279 236.792 339.512 237.745 338.521 238.619C337.541 239.493 336.374 240.196 335.021 240.728C333.679 241.25 332.182 241.511 330.531 241.511ZM387.312 208.273H390.301L386.721 229.942C386.348 232.168 385.496 234.161 384.164 235.918C382.833 237.665 381.149 239.045 379.115 240.057C377.09 241.059 374.848 241.559 372.387 241.559C369.937 241.559 367.865 241.053 366.171 240.041C364.477 239.029 363.252 237.65 362.495 235.902C361.739 234.155 361.547 232.168 361.92 229.942L365.5 208.273H368.488L364.924 229.734C364.647 231.471 364.78 233.021 365.324 234.384C365.867 235.737 366.773 236.803 368.04 237.58C369.319 238.358 370.906 238.747 372.802 238.747C374.709 238.747 376.435 238.358 377.98 237.58C379.535 236.803 380.814 235.737 381.815 234.384C382.827 233.021 383.477 231.471 383.765 229.734L387.312 208.273ZM401.974 208.273L396.541 241H393.553L398.986 208.273H401.974ZM420.966 206.739L403.948 245.922H401.279L418.282 206.739H420.966ZM448.045 208.273H451.033L447.454 229.942C447.081 232.168 446.228 234.161 444.897 235.918C443.565 237.665 441.882 239.045 439.847 240.057C437.823 241.059 435.58 241.559 433.119 241.559C430.669 241.559 428.597 241.053 426.903 240.041C425.209 239.029 423.984 237.65 423.228 235.902C422.471 234.155 422.28 232.168 422.652 229.942L426.232 208.273H429.22L425.657 229.734C425.38 231.471 425.513 233.021 426.056 234.384C426.599 235.737 427.505 236.803 428.773 237.58C430.051 238.358 431.639 238.747 433.535 238.747C435.442 238.747 437.168 238.358 438.712 237.58C440.268 236.803 441.546 235.737 442.548 234.384C443.56 233.021 444.21 231.471 444.497 229.734L448.045 208.273ZM460.214 208.273L466.925 222.479H467.133L478.527 208.273H482.09L468.875 224.636L476.657 241H473.158L466.446 226.953H466.238L454.844 241H451.265L464.704 224.636L456.698 208.273H460.214ZM511.534 231.62L514.075 216.455H516.919L512.828 241H509.984L510.655 236.925H510.447C509.68 238.182 508.593 239.232 507.187 240.073C505.792 240.904 504.194 241.32 502.393 241.32C500.827 241.32 499.49 240.979 498.382 240.297C497.285 239.604 496.502 238.592 496.033 237.261C495.564 235.929 495.49 234.294 495.809 232.355L498.478 216.455H501.322L498.702 232.179C498.393 234.097 498.702 235.641 499.629 236.813C500.566 237.974 501.919 238.555 503.688 238.555C504.795 238.555 505.903 238.289 507.011 237.756C508.13 237.223 509.099 236.446 509.92 235.423C510.751 234.39 511.289 233.122 511.534 231.62ZM540.046 221.84L537.314 222.543C537.175 221.808 536.92 221.147 536.547 220.561C536.184 219.965 535.657 219.496 534.965 219.155C534.283 218.804 533.388 218.628 532.28 218.628C530.618 218.628 529.185 219.033 527.981 219.842C526.777 220.641 526.074 221.664 525.872 222.911C525.701 223.955 525.92 224.801 526.527 225.451C527.145 226.101 528.178 226.613 529.627 226.985L533.207 227.896C535.188 228.408 536.6 229.207 537.442 230.293C538.294 231.38 538.587 232.754 538.32 234.416C538.086 235.801 537.495 237.026 536.547 238.092C535.609 239.157 534.405 239.993 532.935 240.6C531.476 241.208 529.846 241.511 528.045 241.511C525.627 241.511 523.725 240.968 522.34 239.881C520.966 238.795 520.231 237.229 520.135 235.183L522.996 234.544C523.081 235.993 523.576 237.09 524.482 237.836C525.398 238.582 526.687 238.955 528.349 238.955C530.245 238.955 531.838 238.523 533.127 237.66C534.416 236.797 535.156 235.732 535.348 234.464C535.529 233.463 535.343 232.632 534.789 231.971C534.246 231.311 533.319 230.821 532.008 230.501L528.189 229.542C526.133 229.02 524.679 228.205 523.826 227.097C522.985 225.979 522.703 224.599 522.98 222.958C523.203 221.605 523.768 220.418 524.673 219.395C525.579 218.372 526.724 217.573 528.109 216.998C529.494 216.412 531.007 216.119 532.648 216.119C534.906 216.119 536.627 216.63 537.809 217.653C538.992 218.665 539.737 220.061 540.046 221.84ZM550.222 241.559C548.741 241.559 547.436 241.272 546.307 240.696C545.177 240.11 544.336 239.269 543.782 238.172C543.238 237.064 543.089 235.721 543.334 234.145C543.547 232.93 543.952 231.907 544.549 231.076C545.156 230.245 545.923 229.564 546.85 229.031C547.777 228.488 548.842 228.061 550.046 227.752C551.25 227.444 552.56 227.209 553.977 227.049C555.362 226.879 556.544 226.73 557.525 226.602C558.505 226.474 559.266 226.272 559.81 225.995C560.353 225.718 560.678 225.27 560.784 224.652L560.88 224.077C561.157 222.404 560.902 221.089 560.113 220.13C559.325 219.161 558.004 218.676 556.15 218.676C554.382 218.676 552.848 219.07 551.548 219.858C550.259 220.636 549.3 221.547 548.672 222.591L546.147 221.616C546.914 220.274 547.857 219.203 548.975 218.404C550.094 217.594 551.292 217.014 552.571 216.662C553.849 216.3 555.112 216.119 556.358 216.119C557.295 216.119 558.249 216.241 559.218 216.487C560.188 216.732 561.056 217.158 561.823 217.765C562.601 218.362 563.171 219.198 563.533 220.274C563.906 221.339 563.959 222.692 563.693 224.333L560.912 241H558.068L558.723 237.117H558.547C558.1 237.841 557.482 238.544 556.694 239.226C555.916 239.908 554.984 240.467 553.897 240.904C552.81 241.341 551.585 241.559 550.222 241.559ZM550.941 238.955C552.454 238.955 553.822 238.619 555.048 237.948C556.283 237.277 557.295 236.387 558.084 235.279C558.883 234.161 559.394 232.93 559.618 231.588L560.209 228.04C559.975 228.243 559.591 228.424 559.059 228.583C558.537 228.743 557.945 228.887 557.285 229.015C556.635 229.132 555.98 229.233 555.319 229.319C554.669 229.404 554.094 229.478 553.593 229.542C552.177 229.713 550.941 229.979 549.886 230.341C548.842 230.703 548.006 231.204 547.377 231.843C546.749 232.472 546.354 233.282 546.195 234.272C545.95 235.764 546.275 236.92 547.169 237.74C548.075 238.55 549.332 238.955 550.941 238.955ZM573.864 225.659L571.323 241H568.479L572.57 216.455H575.334L574.695 220.306H574.951C575.718 219.049 576.778 218.042 578.131 217.286C579.495 216.518 581.077 216.135 582.877 216.135C584.518 216.135 585.903 216.481 587.032 217.174C588.172 217.855 588.981 218.862 589.461 220.194C589.951 221.526 590.036 223.161 589.716 225.1L587.048 241H584.203L586.824 225.276C587.154 223.273 586.861 221.685 585.945 220.513C585.04 219.331 583.639 218.74 581.742 218.74C580.453 218.74 579.255 219.017 578.147 219.571C577.05 220.125 576.123 220.924 575.366 221.968C574.61 223.001 574.109 224.232 573.864 225.659ZM603.328 241.511C601.314 241.511 599.636 240.979 598.294 239.913C596.951 238.848 596.014 237.362 595.481 235.455C594.949 233.548 594.89 231.327 595.306 228.791C595.732 226.266 596.525 224.056 597.687 222.159C598.858 220.252 600.291 218.772 601.985 217.717C603.69 216.652 605.549 216.119 607.562 216.119C609.064 216.119 610.263 216.385 611.158 216.918C612.063 217.44 612.75 218.09 613.219 218.868C613.688 219.645 614.024 220.402 614.226 221.137H614.482L616.623 208.273H619.483L614.05 241H611.286L612.053 236.446H611.701C611.243 237.191 610.641 237.958 609.895 238.747C609.16 239.525 608.255 240.18 607.179 240.712C606.103 241.245 604.819 241.511 603.328 241.511ZM603.951 238.907C605.538 238.907 606.971 238.475 608.249 237.612C609.538 236.739 610.614 235.54 611.477 234.017C612.351 232.483 612.948 230.725 613.267 228.743C613.597 226.783 613.592 225.052 613.251 223.55C612.91 222.037 612.25 220.854 611.27 220.002C610.29 219.139 608.995 218.708 607.386 218.708C605.757 218.708 604.308 219.155 603.04 220.05C601.772 220.934 600.723 222.133 599.892 223.646C599.072 225.158 598.502 226.858 598.182 228.743C597.873 230.65 597.873 232.371 598.182 233.905C598.491 235.439 599.119 236.659 600.068 237.564C601.026 238.459 602.321 238.907 603.951 238.907ZM631.788 241.511C629.636 241.511 627.825 240.968 626.355 239.881C624.885 238.784 623.846 237.266 623.239 235.327C622.632 233.388 622.53 231.151 622.935 228.615C623.34 226.144 624.144 223.971 625.348 222.096C626.563 220.21 628.054 218.745 629.823 217.701C631.591 216.646 633.514 216.119 635.591 216.119C637.754 216.119 639.565 216.668 641.025 217.765C642.495 218.862 643.534 220.38 644.141 222.319C644.759 224.258 644.865 226.501 644.46 229.047C644.056 231.508 643.246 233.676 642.031 235.551C640.817 237.415 639.325 238.875 637.557 239.929C635.799 240.984 633.876 241.511 631.788 241.511ZM631.82 238.907C633.567 238.907 635.123 238.443 636.486 237.516C637.861 236.579 638.995 235.332 639.89 233.777C640.785 232.211 641.387 230.49 641.696 228.615C641.983 226.826 641.951 225.18 641.6 223.678C641.248 222.175 640.572 220.972 639.57 220.066C638.569 219.161 637.237 218.708 635.575 218.708C633.839 218.708 632.284 219.182 630.909 220.13C629.535 221.067 628.4 222.325 627.505 223.901C626.611 225.467 626.014 227.183 625.716 229.047C625.417 230.847 625.439 232.493 625.78 233.985C626.131 235.476 626.808 236.669 627.809 237.564C628.821 238.459 630.158 238.907 631.82 238.907ZM668.171 241.559C666.69 241.559 665.385 241.272 664.256 240.696C663.126 240.11 662.285 239.269 661.731 238.172C661.188 237.064 661.038 235.721 661.283 234.145C661.496 232.93 661.901 231.907 662.498 231.076C663.105 230.245 663.872 229.564 664.799 229.031C665.726 228.488 666.791 228.061 667.995 227.752C669.199 227.444 670.509 227.209 671.926 227.049C673.311 226.879 674.494 226.73 675.474 226.602C676.454 226.474 677.216 226.272 677.759 225.995C678.302 225.718 678.627 225.27 678.734 224.652L678.83 224.077C679.107 222.404 678.851 221.089 678.063 220.13C677.274 219.161 675.953 218.676 674.099 218.676C672.331 218.676 670.797 219.07 669.497 219.858C668.208 220.636 667.249 221.547 666.621 222.591L664.096 221.616C664.863 220.274 665.806 219.203 666.924 218.404C668.043 217.594 669.242 217.014 670.52 216.662C671.798 216.3 673.061 216.119 674.307 216.119C675.245 216.119 676.198 216.241 677.168 216.487C678.137 216.732 679.005 217.158 679.772 217.765C680.55 218.362 681.12 219.198 681.482 220.274C681.855 221.339 681.908 222.692 681.642 224.333L678.862 241H676.017L676.672 237.117H676.496C676.049 237.841 675.431 238.544 674.643 239.226C673.865 239.908 672.933 240.467 671.846 240.904C670.76 241.341 669.534 241.559 668.171 241.559ZM668.89 238.955C670.403 238.955 671.772 238.619 672.997 237.948C674.233 237.277 675.245 236.387 676.033 235.279C676.832 234.161 677.343 232.93 677.567 231.588L678.158 228.04C677.924 228.243 677.541 228.424 677.008 228.583C676.486 228.743 675.895 228.887 675.234 229.015C674.584 229.132 673.929 229.233 673.269 229.319C672.619 229.404 672.043 229.478 671.543 229.542C670.126 229.713 668.89 229.979 667.835 230.341C666.791 230.703 665.955 231.204 665.326 231.843C664.698 232.472 664.304 233.282 664.144 234.272C663.899 235.764 664.224 236.92 665.119 237.74C666.024 238.55 667.281 238.955 668.89 238.955ZM713.275 216.455L712.859 218.931H700.81L701.21 216.455H713.275ZM700.89 241L705.572 212.859C705.785 211.538 706.27 210.425 707.027 209.519C707.794 208.614 708.71 207.926 709.775 207.458C710.84 206.989 711.932 206.755 713.051 206.755C713.797 206.755 714.404 206.819 714.873 206.946C715.341 207.064 715.709 207.181 715.975 207.298L714.761 209.791C714.548 209.727 714.292 209.652 713.994 209.567C713.706 209.482 713.328 209.439 712.859 209.439C711.623 209.439 710.611 209.786 709.823 210.478C709.035 211.17 708.529 212.161 708.305 213.45L703.735 241H700.89ZM723.71 241.511C721.419 241.511 719.528 240.979 718.037 239.913C716.545 238.837 715.501 237.351 714.905 235.455C714.308 233.548 714.218 231.353 714.633 228.871C715.049 226.4 715.869 224.205 717.094 222.287C718.319 220.359 719.832 218.852 721.632 217.765C723.433 216.668 725.388 216.119 727.497 216.119C728.829 216.119 730.075 216.364 731.236 216.854C732.398 217.333 733.383 218.074 734.193 219.075C735.013 220.066 735.583 221.318 735.903 222.831C736.222 224.333 736.212 226.112 735.871 228.168L735.647 229.574H716.471L716.87 227.065H733.154C733.42 225.489 733.346 224.072 732.93 222.815C732.515 221.558 731.806 220.561 730.805 219.826C729.814 219.081 728.584 218.708 727.114 218.708C725.611 218.708 724.189 219.129 722.847 219.97C721.515 220.812 720.386 221.909 719.459 223.262C718.543 224.604 717.952 226.037 717.685 227.561L717.366 229.446C717.025 231.524 717.067 233.266 717.493 234.672C717.92 236.067 718.692 237.122 719.811 237.836C720.929 238.55 722.362 238.907 724.109 238.907C725.281 238.907 726.341 238.725 727.289 238.363C728.237 238.001 729.063 237.516 729.766 236.909C730.469 236.291 731.034 235.615 731.46 234.88L734.001 235.759C733.458 236.792 732.691 237.745 731.7 238.619C730.72 239.493 729.553 240.196 728.2 240.728C726.858 241.25 725.361 241.511 723.71 241.511ZM739.997 241L744.088 216.455H746.853L746.214 220.226H746.421C747.103 218.99 748.121 217.994 749.474 217.238C750.837 216.471 752.292 216.087 753.836 216.087C754.071 216.087 754.332 216.092 754.619 216.103C754.907 216.103 755.147 216.114 755.338 216.135L754.843 219.027C754.715 219.006 754.491 218.974 754.172 218.931C753.863 218.889 753.517 218.868 753.133 218.868C751.855 218.868 750.672 219.139 749.586 219.683C748.51 220.215 747.604 220.956 746.869 221.904C746.144 222.852 745.676 223.933 745.463 225.148L742.842 241H739.997ZM756.081 241L760.172 216.455H762.937L762.298 220.226H762.505C763.187 218.99 764.205 217.994 765.558 217.238C766.921 216.471 768.375 216.087 769.92 216.087C770.155 216.087 770.416 216.092 770.703 216.103C770.991 216.103 771.231 216.114 771.422 216.135L770.927 219.027C770.799 219.006 770.575 218.974 770.256 218.931C769.947 218.889 769.601 218.868 769.217 218.868C767.939 218.868 766.756 219.139 765.67 219.683C764.594 220.215 763.688 220.956 762.953 221.904C762.228 222.852 761.76 223.933 761.547 225.148L758.926 241H756.081ZM778.957 241.559C777.476 241.559 776.171 241.272 775.042 240.696C773.913 240.11 773.071 239.269 772.517 238.172C771.974 237.064 771.825 235.721 772.07 234.145C772.283 232.93 772.687 231.907 773.284 231.076C773.891 230.245 774.658 229.564 775.585 229.031C776.512 228.488 777.577 228.061 778.781 227.752C779.985 227.444 781.295 227.209 782.712 227.049C784.097 226.879 785.28 226.73 786.26 226.602C787.24 226.474 788.002 226.272 788.545 225.995C789.088 225.718 789.413 225.27 789.52 224.652L789.616 224.077C789.893 222.404 789.637 221.089 788.849 220.13C788.06 219.161 786.739 218.676 784.886 218.676C783.117 218.676 781.583 219.07 780.283 219.858C778.994 220.636 778.035 221.547 777.407 222.591L774.882 221.616C775.649 220.274 776.592 219.203 777.711 218.404C778.829 217.594 780.028 217.014 781.306 216.662C782.584 216.3 783.847 216.119 785.093 216.119C786.031 216.119 786.984 216.241 787.954 216.487C788.923 216.732 789.792 217.158 790.559 217.765C791.336 218.362 791.906 219.198 792.268 220.274C792.641 221.339 792.695 222.692 792.428 224.333L789.648 241H786.803L787.458 237.117H787.283C786.835 237.841 786.217 238.544 785.429 239.226C784.651 239.908 783.719 240.467 782.632 240.904C781.546 241.341 780.321 241.559 778.957 241.559ZM779.676 238.955C781.189 238.955 782.558 238.619 783.783 237.948C785.019 237.277 786.031 236.387 786.819 235.279C787.618 234.161 788.13 232.93 788.353 231.588L788.945 228.04C788.71 228.243 788.327 228.424 787.794 228.583C787.272 228.743 786.681 228.887 786.02 229.015C785.37 229.132 784.715 229.233 784.055 229.319C783.405 229.404 782.83 229.478 782.329 229.542C780.912 229.713 779.676 229.979 778.621 230.341C777.577 230.703 776.741 231.204 776.113 231.843C775.484 232.472 775.09 233.282 774.93 234.272C774.685 235.764 775.01 236.92 775.905 237.74C776.81 238.55 778.067 238.955 779.676 238.955ZM797.214 241L801.305 216.455H804.07L803.431 220.226H803.686C804.4 218.958 805.391 217.962 806.659 217.238C807.926 216.502 809.364 216.135 810.973 216.135C812.656 216.135 813.977 216.534 814.936 217.333C815.895 218.122 816.534 219.208 816.854 220.593H817.062C817.829 219.23 818.91 218.148 820.306 217.349C821.701 216.54 823.294 216.135 825.084 216.135C827.353 216.135 829.031 216.854 830.117 218.292C831.204 219.73 831.518 221.819 831.06 224.556L828.312 241H825.467L828.216 224.556C828.525 222.618 828.274 221.163 827.465 220.194C826.655 219.224 825.44 218.74 823.821 218.74C821.946 218.74 820.396 219.315 819.171 220.466C817.956 221.605 817.205 223.065 816.918 224.844L814.217 241H811.309L814.105 224.301C814.372 222.639 814.132 221.297 813.386 220.274C812.651 219.251 811.442 218.74 809.759 218.74C808.619 218.74 807.548 219.022 806.547 219.587C805.556 220.141 804.714 220.913 804.022 221.904C803.34 222.884 802.893 224.008 802.679 225.276L800.059 241H797.214ZM845.702 241.511C843.411 241.511 841.52 240.979 840.029 239.913C838.538 238.837 837.493 237.351 836.897 235.455C836.3 233.548 836.21 231.353 836.625 228.871C837.041 226.4 837.861 224.205 839.086 222.287C840.311 220.359 841.824 218.852 843.625 217.765C845.425 216.668 847.38 216.119 849.489 216.119C850.821 216.119 852.067 216.364 853.229 216.854C854.39 217.333 855.375 218.074 856.185 219.075C857.005 220.066 857.575 221.318 857.895 222.831C858.214 224.333 858.204 226.112 857.863 228.168L857.639 229.574H838.463L838.862 227.065H855.146C855.413 225.489 855.338 224.072 854.922 222.815C854.507 221.558 853.799 220.561 852.797 219.826C851.806 219.081 850.576 218.708 849.106 218.708C847.604 218.708 846.181 219.129 844.839 219.97C843.507 220.812 842.378 221.909 841.451 223.262C840.535 224.604 839.944 226.037 839.677 227.561L839.358 229.446C839.017 231.524 839.06 233.266 839.486 234.672C839.912 236.067 840.684 237.122 841.803 237.836C842.921 238.55 844.354 238.907 846.101 238.907C847.273 238.907 848.333 238.725 849.281 238.363C850.23 238.001 851.055 237.516 851.758 236.909C852.462 236.291 853.026 235.615 853.452 234.88L855.993 235.759C855.45 236.792 854.683 237.745 853.692 238.619C852.712 239.493 851.545 240.196 850.192 240.728C848.85 241.25 847.353 241.511 845.702 241.511ZM867.375 225.659L864.834 241H861.99L866.081 216.455H868.845L868.206 220.306H868.462C869.229 219.049 870.289 218.042 871.642 217.286C873.005 216.518 874.587 216.135 876.388 216.135C878.028 216.135 879.413 216.481 880.543 217.174C881.682 217.855 882.492 218.862 882.972 220.194C883.462 221.526 883.547 223.161 883.227 225.1L880.559 241H877.714L880.335 225.276C880.665 223.273 880.372 221.685 879.456 220.513C878.55 219.331 877.149 218.74 875.253 218.74C873.964 218.74 872.766 219.017 871.658 219.571C870.56 220.125 869.633 220.924 868.877 221.968C868.121 223.001 867.62 224.232 867.375 225.659ZM901.808 216.455L901.409 218.931H889.679L890.095 216.455H901.808ZM894.713 210.574H897.573L893.578 234.592C893.408 235.615 893.451 236.419 893.706 237.005C893.962 237.58 894.356 237.99 894.889 238.235C895.421 238.47 896.007 238.587 896.647 238.587C897.019 238.587 897.339 238.566 897.605 238.523C897.882 238.47 898.127 238.417 898.34 238.363L898.548 240.936C898.239 241.043 897.872 241.138 897.446 241.224C897.019 241.32 896.508 241.368 895.911 241.368C894.867 241.368 893.903 241.138 893.019 240.68C892.135 240.222 891.464 239.54 891.006 238.635C890.547 237.729 890.425 236.605 890.638 235.263L894.713 210.574ZM910.969 241.559C909.488 241.559 908.183 241.272 907.054 240.696C905.924 240.11 905.083 239.269 904.529 238.172C903.985 237.064 903.836 235.721 904.081 234.145C904.294 232.93 904.699 231.907 905.296 231.076C905.903 230.245 906.67 229.564 907.597 229.031C908.524 228.488 909.589 228.061 910.793 227.752C911.997 227.444 913.307 227.209 914.724 227.049C916.109 226.879 917.292 226.73 918.272 226.602C919.252 226.474 920.013 226.272 920.557 225.995C921.1 225.718 921.425 225.27 921.532 224.652L921.627 224.077C921.904 222.404 921.649 221.089 920.86 220.13C920.072 219.161 918.751 218.676 916.897 218.676C915.129 218.676 913.595 219.07 912.295 219.858C911.006 220.636 910.047 221.547 909.419 222.591L906.894 221.616C907.661 220.274 908.604 219.203 909.722 218.404C910.841 217.594 912.039 217.014 913.318 216.662C914.596 216.3 915.859 216.119 917.105 216.119C918.043 216.119 918.996 216.241 919.966 216.487C920.935 216.732 921.803 217.158 922.57 217.765C923.348 218.362 923.918 219.198 924.28 220.274C924.653 221.339 924.706 222.692 924.44 224.333L921.659 241H918.815L919.47 237.117H919.294C918.847 237.841 918.229 238.544 917.441 239.226C916.663 239.908 915.731 240.467 914.644 240.904C913.557 241.341 912.332 241.559 910.969 241.559ZM911.688 238.955C913.201 238.955 914.57 238.619 915.795 237.948C917.03 237.277 918.043 236.387 918.831 235.279C919.63 234.161 920.141 232.93 920.365 231.588L920.956 228.04C920.722 228.243 920.338 228.424 919.806 228.583C919.284 228.743 918.692 228.887 918.032 229.015C917.382 229.132 916.727 229.233 916.066 229.319C915.417 229.404 914.841 229.478 914.341 229.542C912.924 229.713 911.688 229.979 910.633 230.341C909.589 230.703 908.753 231.204 908.124 231.843C907.496 232.472 907.102 233.282 906.942 234.272C906.697 235.764 907.022 236.92 907.917 237.74C908.822 238.55 910.079 238.955 911.688 238.955ZM942.473 241L947.907 208.273H966.843L966.396 210.957H950.448L948.402 223.278H962.864L962.417 225.963H947.955L945.462 241H942.473ZM968.281 241L972.372 216.455H975.233L971.142 241H968.281ZM974.833 212.188C974.237 212.188 973.731 211.985 973.315 211.581C972.91 211.176 972.713 210.686 972.724 210.11C972.745 209.567 972.964 209.098 973.379 208.704C973.805 208.299 974.306 208.097 974.881 208.097C975.478 208.097 975.984 208.305 976.399 208.72C976.815 209.125 977.012 209.615 976.991 210.19C976.98 210.734 976.761 211.202 976.335 211.597C975.909 211.991 975.409 212.188 974.833 212.188ZM986.495 250.716C984.822 250.716 983.389 250.498 982.196 250.061C981.003 249.635 980.033 249.049 979.288 248.303C978.553 247.557 978.015 246.721 977.674 245.794L980.262 244.276C980.497 244.894 980.854 245.501 981.333 246.098C981.813 246.694 982.489 247.184 983.363 247.568C984.236 247.962 985.381 248.159 986.798 248.159C988.961 248.159 990.82 247.61 992.375 246.513C993.931 245.426 994.9 243.743 995.284 241.463L996.147 235.934H995.891C995.454 236.68 994.868 237.426 994.133 238.172C993.398 238.907 992.487 239.519 991.401 240.009C990.325 240.499 989.052 240.744 987.581 240.744C985.621 240.744 983.959 240.26 982.596 239.29C981.232 238.321 980.268 236.936 979.703 235.135C979.139 233.324 979.069 231.167 979.495 228.663C979.9 226.181 980.678 223.997 981.829 222.112C982.99 220.226 984.417 218.756 986.111 217.701C987.816 216.646 989.68 216.119 991.704 216.119C993.206 216.119 994.41 216.385 995.316 216.918C996.221 217.44 996.908 218.09 997.377 218.868C997.857 219.645 998.203 220.402 998.416 221.137H998.704L999.471 216.455H1002.25L998.096 241.639C997.745 243.717 997.02 245.426 995.923 246.769C994.826 248.111 993.462 249.102 991.832 249.741C990.213 250.391 988.434 250.716 986.495 250.716ZM988.221 238.14C989.797 238.14 991.214 237.761 992.471 237.005C993.739 236.238 994.799 235.146 995.651 233.729C996.514 232.301 997.106 230.597 997.425 228.615C997.745 226.698 997.729 224.999 997.377 223.518C997.036 222.026 996.37 220.854 995.38 220.002C994.4 219.139 993.11 218.708 991.512 218.708C989.861 218.708 988.402 219.15 987.134 220.034C985.877 220.918 984.838 222.112 984.018 223.614C983.208 225.105 982.649 226.772 982.34 228.615C982.042 230.49 982.052 232.147 982.372 233.585C982.702 235.013 983.352 236.131 984.321 236.941C985.291 237.74 986.591 238.14 988.221 238.14ZM1005.69 241L1009.78 216.455H1012.55L1011.91 220.226H1012.16C1012.88 218.958 1013.87 217.962 1015.14 217.238C1016.4 216.502 1017.84 216.135 1019.45 216.135C1021.13 216.135 1022.45 216.534 1023.41 217.333C1024.37 218.122 1025.01 219.208 1025.33 220.593H1025.54C1026.31 219.23 1027.39 218.148 1028.78 217.349C1030.18 216.54 1031.77 216.135 1033.56 216.135C1035.83 216.135 1037.51 216.854 1038.59 218.292C1039.68 219.73 1039.99 221.819 1039.54 224.556L1036.79 241H1033.94L1036.69 224.556C1037 222.618 1036.75 221.163 1035.94 220.194C1035.13 219.224 1033.92 218.74 1032.3 218.74C1030.42 218.74 1028.87 219.315 1027.65 220.466C1026.43 221.605 1025.68 223.065 1025.39 224.844L1022.69 241H1019.79L1022.58 224.301C1022.85 222.639 1022.61 221.297 1021.86 220.274C1021.13 219.251 1019.92 218.74 1018.24 218.74C1017.1 218.74 1016.02 219.022 1015.02 219.587C1014.03 220.141 1013.19 220.913 1012.5 221.904C1011.82 222.884 1011.37 224.008 1011.16 225.276L1008.54 241H1005.69ZM1051.11 241.559C1049.63 241.559 1048.32 241.272 1047.2 240.696C1046.07 240.11 1045.22 239.269 1044.67 238.172C1044.13 237.064 1043.98 235.721 1044.22 234.145C1044.44 232.93 1044.84 231.907 1045.44 231.076C1046.04 230.245 1046.81 229.564 1047.74 229.031C1048.67 228.488 1049.73 228.061 1050.93 227.752C1052.14 227.444 1053.45 227.209 1054.87 227.049C1056.25 226.879 1057.43 226.73 1058.41 226.602C1059.39 226.474 1060.16 226.272 1060.7 225.995C1061.24 225.718 1061.57 225.27 1061.67 224.652L1061.77 224.077C1062.05 222.404 1061.79 221.089 1061 220.13C1060.21 219.161 1058.89 218.676 1057.04 218.676C1055.27 218.676 1053.74 219.07 1052.44 219.858C1051.15 220.636 1050.19 221.547 1049.56 222.591L1047.04 221.616C1047.8 220.274 1048.75 219.203 1049.86 218.404C1050.98 217.594 1052.18 217.014 1053.46 216.662C1054.74 216.3 1056 216.119 1057.25 216.119C1058.18 216.119 1059.14 216.241 1060.11 216.487C1061.08 216.732 1061.94 217.158 1062.71 217.765C1063.49 218.362 1064.06 219.198 1064.42 220.274C1064.79 221.339 1064.85 222.692 1064.58 224.333L1061.8 241H1058.96L1059.61 237.117H1059.44C1058.99 237.841 1058.37 238.544 1057.58 239.226C1056.8 239.908 1055.87 240.467 1054.79 240.904C1053.7 241.341 1052.47 241.559 1051.11 241.559ZM1051.83 238.955C1053.34 238.955 1054.71 238.619 1055.94 237.948C1057.17 237.277 1058.18 236.387 1058.97 235.279C1059.77 234.161 1060.28 232.93 1060.51 231.588L1061.1 228.04C1060.86 228.243 1060.48 228.424 1059.95 228.583C1059.43 228.743 1058.83 228.887 1058.17 229.015C1057.52 229.132 1056.87 229.233 1056.21 229.319C1055.56 229.404 1054.98 229.478 1054.48 229.542C1053.07 229.713 1051.83 229.979 1050.77 230.341C1049.73 230.703 1048.89 231.204 1048.27 231.843C1047.64 232.472 1047.24 233.282 1047.08 234.272C1046.84 235.764 1047.16 236.92 1048.06 237.74C1048.96 238.55 1050.22 238.955 1051.83 238.955ZM209.318 304.205L214.975 270.455H217.739L216.972 275.137H217.308C217.755 274.402 218.336 273.645 219.05 272.868C219.774 272.09 220.674 271.44 221.75 270.918C222.837 270.385 224.137 270.119 225.65 270.119C227.674 270.119 229.352 270.646 230.683 271.701C232.026 272.756 232.963 274.237 233.496 276.143C234.039 278.05 234.098 280.266 233.672 282.791C233.256 285.327 232.462 287.548 231.291 289.455C230.119 291.362 228.686 292.848 226.992 293.913C225.309 294.979 223.466 295.511 221.463 295.511C219.982 295.511 218.783 295.245 217.867 294.712C216.962 294.18 216.269 293.525 215.79 292.747C215.31 291.958 214.964 291.191 214.751 290.446H214.495L212.194 304.205H209.318ZM215.742 282.743C215.422 284.725 215.422 286.483 215.742 288.017C216.061 289.54 216.706 290.739 217.675 291.612C218.645 292.475 219.923 292.907 221.511 292.907C223.141 292.907 224.595 292.459 225.873 291.564C227.152 290.659 228.217 289.439 229.069 287.905C229.922 286.371 230.508 284.65 230.827 282.743C231.125 280.858 231.115 279.158 230.795 277.646C230.476 276.133 229.836 274.934 228.878 274.05C227.919 273.155 226.614 272.708 224.962 272.708C223.364 272.708 221.926 273.139 220.648 274.002C219.38 274.854 218.325 276.037 217.484 277.55C216.642 279.052 216.061 280.783 215.742 282.743ZM244.67 295.559C243.189 295.559 241.884 295.272 240.755 294.696C239.625 294.11 238.784 293.269 238.23 292.172C237.687 291.064 237.537 289.721 237.782 288.145C237.996 286.93 238.4 285.907 238.997 285.076C239.604 284.245 240.371 283.564 241.298 283.031C242.225 282.488 243.29 282.061 244.494 281.752C245.698 281.444 247.008 281.209 248.425 281.049C249.81 280.879 250.993 280.73 251.973 280.602C252.953 280.474 253.715 280.272 254.258 279.995C254.801 279.718 255.126 279.27 255.233 278.652L255.329 278.077C255.606 276.404 255.35 275.089 254.562 274.13C253.773 273.161 252.452 272.676 250.599 272.676C248.83 272.676 247.296 273.07 245.996 273.858C244.707 274.636 243.748 275.547 243.12 276.591L240.595 275.616C241.362 274.274 242.305 273.203 243.423 272.404C244.542 271.594 245.741 271.014 247.019 270.662C248.297 270.3 249.56 270.119 250.806 270.119C251.744 270.119 252.697 270.241 253.667 270.487C254.636 270.732 255.504 271.158 256.271 271.765C257.049 272.362 257.619 273.198 257.981 274.274C258.354 275.339 258.407 276.692 258.141 278.333L255.361 295H252.516L253.171 291.117H252.996C252.548 291.841 251.93 292.544 251.142 293.226C250.364 293.908 249.432 294.467 248.345 294.904C247.259 295.341 246.034 295.559 244.67 295.559ZM245.389 292.955C246.902 292.955 248.271 292.619 249.496 291.948C250.732 291.277 251.744 290.387 252.532 289.279C253.331 288.161 253.842 286.93 254.066 285.588L254.657 282.04C254.423 282.243 254.04 282.424 253.507 282.583C252.985 282.743 252.394 282.887 251.733 283.015C251.083 283.132 250.428 283.233 249.768 283.319C249.118 283.404 248.542 283.478 248.042 283.542C246.625 283.713 245.389 283.979 244.334 284.341C243.29 284.703 242.454 285.204 241.825 285.843C241.197 286.472 240.803 287.282 240.643 288.272C240.398 289.764 240.723 290.92 241.618 291.74C242.523 292.55 243.78 292.955 245.389 292.955ZM262.927 295L267.018 270.455H269.783L269.143 274.226H269.351C270.033 272.99 271.05 271.994 272.403 271.238C273.767 270.471 275.221 270.087 276.766 270.087C277 270.087 277.261 270.092 277.549 270.103C277.837 270.103 278.076 270.114 278.268 270.135L277.773 273.027C277.645 273.006 277.421 272.974 277.102 272.931C276.793 272.889 276.446 272.868 276.063 272.868C274.784 272.868 273.602 273.139 272.515 273.683C271.439 274.215 270.534 274.956 269.799 275.904C269.074 276.852 268.605 277.933 268.392 279.148L265.772 295H262.927ZM285.803 295.559C284.322 295.559 283.017 295.272 281.888 294.696C280.758 294.11 279.917 293.269 279.363 292.172C278.819 291.064 278.67 289.721 278.915 288.145C279.128 286.93 279.533 285.907 280.13 285.076C280.737 284.245 281.504 283.564 282.431 283.031C283.358 282.488 284.423 282.061 285.627 281.752C286.831 281.444 288.141 281.209 289.558 281.049C290.943 280.879 292.125 280.73 293.106 280.602C294.086 280.474 294.847 280.272 295.391 279.995C295.934 279.718 296.259 279.27 296.366 278.652L296.461 278.077C296.738 276.404 296.483 275.089 295.694 274.13C294.906 273.161 293.585 272.676 291.731 272.676C289.963 272.676 288.429 273.07 287.129 273.858C285.84 274.636 284.881 275.547 284.253 276.591L281.728 275.616C282.495 274.274 283.438 273.203 284.556 272.404C285.675 271.594 286.873 271.014 288.152 270.662C289.43 270.3 290.693 270.119 291.939 270.119C292.877 270.119 293.83 270.241 294.799 270.487C295.769 270.732 296.637 271.158 297.404 271.765C298.182 272.362 298.752 273.198 299.114 274.274C299.487 275.339 299.54 276.692 299.274 278.333L296.493 295H293.649L294.304 291.117H294.128C293.681 291.841 293.063 292.544 292.275 293.226C291.497 293.908 290.565 294.467 289.478 294.904C288.391 295.341 287.166 295.559 285.803 295.559ZM286.522 292.955C288.035 292.955 289.404 292.619 290.629 291.948C291.864 291.277 292.877 290.387 293.665 289.279C294.464 288.161 294.975 286.93 295.199 285.588L295.79 282.04C295.556 282.243 295.172 282.424 294.64 282.583C294.118 282.743 293.526 282.887 292.866 283.015C292.216 283.132 291.561 283.233 290.9 283.319C290.25 283.404 289.675 283.478 289.174 283.542C287.758 283.713 286.522 283.979 285.467 284.341C284.423 284.703 283.587 285.204 282.958 285.843C282.33 286.472 281.936 287.282 281.776 288.272C281.531 289.764 281.856 290.92 282.75 291.74C283.656 292.55 284.913 292.955 286.522 292.955ZM326.24 295.511C324.024 295.511 322.197 294.963 320.759 293.865C319.321 292.768 318.314 291.266 317.739 289.359C317.174 287.441 317.094 285.268 317.499 282.839C317.904 280.368 318.719 278.178 319.944 276.271C321.169 274.354 322.682 272.852 324.483 271.765C326.294 270.668 328.27 270.119 330.411 270.119C332.062 270.119 333.501 270.439 334.726 271.078C335.951 271.706 336.899 272.596 337.57 273.746C338.241 274.886 338.561 276.218 338.529 277.741H335.653C335.578 276.325 335.061 275.131 334.103 274.162C333.154 273.192 331.812 272.708 330.076 272.708C328.488 272.708 327.018 273.134 325.665 273.986C324.312 274.828 323.167 276.005 322.229 277.518C321.303 279.02 320.679 280.762 320.36 282.743C320.019 284.735 320.051 286.499 320.456 288.033C320.86 289.556 321.585 290.749 322.629 291.612C323.684 292.475 325.015 292.907 326.624 292.907C327.721 292.907 328.755 292.704 329.724 292.299C330.693 291.884 331.551 291.298 332.297 290.542C333.043 289.775 333.613 288.874 334.007 287.841H336.883C336.404 289.332 335.647 290.653 334.614 291.804C333.591 292.955 332.366 293.86 330.939 294.521C329.511 295.181 327.945 295.511 326.24 295.511ZM341.765 295L345.856 270.455H348.621L347.981 274.226H348.189C348.871 272.99 349.888 271.994 351.241 271.238C352.605 270.471 354.059 270.087 355.604 270.087C355.838 270.087 356.099 270.092 356.387 270.103C356.674 270.103 356.914 270.114 357.106 270.135L356.611 273.027C356.483 273.006 356.259 272.974 355.939 272.931C355.63 272.889 355.284 272.868 354.901 272.868C353.622 272.868 352.44 273.139 351.353 273.683C350.277 274.215 349.372 274.956 348.636 275.904C347.912 276.852 347.443 277.933 347.23 279.148L344.61 295H341.765ZM357.881 295L361.972 270.455H364.832L360.741 295H357.881ZM364.433 266.188C363.836 266.188 363.33 265.985 362.915 265.581C362.51 265.176 362.313 264.686 362.323 264.11C362.345 263.567 362.563 263.098 362.979 262.704C363.405 262.299 363.905 262.097 364.481 262.097C365.077 262.097 365.583 262.305 365.999 262.72C366.414 263.125 366.611 263.615 366.59 264.19C366.58 264.734 366.361 265.202 365.935 265.597C365.509 265.991 365.008 266.188 364.433 266.188ZM375.056 295.559C373.575 295.559 372.27 295.272 371.14 294.696C370.011 294.11 369.17 293.269 368.616 292.172C368.072 291.064 367.923 289.721 368.168 288.145C368.381 286.93 368.786 285.907 369.383 285.076C369.99 284.245 370.757 283.564 371.684 283.031C372.611 282.488 373.676 282.061 374.88 281.752C376.084 281.444 377.394 281.209 378.811 281.049C380.196 280.879 381.378 280.73 382.359 280.602C383.339 280.474 384.1 280.272 384.644 279.995C385.187 279.718 385.512 279.27 385.618 278.652L385.714 278.077C385.991 276.404 385.736 275.089 384.947 274.13C384.159 273.161 382.838 272.676 380.984 272.676C379.216 272.676 377.682 273.07 376.382 273.858C375.093 274.636 374.134 275.547 373.506 276.591L370.981 275.616C371.748 274.274 372.691 273.203 373.809 272.404C374.928 271.594 376.126 271.014 377.405 270.662C378.683 270.3 379.946 270.119 381.192 270.119C382.129 270.119 383.083 270.241 384.052 270.487C385.022 270.732 385.89 271.158 386.657 271.765C387.435 272.362 388.005 273.198 388.367 274.274C388.74 275.339 388.793 276.692 388.527 278.333L385.746 295H382.902L383.557 291.117H383.381C382.934 291.841 382.316 292.544 381.528 293.226C380.75 293.908 379.818 294.467 378.731 294.904C377.644 295.341 376.419 295.559 375.056 295.559ZM375.775 292.955C377.288 292.955 378.656 292.619 379.882 291.948C381.117 291.277 382.129 290.387 382.918 289.279C383.717 288.161 384.228 286.93 384.452 285.588L385.043 282.04C384.809 282.243 384.425 282.424 383.893 282.583C383.371 282.743 382.779 282.887 382.119 283.015C381.469 283.132 380.814 283.233 380.153 283.319C379.503 283.404 378.928 283.478 378.427 283.542C377.011 283.713 375.775 283.979 374.72 284.341C373.676 284.703 372.84 285.204 372.211 285.843C371.583 286.472 371.188 287.282 371.029 288.272C370.784 289.764 371.109 290.92 372.003 291.74C372.909 292.55 374.166 292.955 375.775 292.955ZM402.837 295.511C400.621 295.511 398.794 294.963 397.356 293.865C395.918 292.768 394.911 291.266 394.336 289.359C393.771 287.441 393.691 285.268 394.096 282.839C394.501 280.368 395.316 278.178 396.541 276.271C397.766 274.354 399.279 272.852 401.079 271.765C402.89 270.668 404.867 270.119 407.008 270.119C408.659 270.119 410.097 270.439 411.322 271.078C412.548 271.706 413.496 272.596 414.167 273.746C414.838 274.886 415.158 276.218 415.126 277.741H412.249C412.175 276.325 411.658 275.131 410.699 274.162C409.751 273.192 408.409 272.708 406.672 272.708C405.085 272.708 403.615 273.134 402.262 273.986C400.909 274.828 399.764 276.005 398.826 277.518C397.899 279.02 397.276 280.762 396.956 282.743C396.615 284.735 396.647 286.499 397.052 288.033C397.457 289.556 398.182 290.749 399.226 291.612C400.28 292.475 401.612 292.907 403.221 292.907C404.318 292.907 405.351 292.704 406.321 292.299C407.29 291.884 408.148 291.298 408.894 290.542C409.639 289.775 410.209 288.874 410.603 287.841H413.48C413 289.332 412.244 290.653 411.211 291.804C410.188 292.955 408.963 293.86 407.535 294.521C406.108 295.181 404.542 295.511 402.837 295.511ZM401.67 294.872H404.099L403.604 296.151C404.52 296.289 405.25 296.657 405.793 297.253C406.337 297.86 406.507 298.745 406.305 299.906C406.092 301.195 405.42 302.218 404.291 302.974C403.173 303.73 401.644 304.119 399.705 304.141L399.961 302.143C401.015 302.132 401.873 301.957 402.533 301.616C403.194 301.275 403.583 300.732 403.7 299.986C403.838 299.187 403.652 298.622 403.141 298.292C402.64 297.962 401.788 297.765 400.584 297.701L401.67 294.872ZM425.153 295.559C423.672 295.559 422.367 295.272 421.238 294.696C420.109 294.11 419.267 293.269 418.713 292.172C418.17 291.064 418.021 289.721 418.266 288.145C418.479 286.93 418.884 285.907 419.48 285.076C420.088 284.245 420.855 283.564 421.781 283.031C422.708 282.488 423.774 282.061 424.977 281.752C426.181 281.444 427.492 281.209 428.909 281.049C430.294 280.879 431.476 280.73 432.456 280.602C433.436 280.474 434.198 280.272 434.741 279.995C435.285 279.718 435.61 279.27 435.716 278.652L435.812 278.077C436.089 276.404 435.833 275.089 435.045 274.13C434.257 273.161 432.936 272.676 431.082 272.676C429.313 272.676 427.779 273.07 426.48 273.858C425.191 274.636 424.232 275.547 423.603 276.591L421.078 275.616C421.845 274.274 422.788 273.203 423.907 272.404C425.025 271.594 426.224 271.014 427.502 270.662C428.781 270.3 430.043 270.119 431.29 270.119C432.227 270.119 433.181 270.241 434.15 270.487C435.12 270.732 435.988 271.158 436.755 271.765C437.533 272.362 438.102 273.198 438.465 274.274C438.838 275.339 438.891 276.692 438.625 278.333L435.844 295H433L433.655 291.117H433.479C433.031 291.841 432.414 292.544 431.625 293.226C430.848 293.908 429.915 294.467 428.829 294.904C427.742 295.341 426.517 295.559 425.153 295.559ZM425.872 292.955C427.385 292.955 428.754 292.619 429.979 291.948C431.215 291.277 432.227 290.387 433.015 289.279C433.814 288.161 434.326 286.93 434.55 285.588L435.141 282.04C434.906 282.243 434.523 282.424 433.99 282.583C433.468 282.743 432.877 282.887 432.216 283.015C431.567 283.132 430.911 283.233 430.251 283.319C429.601 283.404 429.026 283.478 428.525 283.542C427.108 283.713 425.872 283.979 424.818 284.341C423.774 284.703 422.937 285.204 422.309 285.843C421.68 286.472 421.286 287.282 421.126 288.272C420.881 289.764 421.206 290.92 422.101 291.74C423.007 292.55 424.264 292.955 425.872 292.955ZM426.623 267.067L424.354 266.939C424.631 265.522 425.286 264.361 426.32 263.455C427.353 262.55 428.509 262.097 429.788 262.097C430.437 262.097 430.986 262.214 431.433 262.449C431.892 262.672 432.312 262.933 432.696 263.232C433.079 263.519 433.479 263.775 433.894 263.999C434.321 264.222 434.821 264.334 435.397 264.334C436.046 264.334 436.654 264.1 437.218 263.631C437.794 263.162 438.161 262.582 438.321 261.889L440.51 262.145C440.212 263.572 439.541 264.718 438.497 265.581C437.463 266.433 436.329 266.859 435.093 266.859C434.379 266.859 433.799 266.747 433.351 266.523C432.914 266.289 432.52 266.028 432.169 265.74C431.828 265.442 431.46 265.181 431.066 264.957C430.672 264.734 430.155 264.622 429.516 264.622C428.834 264.622 428.221 264.856 427.678 265.325C427.135 265.794 426.783 266.374 426.623 267.067ZM453.063 295.511C450.911 295.511 449.099 294.968 447.629 293.881C446.159 292.784 445.12 291.266 444.513 289.327C443.906 287.388 443.805 285.151 444.21 282.615C444.614 280.144 445.419 277.971 446.623 276.096C447.837 274.21 449.329 272.745 451.097 271.701C452.865 270.646 454.788 270.119 456.866 270.119C459.028 270.119 460.84 270.668 462.299 271.765C463.769 272.862 464.808 274.38 465.415 276.319C466.033 278.258 466.14 280.501 465.735 283.047C465.33 285.508 464.52 287.676 463.306 289.551C462.091 291.415 460.6 292.875 458.831 293.929C457.074 294.984 455.151 295.511 453.063 295.511ZM453.095 292.907C454.842 292.907 456.397 292.443 457.761 291.516C459.135 290.579 460.27 289.332 461.164 287.777C462.059 286.211 462.661 284.49 462.97 282.615C463.258 280.826 463.226 279.18 462.874 277.678C462.523 276.175 461.846 274.972 460.845 274.066C459.843 273.161 458.512 272.708 456.85 272.708C455.113 272.708 453.558 273.182 452.184 274.13C450.809 275.067 449.675 276.325 448.78 277.901C447.885 279.467 447.288 281.183 446.99 283.047C446.692 284.847 446.713 286.493 447.054 287.985C447.406 289.476 448.082 290.669 449.083 291.564C450.096 292.459 451.433 292.907 453.095 292.907ZM491.443 295.511C489.429 295.511 487.751 294.979 486.409 293.913C485.067 292.848 484.129 291.362 483.597 289.455C483.064 287.548 483.005 285.327 483.421 282.791C483.847 280.266 484.641 278.056 485.802 276.159C486.974 274.252 488.407 272.772 490.1 271.717C491.805 270.652 493.664 270.119 495.678 270.119C497.18 270.119 498.378 270.385 499.273 270.918C500.179 271.44 500.866 272.09 501.334 272.868C501.803 273.645 502.139 274.402 502.341 275.137H502.597L504.738 262.273H507.599L502.165 295H499.401L500.168 290.446H499.816C499.358 291.191 498.756 291.958 498.011 292.747C497.276 293.525 496.37 294.18 495.294 294.712C494.218 295.245 492.934 295.511 491.443 295.511ZM492.066 292.907C493.653 292.907 495.086 292.475 496.365 291.612C497.654 290.739 498.73 289.54 499.593 288.017C500.466 286.483 501.063 284.725 501.382 282.743C501.713 280.783 501.707 279.052 501.366 277.55C501.026 276.037 500.365 274.854 499.385 274.002C498.405 273.139 497.11 272.708 495.502 272.708C493.872 272.708 492.423 273.155 491.155 274.05C489.887 274.934 488.838 276.133 488.007 277.646C487.187 279.158 486.617 280.858 486.297 282.743C485.988 284.65 485.988 286.371 486.297 287.905C486.606 289.439 487.235 290.659 488.183 291.564C489.142 292.459 490.436 292.907 492.066 292.907ZM520.111 295.511C517.821 295.511 515.93 294.979 514.438 293.913C512.947 292.837 511.903 291.351 511.306 289.455C510.709 287.548 510.619 285.353 511.034 282.871C511.45 280.4 512.27 278.205 513.495 276.287C514.72 274.359 516.233 272.852 518.034 271.765C519.834 270.668 521.789 270.119 523.898 270.119C525.23 270.119 526.477 270.364 527.638 270.854C528.799 271.333 529.784 272.074 530.594 273.075C531.414 274.066 531.984 275.318 532.304 276.831C532.624 278.333 532.613 280.112 532.272 282.168L532.048 283.574H512.872L513.272 281.065H529.555C529.822 279.489 529.747 278.072 529.332 276.815C528.916 275.558 528.208 274.561 527.206 273.826C526.216 273.081 524.985 272.708 523.515 272.708C522.013 272.708 520.591 273.129 519.248 273.97C517.917 274.812 516.787 275.909 515.86 277.262C514.944 278.604 514.353 280.037 514.087 281.561L513.767 283.446C513.426 285.524 513.469 287.266 513.895 288.672C514.321 290.067 515.093 291.122 516.212 291.836C517.331 292.55 518.763 292.907 520.511 292.907C521.682 292.907 522.742 292.725 523.691 292.363C524.639 292.001 525.464 291.516 526.168 290.909C526.871 290.291 527.435 289.615 527.861 288.88L530.402 289.759C529.859 290.792 529.092 291.745 528.101 292.619C527.121 293.493 525.955 294.196 524.602 294.728C523.259 295.25 521.762 295.511 520.111 295.511ZM557.333 262.273L551.9 295H549.055L554.488 262.273H557.333ZM569.078 295.511C566.926 295.511 565.115 294.968 563.645 293.881C562.175 292.784 561.136 291.266 560.529 289.327C559.922 287.388 559.82 285.151 560.225 282.615C560.63 280.144 561.434 277.971 562.638 276.096C563.853 274.21 565.344 272.745 567.113 271.701C568.881 270.646 570.804 270.119 572.881 270.119C575.044 270.119 576.855 270.668 578.315 271.765C579.785 272.862 580.824 274.38 581.431 276.319C582.049 278.258 582.155 280.501 581.75 283.047C581.346 285.508 580.536 287.676 579.321 289.551C578.107 291.415 576.615 292.875 574.847 293.929C573.089 294.984 571.166 295.511 569.078 295.511ZM569.11 292.907C570.857 292.907 572.413 292.443 573.776 291.516C575.151 290.579 576.285 289.332 577.18 287.777C578.075 286.211 578.677 284.49 578.986 282.615C579.273 280.826 579.242 279.18 578.89 277.678C578.538 276.175 577.862 274.972 576.86 274.066C575.859 273.161 574.527 272.708 572.865 272.708C571.129 272.708 569.574 273.182 568.199 274.13C566.825 275.067 565.69 276.325 564.795 277.901C563.901 279.467 563.304 281.183 563.006 283.047C562.707 284.847 562.729 286.493 563.07 287.985C563.421 289.476 564.098 290.669 565.099 291.564C566.111 292.459 567.448 292.907 569.11 292.907ZM593.843 304.716C592.171 304.716 590.738 304.498 589.545 304.061C588.352 303.635 587.382 303.049 586.636 302.303C585.901 301.557 585.363 300.721 585.022 299.794L587.611 298.276C587.845 298.894 588.202 299.501 588.682 300.098C589.161 300.694 589.838 301.184 590.711 301.568C591.585 301.962 592.73 302.159 594.147 302.159C596.31 302.159 598.169 301.61 599.724 300.513C601.279 299.426 602.249 297.743 602.632 295.463L603.495 289.934H603.24C602.803 290.68 602.217 291.426 601.482 292.172C600.747 292.907 599.836 293.519 598.749 294.009C597.673 294.499 596.4 294.744 594.93 294.744C592.97 294.744 591.308 294.26 589.944 293.29C588.581 292.321 587.616 290.936 587.052 289.135C586.487 287.324 586.418 285.167 586.844 282.663C587.249 280.181 588.027 277.997 589.177 276.112C590.338 274.226 591.766 272.756 593.46 271.701C595.164 270.646 597.029 270.119 599.053 270.119C600.555 270.119 601.759 270.385 602.664 270.918C603.57 271.44 604.257 272.09 604.726 272.868C605.205 273.645 605.551 274.402 605.765 275.137H606.052L606.819 270.455H609.6L605.445 295.639C605.093 297.717 604.369 299.426 603.272 300.769C602.174 302.111 600.811 303.102 599.181 303.741C597.561 304.391 595.782 304.716 593.843 304.716ZM595.569 292.14C597.146 292.14 598.563 291.761 599.82 291.005C601.088 290.238 602.148 289.146 603 287.729C603.863 286.301 604.454 284.597 604.774 282.615C605.093 280.698 605.077 278.999 604.726 277.518C604.385 276.026 603.719 274.854 602.728 274.002C601.748 273.139 600.459 272.708 598.861 272.708C597.21 272.708 595.75 273.15 594.483 274.034C593.225 274.918 592.187 276.112 591.366 277.614C590.557 279.105 589.997 280.772 589.689 282.615C589.39 284.49 589.401 286.147 589.72 287.585C590.051 289.013 590.701 290.131 591.67 290.941C592.64 291.74 593.939 292.14 595.569 292.14ZM622.691 295.511C620.539 295.511 618.728 294.968 617.258 293.881C615.788 292.784 614.749 291.266 614.142 289.327C613.535 287.388 613.434 285.151 613.838 282.615C614.243 280.144 615.048 277.971 616.251 276.096C617.466 274.21 618.957 272.745 620.726 271.701C622.494 270.646 624.417 270.119 626.495 270.119C628.657 270.119 630.468 270.668 631.928 271.765C633.398 272.862 634.437 274.38 635.044 276.319C635.662 278.258 635.769 280.501 635.364 283.047C634.959 285.508 634.149 287.676 632.935 289.551C631.72 291.415 630.229 292.875 628.46 293.929C626.702 294.984 624.78 295.511 622.691 295.511ZM622.723 292.907C624.471 292.907 626.026 292.443 627.39 291.516C628.764 290.579 629.898 289.332 630.793 287.777C631.688 286.211 632.29 284.49 632.599 282.615C632.887 280.826 632.855 279.18 632.503 277.678C632.152 276.175 631.475 274.972 630.474 274.066C629.472 273.161 628.141 272.708 626.479 272.708C624.742 272.708 623.187 273.182 621.813 274.13C620.438 275.067 619.304 276.325 618.409 277.901C617.514 279.467 616.917 281.183 616.619 283.047C616.321 284.847 616.342 286.493 616.683 287.985C617.034 289.476 617.711 290.669 618.712 291.564C619.724 292.459 621.061 292.907 622.723 292.907ZM653.385 270.455L652.986 272.931H641.256L641.672 270.455H653.385ZM646.29 264.574H649.151L645.155 288.592C644.985 289.615 645.028 290.419 645.283 291.005C645.539 291.58 645.933 291.99 646.466 292.235C646.999 292.47 647.584 292.587 648.224 292.587C648.597 292.587 648.916 292.566 649.182 292.523C649.459 292.47 649.705 292.417 649.918 292.363L650.125 294.936C649.816 295.043 649.449 295.138 649.023 295.224C648.597 295.32 648.085 295.368 647.489 295.368C646.445 295.368 645.48 295.138 644.596 294.68C643.712 294.222 643.041 293.54 642.583 292.635C642.125 291.729 642.002 290.605 642.215 289.263L646.29 264.574ZM655.786 295L659.877 270.455H662.738L658.647 295H655.786ZM662.338 266.188C661.742 266.188 661.235 265.985 660.82 265.581C660.415 265.176 660.218 264.686 660.229 264.11C660.25 263.567 660.468 263.098 660.884 262.704C661.31 262.299 661.811 262.097 662.386 262.097C662.983 262.097 663.489 262.305 663.904 262.72C664.32 263.125 664.517 263.615 664.495 264.19C664.485 264.734 664.266 265.202 663.84 265.597C663.414 265.991 662.913 266.188 662.338 266.188ZM664.635 304.205L670.292 270.455H673.057L672.29 275.137H672.625C673.073 274.402 673.653 273.645 674.367 272.868C675.092 272.09 675.992 271.44 677.068 270.918C678.154 270.385 679.454 270.119 680.967 270.119C682.991 270.119 684.669 270.646 686.001 271.701C687.343 272.756 688.28 274.237 688.813 276.143C689.356 278.05 689.415 280.266 688.989 282.791C688.573 285.327 687.78 287.548 686.608 289.455C685.436 291.362 684.003 292.848 682.309 293.913C680.626 294.979 678.783 295.511 676.78 295.511C675.299 295.511 674.101 295.245 673.185 294.712C672.279 294.18 671.587 293.525 671.107 292.747C670.628 291.958 670.282 291.191 670.068 290.446H669.813L667.512 304.205H664.635ZM671.059 282.743C670.74 284.725 670.74 286.483 671.059 288.017C671.379 289.54 672.023 290.739 672.993 291.612C673.962 292.475 675.241 292.907 676.828 292.907C678.458 292.907 679.912 292.459 681.191 291.564C682.469 290.659 683.534 289.439 684.387 287.905C685.239 286.371 685.825 284.65 686.144 282.743C686.443 280.858 686.432 279.158 686.113 277.646C685.793 276.133 685.154 274.934 684.195 274.05C683.236 273.155 681.931 272.708 680.28 272.708C678.682 272.708 677.244 273.139 675.965 274.002C674.697 274.854 673.643 276.037 672.801 277.55C671.959 279.052 671.379 280.783 671.059 282.743ZM702.848 295.511C700.696 295.511 698.885 294.968 697.414 293.881C695.944 292.784 694.906 291.266 694.298 289.327C693.691 287.388 693.59 285.151 693.995 282.615C694.4 280.144 695.204 277.971 696.408 276.096C697.622 274.21 699.114 272.745 700.882 271.701C702.651 270.646 704.574 270.119 706.651 270.119C708.814 270.119 710.625 270.668 712.084 271.765C713.554 272.862 714.593 274.38 715.2 276.319C715.818 278.258 715.925 280.501 715.52 283.047C715.115 285.508 714.305 287.676 713.091 289.551C711.876 291.415 710.385 292.875 708.617 293.929C706.859 294.984 704.936 295.511 702.848 295.511ZM702.88 292.907C704.627 292.907 706.182 292.443 707.546 291.516C708.92 290.579 710.055 289.332 710.95 287.777C711.845 286.211 712.446 284.49 712.755 282.615C713.043 280.826 713.011 279.18 712.659 277.678C712.308 276.175 711.631 274.972 710.63 274.066C709.629 273.161 708.297 272.708 706.635 272.708C704.898 272.708 703.343 273.182 701.969 274.13C700.595 275.067 699.46 276.325 698.565 277.901C697.67 279.467 697.074 281.183 696.775 283.047C696.477 284.847 696.498 286.493 696.839 287.985C697.191 289.476 697.867 290.669 698.869 291.564C699.881 292.459 701.218 292.907 702.88 292.907ZM739.47 275.84L736.738 276.543C736.599 275.808 736.343 275.147 735.97 274.561C735.608 273.965 735.081 273.496 734.388 273.155C733.707 272.804 732.812 272.628 731.704 272.628C730.042 272.628 728.609 273.033 727.405 273.842C726.201 274.641 725.498 275.664 725.296 276.911C725.125 277.955 725.344 278.801 725.951 279.451C726.569 280.101 727.602 280.613 729.051 280.985L732.631 281.896C734.612 282.408 736.024 283.207 736.865 284.293C737.718 285.38 738.011 286.754 737.744 288.416C737.51 289.801 736.919 291.026 735.97 292.092C735.033 293.157 733.829 293.993 732.359 294.6C730.899 295.208 729.269 295.511 727.469 295.511C725.051 295.511 723.149 294.968 721.764 293.881C720.39 292.795 719.655 291.229 719.559 289.183L722.419 288.544C722.505 289.993 723 291.09 723.905 291.836C724.822 292.582 726.111 292.955 727.773 292.955C729.669 292.955 731.262 292.523 732.551 291.66C733.84 290.797 734.58 289.732 734.772 288.464C734.953 287.463 734.767 286.632 734.213 285.971C733.669 285.311 732.742 284.821 731.432 284.501L727.613 283.542C725.557 283.02 724.103 282.205 723.25 281.097C722.409 279.979 722.126 278.599 722.403 276.958C722.627 275.605 723.192 274.418 724.097 273.395C725.003 272.372 726.148 271.573 727.533 270.998C728.918 270.412 730.431 270.119 732.071 270.119C734.33 270.119 736.05 270.63 737.233 271.653C738.415 272.665 739.161 274.061 739.47 275.84ZM765.37 295.511C763.079 295.511 761.188 294.979 759.697 293.913C758.205 292.837 757.161 291.351 756.565 289.455C755.968 287.548 755.878 285.353 756.293 282.871C756.709 280.4 757.529 278.205 758.754 276.287C759.979 274.359 761.492 272.852 763.292 271.765C765.093 270.668 767.048 270.119 769.157 270.119C770.489 270.119 771.735 270.364 772.897 270.854C774.058 271.333 775.043 272.074 775.853 273.075C776.673 274.066 777.243 275.318 777.563 276.831C777.882 278.333 777.872 280.112 777.531 282.168L777.307 283.574H758.131L758.53 281.065H774.814C775.08 279.489 775.006 278.072 774.59 276.815C774.175 275.558 773.466 274.561 772.465 273.826C771.474 273.081 770.244 272.708 768.774 272.708C767.272 272.708 765.849 273.129 764.507 273.97C763.175 274.812 762.046 275.909 761.119 277.262C760.203 278.604 759.612 280.037 759.345 281.561L759.026 283.446C758.685 285.524 758.727 287.266 759.154 288.672C759.58 290.067 760.352 291.122 761.471 291.836C762.589 292.55 764.022 292.907 765.769 292.907C766.941 292.907 768.001 292.725 768.949 292.363C769.898 292.001 770.723 291.516 771.426 290.909C772.129 290.291 772.694 289.615 773.12 288.88L775.661 289.759C775.118 290.792 774.351 291.745 773.36 292.619C772.38 293.493 771.213 294.196 769.86 294.728C768.518 295.25 767.021 295.511 765.37 295.511ZM808.073 270.455L807.673 272.931H795.944L796.359 270.455H808.073ZM800.978 264.574H803.838L799.843 288.592C799.673 289.615 799.715 290.419 799.971 291.005C800.227 291.58 800.621 291.99 801.153 292.235C801.686 292.47 802.272 292.587 802.911 292.587C803.284 292.587 803.604 292.566 803.87 292.523C804.147 292.47 804.392 292.417 804.605 292.363L804.813 294.936C804.504 295.043 804.136 295.138 803.71 295.224C803.284 295.32 802.773 295.368 802.176 295.368C801.132 295.368 800.168 295.138 799.284 294.68C798.399 294.222 797.728 293.54 797.27 292.635C796.812 291.729 796.69 290.605 796.903 289.263L800.978 264.574ZM820.038 295.511C817.747 295.511 815.856 294.979 814.365 293.913C812.873 292.837 811.829 291.351 811.233 289.455C810.636 287.548 810.546 285.353 810.961 282.871C811.377 280.4 812.197 278.205 813.422 276.287C814.647 274.359 816.16 272.852 817.96 271.765C819.761 270.668 821.716 270.119 823.825 270.119C825.157 270.119 826.403 270.364 827.564 270.854C828.726 271.333 829.711 272.074 830.521 273.075C831.341 274.066 831.911 275.318 832.231 276.831C832.55 278.333 832.54 280.112 832.199 282.168L831.975 283.574H812.799L813.198 281.065H829.482C829.748 279.489 829.674 278.072 829.258 276.815C828.843 275.558 828.134 274.561 827.133 273.826C826.142 273.081 824.912 272.708 823.442 272.708C821.939 272.708 820.517 273.129 819.175 273.97C817.843 274.812 816.714 275.909 815.787 277.262C814.871 278.604 814.28 280.037 814.013 281.561L813.694 283.446C813.353 285.524 813.395 287.266 813.822 288.672C814.248 290.067 815.02 291.122 816.139 291.836C817.257 292.55 818.69 292.907 820.437 292.907C821.609 292.907 822.669 292.725 823.617 292.363C824.566 292.001 825.391 291.516 826.094 290.909C826.797 290.291 827.362 289.615 827.788 288.88L830.329 289.759C829.786 290.792 829.019 291.745 828.028 292.619C827.048 293.493 825.881 294.196 824.528 294.728C823.186 295.25 821.689 295.511 820.038 295.511ZM836.326 295L840.417 270.455H843.181L842.542 274.226H842.798C843.511 272.958 844.502 271.962 845.77 271.238C847.038 270.502 848.476 270.135 850.084 270.135C851.768 270.135 853.089 270.534 854.048 271.333C855.006 272.122 855.646 273.208 855.965 274.593H856.173C856.94 273.23 858.021 272.148 859.417 271.349C860.812 270.54 862.405 270.135 864.195 270.135C866.464 270.135 868.142 270.854 869.229 272.292C870.315 273.73 870.63 275.819 870.171 278.556L867.423 295H864.578L867.327 278.556C867.636 276.618 867.386 275.163 866.576 274.194C865.766 273.224 864.552 272.74 862.932 272.74C861.057 272.74 859.507 273.315 858.282 274.466C857.068 275.605 856.317 277.065 856.029 278.844L853.328 295H850.42L853.217 278.301C853.483 276.639 853.243 275.297 852.497 274.274C851.762 273.251 850.553 272.74 848.87 272.74C847.73 272.74 846.659 273.022 845.658 273.587C844.667 274.141 843.826 274.913 843.133 275.904C842.451 276.884 842.004 278.008 841.791 279.276L839.17 295H836.326ZM873.419 304.205L879.076 270.455H881.841L881.074 275.137H881.409C881.857 274.402 882.438 273.645 883.151 272.868C883.876 272.09 884.776 271.44 885.852 270.918C886.939 270.385 888.238 270.119 889.751 270.119C891.775 270.119 893.453 270.646 894.785 271.701C896.127 272.756 897.065 274.237 897.597 276.143C898.141 278.05 898.199 280.266 897.773 282.791C897.358 285.327 896.564 287.548 895.392 289.455C894.22 291.362 892.787 292.848 891.093 293.913C889.41 294.979 887.567 295.511 885.564 295.511C884.083 295.511 882.885 295.245 881.969 294.712C881.063 294.18 880.371 293.525 879.891 292.747C879.412 291.958 879.066 291.191 878.853 290.446H878.597L876.296 304.205H873.419ZM879.843 282.743C879.524 284.725 879.524 286.483 879.843 288.017C880.163 289.54 880.808 290.739 881.777 291.612C882.746 292.475 884.025 292.907 885.612 292.907C887.242 292.907 888.696 292.459 889.975 291.564C891.253 290.659 892.319 289.439 893.171 287.905C894.023 286.371 894.609 284.65 894.929 282.743C895.227 280.858 895.216 279.158 894.897 277.646C894.577 276.133 893.938 274.934 892.979 274.05C892.02 273.155 890.715 272.708 889.064 272.708C887.466 272.708 886.028 273.139 884.749 274.002C883.482 274.854 882.427 276.037 881.585 277.55C880.744 279.052 880.163 280.783 879.843 282.743ZM910.258 262.273L904.824 295H901.98L907.413 262.273H910.258ZM919.143 295.559C917.662 295.559 916.357 295.272 915.227 294.696C914.098 294.11 913.257 293.269 912.703 292.172C912.159 291.064 912.01 289.721 912.255 288.145C912.468 286.93 912.873 285.907 913.47 285.076C914.077 284.245 914.844 283.564 915.771 283.031C916.698 282.488 917.763 282.061 918.967 281.752C920.171 281.444 921.481 281.209 922.898 281.049C924.283 280.879 925.465 280.73 926.445 280.602C927.426 280.474 928.187 280.272 928.731 279.995C929.274 279.718 929.599 279.27 929.705 278.652L929.801 278.077C930.078 276.404 929.823 275.089 929.034 274.13C928.246 273.161 926.925 272.676 925.071 272.676C923.303 272.676 921.769 273.07 920.469 273.858C919.18 274.636 918.221 275.547 917.592 276.591L915.068 275.616C915.835 274.274 916.777 273.203 917.896 272.404C919.015 271.594 920.213 271.014 921.492 270.662C922.77 270.3 924.032 270.119 925.279 270.119C926.216 270.119 927.17 270.241 928.139 270.487C929.109 270.732 929.977 271.158 930.744 271.765C931.522 272.362 932.092 273.198 932.454 274.274C932.827 275.339 932.88 276.692 932.614 278.333L929.833 295H926.989L927.644 291.117H927.468C927.021 291.841 926.403 292.544 925.614 293.226C924.837 293.908 923.905 294.467 922.818 294.904C921.731 295.341 920.506 295.559 919.143 295.559ZM919.862 292.955C921.374 292.955 922.743 292.619 923.969 291.948C925.204 291.277 926.216 290.387 927.005 289.279C927.804 288.161 928.315 286.93 928.539 285.588L929.13 282.04C928.896 282.243 928.512 282.424 927.98 282.583C927.458 282.743 926.866 282.887 926.206 283.015C925.556 283.132 924.901 283.233 924.24 283.319C923.59 283.404 923.015 283.478 922.514 283.542C921.097 283.713 919.862 283.979 918.807 284.341C917.763 284.703 916.927 285.204 916.298 285.843C915.67 286.472 915.275 287.282 915.116 288.272C914.871 289.764 915.195 290.92 916.09 291.74C916.996 292.55 918.253 292.955 919.862 292.955ZM951.159 270.455L950.759 272.931H939.03L939.445 270.455H951.159ZM944.064 264.574H946.924L942.929 288.592C942.758 289.615 942.801 290.419 943.057 291.005C943.312 291.58 943.707 291.99 944.239 292.235C944.772 292.47 945.358 292.587 945.997 292.587C946.37 292.587 946.69 292.566 946.956 292.523C947.233 292.47 947.478 292.417 947.691 292.363L947.899 294.936C947.59 295.043 947.222 295.138 946.796 295.224C946.37 295.32 945.859 295.368 945.262 295.368C944.218 295.368 943.254 295.138 942.37 294.68C941.485 294.222 940.814 293.54 940.356 292.635C939.898 291.729 939.776 290.605 939.989 289.263L944.064 264.574ZM963.124 295.511C960.833 295.511 958.942 294.979 957.451 293.913C955.959 292.837 954.915 291.351 954.319 289.455C953.722 287.548 953.632 285.353 954.047 282.871C954.463 280.4 955.283 278.205 956.508 276.287C957.733 274.359 959.246 272.852 961.046 271.765C962.847 270.668 964.802 270.119 966.911 270.119C968.243 270.119 969.489 270.364 970.65 270.854C971.812 271.333 972.797 272.074 973.607 273.075C974.427 274.066 974.997 275.318 975.317 276.831C975.636 278.333 975.626 280.112 975.285 282.168L975.061 283.574H955.885L956.284 281.065H972.568C972.834 279.489 972.76 278.072 972.344 276.815C971.929 275.558 971.22 274.561 970.219 273.826C969.228 273.081 967.998 272.708 966.528 272.708C965.025 272.708 963.603 273.129 962.261 273.97C960.929 274.812 959.8 275.909 958.873 277.262C957.957 278.604 957.366 280.037 957.099 281.561L956.78 283.446C956.439 285.524 956.481 287.266 956.908 288.672C957.334 290.067 958.106 291.122 959.225 291.836C960.343 292.55 961.776 292.907 963.523 292.907C964.695 292.907 965.755 292.725 966.703 292.363C967.652 292.001 968.477 291.516 969.18 290.909C969.883 290.291 970.448 289.615 970.874 288.88L973.415 289.759C972.872 290.792 972.105 291.745 971.114 292.619C970.134 293.493 968.967 294.196 967.614 294.728C966.272 295.25 964.775 295.511 963.124 295.511ZM999.099 275.84L996.366 276.543C996.228 275.808 995.972 275.147 995.599 274.561C995.237 273.965 994.71 273.496 994.017 273.155C993.336 272.804 992.441 272.628 991.333 272.628C989.671 272.628 988.238 273.033 987.034 273.842C985.83 274.641 985.127 275.664 984.925 276.911C984.754 277.955 984.973 278.801 985.58 279.451C986.198 280.101 987.231 280.613 988.68 280.985L992.26 281.896C994.241 282.408 995.653 283.207 996.494 284.293C997.347 285.38 997.64 286.754 997.373 288.416C997.139 289.801 996.548 291.026 995.599 292.092C994.662 293.157 993.458 293.993 991.988 294.6C990.528 295.208 988.898 295.511 987.098 295.511C984.68 295.511 982.778 294.968 981.393 293.881C980.019 292.795 979.284 291.229 979.188 289.183L982.048 288.544C982.133 289.993 982.629 291.09 983.534 291.836C984.451 292.582 985.74 292.955 987.402 292.955C989.298 292.955 990.891 292.523 992.18 291.66C993.469 290.797 994.209 289.732 994.401 288.464C994.582 287.463 994.396 286.632 993.842 285.971C993.298 285.311 992.371 284.821 991.061 284.501L987.242 283.542C985.186 283.02 983.731 282.205 982.879 281.097C982.038 279.979 981.755 278.599 982.032 276.958C982.256 275.605 982.821 274.418 983.726 273.395C984.632 272.372 985.777 271.573 987.162 270.998C988.547 270.412 990.06 270.119 991.7 270.119C993.959 270.119 995.679 270.63 996.862 271.653C998.044 272.665 998.79 274.061 999.099 275.84ZM1005.07 295.24C1004.43 295.24 1003.89 295.016 1003.46 294.569C1003.03 294.121 1002.82 293.578 1002.82 292.939C1002.82 292.299 1003.05 291.761 1003.52 291.325C1003.99 290.888 1004.54 290.669 1005.17 290.669C1005.8 290.669 1006.33 290.893 1006.78 291.341C1007.23 291.788 1007.44 292.321 1007.42 292.939C1007.41 293.365 1007.29 293.754 1007.07 294.105C1006.86 294.446 1006.57 294.723 1006.22 294.936C1005.88 295.138 1005.5 295.24 1005.07 295.24Z" fill="white"/>
<line x1="421" y1="155.5" x2="801" y2="155.5" stroke="white" stroke-width="3"/>
</svg>
